# WaveFront *.obj file (generated by Cinema 4D)

mtllib ./boxe_support_platform.mtl

v -7 -9.89999961853027 7
v -7 0.09966783970594 7
v 7 -9.89999961853027 7
v 7 0.09966783970594 7
v 7 -9.89999961853027 -7
v 7 0.09966783970594 -7
v -7 -9.89999961853027 -7
v -7 0.09966783970594 -7
v 4.97014808654785 0.09966783970594 1.1932270526886
v 5.04844617843628 0.09966783970594 0.79959535598755
v 5.09561920166016 0.09966783970594 0.40103393793106
v 4.7222957611084 0.09966783970594 -1.95603883266449
v 3.6142885684967 0.09966783970594 -3.6142885684967
v 5.09561920166016 0.09966783970594 -0.40103393793106
v 5.04844617843628 0.09966783970594 -0.79959535598755
v 4.97014808654785 0.09966783970594 -1.1932270526886
v 4.86120748519897 0.09966783970594 1.5795019865036
v 4.7222957611084 0.09966783970594 1.95603883266449
v 3.88672065734863 0.09966783970594 3.31957316398621
v 3.6142885684967 0.09966783970594 3.6142885684967
v 4.86120748519897 0.09966783970594 -1.5795019865036
v 3.00439143180847 0.09966783970594 4.1351900100708
v 3.88672065734863 0.09966783970594 -3.31957316398621
v 1.95603883266449 0.09966783970594 4.7222957611084
v 3.00439143180847 0.09966783970594 -4.1351900100708
v 1.1932270526886 0.09966783970594 4.97014808654785
v 5.11137580871582 0.09966783970594 0
v 2.32051610946655 0.09966783970594 -4.55426931381226
v 0.40103393793106 0.09966783970594 5.09561920166016
v 0 0.09966783970594 5.11137580871582
v -0.40103393793106 0.09966783970594 5.09561920166016
v 1.1932270526886 0.09966783970594 -4.97014808654785
v 0.79959535598755 0.09966783970594 -5.04844617843628
v 0.40103393793106 0.09966783970594 -5.09561920166016
v -0.79959535598755 0.09966783970594 5.04844617843628
v -1.1932270526886 0.09966783970594 4.97014808654785
v -0.79959535598755 0.09966783970594 -5.04844617843628
v -1.1932270526886 0.09966783970594 -4.97014808654785
v -1.5795019865036 0.09966783970594 -4.86120748519897
v -1.95603883266449 0.09966783970594 -4.7222957611084
v -2.32051610946655 0.09966783970594 -4.55426931381226
v -1.5795019865036 0.09966783970594 4.86120748519897
v -3.00439143180847 0.09966783970594 -4.1351900100708
v -3.31957316398621 0.09966783970594 -3.88672065734863
v 0 0.09966783970594 -5.11137580871582
v -4.1351900100708 0.09966783970594 -3.00439143180847
v -4.35816431045532 0.09966783970594 -2.67068648338318
v -4.55426931381226 0.09966783970594 -2.32051610946655
v -2.32051610946655 0.09966783970594 4.55426931381226
v -4.7222957611084 0.09966783970594 -1.95603883266449
v -4.86120748519897 0.09966783970594 -1.5795019865036
v -2.67068648338318 0.09966783970594 4.35816431045532
v -4.97014808654785 0.09966783970594 -1.1932270526886
v -5.04844617843628 0.09966783970594 -0.79959535598755
v -5.09561920166016 0.09966783970594 -0.40103393793106
v -3.6142885684967 0.09966783970594 3.6142885684967
v -4.1351900100708 0.09966783970594 3.00439143180847
v -4.35816431045532 0.09966783970594 2.67068648338318
v -4.55426931381226 0.09966783970594 2.32051610946655
v -4.7222957611084 0.09966783970594 1.95603883266449
v -4.86120748519897 0.09966783970594 1.5795019865036
v -4.97014808654785 0.09966783970594 1.1932270526886
v -5.04844617843628 0.09966783970594 0.79959535598755
v -5.09561920166016 0.09966783970594 0.40103393793106
v -3.88672065734863 0.09966783970594 3.31957316398621
v -5.11137580871582 0.09966783970594 0
v -3.31957316398621 0.09966783970594 3.88672065734863
v -3.00439143180847 0.09966783970594 4.1351900100708
v -1.95603883266449 0.09966783970594 4.7222957611084
v -3.88672065734863 0.09966783970594 -3.31957316398621
v -3.6142885684967 0.09966783970594 -3.6142885684967
v -2.67068648338318 0.09966783970594 -4.35816431045532
v -0.40103393793106 0.09966783970594 -5.09561920166016
v 1.5795019865036 0.09966783970594 -4.86120748519897
v 0.79959535598755 0.09966783970594 5.04844617843628
v 1.95603883266449 0.09966783970594 -4.7222957611084
v 1.5795019865036 0.09966783970594 4.86120748519897
v 2.67068648338318 0.09966783970594 -4.35816431045532
v 2.32051610946655 0.09966783970594 4.55426931381226
v 3.31957316398621 0.09966783970594 -3.88672065734863
v 2.67068648338318 0.09966783970594 4.35816431045532
v 4.1351900100708 0.09966783970594 -3.00439143180847
v 3.31957316398621 0.09966783970594 3.88672065734863
v 4.35816431045532 0.09966783970594 -2.67068648338318
v 4.1351900100708 0.09966783970594 3.00439143180847
v 4.35816431045532 0.09966783970594 2.67068648338318
v 4.55426931381226 0.09966783970594 2.32051610946655
v 4.55426931381226 0.09966783970594 -2.32051610946655
v -2.92755270004272 0.09966783970594 1.79400658607483
v -2.77777194976807 0.09966783970594 2.01816940307617
v -2.61086511611938 0.09966783970594 2.22988963127136
v -2.42786169052124 0.09966783970594 2.42786169052124
v -2.22988963127136 0.09966783970594 2.61086511611938
v -2.01816940307617 0.09966783970594 2.77777194976807
v -1.79400658607483 0.09966783970594 2.92755270004272
v -1.5587831735611 0.09966783970594 3.05928421020508
v -1.31394922733307 0.09966783970594 3.17215418815613
v -1.06101441383362 0.09966783970594 3.26546669006348
v -0.80153810977936 0.09966783970594 3.33864665031433
v -0.53712004423141 0.09966783970594 3.39124250411987
v -0.26939046382904 0.09966783970594 3.42293047904968
v 0 0.09966783970594 3.43351483345032
v 0.26939046382904 0.09966783970594 3.42293047904968
v 0.53712004423141 0.09966783970594 3.39124250411987
v 0.80153810977936 0.09966783970594 3.33864665031433
v 1.06101441383362 0.09966783970594 3.26546669006348
v 1.31394922733307 0.09966783970594 3.17215418815613
v 1.5587831735611 0.09966783970594 3.05928421020508
v 1.79400658607483 0.09966783970594 2.92755270004272
v 2.01816940307617 0.09966783970594 2.77777194976807
v 2.22988963127136 0.09966783970594 2.61086511611938
v 2.42786169052124 0.09966783970594 2.42786169052124
v 2.61086511611938 0.09966783970594 2.22988963127136
v 2.77777194976807 0.09966783970594 2.01816940307617
v 2.92755270004272 0.09966783970594 1.79400658607483
v 3.05928421020508 0.09966783970594 1.5587831735611
v 3.17215418815613 0.09966783970594 1.31394922733307
v 3.26546669006348 0.09966783970594 1.06101441383362
v 3.33864665031433 0.09966783970594 0.80153810977936
v 3.39124250411987 0.09966783970594 0.53712004423141
v 3.42293047904968 0.09966783970594 0.26939046382904
v 3.43351483345032 0.09966783970594 0
v 3.42293047904968 0.09966783970594 -0.26939046382904
v 3.39124250411987 0.09966783970594 -0.53712004423141
v 3.33864665031433 0.09966783970594 -0.80153810977936
v 3.26546669006348 0.09966783970594 -1.06101441383362
v 3.17215418815613 0.09966783970594 -1.31394922733307
v 3.05928421020508 0.09966783970594 -1.5587831735611
v 2.92755270004272 0.09966783970594 -1.79400658607483
v 2.77777194976807 0.09966783970594 -2.01816940307617
v 2.61086511611938 0.09966783970594 -2.22988963127136
v 2.42786169052124 0.09966783970594 -2.42786169052124
v 2.22988963127136 0.09966783970594 -2.61086511611938
v 2.01816940307617 0.09966783970594 -2.77777194976807
v 1.79400658607483 0.09966783970594 -2.92755270004272
v 1.5587831735611 0.09966783970594 -3.05928421020508
v 1.31394922733307 0.09966783970594 -3.17215418815613
v 1.06101441383362 0.09966783970594 -3.26546669006348
v 0.80153810977936 0.09966783970594 -3.33864665031433
v 0.53712004423141 0.09966783970594 -3.39124250411987
v 0.26939046382904 0.09966783970594 -3.42293047904968
v 0 0.09966783970594 -3.43351483345032
v -0.26939046382904 0.09966783970594 -3.42293047904968
v -0.53712004423141 0.09966783970594 -3.39124250411987
v -0.80153810977936 0.09966783970594 -3.33864665031433
v -1.06101441383362 0.09966783970594 -3.26546669006348
v -1.31394922733307 0.09966783970594 -3.17215418815613
v -1.5587831735611 0.09966783970594 -3.05928421020508
v -1.79400658607483 0.09966783970594 -2.92755270004272
v -2.01816940307617 0.09966783970594 -2.77777194976807
v -2.22988963127136 0.09966783970594 -2.61086511611938
v -2.42786169052124 0.09966783970594 -2.42786169052124
v -2.61086511611938 0.09966783970594 -2.22988963127136
v -2.77777194976807 0.09966783970594 -2.01816940307617
v -2.92755270004272 0.09966783970594 -1.79400658607483
v -3.05928421020508 0.09966783970594 -1.5587831735611
v -3.17215418815613 0.09966783970594 -1.31394922733307
v -3.26546669006348 0.09966783970594 -1.06101441383362
v -3.33864665031433 0.09966783970594 -0.80153810977936
v -3.39124250411987 0.09966783970594 -0.53712004423141
v -3.42293047904968 0.09966783970594 -0.26939046382904
v -3.43351483345032 0.09966783970594 0
v -3.42293047904968 0.09966783970594 0.26939046382904
v -3.39124250411987 0.09966783970594 0.53712004423141
v -3.33864665031433 0.09966783970594 0.80153810977936
v -3.26546669006348 0.09966783970594 1.06101441383362
v -3.17215418815613 0.09966783970594 1.31394922733307
v -3.05928421020508 0.09966783970594 1.5587831735611
v 0 0.09966783970594 0
# 169 vertices

vn 0 1 0
vn 0 1 0
vn 0 1 0
vn 0 0 1
vn 1 0 0
vn 0 0 -1
vn 0 0 -1
vn -1 0 0
vn 0 -1 0
vn 0 1 0
vn 0 1 0
vn 0 1 0
vn 0 1 0
vn 0 1 0
# 14 normals

vt 0.85046327114105 0.58440619707108 0
vt 0.70611900091171 0.62212872505188 0
vt 0.99446201324463 0.62342554330826 0
vt 0 1 0
vt 0.21435332298279 0.04318189620972 0
vt 0.0083813527599 0.04226279258728 0
vt 0.00709485728294 0.33063280582428 0
vt 0.21306648850441 0.33155202865601 0
vt 0.00580788403749 0.61900216341019 0
vt 0.21177923679352 0.61992132663727 0
vt 0.00452091172338 0.9073714017868 0
vt 0.50014823675156 0.62120884656906 0
vt 0.70740747451782 0.33376014232636 0
vt 0.50143605470657 0.33283984661102 0
vt 0.85163199901581 0.47983253002167 0
vt 0.93563055992126 0.50391900539398 0
vt 0.93726146221161 0.49725437164307 0
vt 0.77211666107178 0.51607024669647 0
vt 0.76951849460602 0.50971972942352 0
vt 0.84781992435455 0.56713318824768 0
vt 0.85468101501465 0.56716322898865 0
vt 0.86152362823486 0.56665444374084 0
vt 0.76742672920227 0.5031852722168 0
vt 0.7752046585083 0.5221973657608 0
vt 0.7658543586731 0.49650657176971 0
vt 0.76481068134308 0.48972523212433 0
vt 0.86830496788025 0.56561076641083 0
vt 0.76433193683624 0.47602152824402 0
vt 0.76490008831024 0.46918380260468 0
vt 0.76600289344788 0.46241188049316 0
vt 0.79783296585083 0.41097354888916 0
vt 0.79259634017944 0.41540706157684 0
vt 0.76763379573822 0.45574712753296 0
vt 0.7697821855545 0.44923067092896 0
vt 0.89986181259155 0.55270087718964 0
vt 0.90543019771576 0.54869210720062 0
vt 0.93114864826202 0.44359469413757 0
vt 0.92806041240692 0.43746757507324 0
vt 0.77243554592133 0.44290351867676 0
vt 0.77557730674744 0.43680346012115 0
vt 0.77918756008148 0.43096899986267 0
vt 0.92450094223022 0.43160152435303 0
vt 0.78324484825134 0.4254355430603 0
vt 0.77876389026642 0.52806317806244 0
vt 0.80340147018433 0.40696477890015 0
vt 0.76430201530457 0.48288297653198 0
vt 0.80926716327667 0.40340530872345 0
vt 0.85544335842133 0.39253151416779 0
vt 0.84858191013336 0.3925017118454 0
vt 0.82174479961395 0.39771890640259 0
vt 0.82827913761139 0.39562678337097 0
vt 0.84173953533173 0.39301013946533 0
vt 0.86228120326996 0.39309930801392 0
vt 0.92049205303192 0.42603290081024 0
vt 0.81539416313171 0.40031695365906 0
vt 0.93845438957214 0.46994054317474 0
vt 0.93741071224213 0.46315896511078 0
vt 0.88223445415497 0.39798176288605 0
vt 0.88856220245361 0.40063500404358 0
vt 0.87571811676025 0.3958328962326 0
vt 0.89466214179993 0.40377640724182 0
vt 0.90049695968628 0.40738677978516 0
vt 0.90603041648865 0.41144418716431 0
vt 0.78720605373383 0.53886830806732 0
vt 0.79203641414642 0.54374122619629 0
vt 0.9112286567688 0.41592276096344 0
vt 0.93583822250366 0.45648002624512 0
vt 0.9160590171814 0.42079591751099 0
vt 0.93374669551849 0.44994521141052 0
vt 0.86905324459076 0.39420235157013 0
vt 0.93896269798279 0.47678315639496 0
vt 0.9276864528656 0.52286267280579 0
vt 0.93082821369171 0.51676273345947 0
vt 0.93836450576782 0.49048209190369 0
vt 0.93348169326782 0.51043522357941 0
vt 0.92407608032227 0.52869713306427 0
vt 0.8275454044342 0.5638313293457 0
vt 0.83420991897583 0.56546211242676 0
vt 0.92001867294312 0.53423023223877 0
vt 0.9389328956604 0.48364448547363 0
vt 0.91066694259644 0.54425871372223 0
vt 0.87498342990875 0.56403839588165 0
vt 0.88151848316193 0.56194663047791 0
vt 0.89399588108063 0.55626034736633 0
vt 0.8878687620163 0.55934846401215 0
vt 0.78772354125977 0.42023766040802 0
vt 0.78277277946472 0.53363168239594 0
vt 0.81470167636871 0.55902922153473 0
vt 0.82102930545807 0.56168258190155 0
vt 0.84098219871521 0.56656503677368 0
vt 0.91553997993469 0.53942835330963 0
vt 0.80860185623169 0.55588757991791 0
vt 0.80276727676392 0.55227732658386 0
vt 0.83495795726776 0.39405417442322 0
vt 0.79723429679871 0.54821991920471 0
vt 0.21049222350121 0.90829068422318 0
vt 0.95675420761108 0.47907435894012 0
vt 0.95638799667358 0.48737478256226 0
vt 0.99578857421875 0.33507442474365 0
vt 0.85142385959625 0.37279152870178 0
vt 0.74513602256775 0.47811686992645 0
vt 0.74549853801727 0.46981811523438 0
vt 0.77017831802368 0.54695111513138 0
vt 0.76506400108337 0.54040348529816 0
vt 0.77579021453857 0.5530771613121 0
vt 0.78186559677124 0.55874389410019 0
vt 0.78836667537689 0.56391650438309 0
vt 0.79525375366211 0.56856334209442 0
vt 0.80248391628265 0.57265543937683 0
vt 0.8100129365921 0.57616758346558 0
vt 0.81779396533966 0.57907831668854 0
vt 0.82577955722809 0.58136963844299 0
vt 0.83391976356506 0.58302742242813 0
vt 0.84216475486755 0.58404165506363 0
vt 0.86701965332031 0.58317559957504 0
vt 0.85876548290253 0.58411580324173 0
vt 0.87517488002777 0.58159106969833 0
vt 0.88318073749542 0.57937169075012 0
vt 0.8909877538681 0.57653111219406 0
vt 0.8985481262207 0.57308691740036 0
vt 0.90581500530243 0.56906020641327 0
vt 0.91274356842041 0.5644758939743 0
vt 0.91929113864899 0.55936199426651 0
vt 0.92541742324829 0.55375021696091 0
vt 0.93108451366425 0.54767513275146 0
vt 0.93625748157501 0.5411741733551 0
vt 0.94090461730957 0.53428745269775 0
vt 0.94499742984772 0.5270574092865 0
vt 0.94851005077362 0.51952856779099 0
vt 0.95142161846161 0.5117472410202 0
vt 0.95371377468109 0.50376158952713 0
vt 0.95537269115448 0.49562084674835 0
vt 0.95646727085114 0.47077322006226 0
vt 0.95552945137024 0.46251964569092 0
vt 0.95394659042358 0.45436453819275 0
vt 0.95172834396362 0.44635879993439 0
vt 0.94888865947723 0.43855166435242 0
vt 0.94544506072998 0.43099117279053 0
vt 0.9414187669754 0.42372441291809 0
vt 0.93683457374573 0.41679561138153 0
vt 0.93172085285187 0.41024804115295 0
vt 0.92610895633698 0.40412187576294 0
vt 0.92003381252289 0.39845478534698 0
vt 0.91353261470795 0.39328157901764 0
vt 0.90664541721344 0.38863444328308 0
vt 0.89941489696503 0.38454222679138 0
vt 0.89188528060913 0.38102948665619 0
vt 0.88410305976868 0.37811839580536 0
vt 0.87611651420593 0.37582683563232 0
vt 0.86797428131104 0.37416899204254 0
vt 0.85972666740417 0.37315511703491 0
vt 0.84312069416046 0.37307834625244 0
vt 0.83486533164978 0.37401652336121 0
vt 0.8267092704773 0.37559986114502 0
vt 0.81870245933533 0.37781846523285 0
vt 0.81089460849762 0.3806586265564 0
vt 0.80333352088928 0.3841028213501 0
vt 0.79606604576111 0.38812959194183 0
vt 0.78913688659668 0.39271414279938 0
vt 0.78258895874023 0.3978283405304 0
vt 0.77646231651306 0.40344059467316 0
vt 0.77079498767853 0.40951597690582 0
vt 0.76562190055847 0.41601741313934 0
vt 0.7609748840332 0.42290472984314 0
vt 0.7568826675415 0.43013525009155 0
vt 0.75337040424347 0.43766462802887 0
vt 0.75045967102051 0.44544625282288 0
vt 0.74816870689392 0.45343196392059 0
vt 0.74651157855988 0.46157276630402 0
vt 0.74542450904846 0.48642146587372 0
vt 0.74636387825012 0.49467706680298 0
vt 0.74794828891754 0.50283312797546 0
vt 0.75016748905182 0.51083964109421 0
vt 0.75300776958466 0.51864719390869 0
vt 0.75645244121552 0.52620786428452 0
vt 0.76047933101654 0.53347486257553 0
# 176 texture coordinates

o boxe_support
usemtl Mat
f 6/3/3 8/2/2 45/1/1
f 4/7/4 2/6/4 1/5/4
f 6/9/5 4/7/5 3/8/5
f 8/11/6 6/9/7 5/10/6
f 2/13/8 8/2/8 7/12/8
f 3/8/9 1/14/9 7/12/9
f 139/17/10 140/16/10 169/15/10
f 92/19/11 169/15/10 91/18/10
f 156/21/10 157/20/10 169/15/10
f 155/22/10 156/21/10 169/15/10
f 93/23/10 169/15/10 92/19/11
f 90/24/10 91/18/10 169/15/10
f 95/26/10 169/15/10 94/25/10
f 154/27/10 155/22/10 169/15/10
f 98/29/10 169/15/10 97/28/10
f 98/29/10 99/30/10 169/15/10
f 107/32/10 108/31/10 169/15/10
f 101/34/10 169/15/10 100/33/10
f 148/36/10 149/35/10 169/15/10
f 130/38/10 131/37/10 169/15/10
f 103/40/10 169/15/10 102/39/10
f 104/41/12 169/15/10 103/40/10
f 129/42/10 130/38/10 169/15/10
f 105/43/10 169/15/10 104/41/12
f 89/44/10 90/24/10 169/15/10
f 109/45/12 169/15/10 108/31/10
f 96/46/10 97/28/10 169/15/10
f 110/47/10 169/15/10 109/45/12
f 116/49/10 117/48/10 169/15/10
f 99/30/10 100/33/10 169/15/10
f 113/51/10 169/15/10 112/50/10
f 116/49/10 169/15/10 115/52/10
f 118/53/10 169/15/10 117/48/10
f 128/54/10 129/42/10 169/15/10
f 111/55/10 112/50/10 169/15/10
f 134/57/10 135/56/10 169/15/10
f 122/59/10 169/15/10 121/58/10
f 120/60/10 121/58/10 169/15/10
f 123/61/10 169/15/10 122/59/10
f 124/62/10 169/15/10 123/61/10
f 125/63/10 169/15/10 124/62/10
f 166/65/10 167/64/10 169/15/10
f 126/66/10 169/15/10 125/63/10
f 133/67/10 134/57/10 169/15/10
f 128/54/10 169/15/10 127/68/10
f 132/69/10 169/15/10 131/37/10
f 118/53/10 119/70/10 169/15/10
f 119/70/10 120/60/10 169/15/10
f 133/67/10 169/15/10 132/69/10
f 136/71/10 169/15/10 135/56/10
f 142/73/10 143/72/10 169/15/10
f 139/17/10 169/15/10 138/74/10
f 141/75/10 169/15/10 140/16/10
f 126/66/10 127/68/10 169/15/10
f 142/73/10 169/15/10 141/75/10
f 144/76/10 169/15/10 143/72/10
f 159/78/10 160/77/10 169/15/10
f 145/79/10 169/15/10 144/76/10
f 137/80/10 138/74/10 169/15/10
f 136/71/10 137/80/10 169/15/10
f 148/36/10 169/15/10 147/81/10
f 153/82/10 154/27/10 169/15/10
f 152/83/10 153/82/10 169/15/10
f 150/84/10 169/15/10 149/35/10
f 151/85/10 169/15/10 150/84/10
f 106/86/10 107/32/10 169/15/10
f 105/43/10 106/86/10 169/15/10
f 168/87/10 89/44/10 169/15/10
f 167/64/10 168/87/10 169/15/10
f 161/89/10 162/88/10 169/15/10
f 152/83/10 169/15/10 151/85/10
f 158/90/10 169/15/10 157/20/10
f 146/91/10 147/81/10 169/15/10
f 145/79/10 146/91/10 169/15/10
f 159/78/10 169/15/10 158/90/10
f 110/47/10 111/55/10 169/15/10
f 161/89/10 169/15/10 160/77/10
f 101/34/10 102/39/10 169/15/10
f 163/92/10 169/15/10 162/88/10
f 164/93/11 169/15/10 163/92/10
f 114/94/10 115/52/10 169/15/10
f 113/51/10 114/94/10 169/15/10
f 95/26/10 96/46/10 169/15/10
f 165/95/11 169/15/10 164/93/11
f 93/23/10 94/25/10 169/15/10
f 166/65/10 169/15/10 165/95/11
f 3/8/4 4/7/4 1/5/4
f 5/10/5 6/9/5 3/8/5
f 7/96/6 8/11/6 5/10/6
f 1/14/8 2/13/8 7/12/8
f 5/10/9 3/8/9 7/12/9
f 6/3/3 14/98/10 27/97/10
f 30/100/10 2/13/2 4/99/10
f 2/13/2 64/102/10 66/101/13
f 46/104/10 70/103/10 8/2/2
f 70/103/10 71/105/10 8/2/2
f 71/105/10 44/106/10 8/2/2
f 44/106/10 43/107/10 8/2/2
f 43/107/10 72/108/10 8/2/2
f 72/108/10 41/109/10 8/2/2
f 41/109/10 40/110/10 8/2/2
f 40/110/10 39/111/10 8/2/2
f 39/111/10 38/112/10 8/2/2
f 38/112/10 37/113/10 8/2/2
f 37/113/10 73/114/10 8/2/2
f 73/114/10 45/1/1 8/2/2
f 34/116/14 33/115/10 6/3/3
f 33/115/10 32/117/10 6/3/3
f 32/117/10 74/118/10 6/3/3
f 74/118/10 76/119/10 6/3/3
f 76/119/10 28/120/10 6/3/3
f 28/120/10 78/121/10 6/3/3
f 78/121/10 25/122/10 6/3/3
f 25/122/10 80/123/10 6/3/3
f 80/123/10 13/124/10 6/3/3
f 13/124/10 23/125/10 6/3/3
f 23/125/10 82/126/10 6/3/3
f 82/126/10 84/127/10 6/3/3
f 84/127/10 88/128/10 6/3/3
f 88/128/10 12/129/10 6/3/3
f 12/129/10 21/130/10 6/3/3
f 21/130/10 16/131/10 6/3/3
f 16/131/10 15/132/10 6/3/3
f 15/132/10 14/98/10 6/3/3
f 4/99/10 27/97/10 11/133/11
f 4/99/10 11/133/11 10/134/11
f 4/99/10 10/134/11 9/135/11
f 4/99/10 9/135/11 17/136/11
f 4/99/10 17/136/11 18/137/11
f 4/99/10 18/137/11 87/138/11
f 4/99/10 87/138/11 86/139/11
f 4/99/10 86/139/11 85/140/11
f 4/99/10 85/140/11 19/141/11
f 4/99/10 19/141/11 20/142/11
f 4/99/10 20/142/11 83/143/11
f 4/99/10 83/143/11 22/144/11
f 4/99/10 22/144/11 81/145/11
f 4/99/10 81/145/11 79/146/11
f 4/99/10 79/146/11 24/147/11
f 4/99/10 24/147/11 77/148/11
f 4/99/10 77/148/11 26/149/11
f 4/99/10 26/149/11 75/150/11
f 4/99/10 75/150/11 29/151/10
f 2/13/2 30/100/10 31/152/10
f 2/13/2 31/152/10 35/153/10
f 2/13/2 35/153/10 36/154/10
f 2/13/2 36/154/10 42/155/10
f 2/13/2 42/155/10 69/156/10
f 2/13/2 69/156/10 49/157/10
f 2/13/2 49/157/10 52/158/10
f 2/13/2 52/158/10 68/159/10
f 2/13/2 68/159/10 67/160/10
f 2/13/2 67/160/10 56/161/10
f 2/13/2 56/161/10 65/162/10
f 2/13/2 65/162/10 57/163/10
f 2/13/2 57/163/10 58/164/10
f 2/13/2 58/164/10 59/165/10
f 2/13/2 59/165/10 60/166/10
f 2/13/2 60/166/10 61/167/10
f 2/13/2 61/167/10 62/168/10
f 2/13/2 62/168/10 63/169/10
f 2/13/2 63/169/10 64/102/10
f 66/101/13 55/170/10 8/2/2
f 55/170/10 54/171/10 8/2/2
f 54/171/10 53/172/10 8/2/2
f 53/172/10 51/173/10 8/2/2
f 51/173/10 50/174/10 8/2/2
f 50/174/10 48/175/10 8/2/2
f 48/175/10 47/176/10 8/2/2
f 47/176/10 46/104/10 8/2/2
f 4/99/10 6/3/3 27/97/10
f 29/151/10 30/100/10 4/99/10
f 8/2/2 2/13/2 66/101/13
f 34/116/14 6/3/3 45/1/1

