# Blender v3.1.2 OBJ File: ''
# www.blender.org
mtllib 04.mtl
o 04_Plane.011_04_Plane.001
v 1.958389 3.212045 0.210759
v 1.982380 3.202077 0.207547
v 1.966489 3.218641 0.209990
v 1.996026 3.277444 0.208292
v 2.013195 3.258498 0.205618
v 2.003948 3.283002 0.207512
v 1.987661 3.268130 0.209006
v 2.005273 3.252940 0.206398
v 1.981188 3.259299 0.209507
v 2.001917 3.249316 0.206688
v 1.976384 3.244774 0.209713
v 1.995845 3.241889 0.207185
v 1.972515 3.231063 0.209999
v 1.993541 3.235874 0.207171
v 1.969767 3.223060 0.210190
v 1.991675 3.225416 0.206645
v 1.989036 3.213988 0.206860
v 1.981331 3.202353 0.199279
v 1.957340 3.212321 0.202491
v 1.965440 3.218917 0.201723
v 2.012147 3.258774 0.197350
v 1.994976 3.277719 0.200024
v 2.002898 3.283278 0.199244
v 2.004224 3.253215 0.198130
v 1.986612 3.268405 0.200738
v 2.000868 3.249591 0.198420
v 1.980139 3.259574 0.201239
v 1.994796 3.242165 0.198917
v 1.975335 3.245049 0.201445
v 1.992492 3.236149 0.198903
v 1.971466 3.231339 0.201731
v 1.990626 3.225691 0.198377
v 1.968718 3.223336 0.201922
v 1.987987 3.214263 0.198592
v 1.971420 3.193657 0.200199
v 1.972469 3.193381 0.208467
v 2.040075 3.355724 0.190926
v 2.012308 3.309218 0.217783
v 2.040141 3.355835 0.217519
v 2.012242 3.309108 0.191189
v 2.028242 3.299705 0.217783
v 2.056009 3.346211 0.190926
v 2.056075 3.346322 0.217519
v 2.028176 3.299594 0.191189
v 2.077194 3.417570 0.190926
v 2.049428 3.371065 0.217783
v 2.077261 3.417681 0.217519
v 2.049361 3.370954 0.191189
v 2.065361 3.361552 0.217783
v 2.093128 3.408056 0.190926
v 2.093194 3.408168 0.217519
v 2.065295 3.361440 0.191189
vt 0.344922 0.253906
vt 0.294922 0.303906
vt 0.294922 0.253906
vt 0.344922 0.253906
vt 0.294922 0.303906
vt 0.294922 0.253906
vt 0.344922 0.253906
vt 0.294922 0.303906
vt 0.294922 0.253906
vt 0.344922 0.253906
vt 0.294922 0.303906
vt 0.294922 0.253906
vt 0.344922 0.253906
vt 0.294922 0.303906
vt 0.294922 0.253906
vt 0.344922 0.253906
vt 0.294922 0.303906
vt 0.294922 0.253906
vt 0.344922 0.253906
vt 0.294922 0.303906
vt 0.294922 0.253906
vt 0.344922 0.253906
vt 0.294922 0.303906
vt 0.294922 0.253906
vt 0.344922 0.253906
vt 0.294922 0.303906
vt 0.294922 0.253906
vt 0.344922 0.253906
vt 0.294922 0.303906
vt 0.294922 0.253906
vt 0.344922 0.253906
vt 0.294922 0.303906
vt 0.294922 0.253906
vt 0.344922 0.253906
vt 0.294922 0.303906
vt 0.294922 0.253906
vt 0.344922 0.253906
vt 0.294922 0.303906
vt 0.294922 0.253906
vt 0.344922 0.253906
vt 0.294922 0.303906
vt 0.294922 0.253906
vt 0.344922 0.253906
vt 0.294922 0.303906
vt 0.294922 0.253906
vt 0.344922 0.253906
vt 0.294922 0.303906
vt 0.294922 0.253906
vt 0.344922 0.303906
vt 0.294922 0.303906
vt 0.294922 0.253906
vt 0.344922 0.303906
vt 0.294922 0.303906
vt 0.294922 0.253906
vt 0.344922 0.303906
vt 0.294922 0.303906
vt 0.294922 0.253906
vt 0.344922 0.303906
vt 0.294922 0.303906
vt 0.294922 0.303906
vt 0.294922 0.253906
vt 0.294922 0.253906
vt 0.344922 0.303906
vt 0.294922 0.303906
vt 0.294922 0.253906
vt 0.294922 0.253906
vt 0.344922 0.303906
vt 0.294922 0.303906
vt 0.294922 0.253906
vt 0.344922 0.303906
vt 0.294922 0.303906
vt 0.294922 0.253906
vt 0.344922 0.303906
vt 0.294922 0.303906
vt 0.344922 0.253906
vt 0.294922 0.253906
vt 0.344922 0.303906
vt 0.294922 0.303906
vt 0.344922 0.253906
vt 0.294922 0.303906
vt 0.294922 0.253906
vt 0.344922 0.253906
vt 0.294922 0.303906
vt 0.294922 0.253906
vt 0.294922 0.253906
vt 0.344922 0.303906
vt 0.294922 0.303906
vt 0.294922 0.253906
vt 0.344922 0.303906
vt 0.294922 0.303906
vt 0.344922 0.303906
vt 0.294922 0.303906
vt 0.294922 0.253906
vt 0.344922 0.253906
vt 0.294922 0.303906
vt 0.294922 0.253906
vt 0.344922 0.253906
vt 0.294922 0.303906
vt 0.294922 0.253906
vt 0.294922 0.253906
vt 0.344922 0.303906
vt 0.294922 0.303906
vt 0.294922 0.253906
vt 0.344922 0.303906
vt 0.294922 0.303906
vt 0.344922 0.303906
vt 0.294922 0.303906
vt 0.294922 0.253906
vt 0.344922 0.303906
vt 0.344922 0.303906
vt 0.344922 0.303906
vt 0.344922 0.303906
vt 0.344922 0.303906
vt 0.344922 0.303906
vt 0.344922 0.303906
vt 0.344922 0.303906
vt 0.344922 0.303906
vt 0.344922 0.253906
vt 0.344922 0.253906
vt 0.344922 0.303906
vt 0.344922 0.253906
vt 0.344922 0.253906
vt 0.344922 0.303906
vt 0.344922 0.303906
vt 0.344922 0.253906
vt 0.344922 0.303906
vt 0.344922 0.253906
vt 0.344922 0.303906
vt 0.344922 0.253906
vt 0.344922 0.303906
vt 0.344922 0.253906
vt 0.344922 0.303906
vt 0.344922 0.303906
vt 0.344922 0.253906
vt 0.344922 0.303906
vt 0.344922 0.303906
vt 0.344922 0.253906
vt 0.344922 0.253906
vt 0.344922 0.253906
vt 0.344922 0.303906
vt 0.344922 0.303906
vt 0.344922 0.253906
vt 0.344922 0.253906
vt 0.344922 0.253906
vn 0.1198 -0.0315 0.9923
vn 0.1198 -0.0314 0.9923
vn 0.1193 -0.0321 0.9923
vn 0.1248 -0.0272 0.9918
vn 0.1241 -0.0278 0.9919
vn 0.1373 -0.0181 0.9904
vn 0.1618 -0.0208 0.9866
vn 0.1627 -0.0298 0.9862
vn 0.1631 -0.0325 0.9861
vn 0.1107 -0.1267 0.9857
vn -0.1198 0.0315 -0.9923
vn -0.1193 0.0321 -0.9923
vn -0.1241 0.0278 -0.9919
vn -0.1248 0.0272 -0.9918
vn -0.1373 0.0181 -0.9904
vn -0.1627 0.0298 -0.9862
vn -0.1618 0.0208 -0.9866
vn -0.1631 0.0325 -0.9861
vn -0.1108 0.1266 -0.9858
vn -0.9408 0.3130 0.1298
vn 0.9276 0.3583 -0.1058
vn 0.9276 0.3583 -0.1057
vn 0.9656 -0.2254 -0.1300
vn -0.7974 0.5913 0.1208
vn -0.7973 0.5913 0.1208
vn 0.6500 -0.7522 -0.1076
vn 0.6501 -0.7522 -0.1076
vn 0.8629 -0.4895 -0.1258
vn 0.8629 -0.4895 -0.1257
vn -0.7346 0.6686 0.1155
vn -0.7910 -0.6066 0.0801
vn 0.5650 -0.8192 -0.0989
vn 0.5650 -0.8191 -0.0990
vn -0.6220 0.7760 0.1048
vn 0.7243 -0.6799 -0.1145
vn -0.7999 0.5879 0.1211
vn -0.7998 0.5879 0.1211
vn -0.7999 0.5878 0.1211
vn 0.7649 -0.6333 -0.1181
vn 0.7648 -0.6333 -0.1180
vn -0.9369 0.3248 0.1297
vn -0.9370 0.3245 0.1296
vn 0.9261 -0.3544 -0.1293
vn -0.9535 0.2718 0.1300
vn -0.9535 0.2718 0.1301
vn -0.5650 0.8191 0.0991
vn -0.5650 0.8191 0.0990
vn -0.5650 0.8192 0.0990
vn 0.9773 -0.1678 -0.1296
vn 0.9773 -0.1679 -0.1296
vn -0.8586 0.5126 0.0000
vn -0.5126 -0.8586 0.0048
vn 0.8586 -0.5126 0.0000
vn 0.5126 0.8586 -0.0049
vn 0.5126 0.8586 -0.0048
vn 0.0025 0.0042 1.0000
vn -0.0025 -0.0042 -1.0000
vn -0.5126 -0.8586 0.0049
vn 0.1215 -0.0489 0.9914
vn 0.1500 -0.0763 0.9857
vn 0.1617 -0.0188 0.9867
vn 0.1339 -0.0177 0.9908
vn -0.1215 0.0489 -0.9914
vn -0.1500 0.0764 -0.9857
vn -0.1617 0.0188 -0.9867
vn -0.1339 0.0177 -0.9908
vn 0.9276 0.3582 -0.1056
vn 0.6500 -0.7523 -0.1076
vn 0.8629 -0.4895 -0.1259
vn 0.5649 -0.8192 -0.0989
vn -0.7998 0.5879 0.1210
vn 0.7649 -0.6332 -0.1182
vn -0.9369 0.3247 0.1297
vn 0.9261 -0.3545 -0.1293
vn -0.5127 -0.8586 0.0048
vn -0.5127 -0.8586 0.0049
vn 0.5127 0.8586 -0.0049
usemtl Default_OBJ.005
s 1
f 1/1/1 2/2/1 3/3/2
f 4/4/1 5/5/1 6/6/1
f 7/7/1 8/8/1 4/9/1
f 9/10/3 10/11/1 7/12/1
f 11/13/4 12/14/5 9/15/3
f 13/16/6 14/17/6 11/18/6
f 15/19/7 16/20/8 13/21/9
f 3/22/10 17/23/10 15/24/10
f 18/25/11 19/26/11 20/27/11
f 21/28/11 22/29/11 23/30/11
f 24/31/11 25/32/11 22/33/11
f 26/34/11 27/35/12 25/36/11
f 28/37/13 29/38/14 27/39/12
f 30/40/15 31/41/15 29/42/15
f 32/43/16 33/44/17 31/45/18
f 34/46/19 20/47/19 33/48/19
f 9/10/20 29/38/20 11/18/20
f 6/6/21 21/49/22 23/50/21
f 16/51/23 34/52/23 32/53/23
f 7/7/24 27/35/25 9/15/25
f 2/54/26 35/55/26 18/56/27
f 17/57/28 18/58/28 34/59/29
f 4/4/30 25/32/30 7/12/30
f 1/1/31 35/60/31 36/61/31
f 5/62/32 24/63/32 21/64/33
f 3/22/34 19/26/34 1/65/34
f 8/66/35 26/67/35 24/68/35
f 15/19/36 20/47/37 3/3/38
f 10/69/39 28/70/39 26/71/40
f 13/16/41 33/44/41 15/24/42
f 12/72/43 30/73/43 28/74/43
f 11/13/44 31/41/44 13/21/45
f 6/75/46 22/29/47 4/9/48
f 14/76/49 32/77/50 30/78/49
f 37/79/51 38/80/51 39/81/51
f 40/82/52 41/83/52 38/84/52
f 41/85/53 42/86/53 43/87/53
f 43/88/54 37/89/55 39/90/54
f 38/84/56 43/91/56 39/90/56
f 40/82/57 42/92/57 44/93/57
f 45/94/51 46/95/51 47/96/51
f 48/97/58 49/98/58 46/99/58
f 49/100/53 50/101/53 51/102/53
f 51/103/54 45/104/54 47/105/54
f 46/99/56 51/106/56 47/105/56
f 48/97/57 50/107/57 52/108/57
f 1/1/1 36/109/1 2/2/1
f 4/4/1 8/110/1 5/5/1
f 7/7/1 10/111/1 8/8/1
f 9/10/3 12/112/5 10/11/1
f 11/13/59 14/113/59 12/14/59
f 13/16/60 16/114/60 14/17/60
f 15/19/7 17/115/61 16/20/8
f 3/22/62 2/116/62 17/23/62
f 18/25/11 35/55/11 19/26/11
f 21/28/11 24/63/11 22/29/11
f 24/31/11 26/67/11 25/32/11
f 26/34/11 28/70/13 27/35/12
f 28/37/63 30/73/63 29/38/63
f 30/40/64 32/77/64 31/41/64
f 32/43/16 34/52/65 33/44/17
f 34/46/66 18/58/66 20/47/66
f 9/10/20 27/117/20 29/38/20
f 6/6/21 5/118/67 21/49/22
f 16/51/23 17/119/23 34/52/23
f 7/7/24 25/120/24 27/35/25
f 2/54/26 36/121/68 35/55/26
f 17/57/28 2/122/69 18/58/28
f 4/4/30 22/123/30 25/32/30
f 1/1/31 19/124/31 35/60/31
f 5/62/32 8/125/70 24/63/32
f 3/22/34 20/126/34 19/26/34
f 8/66/35 10/127/35 26/67/35
f 15/19/36 33/128/71 20/47/37
f 10/69/39 12/129/72 28/70/39
f 13/16/41 31/130/73 33/44/41
f 12/72/43 14/131/74 30/73/43
f 11/13/44 29/132/44 31/41/44
f 6/75/46 23/133/46 22/29/47
f 14/76/49 16/134/50 32/77/50
f 37/79/51 40/135/51 38/80/51
f 40/82/52 44/136/75 41/83/52
f 41/85/53 44/137/53 42/86/53
f 43/88/54 42/138/55 37/89/55
f 38/84/56 41/139/56 43/91/56
f 40/82/57 37/89/57 42/92/57
f 45/94/51 48/140/51 46/95/51
f 48/97/58 52/141/76 49/98/58
f 49/100/53 52/142/53 50/101/53
f 51/103/54 50/143/77 45/104/54
f 46/99/56 49/144/56 51/106/56
f 48/97/57 45/104/57 50/107/57
