# Blender v3.1.2 OBJ File: ''
# www.blender.org
mtllib 17.mtl
o 17_Cube.053_17_Cube.001
v 0.800241 -3.684839 0.190921
v 0.811971 -3.739668 0.217788
v 0.800214 -3.684713 0.217515
v 0.830145 -3.735912 0.191194
v 0.830118 -3.735785 0.217788
v 0.818388 -3.680957 0.190921
v 0.818361 -3.680830 0.217515
v 0.833710 -3.835394 0.190921
v 0.845441 -3.890223 0.217788
v 0.833683 -3.835268 0.217515
v 0.863614 -3.886467 0.191194
v 0.863587 -3.886341 0.217788
v 0.851857 -3.831512 0.190921
v 0.851830 -3.831386 0.217515
v 0.848267 -3.796530 0.209162
v 0.845895 -3.794296 0.209162
v 0.824812 -3.794922 0.209162
v 0.830439 -3.791695 0.190059
v 0.833615 -3.790965 0.190059
v 0.840086 -3.791409 0.190059
v 0.843133 -3.792566 0.190059
v 0.843133 -3.792566 0.209162
v 0.830439 -3.791695 0.209162
v 0.827466 -3.793031 0.190059
v 0.827466 -3.793031 0.209162
v 0.831383 -3.823499 0.209162
v 0.834597 -3.824039 0.190059
v 0.834597 -3.824039 0.209162
v 0.845895 -3.794296 0.190059
v 0.833615 -3.790965 0.209162
v 0.828337 -3.822341 0.209162
v 0.831383 -3.823499 0.190059
v 0.850157 -3.799185 0.190059
v 0.848267 -3.796530 0.190059
v 0.836873 -3.790868 0.209162
v 0.825574 -3.820612 0.190059
v 0.828337 -3.822342 0.190059
v 0.850157 -3.799185 0.209162
v 0.851493 -3.802158 0.190059
v 0.823203 -3.818377 0.209162
v 0.825574 -3.820612 0.209162
v 0.851493 -3.802158 0.209162
v 0.852224 -3.805334 0.190059
v 0.821312 -3.815722 0.209162
v 0.823203 -3.818377 0.190059
v 0.852224 -3.805334 0.209162
v 0.852320 -3.808591 0.190059
v 0.819976 -3.812749 0.190059
v 0.821312 -3.815722 0.190059
v 0.851780 -3.811805 0.209162
v 0.852320 -3.808591 0.209162
v 0.819976 -3.812749 0.209162
v 0.819246 -3.809573 0.190059
v 0.850623 -3.814852 0.190059
v 0.851780 -3.811805 0.190059
v 0.819246 -3.809573 0.209162
v 0.819149 -3.806316 0.190059
v 0.850623 -3.814852 0.209162
v 0.848893 -3.817614 0.190059
v 0.819690 -3.803102 0.209162
v 0.819149 -3.806316 0.209162
v 0.846658 -3.819985 0.209162
v 0.848893 -3.817614 0.209162
v 0.820847 -3.800055 0.190059
v 0.819690 -3.803102 0.190059
v 0.844003 -3.821876 0.209162
v 0.846658 -3.819986 0.190059
v 0.822576 -3.797293 0.209162
v 0.820847 -3.800055 0.209162
v 0.841031 -3.823212 0.209162
v 0.844003 -3.821876 0.190059
v 0.840086 -3.791409 0.209162
v 0.836873 -3.790868 0.190059
v 0.822576 -3.797293 0.190059
v 0.837855 -3.823942 0.190059
v 0.841031 -3.823212 0.190059
v 0.824812 -3.794921 0.190059
v 0.837855 -3.823943 0.209162
v 0.838904 -3.752831 0.209162
v 0.836532 -3.750596 0.209162
v 0.815449 -3.751223 0.209162
v 0.821076 -3.747996 0.190059
v 0.824252 -3.747266 0.190059
v 0.830723 -3.747710 0.190059
v 0.833770 -3.748867 0.209162
v 0.836532 -3.750596 0.190059
v 0.833770 -3.748867 0.190059
v 0.821076 -3.747996 0.209162
v 0.818103 -3.749332 0.190059
v 0.818103 -3.749332 0.209162
v 0.822020 -3.779800 0.209162
v 0.825234 -3.780340 0.190059
v 0.825234 -3.780340 0.209162
v 0.838904 -3.752831 0.190059
v 0.824252 -3.747266 0.209162
v 0.818974 -3.778642 0.209162
v 0.822020 -3.779799 0.190059
v 0.840794 -3.755486 0.190059
v 0.827510 -3.747169 0.209162
v 0.816211 -3.776913 0.190059
v 0.818974 -3.778642 0.190059
v 0.842130 -3.758459 0.209162
v 0.840795 -3.755486 0.209162
v 0.816211 -3.776913 0.209162
v 0.813840 -3.774678 0.190059
v 0.842861 -3.761635 0.190059
v 0.842130 -3.758459 0.190059
v 0.813840 -3.774678 0.209162
v 0.811949 -3.772023 0.190059
v 0.842861 -3.761635 0.209162
v 0.842957 -3.764892 0.190059
v 0.810613 -3.769050 0.209162
v 0.811949 -3.772023 0.209162
v 0.842417 -3.768106 0.209162
v 0.842957 -3.764892 0.209162
v 0.809883 -3.765874 0.190059
v 0.810613 -3.769050 0.190059
v 0.841260 -3.771153 0.209162
v 0.842417 -3.768106 0.190059
v 0.809883 -3.765874 0.209162
v 0.809786 -3.762617 0.190059
v 0.839530 -3.773915 0.190059
v 0.841260 -3.771153 0.190059
v 0.810327 -3.759403 0.209162
v 0.809786 -3.762617 0.209162
v 0.839530 -3.773916 0.209162
v 0.837295 -3.776287 0.190059
v 0.811484 -3.756356 0.209162
v 0.810327 -3.759403 0.190059
v 0.837295 -3.776287 0.209162
v 0.834640 -3.778177 0.190059
v 0.813213 -3.753594 0.209162
v 0.811484 -3.756356 0.190059
v 0.834641 -3.778177 0.209162
v 0.831668 -3.779513 0.190059
v 0.830723 -3.747709 0.209162
v 0.827510 -3.747169 0.190059
v 0.813213 -3.753594 0.190059
v 0.831668 -3.779513 0.209162
v 0.828492 -3.780243 0.190059
v 0.815449 -3.751222 0.190059
v 0.828492 -3.780244 0.209162
v 0.811998 -3.739794 0.191194
v 0.845468 -3.890349 0.191194
vt 0.344922 0.253906
vt 0.294922 0.303906
vt 0.294922 0.253906
vt 0.294922 0.253906
vt 0.344922 0.303906
vt 0.294922 0.303906
vt 0.294922 0.253906
vt 0.344922 0.303906
vt 0.294922 0.303906
vt 0.344922 0.253906
vt 0.294922 0.303906
vt 0.294922 0.253906
vt 0.344922 0.253906
vt 0.294922 0.253906
vt 0.344922 0.303906
vt 0.294922 0.303906
vt 0.344922 0.253906
vt 0.294922 0.303906
vt 0.294922 0.253906
vt 0.294922 0.253906
vt 0.344922 0.303906
vt 0.294922 0.303906
vt 0.294922 0.253906
vt 0.344922 0.303906
vt 0.294922 0.303906
vt 0.344922 0.253906
vt 0.294922 0.303906
vt 0.294922 0.253906
vt 0.344922 0.253906
vt 0.294922 0.253906
vt 0.344922 0.303906
vt 0.294922 0.303906
vt 0.306033 0.299693
vt 0.310355 0.302003
vt 0.340709 0.292796
vt 0.306033 0.299693
vt 0.310355 0.302003
vt 0.319922 0.303906
vt 0.344922 0.253906
vt 0.294922 0.303906
vt 0.294922 0.253906
vt 0.344922 0.253906
vt 0.294922 0.303906
vt 0.294922 0.253906
vt 0.344922 0.253906
vt 0.294922 0.303906
vt 0.294922 0.253906
vt 0.344922 0.253906
vt 0.294922 0.303906
vt 0.294922 0.253906
vt 0.344922 0.253906
vt 0.294922 0.303906
vt 0.294922 0.253906
vt 0.344922 0.253906
vt 0.294922 0.303906
vt 0.294922 0.253906
vt 0.294922 0.253906
vt 0.344922 0.303906
vt 0.294922 0.303906
vt 0.344922 0.253906
vt 0.294922 0.303906
vt 0.294922 0.253906
vt 0.294922 0.253906
vt 0.344922 0.303906
vt 0.294922 0.303906
vt 0.294922 0.253906
vt 0.344922 0.303906
vt 0.294922 0.303906
vt 0.344922 0.253906
vt 0.294922 0.303906
vt 0.294922 0.253906
vt 0.294922 0.253906
vt 0.344922 0.303906
vt 0.294922 0.303906
vt 0.344922 0.253906
vt 0.294922 0.303906
vt 0.294922 0.253906
vt 0.294922 0.253906
vt 0.344922 0.303906
vt 0.294922 0.303906
vt 0.294922 0.253906
vt 0.344922 0.303906
vt 0.294922 0.303906
vt 0.344922 0.253906
vt 0.294922 0.303906
vt 0.294922 0.253906
vt 0.294922 0.253906
vt 0.344922 0.303906
vt 0.294922 0.303906
vt 0.294922 0.253906
vt 0.344922 0.303906
vt 0.294922 0.303906
vt 0.294922 0.253906
vt 0.344922 0.303906
vt 0.294922 0.303906
vt 0.294922 0.253906
vt 0.344922 0.303906
vt 0.294922 0.303906
vt 0.344922 0.253906
vt 0.294922 0.303906
vt 0.294922 0.253906
vt 0.344922 0.253906
vt 0.294922 0.303906
vt 0.294922 0.253906
vt 0.294922 0.253906
vt 0.344922 0.303906
vt 0.294922 0.303906
vt 0.344922 0.253906
vt 0.294922 0.303906
vt 0.294922 0.253906
vt 0.344922 0.253906
vt 0.294922 0.303906
vt 0.294922 0.253906
vt 0.344922 0.253906
vt 0.294922 0.303906
vt 0.294922 0.253906
vt 0.344922 0.253906
vt 0.294922 0.303906
vt 0.294922 0.253906
vt 0.344922 0.253906
vt 0.294922 0.303906
vt 0.294922 0.253906
vt 0.294922 0.253906
vt 0.344922 0.303906
vt 0.294922 0.303906
vt 0.344922 0.253906
vt 0.294922 0.303906
vt 0.294922 0.253906
vt 0.344922 0.253906
vt 0.294922 0.303906
vt 0.294922 0.253906
vt 0.294922 0.253906
vt 0.344922 0.303906
vt 0.294922 0.303906
vt 0.306033 0.299693
vt 0.310355 0.302003
vt 0.340709 0.292796
vt 0.306033 0.299693
vt 0.310355 0.302003
vt 0.319922 0.303906
vt 0.294922 0.253906
vt 0.344922 0.303906
vt 0.294922 0.303906
vt 0.344922 0.253906
vt 0.294922 0.303906
vt 0.294922 0.253906
vt 0.344922 0.253906
vt 0.294922 0.303906
vt 0.294922 0.253906
vt 0.294922 0.253906
vt 0.344922 0.303906
vt 0.294922 0.303906
vt 0.344922 0.253906
vt 0.294922 0.303906
vt 0.294922 0.253906
vt 0.344922 0.253906
vt 0.294922 0.303906
vt 0.294922 0.253906
vt 0.294922 0.253906
vt 0.344922 0.303906
vt 0.294922 0.303906
vt 0.344922 0.253906
vt 0.294922 0.303906
vt 0.294922 0.253906
vt 0.294922 0.253906
vt 0.344922 0.303906
vt 0.294922 0.303906
vt 0.344922 0.253906
vt 0.294922 0.303906
vt 0.294922 0.253906
vt 0.294922 0.253906
vt 0.344922 0.303906
vt 0.294922 0.303906
vt 0.294922 0.253906
vt 0.344922 0.303906
vt 0.294922 0.303906
vt 0.294922 0.253906
vt 0.344922 0.303906
vt 0.294922 0.303906
vt 0.294922 0.253906
vt 0.344922 0.303906
vt 0.294922 0.303906
vt 0.344922 0.253906
vt 0.294922 0.303906
vt 0.294922 0.253906
vt 0.344922 0.253906
vt 0.294922 0.303906
vt 0.294922 0.253906
vt 0.294922 0.253906
vt 0.344922 0.303906
vt 0.294922 0.303906
vt 0.344922 0.253906
vt 0.294922 0.303906
vt 0.294922 0.253906
vt 0.294922 0.253906
vt 0.344922 0.303906
vt 0.294922 0.303906
vt 0.294922 0.253906
vt 0.344922 0.303906
vt 0.294922 0.303906
vt 0.344922 0.253906
vt 0.294922 0.303906
vt 0.294922 0.253906
vt 0.294922 0.253906
vt 0.344922 0.303906
vt 0.294922 0.303906
vt 0.344922 0.253906
vt 0.294922 0.303906
vt 0.294922 0.253906
vt 0.294922 0.253906
vt 0.344922 0.303906
vt 0.294922 0.303906
vt 0.344922 0.253906
vt 0.294922 0.303906
vt 0.294922 0.253906
vt 0.294922 0.253906
vt 0.344922 0.303906
vt 0.294922 0.303906
vt 0.344922 0.253906
vt 0.294922 0.303906
vt 0.294922 0.253906
vt 0.344922 0.253906
vt 0.294922 0.303906
vt 0.294922 0.253906
vt 0.294922 0.253906
vt 0.344922 0.303906
vt 0.294922 0.303906
vt 0.344922 0.253906
vt 0.294922 0.303906
vt 0.294922 0.253906
vt 0.344922 0.253906
vt 0.294922 0.303906
vt 0.294922 0.253906
vt 0.294922 0.253906
vt 0.344922 0.303906
vt 0.294922 0.303906
vt 0.344922 0.303906
vt 0.344922 0.253906
vt 0.344922 0.253906
vt 0.344922 0.303906
vt 0.344922 0.303906
vt 0.344922 0.253906
vt 0.344922 0.253906
vt 0.344922 0.303906
vt 0.315045 0.303426
vt 0.319922 0.303906
vt 0.333811 0.299693
vt 0.324799 0.303426
vt 0.329489 0.302003
vt 0.337600 0.296584
vt 0.343019 0.288473
vt 0.344442 0.283783
vt 0.302244 0.296584
vt 0.344922 0.278906
vt 0.299135 0.292796
vt 0.344442 0.274029
vt 0.296825 0.288473
vt 0.343019 0.269339
vt 0.295402 0.283784
vt 0.340709 0.265017
vt 0.294922 0.278906
vt 0.337600 0.261229
vt 0.295402 0.274029
vt 0.333811 0.258120
vt 0.296825 0.269339
vt 0.329489 0.255809
vt 0.299135 0.265017
vt 0.324799 0.254387
vt 0.302244 0.261229
vt 0.319922 0.253906
vt 0.306033 0.258120
vt 0.315045 0.254387
vt 0.310355 0.255809
vt 0.315045 0.303426
vt 0.324799 0.303426
vt 0.329489 0.302003
vt 0.302244 0.296584
vt 0.333811 0.299693
vt 0.299135 0.292796
vt 0.337600 0.296584
vt 0.296825 0.288473
vt 0.340709 0.292796
vt 0.295402 0.283784
vt 0.343019 0.288473
vt 0.294922 0.278906
vt 0.344442 0.283783
vt 0.295402 0.274029
vt 0.344922 0.278906
vt 0.296825 0.269339
vt 0.344442 0.274029
vt 0.299135 0.265017
vt 0.343019 0.269339
vt 0.302244 0.261229
vt 0.340709 0.265017
vt 0.306033 0.258120
vt 0.337600 0.261229
vt 0.310355 0.255809
vt 0.333811 0.258120
vt 0.315045 0.254387
vt 0.329489 0.255809
vt 0.319922 0.253906
vt 0.324799 0.254387
vt 0.344922 0.303906
vt 0.344922 0.303906
vt 0.344922 0.303906
vt 0.344922 0.303906
vt 0.344922 0.303906
vt 0.344922 0.303906
vt 0.344922 0.253906
vt 0.344922 0.303906
vt 0.344922 0.253906
vt 0.344922 0.253906
vt 0.344922 0.303906
vt 0.344922 0.253906
vt 0.344922 0.303906
vt 0.344922 0.253906
vt 0.344922 0.253906
vt 0.344922 0.303906
vt 0.344922 0.253906
vt 0.344922 0.253906
vt 0.344922 0.253906
vt 0.344922 0.253906
vt 0.344922 0.303906
vt 0.344922 0.303906
vt 0.344922 0.253906
vt 0.344922 0.303906
vt 0.344922 0.303906
vt 0.344922 0.303906
vt 0.344922 0.303906
vt 0.344922 0.303906
vt 0.344922 0.253906
vt 0.344922 0.303906
vt 0.344922 0.303906
vt 0.344922 0.253906
vt 0.315045 0.303426
vt 0.319922 0.303906
vt 0.333811 0.299693
vt 0.324799 0.303426
vt 0.329489 0.302003
vt 0.337600 0.296584
vt 0.343019 0.288473
vt 0.344442 0.283783
vt 0.302244 0.296584
vt 0.344922 0.278906
vt 0.299135 0.292796
vt 0.344442 0.274029
vt 0.296825 0.288473
vt 0.343019 0.269339
vt 0.295402 0.283784
vt 0.340709 0.265017
vt 0.294922 0.278906
vt 0.337600 0.261229
vt 0.295402 0.274029
vt 0.333811 0.258120
vt 0.296825 0.269339
vt 0.329489 0.255809
vt 0.299135 0.265017
vt 0.324799 0.254387
vt 0.302244 0.261229
vt 0.319922 0.253906
vt 0.306033 0.258120
vt 0.315045 0.254387
vt 0.310355 0.255809
vt 0.315045 0.303426
vt 0.324799 0.303426
vt 0.329489 0.302003
vt 0.302244 0.296584
vt 0.333811 0.299693
vt 0.299135 0.292796
vt 0.337600 0.296584
vt 0.296825 0.288473
vt 0.340709 0.292796
vt 0.295402 0.283784
vt 0.343019 0.288473
vt 0.294922 0.278906
vt 0.344442 0.283783
vt 0.295402 0.274029
vt 0.344922 0.278906
vt 0.296825 0.269339
vt 0.344442 0.274029
vt 0.299135 0.265017
vt 0.343019 0.269339
vt 0.302244 0.261229
vt 0.340709 0.265017
vt 0.306033 0.258120
vt 0.337600 0.261229
vt 0.310355 0.255809
vt 0.333811 0.258120
vt 0.315045 0.254387
vt 0.329489 0.255809
vt 0.319922 0.253906
vt 0.324799 0.254387
vt 0.344922 0.253906
vt 0.344922 0.303906
vt 0.344922 0.303906
vt 0.344922 0.253906
vt 0.344922 0.303906
vt 0.344922 0.303906
vt 0.344922 0.253906
vt 0.344922 0.303906
vt 0.344922 0.253906
vt 0.344922 0.303906
vt 0.344922 0.253906
vt 0.344922 0.253906
vt 0.344922 0.253906
vt 0.344922 0.253906
vt 0.344922 0.303906
vt 0.344922 0.303906
vt 0.344922 0.253906
vt 0.344922 0.303906
vt 0.344922 0.253906
vt 0.344922 0.253906
vt 0.344922 0.303906
vt 0.344922 0.253906
vt 0.344922 0.303906
vt 0.344922 0.253906
vt 0.344922 0.303906
vt 0.344922 0.253906
vt 0.344922 0.303906
vt 0.344922 0.303906
vt 0.344922 0.253906
vt 0.344922 0.303906
vt 0.344922 0.303906
vt 0.344922 0.253906
vn -0.9779 -0.2092 -0.0000
vn 0.2092 -0.9779 0.0049
vn 0.9779 0.2092 -0.0000
vn -0.2092 0.9779 -0.0048
vn -0.2092 0.9779 -0.0049
vn -0.0010 0.0048 1.0000
vn 0.0010 -0.0048 -1.0000
vn 0.2092 -0.9779 0.0048
vn -0.0010 0.0047 1.0000
vn 0.0000 0.0000 1.0000
vn 0.0000 0.0000 -1.0000
vn 0.5308 0.8475 0.0000
vn -0.4099 0.9121 0.0000
vn -0.1657 -0.9862 0.0000
vn 0.6856 0.7280 0.0000
vn -0.2240 0.9746 0.0000
vn -0.3553 -0.9347 0.0000
vn -0.3551 -0.9348 0.0001
vn -0.3554 -0.9347 0.0000
vn 0.8147 0.5799 0.0000
vn -0.0298 0.9996 0.0000
vn -0.5305 -0.8477 0.0000
vn -0.5307 -0.8476 0.0001
vn 0.9121 0.4099 0.0000
vn -0.6859 -0.7277 0.0000
vn -0.6857 -0.7279 0.0000
vn 0.9745 0.2243 0.0000
vn 0.9746 0.2239 0.0000
vn 0.9746 0.2238 -0.0000
vn -0.8145 -0.5801 0.0000
vn 0.9996 0.0298 -0.0000
vn -0.9121 -0.4099 0.0000
vn 0.9861 -0.1660 -0.0000
vn 0.9862 -0.1657 0.0000
vn -0.9746 -0.2240 0.0000
vn -0.9745 -0.2244 0.0000
vn 0.9349 -0.3550 0.0000
vn -0.9996 -0.0294 0.0000
vn 0.8477 -0.5304 -0.0000
vn 0.8477 -0.5305 0.0000
vn 0.8475 -0.5308 0.0000
vn -0.9861 0.1660 0.0000
vn 0.7277 -0.6859 0.0000
vn 0.7278 -0.6858 0.0000
vn 0.7276 -0.6860 0.0000
vn -0.9349 0.3550 0.0000
vn 0.5802 -0.8145 0.0001
vn 0.5800 -0.8146 0.0000
vn 0.5799 -0.8147 -0.0000
vn -0.8476 0.5306 0.0000
vn 0.4100 -0.9121 0.0000
vn 0.1657 0.9862 0.0000
vn 0.1660 0.9861 0.0000
vn -0.7275 0.6861 0.0000
vn -0.7276 0.6860 0.0000
vn 0.2240 -0.9746 0.0001
vn 0.2240 -0.9746 -0.0000
vn 0.3550 0.9349 0.0000
vn -0.5800 0.8146 0.0000
vn -0.5801 0.8146 0.0000
vn -0.5799 0.8147 -0.0000
vn 0.0295 -0.9996 -0.0000
vn 0.0297 -0.9996 -0.0001
vn 0.0298 -0.9996 -0.0001
vn 0.5306 0.8476 0.0000
vn -0.1660 -0.9861 -0.0000
vn 0.6858 0.7278 0.0000
vn -0.3550 -0.9349 0.0000
vn -0.3551 -0.9348 -0.0000
vn 0.8145 0.5801 -0.0000
vn 0.9121 0.4100 0.0000
vn 0.9121 0.4101 0.0000
vn 0.9746 0.2240 0.0000
vn 0.9996 0.0300 -0.0000
vn 0.9996 0.0299 0.0000
vn -0.9745 -0.2243 0.0000
vn 0.9347 -0.3555 -0.0000
vn 0.9347 -0.3554 -0.0000
vn -0.9996 -0.0297 0.0000
vn -0.9996 -0.0298 0.0000
vn 0.8476 -0.5307 -0.0000
vn 0.4099 -0.9121 0.0000
vn 0.1658 0.9862 -0.0000
vn 0.1660 0.9861 -0.0001
vn -0.7277 0.6859 0.0000
vn -0.7276 0.6860 0.0001
vn 0.2241 -0.9746 -0.0000
vn 0.3552 0.9348 -0.0001
vn 0.3553 0.9348 -0.0001
vn -0.5803 0.8144 0.0001
vn -0.5801 0.8145 0.0000
vn 0.0298 -0.9996 0.0000
vn -0.4102 0.9120 0.0000
vn 0.9348 -0.3553 -0.0000
vn 0.4097 -0.9122 0.0000
vn 0.2243 -0.9745 -0.0001
vn 0.3553 0.9347 0.0000
vn 0.6857 0.7278 0.0000
vn 0.5801 -0.8146 -0.0000
vn -0.7279 0.6857 -0.0000
vn 0.2239 -0.9746 -0.0001
vn 0.0299 -0.9996 0.0000
usemtl Default_OBJ.027
s 1
f 1/1/1 2/2/1 3/3/1
f 2/4/2 4/5/2 5/6/2
f 5/7/3 6/8/3 7/9/3
f 6/10/4 3/11/5 7/12/5
f 5/13/6 3/11/6 2/4/6
f 4/14/7 1/15/7 6/16/7
f 8/17/1 9/18/1 10/19/1
f 9/20/8 11/21/8 12/22/8
f 12/23/3 13/24/3 14/25/3
f 13/26/4 10/27/5 14/28/5
f 12/29/9 10/27/6 9/20/9
f 11/30/7 8/31/7 13/32/7
f 15/33/10 16/34/10 17/35/10
f 18/36/11 19/37/11 20/38/11
f 16/39/12 21/40/12 22/41/12
f 23/42/13 24/43/13 25/44/13
f 26/45/14 27/46/14 28/47/14
f 15/48/15 29/49/15 16/50/15
f 30/51/16 18/52/16 23/53/16
f 31/54/17 32/55/18 26/56/19
f 15/57/20 33/58/20 34/59/20
f 35/60/21 19/61/21 30/62/21
f 31/63/22 36/64/23 37/65/23
f 38/66/24 39/67/24 33/68/24
f 40/69/25 36/70/26 41/71/25
f 42/72/27 43/73/28 39/74/29
f 44/75/30 45/76/30 40/77/30
f 46/78/31 47/79/31 43/80/31
f 44/81/32 48/82/32 49/83/32
f 50/84/33 47/85/34 51/86/33
f 52/87/35 53/88/35 48/89/36
f 50/90/37 54/91/37 55/92/37
f 56/93/38 57/94/38 53/95/38
f 58/96/39 59/97/40 54/98/41
f 60/99/42 57/100/42 61/101/42
f 62/102/43 59/103/44 63/104/45
f 60/105/46 64/106/46 65/107/46
f 66/108/47 67/109/48 62/110/49
f 68/111/50 64/112/50 69/113/50
f 70/114/51 71/115/51 66/116/51
f 72/117/52 73/118/53 35/119/53
f 17/120/54 74/121/55 68/122/54
f 70/123/56 75/124/57 76/125/57
f 22/126/58 20/127/58 72/128/58
f 25/129/59 77/130/60 17/131/61
f 78/132/62 27/133/63 75/134/64
f 79/135/10 80/136/10 81/137/10
f 82/138/11 83/139/11 84/140/11
f 85/141/65 86/142/65 87/143/65
f 88/144/13 89/145/13 90/146/13
f 91/147/14 92/148/66 93/149/14
f 80/150/67 94/151/67 86/152/67
f 95/153/16 82/154/16 88/155/16
f 96/156/68 97/157/69 91/158/19
f 79/159/70 98/160/20 94/161/20
f 99/162/21 83/163/21 95/164/21
f 96/165/22 100/166/22 101/167/22
f 102/168/71 98/169/24 103/170/72
f 104/171/25 105/172/25 100/173/25
f 102/174/27 106/175/73 107/176/28
f 108/177/30 109/178/30 105/179/30
f 110/180/74 111/181/75 106/182/75
f 112/183/32 109/184/32 113/185/32
f 114/186/34 111/187/34 115/188/33
f 112/189/35 116/190/35 117/191/76
f 118/192/77 119/193/78 114/194/37
f 120/195/79 121/196/80 116/197/80
f 118/198/81 122/199/39 123/200/41
f 124/201/42 121/202/42 125/203/42
f 126/204/43 127/205/44 122/206/44
f 128/207/46 129/208/46 124/209/46
f 130/210/48 131/211/49 127/212/49
f 132/213/50 133/214/50 128/215/50
f 134/216/82 135/217/51 131/218/51
f 136/219/83 137/220/84 99/221/83
f 81/222/85 138/223/86 132/224/54
f 139/225/57 140/226/87 135/227/57
f 85/228/88 84/229/58 136/230/89
f 90/231/90 141/232/91 81/233/90
f 142/234/92 92/235/63 140/236/64
f 1/1/1 143/237/1 2/2/1
f 2/4/2 143/238/8 4/5/2
f 5/7/3 4/239/3 6/8/3
f 6/10/4 1/15/4 3/11/5
f 5/13/6 7/240/6 3/11/6
f 4/14/7 143/238/7 1/15/7
f 8/17/1 144/241/1 9/18/1
f 9/20/8 144/242/8 11/21/8
f 12/23/3 11/243/3 13/24/3
f 13/26/4 8/31/4 10/27/5
f 12/29/9 14/244/6 10/27/6
f 11/30/7 144/242/7 8/31/7
f 22/245/10 72/246/10 23/247/10
f 72/246/10 35/248/10 30/249/10
f 23/247/10 72/246/10 30/249/10
f 23/247/10 25/250/10 22/245/10
f 25/250/10 17/35/10 16/34/10
f 22/245/10 25/250/10 16/34/10
f 17/35/10 68/251/10 15/33/10
f 68/251/10 69/252/10 38/253/10
f 15/33/10 68/251/10 38/253/10
f 69/252/10 60/254/10 42/255/10
f 60/254/10 61/256/10 46/257/10
f 42/255/10 60/254/10 46/257/10
f 61/256/10 56/258/10 51/259/10
f 56/258/10 52/260/10 50/261/10
f 51/259/10 56/258/10 50/261/10
f 52/260/10 44/262/10 58/263/10
f 44/262/10 40/264/10 63/265/10
f 58/263/10 44/262/10 63/265/10
f 40/264/10 41/266/10 62/267/10
f 41/266/10 31/268/10 66/269/10
f 62/267/10 41/266/10 66/269/10
f 31/268/10 26/270/10 70/271/10
f 26/270/10 28/272/10 78/273/10
f 70/271/10 26/270/10 78/273/10
f 70/271/10 66/269/10 31/268/10
f 62/267/10 63/265/10 40/264/10
f 58/263/10 50/261/10 52/260/10
f 51/259/10 46/257/10 61/256/10
f 42/255/10 38/253/10 69/252/10
f 73/274/11 20/38/11 19/37/11
f 20/38/11 21/275/11 18/36/11
f 21/275/11 29/276/11 24/277/11
f 29/276/11 34/278/11 77/279/11
f 34/278/11 33/280/11 74/281/11
f 33/280/11 39/282/11 64/283/11
f 39/282/11 43/284/11 65/285/11
f 43/284/11 47/286/11 57/287/11
f 47/286/11 55/288/11 53/289/11
f 55/288/11 54/290/11 48/291/11
f 54/290/11 59/292/11 49/293/11
f 59/292/11 67/294/11 45/295/11
f 67/294/11 71/296/11 36/297/11
f 71/296/11 76/298/11 37/299/11
f 76/298/11 75/300/11 32/301/11
f 75/300/11 27/302/11 32/301/11
f 32/301/11 37/299/11 76/298/11
f 37/299/11 36/297/11 71/296/11
f 36/297/11 45/295/11 67/294/11
f 45/295/11 49/293/11 59/292/11
f 49/293/11 48/291/11 54/290/11
f 48/291/11 53/289/11 55/288/11
f 53/289/11 57/287/11 47/286/11
f 57/287/11 65/285/11 43/284/11
f 65/285/11 64/283/11 39/282/11
f 64/283/11 74/281/11 33/280/11
f 74/281/11 77/279/11 34/278/11
f 77/279/11 24/277/11 29/276/11
f 24/277/11 18/36/11 21/275/11
f 16/39/12 29/303/12 21/40/12
f 23/42/13 18/304/93 24/43/13
f 26/45/14 32/305/14 27/46/14
f 15/48/15 34/306/15 29/49/15
f 30/51/16 19/307/16 18/52/16
f 31/54/17 37/308/18 32/55/18
f 15/57/20 38/309/20 33/58/20
f 35/60/21 73/310/21 19/61/21
f 31/63/22 41/311/22 36/64/23
f 38/66/24 42/312/24 39/67/24
f 40/69/25 45/313/25 36/70/26
f 42/72/27 46/314/27 43/73/28
f 44/75/30 49/315/30 45/76/30
f 46/78/31 51/316/31 47/79/31
f 44/81/32 52/317/32 48/82/32
f 50/84/33 55/318/34 47/85/34
f 52/87/35 56/319/35 53/88/35
f 50/90/37 58/320/94 54/91/37
f 56/93/38 61/321/79 57/94/38
f 58/96/39 63/322/41 59/97/40
f 60/99/42 65/323/42 57/100/42
f 62/102/43 67/324/44 59/103/44
f 60/105/46 69/325/46 64/106/46
f 66/108/47 71/326/49 67/109/48
f 68/111/50 74/327/50 64/112/50
f 70/114/51 76/328/95 71/115/51
f 72/117/52 20/329/52 73/118/53
f 17/120/54 77/330/85 74/121/55
f 70/123/56 78/331/96 75/124/57
f 22/126/58 21/332/97 20/127/58
f 25/129/59 24/333/60 77/130/60
f 78/132/62 28/334/92 27/133/63
f 85/335/10 136/336/10 88/337/10
f 136/336/10 99/338/10 95/339/10
f 88/337/10 136/336/10 95/339/10
f 88/337/10 90/340/10 85/335/10
f 90/340/10 81/137/10 80/136/10
f 85/335/10 90/340/10 80/136/10
f 81/137/10 132/341/10 79/135/10
f 132/341/10 128/342/10 103/343/10
f 79/135/10 132/341/10 103/343/10
f 128/342/10 124/344/10 102/345/10
f 124/344/10 125/346/10 110/347/10
f 102/345/10 124/344/10 110/347/10
f 125/346/10 120/348/10 115/349/10
f 120/348/10 112/350/10 114/351/10
f 115/349/10 120/348/10 114/351/10
f 112/350/10 113/352/10 118/353/10
f 113/352/10 108/354/10 126/355/10
f 118/353/10 113/352/10 126/355/10
f 108/354/10 104/356/10 130/357/10
f 104/356/10 96/358/10 134/359/10
f 130/357/10 104/356/10 134/359/10
f 96/358/10 91/360/10 139/361/10
f 91/360/10 93/362/10 142/363/10
f 139/361/10 91/360/10 142/363/10
f 139/361/10 134/359/10 96/358/10
f 130/357/10 126/355/10 108/354/10
f 118/353/10 114/351/10 112/350/10
f 115/349/10 110/347/10 125/346/10
f 102/345/10 103/343/10 128/342/10
f 137/364/11 84/140/11 83/139/11
f 84/140/11 87/365/11 82/138/11
f 87/365/11 86/366/11 89/367/11
f 86/366/11 94/368/11 141/369/11
f 94/368/11 98/370/11 138/371/11
f 98/370/11 107/372/11 133/373/11
f 107/372/11 106/374/11 129/375/11
f 106/374/11 111/376/11 121/377/11
f 111/376/11 119/378/11 116/379/11
f 119/378/11 123/380/11 117/381/11
f 123/380/11 122/382/11 109/383/11
f 122/382/11 127/384/11 105/385/11
f 127/384/11 131/386/11 100/387/11
f 131/386/11 135/388/11 101/389/11
f 135/388/11 140/390/11 97/391/11
f 140/390/11 92/392/11 97/391/11
f 97/391/11 101/389/11 135/388/11
f 101/389/11 100/387/11 131/386/11
f 100/387/11 105/385/11 127/384/11
f 105/385/11 109/383/11 122/382/11
f 109/383/11 117/381/11 123/380/11
f 117/381/11 116/379/11 119/378/11
f 116/379/11 121/377/11 111/376/11
f 121/377/11 129/375/11 106/374/11
f 129/375/11 133/373/11 107/372/11
f 133/373/11 138/371/11 98/370/11
f 138/371/11 141/369/11 94/368/11
f 141/369/11 89/367/11 86/366/11
f 89/367/11 82/138/11 87/365/11
f 85/141/65 80/393/65 86/142/65
f 88/144/13 82/394/13 89/145/13
f 91/147/14 97/395/66 92/148/66
f 80/150/67 79/396/98 94/151/67
f 95/153/16 83/397/16 82/154/16
f 96/156/68 101/398/69 97/157/69
f 79/159/70 103/399/70 98/160/20
f 99/162/21 137/400/21 83/163/21
f 96/165/22 104/401/22 100/166/22
f 102/168/71 107/402/24 98/169/24
f 104/171/25 108/403/25 105/172/25
f 102/174/27 110/404/27 106/175/73
f 108/177/30 113/405/30 109/178/30
f 110/180/74 115/406/31 111/181/75
f 112/183/32 117/407/32 109/184/32
f 114/186/34 119/408/33 111/187/34
f 112/189/35 120/409/35 116/190/35
f 118/192/77 123/410/78 119/193/78
f 120/195/79 125/411/79 121/196/80
f 118/198/81 126/412/81 122/199/39
f 124/201/42 129/413/42 121/202/42
f 126/204/43 130/414/43 127/205/44
f 128/207/46 133/415/46 129/208/46
f 130/210/48 134/416/99 131/211/49
f 132/213/50 138/417/50 133/214/50
f 134/216/82 139/418/82 135/217/51
f 136/219/83 84/419/84 137/220/84
f 81/222/85 141/420/100 138/223/86
f 139/225/57 142/421/101 140/226/87
f 85/228/88 87/422/58 84/229/58
f 90/231/90 89/423/60 141/232/91
f 142/234/92 93/424/102 92/235/63
