# Blender v3.1.2 OBJ File: ''
# www.blender.org
mtllib 20.mtl
o 20_Cube.055_20_Cube.001
v -0.786012 -3.905316 0.190797
v -0.764107 -3.800797 0.217911
v -0.786038 -3.905443 0.217392
v -0.764081 -3.800671 0.191317
v -0.782270 -3.796990 0.217911
v -0.804175 -3.901510 0.190797
v -0.804201 -3.901636 0.217392
v -0.782244 -3.796864 0.191317
v -0.751371 -3.763716 0.209162
v -0.752634 -3.760711 0.209162
v -0.781956 -3.760859 0.209162
v -0.762510 -3.752689 0.190059
v -0.759493 -3.753921 0.190059
v -0.772162 -3.752738 0.190059
v -0.754458 -3.758011 0.190059
v -0.754458 -3.758011 0.209162
v -0.765710 -3.752070 0.209162
v -0.768968 -3.752086 0.190059
v -0.768968 -3.752086 0.209162
v -0.775018 -3.783323 0.209162
v -0.777737 -3.781526 0.190059
v -0.775019 -3.783323 0.190059
v -0.752634 -3.760711 0.190059
v -0.765710 -3.752069 0.190059
v -0.780053 -3.779233 0.209162
v -0.777737 -3.781526 0.209162
v -0.750719 -3.766909 0.209162
v -0.751371 -3.763716 0.190059
v -0.762510 -3.752689 0.209162
v -0.781878 -3.776533 0.209162
v -0.780053 -3.779233 0.190059
v -0.750703 -3.770168 0.190059
v -0.750719 -3.766909 0.190059
v -0.783140 -3.773528 0.190059
v -0.781878 -3.776533 0.190059
v -0.750703 -3.770168 0.209162
v -0.751323 -3.773367 0.190059
v -0.783792 -3.770335 0.209162
v -0.783140 -3.773528 0.209162
v -0.752555 -3.776385 0.209162
v -0.751323 -3.773367 0.209162
v -0.783808 -3.767076 0.209162
v -0.783792 -3.770335 0.190059
v -0.754352 -3.779104 0.209162
v -0.752555 -3.776385 0.190059
v -0.783189 -3.763876 0.209162
v -0.783808 -3.767076 0.190059
v -0.756644 -3.781420 0.209162
v -0.754352 -3.779104 0.190059
v -0.783188 -3.763876 0.190059
v -0.759345 -3.783244 0.209162
v -0.756644 -3.781420 0.190059
v -0.780160 -3.758140 0.190059
v -0.781956 -3.760859 0.190059
v -0.762350 -3.784506 0.190059
v -0.759345 -3.783244 0.190059
v -0.780160 -3.758140 0.209162
v -0.777867 -3.755824 0.190059
v -0.765543 -3.785158 0.209162
v -0.762350 -3.784506 0.209162
v -0.775166 -3.754000 0.209162
v -0.777867 -3.755825 0.209162
v -0.768802 -3.785174 0.209162
v -0.765543 -3.785158 0.190059
v -0.759493 -3.753921 0.209162
v -0.756774 -3.755718 0.190059
v -0.772162 -3.752738 0.209162
v -0.775166 -3.754000 0.190059
v -0.772001 -3.784555 0.190059
v -0.768802 -3.785175 0.190059
v -0.756774 -3.755718 0.209162
v -0.772001 -3.784554 0.209162
vt 0.344922 0.253906
vt 0.294922 0.303906
vt 0.294922 0.253906
vt 0.344922 0.253906
vt 0.294922 0.303906
vt 0.294922 0.253906
vt 0.294922 0.253906
vt 0.344922 0.303906
vt 0.294922 0.303906
vt 0.294922 0.253906
vt 0.344922 0.303906
vt 0.294922 0.303906
vt 0.344922 0.303906
vt 0.294922 0.303906
vt 0.294922 0.253906
vt 0.306033 0.299693
vt 0.310355 0.302003
vt 0.344442 0.274029
vt 0.310355 0.302003
vt 0.315045 0.303426
vt 0.299135 0.292796
vt 0.344922 0.253906
vt 0.294922 0.303906
vt 0.294922 0.253906
vt 0.344922 0.253906
vt 0.294922 0.303906
vt 0.294922 0.253906
vt 0.294922 0.253906
vt 0.344922 0.303906
vt 0.294922 0.303906
vt 0.344922 0.253906
vt 0.294922 0.303906
vt 0.294922 0.253906
vt 0.294922 0.253906
vt 0.344922 0.303906
vt 0.294922 0.303906
vt 0.344922 0.253906
vt 0.294922 0.303906
vt 0.294922 0.253906
vt 0.344922 0.253906
vt 0.294922 0.303906
vt 0.294922 0.253906
vt 0.294922 0.253906
vt 0.344922 0.303906
vt 0.294922 0.303906
vt 0.344922 0.253906
vt 0.294922 0.303906
vt 0.294922 0.253906
vt 0.294922 0.253906
vt 0.344922 0.303906
vt 0.294922 0.303906
vt 0.294922 0.253906
vt 0.344922 0.303906
vt 0.294922 0.303906
vt 0.294922 0.253906
vt 0.344922 0.303906
vt 0.294922 0.303906
vt 0.344922 0.253906
vt 0.294922 0.303906
vt 0.294922 0.253906
vt 0.344922 0.253906
vt 0.294922 0.303906
vt 0.294922 0.253906
vt 0.344922 0.253906
vt 0.294922 0.303906
vt 0.294922 0.253906
vt 0.344922 0.253906
vt 0.294922 0.303906
vt 0.294922 0.253906
vt 0.344922 0.253906
vt 0.294922 0.303906
vt 0.294922 0.253906
vt 0.344922 0.253906
vt 0.294922 0.303906
vt 0.294922 0.253906
vt 0.344922 0.253906
vt 0.294922 0.303906
vt 0.294922 0.253906
vt 0.344922 0.253906
vt 0.294922 0.303906
vt 0.294922 0.253906
vt 0.294922 0.253906
vt 0.344922 0.303906
vt 0.294922 0.303906
vt 0.294922 0.253906
vt 0.344922 0.303906
vt 0.294922 0.303906
vt 0.294922 0.253906
vt 0.344922 0.303906
vt 0.294922 0.303906
vt 0.344922 0.253906
vt 0.294922 0.303906
vt 0.294922 0.253906
vt 0.344922 0.253906
vt 0.294922 0.303906
vt 0.294922 0.253906
vt 0.344922 0.253906
vt 0.294922 0.303906
vt 0.294922 0.253906
vt 0.294922 0.253906
vt 0.344922 0.303906
vt 0.294922 0.303906
vt 0.344922 0.253906
vt 0.294922 0.303906
vt 0.294922 0.253906
vt 0.294922 0.253906
vt 0.344922 0.303906
vt 0.294922 0.303906
vt 0.344922 0.253906
vt 0.294922 0.303906
vt 0.294922 0.253906
vt 0.344922 0.253906
vt 0.294922 0.303906
vt 0.294922 0.253906
vt 0.294922 0.253906
vt 0.344922 0.303906
vt 0.294922 0.303906
vt 0.344922 0.303906
vt 0.344922 0.303906
vt 0.344922 0.253906
vt 0.344922 0.253906
vt 0.344922 0.253906
vt 0.315045 0.303426
vt 0.319922 0.303906
vt 0.344442 0.283783
vt 0.324799 0.303426
vt 0.343019 0.288473
vt 0.329489 0.302003
vt 0.340709 0.292796
vt 0.333811 0.299693
vt 0.337600 0.296584
vt 0.344922 0.278906
vt 0.343019 0.269339
vt 0.340709 0.265017
vt 0.302244 0.296584
vt 0.337600 0.261229
vt 0.299135 0.292796
vt 0.333811 0.258120
vt 0.296825 0.288473
vt 0.329489 0.255809
vt 0.295402 0.283784
vt 0.324799 0.254387
vt 0.294922 0.278906
vt 0.319922 0.253906
vt 0.295402 0.274029
vt 0.315045 0.254387
vt 0.296825 0.269339
vt 0.310355 0.255809
vt 0.299135 0.265017
vt 0.306033 0.258120
vt 0.302244 0.261229
vt 0.319922 0.303906
vt 0.296825 0.288473
vt 0.324799 0.303426
vt 0.295402 0.283784
vt 0.329489 0.302003
vt 0.294922 0.278906
vt 0.333811 0.299693
vt 0.295402 0.274029
vt 0.337600 0.296584
vt 0.296825 0.269339
vt 0.340709 0.292796
vt 0.299135 0.265017
vt 0.343019 0.288473
vt 0.302244 0.261229
vt 0.344442 0.283783
vt 0.306033 0.258120
vt 0.344922 0.278906
vt 0.310355 0.255809
vt 0.344442 0.274029
vt 0.315045 0.254387
vt 0.343019 0.269339
vt 0.319922 0.253906
vt 0.340709 0.265017
vt 0.324799 0.254387
vt 0.337600 0.261229
vt 0.329489 0.255809
vt 0.333811 0.258120
vt 0.302244 0.296584
vt 0.306033 0.299693
vt 0.344922 0.303906
vt 0.344922 0.303906
vt 0.344922 0.253906
vt 0.344922 0.303906
vt 0.344922 0.253906
vt 0.344922 0.303906
vt 0.344922 0.303906
vt 0.344922 0.253906
vt 0.344922 0.303906
vt 0.344922 0.253906
vt 0.344922 0.253906
vt 0.344922 0.253906
vt 0.344922 0.303906
vt 0.344922 0.303906
vt 0.344922 0.303906
vt 0.344922 0.303906
vt 0.344922 0.303906
vt 0.344922 0.303906
vt 0.344922 0.303906
vt 0.344922 0.303906
vt 0.344922 0.253906
vt 0.344922 0.253906
vt 0.344922 0.253906
vt 0.344922 0.303906
vt 0.344922 0.303906
vt 0.344922 0.303906
vt 0.344922 0.253906
vt 0.344922 0.303906
vt 0.344922 0.253906
vt 0.344922 0.303906
vt 0.344922 0.303906
vt 0.344922 0.253906
vn 0.9787 -0.2051 -0.0000
vn 0.2051 0.9787 0.0048
vn -0.9787 0.2051 0.0000
vn -0.2051 -0.9787 -0.0048
vn -0.2051 -0.9787 -0.0049
vn -0.0010 -0.0048 1.0000
vn 0.0010 0.0048 -1.0000
vn -0.0000 0.0000 1.0000
vn -0.0000 0.0000 -1.0000
vn 0.8286 0.5598 0.0000
vn -0.0049 1.0000 0.0000
vn -0.0048 1.0000 -0.0001
vn -0.5514 -0.8343 0.0000
vn -0.5515 -0.8342 0.0000
vn -0.5512 -0.8344 -0.0000
vn 0.9219 0.3875 0.0000
vn 0.9219 0.3874 0.0000
vn 0.1899 0.9818 0.0000
vn 0.1901 0.9818 0.0001
vn 0.1902 0.9817 0.0001
vn -0.7036 -0.7106 0.0000
vn 0.9798 0.2001 0.0000
vn 0.3781 0.9258 0.0000
vn -0.8285 -0.5600 0.0000
vn -0.8287 -0.5597 -0.0000
vn 1.0000 0.0049 0.0000
vn -0.9220 -0.3873 0.0000
vn -0.9220 -0.3872 0.0000
vn 0.9817 -0.1903 0.0000
vn -0.9798 -0.2000 0.0000
vn -0.9798 -0.2001 0.0000
vn 0.9258 -0.3779 0.0000
vn -1.0000 -0.0049 0.0000
vn 0.8343 -0.5514 0.0000
vn -0.9818 0.1899 -0.0000
vn -0.9817 0.1902 -0.0000
vn 0.7108 -0.7034 0.0000
vn -0.9258 0.3779 0.0000
vn -0.9258 0.3781 -0.0000
vn -0.9257 0.3783 -0.0000
vn 0.5596 -0.8287 0.0000
vn -0.8344 0.5512 0.0000
vn 0.3873 -0.9220 0.0000
vn 0.3872 -0.9220 0.0000
vn -0.7105 0.7037 0.0001
vn -0.7106 0.7036 0.0000
vn 0.2000 -0.9798 0.0000
vn -0.5599 0.8286 0.0000
vn -0.5597 0.8287 0.0000
vn 0.0049 -1.0000 0.0000
vn 0.0052 -1.0000 0.0001
vn 0.5514 0.8343 0.0000
vn -0.3873 0.9219 0.0000
vn -0.3873 0.9220 0.0000
vn -0.3870 0.9221 0.0000
vn -0.1902 -0.9817 0.0000
vn -0.1903 -0.9817 0.0001
vn 0.7036 0.7106 0.0000
vn -0.2000 0.9798 0.0000
vn -0.3778 -0.9259 0.0000
vn -0.3779 -0.9258 0.0000
vn -0.0052 1.0000 0.0001
vn -0.9817 0.1902 -0.0001
vn -0.8342 0.5515 -0.0000
vn 0.0050 -1.0000 -0.0001
usemtl Default_OBJ.030
s 1
f 1/1/1 2/2/1 3/3/1
f 4/4/2 5/5/2 2/6/2
f 5/7/3 6/8/3 7/9/3
f 7/10/4 1/11/4 3/12/5
f 2/6/6 7/13/6 3/12/6
f 4/4/7 6/14/7 8/15/7
f 9/16/8 10/17/8 11/18/8
f 12/19/9 13/20/9 14/21/9
f 10/22/10 15/23/10 16/24/10
f 17/25/11 18/26/12 19/27/11
f 20/28/13 21/29/14 22/30/15
f 9/31/16 23/32/17 10/33/16
f 17/34/18 12/35/19 24/36/20
f 25/37/21 21/38/21 26/39/21
f 27/40/22 28/41/22 9/42/22
f 29/43/23 13/44/23 12/45/23
f 30/46/24 31/47/25 25/48/24
f 27/49/26 32/50/26 33/51/26
f 30/52/27 34/53/28 35/54/28
f 36/55/29 37/56/29 32/57/29
f 38/58/30 34/59/31 39/60/30
f 40/61/32 37/62/32 41/63/32
f 42/64/33 43/65/33 38/66/33
f 44/67/34 45/68/34 40/69/34
f 46/70/35 47/71/36 42/72/35
f 48/73/37 49/74/37 44/75/37
f 11/76/38 50/77/39 46/78/40
f 51/79/41 52/80/41 48/81/41
f 11/82/42 53/83/42 54/84/42
f 51/85/43 55/86/44 56/87/44
f 57/88/45 58/89/46 53/90/46
f 59/91/47 55/92/47 60/93/47
f 61/94/48 58/95/49 62/96/48
f 63/97/50 64/98/51 59/99/50
f 65/100/52 66/101/52 13/102/52
f 67/103/53 68/104/54 61/105/55
f 63/106/56 69/107/57 70/108/57
f 16/109/58 66/110/58 71/111/58
f 19/112/59 14/113/59 67/114/59
f 72/115/60 22/116/61 69/117/61
f 1/1/1 4/118/1 2/2/1
f 4/4/2 8/119/2 5/5/2
f 5/7/3 8/120/3 6/8/3
f 7/10/4 6/121/4 1/11/4
f 2/6/6 5/122/6 7/13/6
f 4/4/7 1/11/7 6/14/7
f 16/123/8 71/124/8 62/125/8
f 71/124/8 65/126/8 61/127/8
f 62/125/8 71/124/8 61/127/8
f 65/126/8 29/128/8 67/129/8
f 29/128/8 17/130/8 19/131/8
f 67/129/8 29/128/8 19/131/8
f 67/129/8 61/127/8 65/126/8
f 62/125/8 57/132/8 16/123/8
f 57/132/8 11/18/8 10/17/8
f 16/123/8 57/132/8 10/17/8
f 11/18/8 46/133/8 9/16/8
f 46/133/8 42/134/8 27/135/8
f 9/16/8 46/133/8 27/135/8
f 42/134/8 38/136/8 36/137/8
f 38/136/8 39/138/8 41/139/8
f 36/137/8 38/136/8 41/139/8
f 39/138/8 30/140/8 40/141/8
f 30/140/8 25/142/8 44/143/8
f 40/141/8 30/140/8 44/143/8
f 25/142/8 26/144/8 48/145/8
f 26/144/8 20/146/8 51/147/8
f 48/145/8 26/144/8 51/147/8
f 20/146/8 72/148/8 60/149/8
f 72/148/8 63/150/8 59/151/8
f 60/149/8 72/148/8 59/151/8
f 60/149/8 51/147/8 20/146/8
f 48/145/8 44/143/8 25/142/8
f 40/141/8 41/139/8 39/138/8
f 36/137/8 27/135/8 42/134/8
f 13/20/9 66/152/9 68/153/9
f 66/152/9 15/154/9 58/155/9
f 15/154/9 23/156/9 53/157/9
f 23/156/9 28/158/9 54/159/9
f 28/158/9 33/160/9 50/161/9
f 33/160/9 32/162/9 47/163/9
f 32/162/9 37/164/9 43/165/9
f 37/164/9 45/166/9 34/167/9
f 45/166/9 49/168/9 35/169/9
f 49/168/9 52/170/9 31/171/9
f 52/170/9 56/172/9 21/173/9
f 56/172/9 55/174/9 22/175/9
f 55/174/9 64/176/9 69/177/9
f 64/176/9 70/178/9 69/177/9
f 69/177/9 22/175/9 55/174/9
f 22/175/9 21/173/9 56/172/9
f 21/173/9 31/171/9 52/170/9
f 31/171/9 35/169/9 49/168/9
f 35/169/9 34/167/9 45/166/9
f 34/167/9 43/165/9 37/164/9
f 43/165/9 47/163/9 32/162/9
f 47/163/9 50/161/9 33/160/9
f 50/161/9 54/159/9 28/158/9
f 54/159/9 53/157/9 23/156/9
f 53/157/9 58/155/9 15/154/9
f 58/155/9 68/153/9 66/152/9
f 68/153/9 14/21/9 13/20/9
f 14/21/9 18/179/9 12/19/9
f 18/179/9 24/180/9 12/19/9
f 10/22/10 23/181/10 15/23/10
f 17/25/11 24/182/62 18/26/12
f 20/28/13 26/183/13 21/29/14
f 9/31/16 28/184/17 23/32/17
f 17/34/18 29/185/18 12/35/19
f 25/37/21 31/186/21 21/38/21
f 27/40/22 33/187/22 28/41/22
f 29/43/23 65/188/23 13/44/23
f 30/46/24 35/189/24 31/47/25
f 27/49/26 36/190/26 32/50/26
f 30/52/27 39/191/27 34/53/28
f 36/55/29 41/192/29 37/56/29
f 38/58/30 43/193/31 34/59/31
f 40/61/32 45/194/32 37/62/32
f 42/64/33 47/195/33 43/65/33
f 44/67/34 49/196/34 45/68/34
f 46/70/35 50/197/63 47/71/36
f 48/73/37 52/198/37 49/74/37
f 11/76/38 54/199/39 50/77/39
f 51/79/41 56/200/41 52/80/41
f 11/82/42 57/201/64 53/83/42
f 51/85/43 60/202/43 55/86/44
f 57/88/45 62/203/45 58/89/46
f 59/91/47 64/204/47 55/92/47
f 61/94/48 68/205/49 58/95/49
f 63/97/50 70/206/65 64/98/51
f 65/100/52 71/207/52 66/101/52
f 67/103/53 14/208/54 68/104/54
f 63/106/56 72/209/56 69/107/57
f 16/109/58 15/210/58 66/110/58
f 19/112/59 18/211/59 14/113/59
f 72/115/60 20/212/60 22/116/61
