# Blender v3.1.2 OBJ File: ''
# www.blender.org
mtllib 21.mtl
o 21_Circle.059_21_Circle.001
v -1.771646 -3.391293 0.210063
v -1.748229 -3.393396 0.210063
v -1.746125 -3.369980 0.210063
v -1.773614 -3.372925 0.190960
v -1.751175 -3.365907 0.190960
v -1.744157 -3.388347 0.190960
v -1.773479 -3.388598 0.210063
v -1.771646 -3.391293 0.190960
v -1.760373 -3.397194 0.210063
v -1.757114 -3.397166 0.190960
v -1.757114 -3.397166 0.210063
v -1.748450 -3.367695 0.210063
v -1.751175 -3.365907 0.210063
v -1.774752 -3.385598 0.210063
v -1.773479 -3.388598 0.190960
v -1.763575 -3.396586 0.210063
v -1.760373 -3.397194 0.190960
v -1.748450 -3.367695 0.190960
v -1.775416 -3.382407 0.210063
v -1.774752 -3.385598 0.190960
v -1.766596 -3.395364 0.210063
v -1.763575 -3.396586 0.190960
v -1.744292 -3.372674 0.210063
v -1.746125 -3.369980 0.190960
v -1.775443 -3.379148 0.210063
v -1.775416 -3.382407 0.190960
v -1.743019 -3.375674 0.210063
v -1.744292 -3.372674 0.190960
v -1.774835 -3.375947 0.210063
v -1.775443 -3.379148 0.190960
v -1.742356 -3.378865 0.210063
v -1.743019 -3.375674 0.190960
v -1.773614 -3.372925 0.210063
v -1.774835 -3.375947 0.190960
v -1.742327 -3.382124 0.210063
v -1.742356 -3.378865 0.190960
v -1.771827 -3.370200 0.210063
v -1.742936 -3.385325 0.210063
v -1.742327 -3.382124 0.190960
v -1.769542 -3.367876 0.210063
v -1.771827 -3.370200 0.190960
v -1.744157 -3.388347 0.210063
v -1.742936 -3.385325 0.190960
v -1.766848 -3.366042 0.210063
v -1.769542 -3.367876 0.190960
v -1.745945 -3.391072 0.210063
v -1.763848 -3.364769 0.210063
v -1.766848 -3.366042 0.190960
v -1.745945 -3.391072 0.190960
v -1.760657 -3.364106 0.210063
v -1.763848 -3.364769 0.190960
v -1.750923 -3.395230 0.210063
v -1.748229 -3.393396 0.190960
v -1.757398 -3.364078 0.210063
v -1.760657 -3.364106 0.190960
v -1.769321 -3.393577 0.210063
v -1.766596 -3.395364 0.190960
v -1.753923 -3.396503 0.210063
v -1.750923 -3.395230 0.190960
v -1.754196 -3.364686 0.210063
v -1.757398 -3.364078 0.190960
v -1.769321 -3.393577 0.190960
v -1.753923 -3.396503 0.190960
v -1.754196 -3.364686 0.190960
v -1.829458 -3.486196 0.210063
v -1.825660 -3.498340 0.210063
v -1.800140 -3.477027 0.210063
v -1.797033 -3.482721 0.190960
v -1.798171 -3.495394 0.190960
v -1.820611 -3.502412 0.190960
v -1.827494 -3.495646 0.210063
v -1.825660 -3.498340 0.190960
v -1.814387 -3.504241 0.210063
v -1.811128 -3.504214 0.190960
v -1.811128 -3.504214 0.210063
v -1.802464 -3.474743 0.210063
v -1.805189 -3.472955 0.190960
v -1.805189 -3.472955 0.210063
v -1.828766 -3.492646 0.210063
v -1.827494 -3.495646 0.190960
v -1.817589 -3.503633 0.210063
v -1.814387 -3.504241 0.190960
v -1.802464 -3.474743 0.190960
v -1.829430 -3.489455 0.210063
v -1.828766 -3.492646 0.190960
v -1.820611 -3.502412 0.210063
v -1.817589 -3.503633 0.190960
v -1.798306 -3.479722 0.210063
v -1.800140 -3.477027 0.190960
v -1.829430 -3.489455 0.190960
v -1.797033 -3.482721 0.210063
v -1.798306 -3.479722 0.190960
v -1.828849 -3.482994 0.210063
v -1.829458 -3.486196 0.190960
v -1.796370 -3.485912 0.210063
v -1.827628 -3.479973 0.210063
v -1.828849 -3.482994 0.190960
v -1.796342 -3.489171 0.210063
v -1.796370 -3.485912 0.190960
v -1.825841 -3.477247 0.210063
v -1.827628 -3.479973 0.190960
v -1.796950 -3.492373 0.210063
v -1.796342 -3.489171 0.190960
v -1.823556 -3.474923 0.210063
v -1.825841 -3.477247 0.190960
v -1.798171 -3.495394 0.210063
v -1.796950 -3.492373 0.190960
v -1.820862 -3.473090 0.210063
v -1.823556 -3.474923 0.190960
v -1.799959 -3.498120 0.210063
v -1.817862 -3.471817 0.210063
v -1.820862 -3.473090 0.190960
v -1.802243 -3.500444 0.210063
v -1.799959 -3.498120 0.190960
v -1.814671 -3.471154 0.210063
v -1.817862 -3.471817 0.190960
v -1.804937 -3.502277 0.210063
v -1.802243 -3.500444 0.190960
v -1.811412 -3.471126 0.210063
v -1.814671 -3.471154 0.190960
v -1.823336 -3.500625 0.210063
v -1.807938 -3.503551 0.210063
v -1.804937 -3.502277 0.190960
v -1.808211 -3.471734 0.210063
v -1.811412 -3.471126 0.190960
v -1.823336 -3.500625 0.190960
v -1.807938 -3.503551 0.190960
v -1.808211 -3.471734 0.190960
v -1.781657 -3.407259 0.217515
v -1.807783 -3.457162 0.191194
v -1.807723 -3.457047 0.217788
v -1.791342 -3.465769 0.191194
v -1.791282 -3.465655 0.217788
v -1.765216 -3.415867 0.217515
v -1.765276 -3.415981 0.190921
v -1.833873 -3.509910 0.190921
v -1.859879 -3.559583 0.217788
v -1.833813 -3.509795 0.217515
v -1.859939 -3.559697 0.191194
v -1.843438 -3.568190 0.217788
v -1.817433 -3.518517 0.190921
v -1.817373 -3.518402 0.217515
v -1.843498 -3.568305 0.191194
v -1.781717 -3.407374 0.190921
vt 0.315045 0.303426
vt 0.344442 0.283783
vt 0.324799 0.254387
vt 0.344442 0.283783
vt 0.324799 0.254387
vt 0.295402 0.274029
vt 0.344922 0.253906
vt 0.294922 0.303906
vt 0.294922 0.253906
vt 0.344922 0.253906
vt 0.294922 0.303906
vt 0.294922 0.253906
vt 0.344922 0.253906
vt 0.294922 0.303906
vt 0.294922 0.253906
vt 0.344922 0.253906
vt 0.294922 0.303906
vt 0.294922 0.253906
vt 0.344922 0.253906
vt 0.294922 0.303906
vt 0.294922 0.253906
vt 0.344922 0.253906
vt 0.294922 0.303906
vt 0.294922 0.253906
vt 0.344922 0.253906
vt 0.294922 0.303906
vt 0.294922 0.253906
vt 0.344922 0.253906
vt 0.294922 0.303906
vt 0.294922 0.253906
vt 0.344922 0.253906
vt 0.294922 0.303906
vt 0.294922 0.253906
vt 0.344922 0.253906
vt 0.294922 0.303906
vt 0.294922 0.253906
vt 0.344922 0.253906
vt 0.294922 0.303906
vt 0.294922 0.253906
vt 0.344922 0.253906
vt 0.294922 0.303906
vt 0.294922 0.253906
vt 0.344922 0.253906
vt 0.294922 0.303906
vt 0.294922 0.253906
vt 0.344922 0.253906
vt 0.294922 0.303906
vt 0.294922 0.253906
vt 0.344922 0.253906
vt 0.294922 0.303906
vt 0.294922 0.253906
vt 0.344922 0.253906
vt 0.294922 0.303906
vt 0.294922 0.253906
vt 0.344922 0.253906
vt 0.294922 0.303906
vt 0.294922 0.253906
vt 0.344922 0.253906
vt 0.294922 0.303906
vt 0.294922 0.253906
vt 0.344922 0.253906
vt 0.294922 0.303906
vt 0.294922 0.253906
vt 0.344922 0.253906
vt 0.294922 0.303906
vt 0.294922 0.253906
vt 0.344922 0.253906
vt 0.294922 0.303906
vt 0.294922 0.253906
vt 0.344922 0.253906
vt 0.294922 0.303906
vt 0.294922 0.253906
vt 0.344922 0.253906
vt 0.294922 0.303906
vt 0.294922 0.253906
vt 0.344922 0.253906
vt 0.294922 0.303906
vt 0.294922 0.253906
vt 0.344922 0.253906
vt 0.294922 0.303906
vt 0.294922 0.253906
vt 0.344922 0.253906
vt 0.294922 0.303906
vt 0.294922 0.253906
vt 0.344922 0.253906
vt 0.294922 0.303906
vt 0.294922 0.253906
vt 0.344922 0.253906
vt 0.294922 0.303906
vt 0.294922 0.253906
vt 0.344922 0.253906
vt 0.294922 0.303906
vt 0.294922 0.253906
vt 0.344922 0.253906
vt 0.294922 0.303906
vt 0.294922 0.253906
vt 0.344922 0.253906
vt 0.294922 0.303906
vt 0.294922 0.253906
vt 0.344922 0.253906
vt 0.294922 0.303906
vt 0.294922 0.253906
vt 0.299135 0.292796
vt 0.315045 0.303426
vt 0.324799 0.254387
vt 0.306033 0.258120
vt 0.295402 0.274029
vt 0.315045 0.303426
vt 0.344922 0.253906
vt 0.294922 0.303906
vt 0.294922 0.253906
vt 0.344922 0.253906
vt 0.294922 0.303906
vt 0.294922 0.253906
vt 0.344922 0.253906
vt 0.294922 0.303906
vt 0.294922 0.253906
vt 0.344922 0.253906
vt 0.294922 0.303906
vt 0.294922 0.253906
vt 0.344922 0.253906
vt 0.294922 0.303906
vt 0.294922 0.253906
vt 0.344922 0.253906
vt 0.294922 0.303906
vt 0.294922 0.253906
vt 0.344922 0.253906
vt 0.294922 0.303906
vt 0.294922 0.253906
vt 0.344922 0.253906
vt 0.294922 0.303906
vt 0.294922 0.253906
vt 0.344922 0.253906
vt 0.294922 0.303906
vt 0.294922 0.253906
vt 0.344922 0.253906
vt 0.294922 0.303906
vt 0.294922 0.253906
vt 0.344922 0.253906
vt 0.294922 0.303906
vt 0.294922 0.253906
vt 0.344922 0.253906
vt 0.294922 0.303906
vt 0.294922 0.253906
vt 0.344922 0.253906
vt 0.294922 0.303906
vt 0.294922 0.253906
vt 0.344922 0.253906
vt 0.294922 0.303906
vt 0.294922 0.253906
vt 0.344922 0.253906
vt 0.294922 0.303906
vt 0.294922 0.253906
vt 0.344922 0.253906
vt 0.294922 0.303906
vt 0.294922 0.253906
vt 0.344922 0.253906
vt 0.294922 0.303906
vt 0.294922 0.253906
vt 0.344922 0.253906
vt 0.294922 0.303906
vt 0.294922 0.253906
vt 0.344922 0.253906
vt 0.294922 0.303906
vt 0.294922 0.253906
vt 0.344922 0.253906
vt 0.294922 0.303906
vt 0.294922 0.253906
vt 0.344922 0.253906
vt 0.294922 0.303906
vt 0.294922 0.253906
vt 0.344922 0.253906
vt 0.294922 0.303906
vt 0.294922 0.253906
vt 0.344922 0.253906
vt 0.294922 0.303906
vt 0.294922 0.253906
vt 0.344922 0.253906
vt 0.294922 0.303906
vt 0.294922 0.253906
vt 0.344922 0.253906
vt 0.294922 0.303906
vt 0.294922 0.253906
vt 0.344922 0.253906
vt 0.294922 0.303906
vt 0.294922 0.253906
vt 0.344922 0.253906
vt 0.294922 0.303906
vt 0.294922 0.253906
vt 0.344922 0.253906
vt 0.294922 0.303906
vt 0.294922 0.253906
vt 0.344922 0.253906
vt 0.294922 0.303906
vt 0.294922 0.253906
vt 0.344922 0.253906
vt 0.294922 0.303906
vt 0.294922 0.253906
vt 0.344922 0.253906
vt 0.294922 0.303906
vt 0.294922 0.253906
vt 0.344922 0.253906
vt 0.294922 0.303906
vt 0.294922 0.253906
vt 0.294922 0.253906
vt 0.344922 0.303906
vt 0.294922 0.303906
vt 0.294922 0.253906
vt 0.344922 0.303906
vt 0.294922 0.303906
vt 0.344922 0.253906
vt 0.294922 0.303906
vt 0.294922 0.253906
vt 0.344922 0.253906
vt 0.294922 0.303906
vt 0.294922 0.253906
vt 0.344922 0.303906
vt 0.344922 0.253906
vt 0.294922 0.303906
vt 0.294922 0.253906
vt 0.344922 0.253906
vt 0.294922 0.303906
vt 0.294922 0.253906
vt 0.344922 0.253906
vt 0.294922 0.303906
vt 0.294922 0.253906
vt 0.294922 0.253906
vt 0.344922 0.303906
vt 0.294922 0.303906
vt 0.294922 0.253906
vt 0.344922 0.303906
vt 0.294922 0.303906
vt 0.344922 0.303906
vt 0.294922 0.303906
vt 0.294922 0.253906
vt 0.319922 0.303906
vt 0.324799 0.303426
vt 0.329489 0.302003
vt 0.333811 0.299693
vt 0.337600 0.296584
vt 0.340709 0.292796
vt 0.343019 0.288473
vt 0.344922 0.278906
vt 0.344442 0.274029
vt 0.343019 0.269339
vt 0.340709 0.265017
vt 0.337600 0.261229
vt 0.333811 0.258120
vt 0.329489 0.255809
vt 0.319922 0.253906
vt 0.306033 0.258120
vt 0.315045 0.254387
vt 0.310355 0.255809
vt 0.302244 0.261229
vt 0.299135 0.265017
vt 0.296825 0.269339
vt 0.295402 0.274029
vt 0.294922 0.278906
vt 0.295402 0.283784
vt 0.296825 0.288473
vt 0.299135 0.292796
vt 0.302244 0.296584
vt 0.306033 0.299693
vt 0.310355 0.302003
vt 0.315045 0.303426
vt 0.319922 0.303906
vt 0.333811 0.299693
vt 0.324799 0.303426
vt 0.329489 0.302003
vt 0.337600 0.296584
vt 0.340709 0.292796
vt 0.343019 0.288473
vt 0.344922 0.278906
vt 0.344442 0.274029
vt 0.343019 0.269339
vt 0.340709 0.265017
vt 0.337600 0.261229
vt 0.333811 0.258120
vt 0.329489 0.255809
vt 0.319922 0.253906
vt 0.315045 0.254387
vt 0.310355 0.255809
vt 0.306033 0.258120
vt 0.302244 0.261229
vt 0.299135 0.265017
vt 0.296825 0.269339
vt 0.294922 0.278906
vt 0.295402 0.283784
vt 0.296825 0.288473
vt 0.299135 0.292796
vt 0.302244 0.296584
vt 0.306033 0.299693
vt 0.310355 0.302003
vt 0.344922 0.303906
vt 0.344922 0.303906
vt 0.344922 0.303906
vt 0.344922 0.303906
vt 0.344922 0.303906
vt 0.344922 0.303906
vt 0.344922 0.303906
vt 0.344922 0.303906
vt 0.344922 0.303906
vt 0.344922 0.303906
vt 0.344922 0.303906
vt 0.344922 0.303906
vt 0.344922 0.303906
vt 0.344922 0.303906
vt 0.344922 0.303906
vt 0.344922 0.303906
vt 0.344922 0.303906
vt 0.344922 0.303906
vt 0.344922 0.303906
vt 0.344922 0.303906
vt 0.344922 0.303906
vt 0.344922 0.303906
vt 0.344922 0.303906
vt 0.344922 0.303906
vt 0.344922 0.303906
vt 0.344922 0.303906
vt 0.344922 0.303906
vt 0.344922 0.303906
vt 0.344922 0.303906
vt 0.344922 0.303906
vt 0.344922 0.303906
vt 0.344922 0.303906
vt 0.319922 0.303906
vt 0.324799 0.303426
vt 0.329489 0.302003
vt 0.333811 0.299693
vt 0.337600 0.296584
vt 0.344442 0.283783
vt 0.340709 0.292796
vt 0.343019 0.288473
vt 0.344922 0.278906
vt 0.344442 0.274029
vt 0.343019 0.269339
vt 0.340709 0.265017
vt 0.337600 0.261229
vt 0.333811 0.258120
vt 0.329489 0.255809
vt 0.319922 0.253906
vt 0.315045 0.254387
vt 0.310355 0.255809
vt 0.306033 0.258120
vt 0.302244 0.261229
vt 0.295402 0.274029
vt 0.299135 0.265017
vt 0.296825 0.269339
vt 0.294922 0.278906
vt 0.295402 0.283784
vt 0.296825 0.288473
vt 0.302244 0.296584
vt 0.306033 0.299693
vt 0.310355 0.302003
vt 0.319922 0.303906
vt 0.324799 0.303426
vt 0.329489 0.302003
vt 0.333811 0.299693
vt 0.337600 0.296584
vt 0.340709 0.292796
vt 0.343019 0.288473
vt 0.344442 0.283783
vt 0.344922 0.278906
vt 0.340709 0.265017
vt 0.344442 0.274029
vt 0.343019 0.269339
vt 0.337600 0.261229
vt 0.333811 0.258120
vt 0.329489 0.255809
vt 0.324799 0.254387
vt 0.319922 0.253906
vt 0.315045 0.254387
vt 0.310355 0.255809
vt 0.302244 0.261229
vt 0.299135 0.265017
vt 0.296825 0.269339
vt 0.294922 0.278906
vt 0.295402 0.283784
vt 0.296825 0.288473
vt 0.299135 0.292796
vt 0.302244 0.296584
vt 0.306033 0.299693
vt 0.310355 0.302003
vt 0.344922 0.303906
vt 0.344922 0.303906
vt 0.344922 0.303906
vt 0.344922 0.303906
vt 0.344922 0.303906
vt 0.344922 0.303906
vt 0.344922 0.303906
vt 0.344922 0.303906
vt 0.344922 0.303906
vt 0.344922 0.303906
vt 0.344922 0.303906
vt 0.344922 0.303906
vt 0.344922 0.303906
vt 0.344922 0.303906
vt 0.344922 0.303906
vt 0.344922 0.303906
vt 0.344922 0.303906
vt 0.344922 0.303906
vt 0.344922 0.303906
vt 0.344922 0.303906
vt 0.344922 0.303906
vt 0.344922 0.303906
vt 0.344922 0.303906
vt 0.344922 0.303906
vt 0.344922 0.303906
vt 0.344922 0.303906
vt 0.344922 0.303906
vt 0.344922 0.303906
vt 0.344922 0.303906
vt 0.344922 0.303906
vt 0.344922 0.303906
vt 0.344922 0.303906
vt 0.344922 0.253906
vt 0.344922 0.303906
vt 0.344922 0.303906
vt 0.344922 0.253906
vt 0.344922 0.303906
vt 0.344922 0.303906
vt 0.344922 0.253906
vt 0.344922 0.253906
vt 0.344922 0.253906
vn 0.0000 0.0000 1.0000
vn -0.0000 0.0000 -1.0000
vn -0.8266 -0.5628 0.0000
vn 0.0086 -1.0000 0.0000
vn 0.5486 0.8361 0.0000
vn -0.9205 -0.3906 0.0000
vn -0.1865 -0.9824 0.0000
vn 0.7010 0.7132 0.0000
vn 0.7009 0.7133 0.0000
vn -0.9790 -0.2037 0.0000
vn -0.9790 -0.2038 0.0000
vn -0.9791 -0.2033 0.0000
vn -0.3750 -0.9270 0.0000
vn 0.8268 0.5625 0.0000
vn 0.8268 0.5626 0.0000
vn -1.0000 -0.0086 0.0000
vn -1.0000 -0.0083 0.0000
vn 0.9205 0.3906 0.0000
vn -0.9824 0.1866 0.0000
vn 0.9791 0.2034 0.0000
vn -0.9272 0.3746 0.0000
vn -0.9272 0.3747 0.0000
vn 1.0000 0.0089 0.0000
vn -0.8363 0.5483 0.0000
vn -0.8362 0.5484 0.0000
vn 0.9824 -0.1869 0.0000
vn 0.9824 -0.1866 0.0000
vn 0.9825 -0.1865 -0.0000
vn -0.7131 0.7011 0.0000
vn -0.7130 0.7011 0.0000
vn 0.9272 -0.3746 0.0000
vn 0.9272 -0.3747 0.0000
vn -0.5627 0.8266 0.0000
vn -0.5628 0.8266 0.0000
vn 0.8361 -0.5485 0.0000
vn -0.3906 0.9206 0.0000
vn 0.7131 -0.7010 0.0000
vn 0.7132 -0.7010 0.0000
vn -0.2035 0.9791 0.0000
vn -0.2034 0.9791 0.0000
vn 0.5628 -0.8266 0.0000
vn -0.0086 1.0000 0.0000
vn -0.5484 -0.8362 0.0000
vn -0.5483 -0.8363 0.0000
vn 0.3906 -0.9206 0.0000
vn 0.1865 0.9824 0.0000
vn -0.7012 -0.7130 -0.0000
vn -0.7008 -0.7133 0.0000
vn 0.2034 -0.9791 0.0000
vn 0.3743 0.9273 0.0000
vn 0.3744 0.9273 0.0000
vn 0.3747 0.9271 0.0000
vn -0.8266 -0.5627 0.0000
vn 0.0083 -1.0000 0.0000
vn 0.5485 0.8361 0.0000
vn -0.9205 -0.3907 0.0000
vn -0.9207 -0.3903 0.0000
vn -0.9206 -0.3904 0.0000
vn -0.1865 -0.9825 0.0000
vn -0.1866 -0.9824 0.0000
vn 0.7009 0.7132 0.0000
vn -0.3746 -0.9272 0.0000
vn -0.3749 -0.9271 0.0000
vn 0.8267 0.5626 0.0000
vn -1.0000 -0.0085 0.0000
vn 0.9205 0.3907 0.0000
vn -0.9824 0.1868 0.0000
vn -0.9824 0.1869 0.0000
vn 0.9791 0.2033 0.0000
vn -0.9271 0.3748 0.0000
vn 1.0000 0.0086 0.0000
vn -0.8364 0.5482 0.0000
vn -0.8363 0.5482 0.0000
vn 0.9271 -0.3748 0.0000
vn -0.5625 0.8268 0.0000
vn 0.8362 -0.5485 0.0000
vn 0.8362 -0.5484 0.0000
vn 0.5625 -0.8268 0.0000
vn -0.5485 -0.8362 0.0000
vn 0.3908 -0.9205 0.0000
vn 0.1869 0.9824 -0.0000
vn 0.1866 0.9824 0.0000
vn -0.7011 -0.7131 0.0000
vn 0.2035 -0.9791 0.0000
vn 0.3746 0.9272 0.0000
vn -0.8859 0.4638 -0.0000
vn -0.4638 -0.8859 0.0048
vn -0.4638 -0.8859 0.0049
vn 0.8859 -0.4638 -0.0000
vn 0.4638 0.8859 -0.0049
vn 0.4638 0.8859 -0.0048
vn 0.0023 0.0043 1.0000
vn -0.0023 -0.0043 -1.0000
vn -0.0001 0.0000 1.0000
vn 0.0001 0.0000 1.0000
vn 0.0001 0.0000 -1.0000
vn -0.3749 -0.9270 0.0000
vn -0.8362 0.5485 0.0000
vn -0.0001 0.0000 -1.0000
usemtl Default_OBJ.033
s 1
f 1/1/1 2/2/1 3/3/1
f 4/4/2 5/5/2 6/6/2
f 7/7/3 8/8/3 1/9/3
f 9/10/4 10/11/4 11/12/4
f 12/13/5 5/14/5 13/15/5
f 14/16/6 15/17/6 7/18/6
f 16/19/7 17/20/7 9/21/7
f 3/22/8 18/23/9 12/24/8
f 19/25/10 20/26/11 14/27/12
f 21/28/13 22/29/13 16/30/13
f 23/31/14 24/32/15 3/33/14
f 25/34/16 26/35/16 19/36/17
f 27/37/18 28/38/18 23/39/18
f 29/40/19 30/41/19 25/42/19
f 31/43/20 32/44/20 27/45/20
f 33/46/21 34/47/22 29/48/21
f 35/49/23 36/50/23 31/51/23
f 37/52/24 4/53/25 33/54/24
f 38/55/26 39/56/27 35/57/28
f 40/58/29 41/59/30 37/60/29
f 42/61/31 43/62/32 38/63/31
f 44/64/33 45/65/34 40/66/33
f 46/67/35 6/68/35 42/69/35
f 47/70/36 48/71/36 44/72/36
f 2/73/37 49/74/38 46/75/37
f 50/76/39 51/77/40 47/78/39
f 52/79/41 53/80/41 2/81/41
f 54/82/42 55/83/42 50/84/42
f 56/85/43 57/86/44 21/87/43
f 58/88/45 59/89/45 52/90/45
f 60/91/46 61/92/46 54/93/46
f 1/94/47 62/95/48 56/96/48
f 11/97/49 63/98/49 58/99/49
f 13/100/50 64/101/51 60/102/52
f 65/103/1 66/104/1 67/105/1
f 68/106/2 69/107/2 70/108/2
f 71/109/53 72/110/53 66/111/53
f 73/112/54 74/113/54 75/114/54
f 76/115/5 77/116/55 78/117/5
f 79/118/56 80/119/57 71/120/58
f 81/121/59 82/122/60 73/123/59
f 67/124/8 83/125/61 76/126/8
f 84/127/10 85/128/11 79/129/10
f 86/130/62 87/131/62 81/132/63
f 88/133/64 89/134/64 67/135/15
f 65/136/65 90/137/17 84/138/65
f 91/139/66 92/140/66 88/141/66
f 93/142/67 94/143/68 65/144/67
f 95/145/20 68/146/69 91/147/20
f 96/148/22 97/149/70 93/150/22
f 98/151/71 99/152/71 95/153/71
f 100/154/72 101/155/73 96/156/72
f 102/157/26 103/158/26 98/159/27
f 104/160/29 105/161/29 100/162/29
f 106/163/32 107/164/74 102/165/32
f 108/166/75 109/167/75 104/168/75
f 110/169/76 69/170/77 106/171/76
f 111/172/36 112/173/36 108/174/36
f 113/175/38 114/176/38 110/177/38
f 115/178/39 116/179/40 111/180/39
f 117/181/41 118/182/78 113/183/78
f 119/184/42 120/185/42 115/186/42
f 121/187/43 70/188/79 86/189/43
f 122/190/80 123/191/80 117/192/80
f 124/193/81 125/194/82 119/195/82
f 66/196/83 126/197/83 121/198/83
f 75/199/84 127/200/84 122/201/84
f 78/202/85 128/203/85 124/204/85
f 129/205/86 130/206/86 131/207/86
f 131/208/87 132/209/88 133/210/87
f 132/211/89 134/212/89 133/213/89
f 135/214/90 129/215/90 134/216/91
f 131/208/92 134/217/92 129/215/92
f 130/218/93 135/219/93 132/220/93
f 136/221/86 137/222/86 138/223/86
f 139/224/88 140/225/88 137/226/87
f 140/227/89 141/228/89 142/229/89
f 142/230/90 136/231/90 138/232/90
f 137/226/92 142/233/92 138/232/92
f 139/224/93 141/234/93 143/235/93
f 1/1/1 56/236/1 21/237/1
f 21/237/1 16/238/1 9/239/1
f 9/239/1 11/240/1 58/241/1
f 58/241/1 52/242/1 9/239/1
f 52/242/1 2/2/1 9/239/1
f 2/2/1 46/243/94 42/244/1
f 42/244/1 38/245/1 2/2/1
f 38/245/1 35/246/1 2/2/1
f 35/246/1 31/247/1 3/3/1
f 31/247/1 27/248/1 3/3/1
f 27/248/1 23/249/1 3/3/1
f 3/3/1 12/250/1 54/251/1
f 12/250/1 13/252/1 54/251/1
f 13/252/1 60/253/1 54/251/1
f 54/251/1 50/254/1 47/255/1
f 47/255/1 44/256/1 54/251/1
f 44/256/1 40/257/1 54/251/1
f 40/257/1 37/258/95 33/259/1
f 33/259/1 29/260/94 25/261/1
f 25/261/1 19/262/1 1/1/1
f 19/262/1 14/263/1 1/1/1
f 14/263/1 7/264/1 1/1/1
f 1/1/1 21/237/1 2/2/1
f 21/237/1 9/239/1 2/2/1
f 40/257/1 33/259/1 1/1/1
f 33/259/1 25/261/1 1/1/1
f 2/2/1 35/246/1 3/3/1
f 3/3/1 54/251/1 1/1/1
f 54/251/1 40/257/1 1/1/1
f 57/265/2 62/266/2 20/267/2
f 62/266/2 8/268/2 20/267/2
f 8/268/2 15/269/96 20/267/2
f 20/267/2 26/270/2 4/4/2
f 26/270/2 30/271/2 4/4/2
f 30/271/2 34/272/2 4/4/2
f 4/4/2 41/273/2 45/274/2
f 45/274/2 48/275/2 4/4/2
f 48/275/2 51/276/2 4/4/2
f 51/276/2 55/277/2 61/278/2
f 61/278/2 64/279/2 5/5/2
f 5/5/2 18/280/2 24/281/2
f 24/281/2 28/282/2 32/283/2
f 32/283/2 36/284/2 6/6/2
f 36/284/2 39/285/2 6/6/2
f 39/285/2 43/286/2 6/6/2
f 6/6/2 49/287/2 53/288/2
f 53/288/2 59/289/2 63/290/2
f 63/290/2 10/291/2 57/265/2
f 10/291/2 17/292/2 57/265/2
f 17/292/2 22/293/2 57/265/2
f 51/276/2 61/278/2 4/4/2
f 61/278/2 5/5/2 4/4/2
f 5/5/2 24/281/2 6/6/2
f 24/281/2 32/283/2 6/6/2
f 6/6/2 53/288/2 57/265/2
f 53/288/2 63/290/2 57/265/2
f 57/265/2 20/267/2 4/4/2
f 57/265/2 4/4/2 6/6/2
f 7/7/3 15/294/3 8/8/3
f 9/10/4 17/295/4 10/11/4
f 12/13/5 18/296/5 5/14/5
f 14/16/6 20/297/6 15/17/6
f 16/19/7 22/298/7 17/20/7
f 3/22/8 24/299/9 18/23/9
f 19/25/10 26/300/11 20/26/11
f 21/28/13 57/301/97 22/29/13
f 23/31/14 28/302/64 24/32/15
f 25/34/16 30/303/16 26/35/16
f 27/37/18 32/304/18 28/38/18
f 29/40/19 34/305/19 30/41/19
f 31/43/20 36/306/20 32/44/20
f 33/46/21 4/307/22 34/47/22
f 35/49/23 39/308/23 36/50/23
f 37/52/24 41/309/98 4/53/25
f 38/55/26 43/310/27 39/56/27
f 40/58/29 45/311/30 41/59/30
f 42/61/31 6/312/32 43/62/32
f 44/64/33 48/313/34 45/65/34
f 46/67/35 49/314/35 6/68/35
f 47/70/36 51/315/36 48/71/36
f 2/73/37 53/316/38 49/74/38
f 50/76/39 55/317/40 51/77/40
f 52/79/41 59/318/41 53/80/41
f 54/82/42 61/319/42 55/83/42
f 56/85/43 62/320/44 57/86/44
f 58/88/45 63/321/45 59/89/45
f 60/91/46 64/322/46 61/92/46
f 1/94/47 8/323/48 62/95/48
f 11/97/49 10/324/49 63/98/49
f 13/100/50 5/325/52 64/101/51
f 66/104/1 121/326/1 86/327/1
f 86/327/1 81/328/1 73/329/1
f 73/329/1 75/330/1 113/331/1
f 75/330/1 122/332/1 113/331/1
f 122/332/1 117/333/1 113/331/1
f 113/331/1 110/334/94 106/335/1
f 106/335/1 102/336/1 98/337/1
f 98/337/1 95/338/1 91/339/1
f 91/339/1 88/340/1 98/337/1
f 88/340/1 67/105/1 98/337/1
f 67/105/1 76/341/1 78/342/1
f 78/342/1 124/343/1 67/105/1
f 124/343/1 119/344/1 67/105/1
f 119/344/1 115/345/1 104/346/1
f 115/345/1 111/347/1 104/346/1
f 111/347/1 108/348/1 104/346/1
f 104/346/1 100/349/1 65/103/1
f 100/349/1 96/350/1 65/103/1
f 96/350/1 93/351/1 65/103/1
f 65/103/1 84/352/1 79/353/1
f 79/353/1 71/354/1 66/104/1
f 66/104/1 86/327/1 113/331/1
f 86/327/1 73/329/1 113/331/1
f 113/331/1 106/335/1 98/337/1
f 65/103/1 79/353/1 66/104/1
f 113/331/1 98/337/1 66/104/1
f 98/337/1 67/105/1 66/104/1
f 67/105/1 119/344/1 104/346/1
f 104/346/1 65/103/1 67/105/1
f 70/108/2 126/355/2 72/356/2
f 72/356/2 80/357/2 85/358/2
f 85/358/2 90/359/99 94/360/2
f 94/360/2 97/361/2 101/362/2
f 101/362/2 105/363/2 116/364/2
f 105/363/2 109/365/2 116/364/2
f 109/365/2 112/366/2 116/364/2
f 116/364/2 120/367/2 125/368/2
f 125/368/2 128/369/2 116/364/2
f 128/369/2 77/370/2 116/364/2
f 77/370/2 83/371/2 68/106/2
f 83/371/2 89/372/2 68/106/2
f 89/372/2 92/373/96 68/106/2
f 68/106/2 99/374/99 103/375/2
f 103/375/2 107/376/96 69/107/2
f 69/107/2 114/377/2 118/378/2
f 118/378/2 123/379/2 127/380/2
f 127/380/2 74/381/2 70/108/2
f 74/381/2 82/382/2 70/108/2
f 82/382/2 87/383/2 70/108/2
f 70/108/2 72/356/2 85/358/2
f 85/358/2 94/360/2 70/108/2
f 94/360/2 101/362/2 70/108/2
f 68/106/2 103/375/2 69/107/2
f 69/107/2 118/378/2 70/108/2
f 118/378/2 127/380/2 70/108/2
f 101/362/2 116/364/2 70/108/2
f 116/364/2 77/370/2 70/108/2
f 77/370/2 68/106/2 70/108/2
f 71/109/53 80/384/53 72/110/53
f 73/112/54 82/385/54 74/113/54
f 76/115/5 83/386/55 77/116/55
f 79/118/56 85/387/57 80/119/57
f 81/121/59 87/388/60 82/122/60
f 67/124/8 89/389/61 83/125/61
f 84/127/10 90/390/11 85/128/11
f 86/130/62 70/391/62 87/131/62
f 88/133/64 92/392/64 89/134/64
f 65/136/65 94/393/16 90/137/17
f 91/139/66 68/394/66 92/140/66
f 93/142/67 97/395/19 94/143/68
f 95/145/20 99/396/69 68/146/69
f 96/148/22 101/397/70 97/149/70
f 98/151/71 103/398/71 99/152/71
f 100/154/72 105/399/73 101/155/73
f 102/157/26 107/400/27 103/158/26
f 104/160/29 109/401/29 105/161/29
f 106/163/32 69/402/74 107/164/74
f 108/166/75 112/403/75 109/167/75
f 110/169/76 114/404/77 69/170/77
f 111/172/36 116/405/36 112/173/36
f 113/175/38 118/406/38 114/176/38
f 115/178/39 120/407/40 116/179/40
f 117/181/41 123/408/41 118/182/78
f 119/184/42 125/409/42 120/185/42
f 121/187/43 126/410/79 70/188/79
f 122/190/80 127/411/80 123/191/80
f 124/193/81 128/412/82 125/194/82
f 66/196/83 72/413/83 126/197/83
f 75/199/84 74/414/84 127/200/84
f 78/202/85 77/415/85 128/203/85
f 129/205/86 144/416/86 130/206/86
f 131/208/87 130/218/88 132/209/88
f 132/211/89 135/417/89 134/212/89
f 135/214/90 144/418/90 129/215/90
f 131/208/92 133/419/92 134/217/92
f 130/218/93 144/418/93 135/219/93
f 136/221/86 139/420/86 137/222/86
f 139/224/88 143/421/88 140/225/88
f 140/227/89 143/422/89 141/228/89
f 142/230/90 141/423/90 136/231/90
f 137/226/92 140/424/92 142/233/92
f 139/224/93 136/231/93 141/234/93
