# Blender v3.1.2 OBJ File: ''
# www.blender.org
mtllib 22.mtl
o 22_Plane.025_22_Plane.001
v -2.193620 -3.099231 0.209911
v -2.217329 -3.088532 0.210255
v -2.201915 -3.105518 0.209991
v -2.233171 -3.162979 0.210154
v -2.249795 -3.143584 0.210443
v -2.241258 -3.168242 0.210235
v -2.224533 -3.153999 0.210081
v -2.241709 -3.138322 0.210362
v -2.217801 -3.145437 0.210030
v -2.238245 -3.134831 0.210332
v -2.212560 -3.131165 0.210239
v -2.231956 -3.127652 0.210282
v -2.208252 -3.117679 0.210874
v -2.229492 -3.121745 0.210022
v -2.205255 -3.109822 0.211150
v -2.227383 -3.111395 0.208992
v -2.224372 -3.100136 0.209644
v -2.217544 -3.088462 0.189310
v -2.193835 -3.099161 0.188967
v -2.202130 -3.105448 0.189046
v -2.250010 -3.143514 0.189498
v -2.233386 -3.162909 0.189209
v -2.241473 -3.168171 0.189290
v -2.241924 -3.138252 0.189417
v -2.224749 -3.153929 0.189136
v -2.238461 -3.134761 0.189387
v -2.218016 -3.145367 0.189086
v -2.232171 -3.127582 0.189337
v -2.212776 -3.131095 0.189295
v -2.229707 -3.121675 0.189077
v -2.208468 -3.117609 0.189929
v -2.227599 -3.111325 0.188047
v -2.205470 -3.109752 0.190205
v -2.224587 -3.100067 0.188699
v -2.207161 -3.080218 0.210160
v -2.207376 -3.080148 0.189215
v -2.305849 -3.264760 0.190921
v -2.273238 -3.219150 0.217788
v -2.305924 -3.264865 0.217515
v -2.273163 -3.219045 0.191194
v -2.288334 -3.208356 0.217788
v -2.320945 -3.253967 0.190921
v -2.321020 -3.254072 0.217515
v -2.288259 -3.208251 0.191194
v -2.248222 -3.185880 0.210063
v -2.249068 -3.182733 0.210063
v -2.280816 -3.184848 0.210063
v -2.257776 -3.173455 0.190960
v -2.254952 -3.175082 0.190960
v -2.273415 -3.174497 0.190960
v -2.250513 -3.179811 0.190960
v -2.250513 -3.179811 0.210063
v -2.260864 -3.172411 0.210063
v -2.264095 -3.171989 0.190960
v -2.264095 -3.171989 0.210063
v -2.276743 -3.199983 0.210063
v -2.274291 -3.202129 0.190960
v -2.274291 -3.202129 0.210063
v -2.249068 -3.182733 0.190960
v -2.257776 -3.173455 0.210063
v -2.260864 -3.172411 0.190960
v -2.278730 -3.197400 0.210063
v -2.276743 -3.199983 0.190960
v -2.248005 -3.189132 0.210063
v -2.248222 -3.185880 0.190960
v -2.254952 -3.175082 0.210063
v -2.280174 -3.194478 0.210063
v -2.278730 -3.197400 0.190960
v -2.248427 -3.192363 0.210063
v -2.248005 -3.189132 0.190960
v -2.281021 -3.191331 0.210063
v -2.280174 -3.194478 0.190960
v -2.249471 -3.195451 0.210063
v -2.248427 -3.192363 0.190960
v -2.281238 -3.188080 0.210063
v -2.281021 -3.191331 0.190960
v -2.251098 -3.198275 0.210063
v -2.249471 -3.195451 0.190960
v -2.281238 -3.188080 0.190960
v -2.253244 -3.200727 0.210063
v -2.251098 -3.198275 0.190960
v -2.279772 -3.181760 0.210063
v -2.280816 -3.184848 0.190960
v -2.255828 -3.202714 0.210063
v -2.253244 -3.200727 0.190960
v -2.278145 -3.178936 0.210063
v -2.279772 -3.181760 0.190960
v -2.258749 -3.204159 0.210063
v -2.255828 -3.202714 0.190960
v -2.275999 -3.176484 0.210063
v -2.278145 -3.178936 0.190960
v -2.261896 -3.205005 0.210063
v -2.258749 -3.204159 0.190960
v -2.273415 -3.174497 0.210063
v -2.275999 -3.176484 0.190960
v -2.265148 -3.205222 0.210063
v -2.261896 -3.205005 0.190960
v -2.270494 -3.173053 0.210063
v -2.268379 -3.204800 0.210063
v -2.265148 -3.205222 0.190960
v -2.252500 -3.177228 0.210063
v -2.267347 -3.172206 0.210063
v -2.270494 -3.173053 0.190960
v -2.271466 -3.203756 0.210063
v -2.268379 -3.204800 0.190960
v -2.252500 -3.177228 0.190960
v -2.267347 -3.172206 0.190960
v -2.271466 -3.203756 0.190960
vt 0.344922 0.253906
vt 0.294922 0.303906
vt 0.294922 0.253906
vt 0.344922 0.253906
vt 0.294922 0.303906
vt 0.294922 0.253906
vt 0.344922 0.253906
vt 0.294922 0.303906
vt 0.294922 0.253906
vt 0.344922 0.253906
vt 0.294922 0.303906
vt 0.294922 0.253906
vt 0.344922 0.253906
vt 0.294922 0.303906
vt 0.294922 0.253906
vt 0.344922 0.253906
vt 0.294922 0.303906
vt 0.294922 0.253906
vt 0.294922 0.253906
vt 0.344922 0.303906
vt 0.294922 0.303906
vt 0.344922 0.253906
vt 0.294922 0.303906
vt 0.344922 0.253906
vt 0.294922 0.303906
vt 0.294922 0.253906
vt 0.344922 0.253906
vt 0.294922 0.303906
vt 0.294922 0.253906
vt 0.344922 0.253906
vt 0.294922 0.303906
vt 0.294922 0.253906
vt 0.344922 0.253906
vt 0.294922 0.303906
vt 0.294922 0.253906
vt 0.344922 0.253906
vt 0.294922 0.303906
vt 0.294922 0.253906
vt 0.344922 0.253906
vt 0.294922 0.303906
vt 0.294922 0.253906
vt 0.344922 0.253906
vt 0.294922 0.303906
vt 0.294922 0.253906
vt 0.344922 0.253906
vt 0.294922 0.303906
vt 0.294922 0.253906
vt 0.344922 0.303906
vt 0.344922 0.253906
vt 0.294922 0.303906
vt 0.294922 0.253906
vt 0.344922 0.303906
vt 0.294922 0.303906
vt 0.344922 0.303906
vt 0.344922 0.253906
vt 0.294922 0.303906
vt 0.294922 0.253906
vt 0.294922 0.253906
vt 0.344922 0.303906
vt 0.294922 0.303906
vt 0.344922 0.303906
vt 0.294922 0.253906
vt 0.344922 0.303906
vt 0.294922 0.303906
vt 0.344922 0.253906
vt 0.294922 0.303906
vt 0.294922 0.253906
vt 0.294922 0.253906
vt 0.344922 0.303906
vt 0.344922 0.253906
vt 0.294922 0.303906
vt 0.294922 0.253906
vt 0.344922 0.303906
vt 0.344922 0.253906
vt 0.294922 0.303906
vt 0.294922 0.253906
vt 0.344922 0.253906
vt 0.294922 0.303906
vt 0.294922 0.253906
vt 0.294922 0.253906
vt 0.344922 0.303906
vt 0.344922 0.253906
vt 0.294922 0.303906
vt 0.294922 0.253906
vt 0.344922 0.253906
vt 0.294922 0.303906
vt 0.294922 0.253906
vt 0.344922 0.253906
vt 0.294922 0.303906
vt 0.294922 0.253906
vt 0.294922 0.253906
vt 0.344922 0.303906
vt 0.294922 0.303906
vt 0.294922 0.253906
vt 0.344922 0.303906
vt 0.294922 0.303906
vt 0.344922 0.303906
vt 0.294922 0.303906
vt 0.294922 0.253906
vt 0.306033 0.299693
vt 0.310355 0.302003
vt 0.340709 0.265017
vt 0.310355 0.302003
vt 0.315045 0.303426
vt 0.295402 0.283784
vt 0.344922 0.253906
vt 0.294922 0.303906
vt 0.294922 0.253906
vt 0.344922 0.253906
vt 0.294922 0.303906
vt 0.294922 0.253906
vt 0.344922 0.253906
vt 0.294922 0.303906
vt 0.294922 0.253906
vt 0.344922 0.253906
vt 0.294922 0.303906
vt 0.294922 0.253906
vt 0.344922 0.253906
vt 0.294922 0.303906
vt 0.294922 0.253906
vt 0.344922 0.253906
vt 0.294922 0.303906
vt 0.294922 0.253906
vt 0.344922 0.253906
vt 0.294922 0.303906
vt 0.294922 0.253906
vt 0.344922 0.253906
vt 0.294922 0.303906
vt 0.294922 0.253906
vt 0.344922 0.253906
vt 0.294922 0.303906
vt 0.294922 0.253906
vt 0.344922 0.253906
vt 0.294922 0.303906
vt 0.294922 0.253906
vt 0.344922 0.253906
vt 0.294922 0.303906
vt 0.294922 0.253906
vt 0.344922 0.253906
vt 0.294922 0.303906
vt 0.294922 0.253906
vt 0.344922 0.253906
vt 0.294922 0.303906
vt 0.294922 0.253906
vt 0.344922 0.253906
vt 0.294922 0.303906
vt 0.294922 0.253906
vt 0.344922 0.253906
vt 0.294922 0.303906
vt 0.294922 0.253906
vt 0.344922 0.253906
vt 0.294922 0.303906
vt 0.294922 0.253906
vt 0.344922 0.253906
vt 0.294922 0.303906
vt 0.294922 0.253906
vt 0.344922 0.253906
vt 0.294922 0.303906
vt 0.294922 0.253906
vt 0.344922 0.253906
vt 0.294922 0.303906
vt 0.294922 0.253906
vt 0.344922 0.253906
vt 0.294922 0.303906
vt 0.294922 0.253906
vt 0.344922 0.253906
vt 0.294922 0.303906
vt 0.294922 0.253906
vt 0.344922 0.253906
vt 0.294922 0.303906
vt 0.294922 0.253906
vt 0.344922 0.253906
vt 0.294922 0.303906
vt 0.294922 0.253906
vt 0.344922 0.253906
vt 0.294922 0.303906
vt 0.294922 0.253906
vt 0.344922 0.253906
vt 0.294922 0.303906
vt 0.294922 0.253906
vt 0.344922 0.253906
vt 0.294922 0.303906
vt 0.294922 0.253906
vt 0.344922 0.253906
vt 0.294922 0.303906
vt 0.294922 0.253906
vt 0.344922 0.253906
vt 0.294922 0.303906
vt 0.294922 0.253906
vt 0.344922 0.253906
vt 0.294922 0.303906
vt 0.294922 0.253906
vt 0.344922 0.253906
vt 0.294922 0.303906
vt 0.294922 0.253906
vt 0.344922 0.253906
vt 0.294922 0.303906
vt 0.294922 0.253906
vt 0.344922 0.253906
vt 0.294922 0.303906
vt 0.294922 0.253906
vt 0.344922 0.303906
vt 0.344922 0.303906
vt 0.344922 0.303906
vt 0.344922 0.303906
vt 0.344922 0.303906
vt 0.344922 0.253906
vt 0.344922 0.303906
vt 0.344922 0.303906
vt 0.344922 0.303906
vt 0.344922 0.303906
vt 0.344922 0.303906
vt 0.344922 0.303906
vt 0.344922 0.303906
vt 0.344922 0.303906
vt 0.344922 0.253906
vt 0.344922 0.253906
vt 0.344922 0.303906
vt 0.344922 0.303906
vt 0.344922 0.253906
vt 0.344922 0.303906
vt 0.344922 0.303906
vt 0.344922 0.253906
vt 0.344922 0.253906
vt 0.344922 0.253906
vt 0.315045 0.303426
vt 0.319922 0.303906
vt 0.344442 0.274029
vt 0.324799 0.303426
vt 0.344922 0.278906
vt 0.344442 0.283783
vt 0.329489 0.302003
vt 0.333811 0.299693
vt 0.343019 0.288473
vt 0.337600 0.296584
vt 0.340709 0.292796
vt 0.343019 0.269339
vt 0.337600 0.261229
vt 0.333811 0.258120
vt 0.302244 0.296584
vt 0.299135 0.292796
vt 0.329489 0.255809
vt 0.324799 0.254387
vt 0.296825 0.288473
vt 0.319922 0.253906
vt 0.295402 0.283784
vt 0.315045 0.254387
vt 0.294922 0.278906
vt 0.295402 0.274029
vt 0.310355 0.255809
vt 0.306033 0.258120
vt 0.296825 0.269339
vt 0.302244 0.261229
vt 0.299135 0.265017
vt 0.319922 0.303906
vt 0.294922 0.278906
vt 0.324799 0.303426
vt 0.295402 0.274029
vt 0.329489 0.302003
vt 0.296825 0.269339
vt 0.333811 0.299693
vt 0.299135 0.265017
vt 0.337600 0.296584
vt 0.302244 0.261229
vt 0.340709 0.292796
vt 0.306033 0.258120
vt 0.343019 0.288473
vt 0.310355 0.255809
vt 0.344442 0.283783
vt 0.315045 0.254387
vt 0.344922 0.278906
vt 0.319922 0.253906
vt 0.344442 0.274029
vt 0.324799 0.254387
vt 0.343019 0.269339
vt 0.329489 0.255809
vt 0.340709 0.265017
vt 0.333811 0.258120
vt 0.337600 0.261229
vt 0.296825 0.288473
vt 0.299135 0.292796
vt 0.306033 0.299693
vt 0.302244 0.296584
vt 0.344922 0.303906
vt 0.344922 0.303906
vt 0.344922 0.303906
vt 0.344922 0.303906
vt 0.344922 0.303906
vt 0.344922 0.303906
vt 0.344922 0.303906
vt 0.344922 0.303906
vt 0.344922 0.303906
vt 0.344922 0.303906
vt 0.344922 0.303906
vt 0.344922 0.303906
vt 0.344922 0.303906
vt 0.344922 0.303906
vt 0.344922 0.303906
vt 0.344922 0.303906
vt 0.344922 0.303906
vt 0.344922 0.303906
vt 0.344922 0.303906
vt 0.344922 0.303906
vt 0.344922 0.303906
vt 0.344922 0.303906
vt 0.344922 0.303906
vt 0.344922 0.303906
vt 0.344922 0.303906
vt 0.344922 0.303906
vt 0.344922 0.303906
vt 0.344922 0.303906
vt 0.344922 0.303906
vt 0.344922 0.303906
vt 0.344922 0.303906
vt 0.344922 0.303906
vn 0.0127 -0.0040 0.9999
vn 0.0127 -0.0041 0.9999
vn -0.0004 -0.0145 0.9999
vn -0.0331 -0.0365 0.9988
vn -0.0972 0.0021 0.9953
vn 0.0402 0.2306 0.9722
vn -0.0126 0.0041 -0.9999
vn -0.0127 0.0041 -0.9999
vn -0.0127 0.0040 -0.9999
vn -0.0126 0.0040 -0.9999
vn 0.0005 0.0145 -0.9999
vn 0.0331 0.0364 -0.9988
vn 0.0972 -0.0021 -0.9953
vn -0.0402 -0.2306 -0.9722
vn 0.9387 -0.3446 -0.0108
vn 0.9387 -0.3445 -0.0108
vn -0.9449 -0.3272 0.0086
vn -0.9661 0.2578 0.0108
vn -0.9661 0.2579 0.0108
vn 0.7860 -0.6181 -0.0102
vn 0.7860 -0.6181 -0.0101
vn -0.6329 0.7742 0.0091
vn -0.8551 0.5184 0.0105
vn 0.7206 -0.6932 -0.0097
vn 0.7207 -0.6932 -0.0097
vn 0.7207 -0.6932 -0.0098
vn 0.8145 0.5802 -0.0064
vn -0.5453 0.8382 0.0084
vn -0.5454 0.8382 0.0084
vn 0.6040 -0.7970 -0.0089
vn -0.7098 0.7044 0.0096
vn -0.7099 0.7043 0.0097
vn -0.7097 0.7044 0.0096
vn 0.7886 -0.6148 -0.0102
vn -0.7521 0.6590 0.0100
vn -0.7521 0.6590 0.0099
vn 0.9344 -0.3560 -0.0108
vn 0.9344 -0.3561 -0.0108
vn -0.9227 0.3854 0.0108
vn -0.9227 0.3853 0.0108
vn 0.9527 -0.3038 -0.0108
vn 0.5454 -0.8382 -0.0084
vn 0.5453 -0.8382 -0.0084
vn -0.9796 0.2007 0.0107
vn -0.9796 0.2006 0.0108
vn 0.8135 -0.5816 -0.0000
vn 0.5816 0.8134 0.0048
vn -0.8135 0.5816 0.0000
vn -0.5816 -0.8135 -0.0048
vn -0.0028 -0.0040 1.0000
vn 0.0028 0.0040 -1.0000
vn -0.0000 0.0000 1.0000
vn -0.0000 0.0000 -1.0000
vn 0.8964 0.4433 0.0000
vn 0.8965 0.4430 -0.0000
vn 0.1295 0.9916 0.0000
vn -0.6586 -0.7525 0.0000
vn 0.9657 0.2596 0.0000
vn 0.3203 0.9473 0.0000
vn -0.7926 -0.6097 0.0000
vn -0.7926 -0.6098 0.0000
vn 0.9978 0.0662 -0.0000
vn 0.9978 0.0665 0.0000
vn 0.9978 0.0667 0.0000
vn 0.4992 0.8665 0.0000
vn 0.4991 0.8665 0.0000
vn -0.8965 -0.4431 0.0000
vn -0.8965 -0.4430 0.0000
vn 0.9916 -0.1295 0.0000
vn -0.9657 -0.2598 0.0000
vn -0.9657 -0.2597 -0.0000
vn 0.9473 -0.3202 0.0000
vn 0.9473 -0.3203 0.0000
vn 0.9474 -0.3202 0.0000
vn -0.9978 -0.0666 0.0000
vn -0.9978 -0.0667 0.0000
vn -0.9978 -0.0661 0.0000
vn 0.8665 -0.4992 0.0000
vn -0.9916 0.1295 0.0000
vn 0.7525 -0.6586 0.0000
vn 0.7524 -0.6587 0.0000
vn 0.7527 -0.6583 -0.0000
vn -0.9473 0.3203 0.0000
vn 0.6096 -0.7927 0.0000
vn -0.8665 0.4992 0.0000
vn 0.4434 -0.8963 0.0000
vn -0.7525 0.6586 0.0000
vn -0.7524 0.6587 0.0000
vn -0.7527 0.6583 -0.0000
vn 0.2599 -0.9656 0.0000
vn 0.2596 -0.9657 0.0000
vn -0.6096 0.7927 0.0000
vn 0.0662 -0.9978 -0.0000
vn -0.4431 0.8965 0.0000
vn -0.1295 -0.9916 0.0000
vn 0.6586 0.7525 0.0000
vn 0.6583 0.7528 -0.0000
vn -0.2599 0.9656 0.0000
vn -0.3203 -0.9473 0.0000
vn 0.7926 0.6097 0.0000
vn -0.0666 0.9978 0.0000
vn -0.4991 -0.8665 0.0000
vn -0.4991 -0.8666 0.0000
vn 0.0126 -0.0041 0.9999
vn 0.0095 0.0400 0.9992
vn -0.0611 0.1111 0.9919
vn -0.0947 -0.0323 0.9950
vn -0.0245 -0.0377 0.9990
vn -0.0094 -0.0400 -0.9992
vn 0.0611 -0.1111 -0.9919
vn 0.0947 0.0323 -0.9950
vn 0.0245 0.0377 -0.9990
vn -0.9662 0.2577 0.0108
vn 0.7206 -0.6933 -0.0097
vn 0.8145 0.5801 -0.0064
vn 0.6039 -0.7970 -0.0089
vn -0.7099 0.7042 0.0097
vn 0.5454 -0.8381 -0.0085
vn -0.9657 -0.2596 0.0000
vn 0.9472 -0.3206 0.0000
vn 0.8665 -0.4991 0.0000
vn -0.8665 0.4991 0.0000
vn 0.7926 0.6098 0.0000
usemtl Default_OBJ.035
s 1
f 1/1/1 2/2/2 3/3/1
f 4/4/2 5/5/2 6/6/2
f 7/7/1 8/8/1 4/9/2
f 9/10/1 10/11/2 7/12/1
f 11/13/3 12/14/3 9/15/3
f 13/16/4 14/17/4 11/18/4
f 15/19/5 16/20/5 13/21/5
f 3/22/6 17/23/6 15/19/6
f 18/24/7 19/25/7 20/26/7
f 21/27/8 22/28/8 23/29/8
f 24/30/9 25/31/7 22/32/8
f 26/33/10 27/34/7 25/35/7
f 28/36/11 29/37/11 27/38/11
f 30/39/12 31/40/12 29/41/12
f 32/42/13 33/43/13 31/44/13
f 34/45/14 20/46/14 33/47/14
f 11/18/15 27/48/16 29/37/16
f 5/49/17 23/50/17 6/6/17
f 16/51/18 34/52/18 32/53/19
f 9/15/20 25/54/21 27/34/21
f 35/55/22 18/56/22 2/57/22
f 17/58/23 18/59/23 34/60/23
f 7/12/24 22/61/25 25/31/26
f 35/62/27 19/63/27 36/64/27
f 8/65/28 21/66/29 5/67/28
f 1/68/30 20/69/30 19/25/30
f 10/70/31 24/71/32 8/72/33
f 3/3/34 33/73/34 20/46/34
f 12/74/35 26/75/36 10/76/35
f 13/16/37 33/43/38 15/19/37
f 14/77/39 28/78/40 12/79/39
f 11/13/41 31/40/41 13/80/41
f 4/9/42 23/81/43 22/28/43
f 16/82/44 30/83/45 14/84/44
f 37/85/46 38/86/46 39/87/46
f 40/88/47 41/89/47 38/90/47
f 41/91/48 42/92/48 43/93/48
f 43/94/49 37/95/49 39/96/49
f 38/90/50 43/97/50 39/96/50
f 40/88/51 42/98/51 44/99/51
f 45/100/52 46/101/52 47/102/52
f 48/103/53 49/104/53 50/105/53
f 46/106/54 51/107/55 52/108/54
f 53/109/56 54/110/56 55/111/56
f 56/112/57 57/113/57 58/114/57
f 45/115/58 59/116/58 46/117/58
f 60/118/59 61/119/59 53/120/59
f 62/121/60 63/122/61 56/123/60
f 64/124/62 65/125/63 45/126/64
f 66/127/65 48/128/66 60/129/65
f 67/130/67 68/131/68 62/132/67
f 69/133/69 70/134/69 64/135/69
f 71/136/70 72/137/71 67/138/70
f 73/139/72 74/140/73 69/141/74
f 75/142/75 76/143/76 71/144/77
f 77/145/78 78/146/78 73/147/78
f 47/148/79 79/149/79 75/150/79
f 80/151/80 81/152/81 77/153/82
f 82/154/83 83/155/83 47/156/83
f 84/157/84 85/158/84 80/159/84
f 86/160/85 87/161/85 82/162/85
f 88/163/86 89/164/86 84/165/86
f 90/166/87 91/167/88 86/168/89
f 92/169/90 93/170/91 88/171/91
f 94/172/92 95/173/92 90/174/92
f 96/175/93 97/176/93 92/177/93
f 98/178/94 50/179/94 94/180/94
f 99/181/95 100/182/95 96/183/95
f 101/184/96 49/185/96 66/186/97
f 102/187/98 103/188/98 98/189/98
f 104/190/99 105/191/99 99/192/99
f 52/193/100 106/194/100 101/195/100
f 55/196/101 107/197/101 102/198/101
f 58/199/102 108/200/103 104/201/102
f 1/1/1 35/202/2 2/2/2
f 4/4/2 8/203/1 5/5/2
f 7/7/1 10/204/2 8/8/1
f 9/10/1 12/205/104 10/11/2
f 11/13/105 14/206/105 12/14/105
f 13/16/106 16/20/106 14/17/106
f 15/19/107 17/207/107 16/20/107
f 3/22/108 2/208/108 17/23/108
f 18/24/7 36/209/10 19/25/7
f 21/27/8 24/210/9 22/28/8
f 24/30/9 26/211/10 25/31/7
f 26/33/10 28/212/7 27/34/7
f 28/36/109 30/213/109 29/37/109
f 30/39/110 32/214/110 31/40/110
f 32/42/111 34/52/111 33/43/111
f 34/45/112 18/59/112 20/46/112
f 11/18/15 9/10/15 27/48/16
f 5/49/17 21/215/17 23/50/17
f 16/51/18 17/207/113 34/52/18
f 9/15/20 7/7/20 25/54/21
f 35/55/22 36/209/22 18/56/22
f 17/58/23 2/216/23 18/59/23
f 7/12/24 4/4/114 22/61/25
f 35/62/27 1/1/115 19/63/27
f 8/65/28 24/210/29 21/66/29
f 1/68/30 3/22/116 20/69/30
f 10/70/31 26/211/117 24/71/32
f 3/3/34 15/217/34 33/73/34
f 12/74/35 28/212/36 26/75/36
f 13/16/37 31/218/38 33/43/38
f 14/77/39 30/213/40 28/78/40
f 11/13/41 29/219/41 31/40/41
f 4/9/42 6/220/118 23/81/43
f 16/82/44 32/214/45 30/83/45
f 37/85/46 40/221/46 38/86/46
f 40/88/47 44/222/47 41/89/47
f 41/91/48 44/223/48 42/92/48
f 43/94/49 42/224/49 37/95/49
f 38/90/50 41/225/50 43/97/50
f 40/88/51 37/95/51 42/98/51
f 52/226/52 101/227/52 86/228/52
f 101/227/52 66/229/52 90/230/52
f 90/230/52 66/229/52 94/231/52
f 66/229/52 60/232/52 94/231/52
f 60/232/52 53/233/52 98/234/52
f 94/231/52 60/232/52 98/234/52
f 53/233/52 55/235/52 102/236/52
f 102/236/52 98/234/52 53/233/52
f 90/230/52 86/228/52 101/227/52
f 86/228/52 82/237/52 52/226/52
f 82/237/52 47/102/52 46/101/52
f 52/226/52 82/237/52 46/101/52
f 47/102/52 75/238/52 45/100/52
f 75/238/52 71/239/52 64/240/52
f 64/240/52 71/239/52 69/241/52
f 71/239/52 67/242/52 69/241/52
f 67/242/52 62/243/52 73/244/52
f 69/241/52 67/242/52 73/244/52
f 62/243/52 56/245/52 77/246/52
f 56/245/52 58/247/52 80/248/52
f 80/248/52 58/247/52 84/249/52
f 58/247/52 104/250/52 84/249/52
f 104/250/52 99/251/52 88/252/52
f 84/249/52 104/250/52 88/252/52
f 99/251/52 96/253/52 92/254/52
f 92/254/52 88/252/52 99/251/52
f 80/248/52 77/246/52 56/245/52
f 77/246/52 73/244/52 62/243/52
f 64/240/52 45/100/52 75/238/52
f 49/104/53 106/255/53 95/256/53
f 106/255/53 51/257/53 91/258/53
f 51/257/53 59/259/53 87/260/53
f 59/259/53 65/261/53 83/262/53
f 51/257/53 87/260/53 91/258/53
f 65/261/53 70/263/53 79/264/53
f 70/263/53 74/265/53 76/266/53
f 74/265/53 78/267/53 72/268/53
f 78/267/53 81/269/53 68/270/53
f 74/265/53 72/268/53 76/266/53
f 81/269/53 85/271/53 63/272/53
f 85/271/53 89/273/53 57/274/53
f 89/273/53 93/275/53 108/276/53
f 93/275/53 97/277/53 105/278/53
f 108/276/53 93/275/53 105/278/53
f 97/277/53 100/279/53 105/278/53
f 108/276/53 57/274/53 89/273/53
f 57/274/53 63/272/53 85/271/53
f 63/272/53 68/270/53 81/269/53
f 68/270/53 72/268/53 78/267/53
f 76/266/53 79/264/53 70/263/53
f 79/264/53 83/262/53 65/261/53
f 83/262/53 87/260/53 59/259/53
f 91/258/53 95/256/53 106/255/53
f 95/256/53 50/105/53 49/104/53
f 50/105/53 103/280/53 48/103/53
f 103/280/53 107/281/53 61/282/53
f 48/103/53 103/280/53 61/282/53
f 107/281/53 54/283/53 61/282/53
f 46/106/54 59/284/54 51/107/55
f 53/109/56 61/285/56 54/110/56
f 56/112/57 63/286/57 57/113/57
f 45/115/58 65/287/58 59/116/58
f 60/118/59 48/288/59 61/119/59
f 62/121/60 68/289/61 63/122/61
f 64/124/62 70/290/62 65/125/63
f 66/127/65 49/291/66 48/128/66
f 67/130/67 72/292/68 68/131/68
f 69/133/69 74/293/69 70/134/69
f 71/136/70 76/294/119 72/137/71
f 73/139/72 78/295/120 74/140/73
f 75/142/75 79/296/76 76/143/76
f 77/145/78 81/297/121 78/146/78
f 47/148/79 83/298/79 79/149/79
f 80/151/80 85/299/81 81/152/81
f 82/154/83 87/300/83 83/155/83
f 84/157/84 89/301/84 85/158/84
f 86/160/85 91/302/122 87/161/85
f 88/163/86 93/303/86 89/164/86
f 90/166/87 95/304/88 91/167/88
f 92/169/90 97/305/91 93/170/91
f 94/172/92 50/306/92 95/173/92
f 96/175/93 100/307/93 97/176/93
f 98/178/94 103/308/94 50/179/94
f 99/181/95 105/309/95 100/182/95
f 101/184/96 106/310/96 49/185/96
f 102/187/98 107/311/98 103/188/98
f 104/190/99 108/312/99 105/191/99
f 52/193/100 51/313/123 106/194/100
f 55/196/101 54/314/101 107/197/101
f 58/199/102 57/315/103 108/200/103
