# Blender v3.1.2 OBJ File: ''
# www.blender.org
mtllib 24.mtl
o 24_Cube.044_24_Cube.001
v -3.006536 -2.403797 0.216762
v -2.962596 -2.368553 0.190441
v -2.962697 -2.368634 0.217035
v -2.974308 -2.354158 0.217035
v -2.974207 -2.354077 0.190441
v -3.018147 -2.389321 0.216762
v -3.006435 -2.403716 0.190168
v -3.018046 -2.389240 0.190168
v -3.095423 -2.476823 0.216762
v -3.051484 -2.441580 0.190441
v -3.051584 -2.441661 0.217035
v -3.063195 -2.427184 0.217035
v -3.063095 -2.427104 0.190441
v -3.107035 -2.462347 0.216762
v -3.095323 -2.476742 0.190168
v -3.106934 -2.462266 0.190168
v -3.017998 -2.414226 0.209310
v -3.018598 -2.411022 0.209310
v -3.051085 -2.413855 0.209310
v -3.026559 -2.401097 0.190207
v -3.023870 -2.402938 0.190207
v -3.044962 -2.402701 0.190207
v -3.018598 -2.411022 0.190207
v -3.026559 -2.401097 0.209310
v -3.029557 -2.399816 0.190207
v -3.029556 -2.399816 0.209310
v -3.047529 -2.426071 0.209310
v -3.049309 -2.423342 0.190207
v -3.047529 -2.426071 0.190207
v -3.018035 -2.417485 0.209310
v -3.017999 -2.414226 0.190207
v -3.023870 -2.402938 0.209310
v -3.050522 -2.420317 0.209310
v -3.049309 -2.423342 0.209310
v -3.018707 -2.420674 0.209310
v -3.018035 -2.417485 0.190207
v -3.021592 -2.405268 0.209310
v -3.051122 -2.417114 0.209310
v -3.050522 -2.420317 0.190207
v -3.019987 -2.423671 0.209310
v -3.018707 -2.420674 0.190207
v -3.051122 -2.417113 0.190207
v -3.021828 -2.426359 0.190207
v -3.019987 -2.423670 0.190207
v -3.050414 -2.410666 0.209310
v -3.051085 -2.413854 0.190207
v -3.024158 -2.428638 0.209310
v -3.021828 -2.426359 0.209310
v -3.049133 -2.407669 0.190207
v -3.050414 -2.410666 0.190207
v -3.026888 -2.430418 0.209310
v -3.024158 -2.428638 0.190207
v -3.049133 -2.407669 0.209310
v -3.047292 -2.404980 0.190207
v -3.029913 -2.431631 0.209310
v -3.026888 -2.430418 0.190207
v -3.044962 -2.402701 0.209310
v -3.047292 -2.404980 0.209310
v -3.033117 -2.432231 0.209310
v -3.029913 -2.431632 0.190207
v -3.042232 -2.400921 0.209310
v -3.036375 -2.432195 0.190207
v -3.033116 -2.432231 0.190207
v -3.039207 -2.399708 0.209310
v -3.042232 -2.400921 0.190207
v -3.039564 -2.431524 0.209310
v -3.036375 -2.432195 0.209310
v -3.036004 -2.399108 0.190207
v -3.039207 -2.399708 0.190207
v -3.042561 -2.430243 0.209310
v -3.039564 -2.431523 0.190207
v -3.019812 -2.407998 0.209310
v -3.021592 -2.405268 0.190207
v -3.036004 -2.399108 0.209310
v -3.032745 -2.399144 0.190207
v -3.045250 -2.428401 0.209310
v -3.042561 -2.430243 0.190207
v -3.019811 -2.407998 0.190207
v -3.032745 -2.399144 0.209310
v -3.045250 -2.428401 0.190207
v -3.110396 -2.490641 0.209310
v -3.110996 -2.487438 0.209310
v -3.143483 -2.490270 0.209310
v -3.118957 -2.477512 0.190207
v -3.116268 -2.479353 0.190207
v -3.137360 -2.479117 0.190207
v -3.110996 -2.487438 0.190207
v -3.118957 -2.477512 0.209310
v -3.121954 -2.476231 0.190207
v -3.121953 -2.476231 0.209310
v -3.139926 -2.502487 0.209310
v -3.141706 -2.499757 0.190207
v -3.139926 -2.502487 0.190207
v -3.110433 -2.493900 0.209310
v -3.110396 -2.490641 0.190207
v -3.116268 -2.479353 0.209310
v -3.142920 -2.496732 0.209310
v -3.141706 -2.499757 0.209310
v -3.111104 -2.497089 0.190207
v -3.110433 -2.493900 0.190207
v -3.113990 -2.481683 0.209310
v -3.143520 -2.493529 0.209310
v -3.142920 -2.496732 0.190207
v -3.111104 -2.497089 0.209310
v -3.112385 -2.500086 0.190207
v -3.143520 -2.493529 0.190207
v -3.112385 -2.500086 0.209310
v -3.114226 -2.502775 0.190207
v -3.142812 -2.487081 0.209310
v -3.143483 -2.490270 0.190207
v -3.116557 -2.505054 0.209310
v -3.114226 -2.502775 0.209310
v -3.141531 -2.484085 0.190207
v -3.142812 -2.487081 0.190207
v -3.119286 -2.506834 0.209310
v -3.116556 -2.505054 0.190207
v -3.141531 -2.484084 0.209310
v -3.139690 -2.481395 0.190207
v -3.122310 -2.508047 0.209310
v -3.119286 -2.506834 0.190207
v -3.139690 -2.481395 0.209310
v -3.125514 -2.508647 0.209310
v -3.122311 -2.508047 0.190207
v -3.134629 -2.477336 0.209310
v -3.137360 -2.479117 0.209310
v -3.128773 -2.508610 0.209310
v -3.125514 -2.508647 0.190207
v -3.131605 -2.476123 0.209310
v -3.134629 -2.477336 0.190207
v -3.131962 -2.507939 0.209310
v -3.128773 -2.508610 0.190207
v -3.128402 -2.475523 0.209310
v -3.131605 -2.476123 0.190207
v -3.134959 -2.506658 0.209310
v -3.131962 -2.507939 0.190207
v -3.112209 -2.484413 0.209310
v -3.113990 -2.481683 0.190207
v -3.125143 -2.475559 0.190207
v -3.128402 -2.475523 0.190207
v -3.137648 -2.504817 0.190207
v -3.134959 -2.506658 0.190207
v -3.112209 -2.484413 0.190207
v -3.125143 -2.475560 0.209310
v -3.137648 -2.504817 0.209310
vt 0.294922 0.253906
vt 0.344922 0.303906
vt 0.294922 0.303906
vt 0.344922 0.253906
vt 0.294922 0.303906
vt 0.294922 0.253906
vt 0.344922 0.253906
vt 0.294922 0.303906
vt 0.294922 0.253906
vt 0.294922 0.253906
vt 0.344922 0.303906
vt 0.294922 0.303906
vt 0.344922 0.303906
vt 0.294922 0.303906
vt 0.294922 0.253906
vt 0.294922 0.253906
vt 0.344922 0.303906
vt 0.294922 0.303906
vt 0.344922 0.253906
vt 0.294922 0.303906
vt 0.294922 0.253906
vt 0.344922 0.253906
vt 0.294922 0.303906
vt 0.294922 0.253906
vt 0.294922 0.253906
vt 0.344922 0.303906
vt 0.294922 0.303906
vt 0.344922 0.303906
vt 0.294922 0.303906
vt 0.294922 0.253906
vt 0.310355 0.302003
vt 0.315045 0.303426
vt 0.333811 0.258120
vt 0.306033 0.299693
vt 0.310355 0.302003
vt 0.295402 0.274029
vt 0.344922 0.253906
vt 0.294922 0.303906
vt 0.294922 0.253906
vt 0.344922 0.253906
vt 0.294922 0.303906
vt 0.294922 0.253906
vt 0.294922 0.253906
vt 0.344922 0.303906
vt 0.294922 0.303906
vt 0.344922 0.253906
vt 0.294922 0.303906
vt 0.294922 0.253906
vt 0.344922 0.253906
vt 0.294922 0.303906
vt 0.294922 0.253906
vt 0.344922 0.253906
vt 0.294922 0.303906
vt 0.294922 0.253906
vt 0.344922 0.253906
vt 0.294922 0.303906
vt 0.294922 0.253906
vt 0.344922 0.253906
vt 0.294922 0.303906
vt 0.294922 0.253906
vt 0.344922 0.253906
vt 0.294922 0.303906
vt 0.294922 0.253906
vt 0.344922 0.253906
vt 0.294922 0.303906
vt 0.294922 0.253906
vt 0.344922 0.253906
vt 0.294922 0.303906
vt 0.294922 0.253906
vt 0.294922 0.253906
vt 0.344922 0.303906
vt 0.294922 0.303906
vt 0.344922 0.253906
vt 0.294922 0.303906
vt 0.294922 0.253906
vt 0.344922 0.253906
vt 0.294922 0.303906
vt 0.294922 0.253906
vt 0.294922 0.253906
vt 0.344922 0.303906
vt 0.294922 0.303906
vt 0.344922 0.253906
vt 0.294922 0.303906
vt 0.294922 0.253906
vt 0.294922 0.253906
vt 0.344922 0.303906
vt 0.294922 0.303906
vt 0.344922 0.253906
vt 0.294922 0.303906
vt 0.294922 0.253906
vt 0.344922 0.253906
vt 0.294922 0.303906
vt 0.294922 0.253906
vt 0.344922 0.253906
vt 0.294922 0.303906
vt 0.294922 0.253906
vt 0.344922 0.253906
vt 0.294922 0.303906
vt 0.294922 0.253906
vt 0.294922 0.253906
vt 0.344922 0.303906
vt 0.294922 0.303906
vt 0.344922 0.253906
vt 0.294922 0.303906
vt 0.294922 0.253906
vt 0.344922 0.253906
vt 0.294922 0.303906
vt 0.294922 0.253906
vt 0.294922 0.253906
vt 0.344922 0.303906
vt 0.294922 0.303906
vt 0.344922 0.253906
vt 0.294922 0.303906
vt 0.294922 0.253906
vt 0.344922 0.253906
vt 0.294922 0.303906
vt 0.294922 0.253906
vt 0.294922 0.253906
vt 0.344922 0.303906
vt 0.294922 0.303906
vt 0.344922 0.253906
vt 0.294922 0.303906
vt 0.294922 0.253906
vt 0.344922 0.253906
vt 0.294922 0.303906
vt 0.294922 0.253906
vt 0.344922 0.253906
vt 0.294922 0.303906
vt 0.294922 0.253906
vt 0.344922 0.253906
vt 0.294922 0.303906
vt 0.294922 0.253906
vt 0.310355 0.302003
vt 0.315045 0.303426
vt 0.333811 0.258120
vt 0.306033 0.299693
vt 0.310355 0.302003
vt 0.295402 0.274029
vt 0.344922 0.253906
vt 0.294922 0.303906
vt 0.294922 0.253906
vt 0.344922 0.253906
vt 0.294922 0.303906
vt 0.294922 0.253906
vt 0.294922 0.253906
vt 0.344922 0.303906
vt 0.294922 0.303906
vt 0.344922 0.253906
vt 0.294922 0.303906
vt 0.294922 0.253906
vt 0.344922 0.253906
vt 0.294922 0.303906
vt 0.294922 0.253906
vt 0.344922 0.253906
vt 0.294922 0.303906
vt 0.294922 0.253906
vt 0.294922 0.253906
vt 0.344922 0.303906
vt 0.294922 0.303906
vt 0.344922 0.253906
vt 0.294922 0.303906
vt 0.294922 0.253906
vt 0.344922 0.253906
vt 0.294922 0.303906
vt 0.294922 0.253906
vt 0.294922 0.253906
vt 0.344922 0.303906
vt 0.294922 0.303906
vt 0.344922 0.253906
vt 0.294922 0.303906
vt 0.294922 0.253906
vt 0.294922 0.253906
vt 0.344922 0.303906
vt 0.294922 0.303906
vt 0.344922 0.253906
vt 0.294922 0.303906
vt 0.294922 0.253906
vt 0.344922 0.253906
vt 0.294922 0.303906
vt 0.294922 0.253906
vt 0.294922 0.253906
vt 0.344922 0.303906
vt 0.294922 0.303906
vt 0.344922 0.253906
vt 0.294922 0.303906
vt 0.294922 0.253906
vt 0.294922 0.253906
vt 0.344922 0.303906
vt 0.294922 0.303906
vt 0.344922 0.253906
vt 0.294922 0.303906
vt 0.294922 0.253906
vt 0.294922 0.253906
vt 0.344922 0.303906
vt 0.294922 0.303906
vt 0.344922 0.253906
vt 0.294922 0.303906
vt 0.294922 0.253906
vt 0.344922 0.253906
vt 0.294922 0.303906
vt 0.294922 0.253906
vt 0.344922 0.253906
vt 0.294922 0.303906
vt 0.294922 0.253906
vt 0.344922 0.253906
vt 0.294922 0.303906
vt 0.294922 0.253906
vt 0.344922 0.253906
vt 0.294922 0.303906
vt 0.294922 0.253906
vt 0.344922 0.253906
vt 0.294922 0.303906
vt 0.294922 0.253906
vt 0.344922 0.253906
vt 0.294922 0.303906
vt 0.294922 0.253906
vt 0.344922 0.253906
vt 0.294922 0.303906
vt 0.294922 0.253906
vt 0.294922 0.253906
vt 0.344922 0.303906
vt 0.294922 0.303906
vt 0.294922 0.253906
vt 0.344922 0.303906
vt 0.294922 0.303906
vt 0.344922 0.253906
vt 0.294922 0.303906
vt 0.294922 0.253906
vt 0.294922 0.253906
vt 0.344922 0.303906
vt 0.294922 0.303906
vt 0.294922 0.253906
vt 0.344922 0.303906
vt 0.294922 0.303906
vt 0.344922 0.253906
vt 0.344922 0.303906
vt 0.344922 0.303906
vt 0.344922 0.253906
vt 0.344922 0.253906
vt 0.344922 0.253906
vt 0.344922 0.303906
vt 0.344922 0.303906
vt 0.344922 0.253906
vt 0.344922 0.253906
vt 0.319922 0.303906
vt 0.337600 0.261229
vt 0.324799 0.303426
vt 0.340709 0.265017
vt 0.329489 0.302003
vt 0.343019 0.269339
vt 0.333811 0.299693
vt 0.344442 0.274029
vt 0.337600 0.296584
vt 0.344922 0.278906
vt 0.340709 0.292796
vt 0.344442 0.283783
vt 0.343019 0.288473
vt 0.329489 0.255809
vt 0.324799 0.254387
vt 0.306033 0.299693
vt 0.319922 0.253906
vt 0.302244 0.296584
vt 0.315045 0.254387
vt 0.299135 0.292796
vt 0.310355 0.255809
vt 0.296825 0.288473
vt 0.306033 0.258120
vt 0.295402 0.283784
vt 0.302244 0.261229
vt 0.294922 0.278906
vt 0.299135 0.265017
vt 0.295402 0.274029
vt 0.296825 0.269339
vt 0.315045 0.303426
vt 0.319922 0.303906
vt 0.299135 0.265017
vt 0.324799 0.303426
vt 0.302244 0.261229
vt 0.329489 0.302003
vt 0.306033 0.258120
vt 0.333811 0.299693
vt 0.310355 0.255809
vt 0.337600 0.296584
vt 0.315045 0.254387
vt 0.340709 0.292796
vt 0.319922 0.253906
vt 0.343019 0.288473
vt 0.324799 0.254387
vt 0.344442 0.283783
vt 0.329489 0.255809
vt 0.344922 0.278906
vt 0.333811 0.258120
vt 0.344442 0.274029
vt 0.337600 0.261229
vt 0.343019 0.269339
vt 0.340709 0.265017
vt 0.296825 0.269339
vt 0.294922 0.278906
vt 0.295402 0.283784
vt 0.302244 0.296584
vt 0.296825 0.288473
vt 0.299135 0.292796
vt 0.344922 0.303906
vt 0.344922 0.303906
vt 0.344922 0.253906
vt 0.344922 0.303906
vt 0.344922 0.303906
vt 0.344922 0.303906
vt 0.344922 0.303906
vt 0.344922 0.303906
vt 0.344922 0.303906
vt 0.344922 0.303906
vt 0.344922 0.303906
vt 0.344922 0.253906
vt 0.344922 0.303906
vt 0.344922 0.303906
vt 0.344922 0.253906
vt 0.344922 0.303906
vt 0.344922 0.253906
vt 0.344922 0.303906
vt 0.344922 0.303906
vt 0.344922 0.303906
vt 0.344922 0.303906
vt 0.344922 0.253906
vt 0.344922 0.303906
vt 0.344922 0.303906
vt 0.344922 0.253906
vt 0.344922 0.303906
vt 0.344922 0.303906
vt 0.344922 0.253906
vt 0.344922 0.303906
vt 0.344922 0.303906
vt 0.344922 0.303906
vt 0.344922 0.303906
vt 0.319922 0.303906
vt 0.337600 0.261229
vt 0.324799 0.303426
vt 0.340709 0.265017
vt 0.329489 0.302003
vt 0.343019 0.269339
vt 0.333811 0.299693
vt 0.344442 0.274029
vt 0.337600 0.296584
vt 0.344922 0.278906
vt 0.340709 0.292796
vt 0.344442 0.283783
vt 0.343019 0.288473
vt 0.329489 0.255809
vt 0.324799 0.254387
vt 0.306033 0.299693
vt 0.319922 0.253906
vt 0.302244 0.296584
vt 0.315045 0.254387
vt 0.299135 0.292796
vt 0.310355 0.255809
vt 0.296825 0.288473
vt 0.306033 0.258120
vt 0.295402 0.283784
vt 0.302244 0.261229
vt 0.294922 0.278906
vt 0.299135 0.265017
vt 0.295402 0.274029
vt 0.296825 0.269339
vt 0.315045 0.303426
vt 0.319922 0.303906
vt 0.299135 0.265017
vt 0.324799 0.303426
vt 0.302244 0.261229
vt 0.329489 0.302003
vt 0.306033 0.258120
vt 0.333811 0.299693
vt 0.310355 0.255809
vt 0.337600 0.296584
vt 0.315045 0.254387
vt 0.340709 0.292796
vt 0.319922 0.253906
vt 0.343019 0.288473
vt 0.324799 0.254387
vt 0.344442 0.283783
vt 0.329489 0.255809
vt 0.344922 0.278906
vt 0.333811 0.258120
vt 0.344442 0.274029
vt 0.337600 0.261229
vt 0.343019 0.269339
vt 0.340709 0.265017
vt 0.296825 0.269339
vt 0.294922 0.278906
vt 0.295402 0.283784
vt 0.302244 0.296584
vt 0.296825 0.288473
vt 0.299135 0.292796
vt 0.344922 0.303906
vt 0.344922 0.303906
vt 0.344922 0.253906
vt 0.344922 0.303906
vt 0.344922 0.303906
vt 0.344922 0.303906
vt 0.344922 0.253906
vt 0.344922 0.303906
vt 0.344922 0.303906
vt 0.344922 0.253906
vt 0.344922 0.303906
vt 0.344922 0.253906
vt 0.344922 0.303906
vt 0.344922 0.303906
vt 0.344922 0.253906
vt 0.344922 0.303906
vt 0.344922 0.253906
vt 0.344922 0.303906
vt 0.344922 0.253906
vt 0.344922 0.303906
vt 0.344922 0.303906
vt 0.344922 0.303906
vt 0.344922 0.303906
vt 0.344922 0.303906
vt 0.344922 0.303906
vt 0.344922 0.303906
vt 0.344922 0.303906
vt 0.344922 0.253906
vt 0.344922 0.253906
vt 0.344922 0.303906
vt 0.344922 0.253906
vt 0.344922 0.253906
vn 0.6257 -0.7801 -0.0000
vn 0.7801 0.6257 0.0049
vn -0.6257 0.7801 0.0000
vn -0.7801 -0.6257 -0.0049
vn -0.0038 -0.0030 1.0000
vn 0.0038 0.0030 -1.0000
vn 0.7801 0.6257 0.0048
vn -0.7800 -0.6257 -0.0048
vn 0.0000 0.0000 1.0000
vn 0.0000 0.0000 -1.0000
vn 0.9829 0.1842 -0.0000
vn 0.9830 0.1837 -0.0000
vn 0.3930 0.9195 -0.0000
vn 0.3929 0.9196 -0.0000
vn -0.8376 -0.5463 0.0000
vn 0.9999 -0.0113 -0.0000
vn 0.9999 -0.0110 -0.0000
vn 0.9999 -0.0114 -0.0000
vn 0.5649 0.8252 0.0000
vn -0.9282 -0.3722 0.0000
vn 0.9785 -0.2062 0.0000
vn 0.9786 -0.2057 -0.0000
vn 0.7150 0.6991 0.0000
vn 0.7148 0.6993 0.0000
vn -0.9829 -0.1841 -0.0000
vn -0.9829 -0.1844 0.0000
vn 0.9196 -0.3928 -0.0000
vn 0.9195 -0.3930 -0.0000
vn -0.9999 0.0114 0.0000
vn -0.9999 0.0113 0.0000
vn 0.8253 -0.5647 0.0000
vn 0.8251 -0.5649 -0.0000
vn -0.9786 0.2059 0.0000
vn -0.9785 0.2063 -0.0000
vn 0.6992 -0.7149 0.0000
vn -0.9195 0.3930 0.0000
vn -0.9193 0.3935 0.0000
vn -0.9194 0.3934 -0.0000
vn 0.5462 -0.8376 0.0000
vn 0.5465 -0.8375 -0.0000
vn -0.8252 0.5649 0.0000
vn -0.8251 0.5650 0.0000
vn 0.3722 -0.9281 0.0000
vn 0.3724 -0.9281 0.0000
vn 0.3722 -0.9282 0.0000
vn -0.6990 0.7151 -0.0000
vn -0.6992 0.7149 0.0000
vn 0.1840 -0.9829 0.0001
vn 0.1838 -0.9830 0.0000
vn -0.5462 0.8377 0.0000
vn -0.5466 0.8374 -0.0000
vn -0.0110 -0.9999 0.0000
vn -0.3722 0.9282 0.0000
vn -0.2059 -0.9786 -0.0000
vn -0.2061 -0.9785 -0.0000
vn -0.2062 -0.9785 0.0000
vn -0.1842 0.9829 0.0000
vn -0.3930 -0.9195 -0.0000
vn -0.3928 -0.9196 -0.0000
vn 0.8377 0.5461 0.0000
vn 0.8375 0.5465 0.0000
vn 0.0110 0.9999 0.0000
vn -0.5652 -0.8250 0.0000
vn 0.9280 0.3725 0.0001
vn 0.9281 0.3722 0.0000
vn 0.2063 0.9785 -0.0000
vn -0.7149 -0.6992 0.0000
vn -0.7149 -0.6993 0.0000
vn 0.9829 0.1841 0.0000
vn 0.3931 0.9195 -0.0000
vn -0.8377 -0.5462 0.0000
vn 0.5650 0.8251 0.0000
vn 0.5649 0.8251 0.0000
vn -0.9280 -0.3725 0.0000
vn 0.9785 -0.2063 0.0000
vn 0.7151 0.6990 0.0000
vn -0.9829 -0.1842 0.0000
vn 0.9195 -0.3931 0.0000
vn -0.9999 0.0110 0.0000
vn -0.9999 0.0115 0.0000
vn 0.8251 -0.5650 0.0000
vn -0.9785 0.2062 0.0000
vn 0.6989 -0.7152 -0.0000
vn 0.6993 -0.7148 0.0000
vn 0.6991 -0.7150 0.0000
vn -0.9196 0.3928 0.0000
vn 0.5463 -0.8376 0.0000
vn 0.5462 -0.8377 0.0000
vn -0.8252 0.5648 -0.0000
vn -0.6992 0.7150 0.0000
vn -0.6991 0.7150 0.0000
vn -0.6994 0.7147 0.0000
vn 0.1840 -0.9829 -0.0000
vn 0.1841 -0.9829 -0.0000
vn 0.1843 -0.9829 0.0000
vn -0.5463 0.8376 0.0000
vn -0.0113 -0.9999 0.0000
vn -0.3722 0.9281 0.0000
vn -0.3727 0.9280 0.0000
vn -0.1841 0.9829 0.0000
vn 0.8375 0.5464 0.0000
vn 0.0113 0.9999 0.0001
vn 0.0111 0.9999 0.0000
vn -0.5650 -0.8251 0.0000
vn -0.5649 -0.8252 0.0000
vn 0.9280 0.3725 0.0000
vn 0.9282 0.3722 0.0000
vn 0.2062 0.9785 0.0000
vn 0.2062 0.9785 0.0001
vn -0.7151 -0.6990 0.0000
vn -0.9999 0.0112 0.0000
vn -0.6988 0.7153 0.0000
vn -0.3932 -0.9194 0.0000
vn 0.9197 -0.3927 0.0000
vn 0.6990 -0.7152 -0.0000
vn 0.5464 -0.8375 0.0000
vn -0.8251 0.5649 0.0000
vn -0.3723 0.9281 0.0000
vn 0.2059 0.9786 -0.0000
usemtl Default_OBJ.037
s 1
f 1/1/1 2/2/1 3/3/1
f 2/4/2 4/5/2 3/6/2
f 5/7/3 6/8/3 4/9/3
f 6/10/4 7/11/4 1/12/4
f 3/6/5 6/13/5 1/12/5
f 2/4/6 8/14/6 5/15/6
f 9/16/1 10/17/1 11/18/1
f 10/19/7 12/20/7 11/21/7
f 13/22/3 14/23/3 12/24/3
f 14/25/8 15/26/4 9/27/8
f 11/21/5 14/28/5 9/27/5
f 10/19/6 16/29/6 13/30/6
f 17/31/9 18/32/9 19/33/9
f 20/34/10 21/35/10 22/36/10
f 17/37/11 23/38/12 18/39/11
f 24/40/13 25/41/14 26/42/13
f 27/43/15 28/44/15 29/45/15
f 30/46/16 31/47/17 17/48/18
f 32/49/19 20/50/19 24/51/19
f 33/52/20 28/53/20 34/54/20
f 35/55/21 36/56/21 30/57/22
f 37/58/23 21/59/24 32/60/23
f 38/61/25 39/62/26 33/63/25
f 40/64/27 41/65/28 35/66/27
f 19/67/29 42/68/30 38/69/29
f 40/70/31 43/71/32 44/72/32
f 45/73/33 46/74/33 19/75/34
f 47/76/35 43/77/35 48/78/35
f 45/79/36 49/80/37 50/81/38
f 51/82/39 52/83/39 47/84/40
f 53/85/41 54/86/42 49/87/42
f 55/88/43 56/89/44 51/90/45
f 57/91/46 54/92/47 58/93/47
f 59/94/48 60/95/49 55/96/48
f 61/97/50 22/98/50 57/99/51
f 59/100/52 62/101/52 63/102/52
f 64/103/53 65/104/53 61/105/53
f 66/106/54 62/107/55 67/108/56
f 64/109/57 68/110/57 69/111/57
f 70/112/58 71/113/59 66/114/58
f 72/115/60 73/116/61 37/117/60
f 74/118/62 75/119/62 68/120/62
f 76/121/63 77/122/63 70/123/63
f 18/124/64 78/125/65 72/126/64
f 26/127/66 75/128/66 79/129/66
f 27/130/67 80/131/68 76/132/67
f 81/133/9 82/134/9 83/135/9
f 84/136/10 85/137/10 86/138/10
f 81/139/69 87/140/11 82/141/69
f 88/142/70 89/143/13 90/144/70
f 91/145/71 92/146/71 93/147/71
f 94/148/18 95/149/18 81/150/18
f 96/151/72 84/152/73 88/153/72
f 97/154/74 92/155/74 98/156/20
f 94/157/21 99/158/75 100/159/75
f 101/160/23 85/161/76 96/162/23
f 102/163/77 103/164/25 97/165/77
f 104/166/28 105/167/27 99/168/78
f 83/169/79 106/170/80 102/171/29
f 107/172/81 108/173/32 105/174/32
f 109/175/33 110/176/33 83/177/82
f 111/178/83 108/179/84 112/180/85
f 109/181/38 113/182/86 114/183/86
f 115/184/87 116/185/88 111/186/87
f 117/187/41 118/188/89 113/189/89
f 119/190/44 120/191/43 115/192/44
f 121/193/90 86/194/91 118/195/92
f 122/196/93 123/197/94 119/198/95
f 124/199/96 86/200/50 125/201/96
f 126/202/97 127/203/97 122/204/97
f 128/205/98 129/206/99 124/207/98
f 130/208/54 131/209/54 126/210/54
f 132/211/57 133/212/100 128/213/57
f 134/214/58 135/215/58 130/216/58
f 136/217/101 137/218/101 101/219/101
f 132/220/102 138/221/103 139/222/62
f 134/223/104 140/224/105 141/225/105
f 82/226/106 142/227/107 136/228/107
f 143/229/108 89/230/109 138/231/109
f 144/232/110 93/233/110 140/234/110
f 1/1/1 7/235/1 2/2/1
f 2/4/2 5/236/2 4/5/2
f 5/7/3 8/237/3 6/8/3
f 6/10/4 8/238/4 7/11/4
f 3/6/5 4/239/5 6/13/5
f 2/4/6 7/11/6 8/14/6
f 9/16/1 15/240/1 10/17/1
f 10/19/7 13/241/7 12/20/7
f 13/22/3 16/242/3 14/23/3
f 14/25/8 16/243/4 15/26/4
f 11/21/5 12/244/5 14/28/5
f 10/19/6 15/26/6 16/29/6
f 18/32/9 72/245/9 45/246/9
f 72/245/9 37/247/9 53/248/9
f 37/247/9 32/249/9 58/250/9
f 32/249/9 24/251/9 57/252/9
f 24/251/9 26/253/9 61/254/9
f 26/253/9 79/255/9 64/256/9
f 79/255/9 74/257/9 64/256/9
f 64/256/9 61/254/9 26/253/9
f 61/254/9 57/252/9 24/251/9
f 57/252/9 58/250/9 32/249/9
f 58/250/9 53/248/9 37/247/9
f 53/248/9 45/246/9 72/245/9
f 45/246/9 19/33/9 18/32/9
f 19/33/9 38/258/9 17/31/9
f 38/258/9 33/259/9 30/260/9
f 33/259/9 34/261/9 35/262/9
f 34/261/9 27/263/9 40/264/9
f 27/263/9 76/265/9 48/266/9
f 76/265/9 70/267/9 47/268/9
f 70/267/9 66/269/9 51/270/9
f 66/269/9 67/271/9 55/272/9
f 67/271/9 59/273/9 55/272/9
f 55/272/9 51/270/9 66/269/9
f 51/270/9 47/268/9 70/267/9
f 47/268/9 48/266/9 76/265/9
f 48/266/9 40/264/9 27/263/9
f 40/264/9 35/262/9 34/261/9
f 35/262/9 30/260/9 33/259/9
f 30/260/9 17/31/9 38/258/9
f 73/274/10 78/275/10 49/276/10
f 78/275/10 23/277/10 50/278/10
f 49/276/10 78/275/10 50/278/10
f 23/277/10 31/279/10 46/280/10
f 31/279/10 36/281/10 42/282/10
f 46/280/10 31/279/10 42/282/10
f 36/281/10 41/283/10 39/284/10
f 41/283/10 44/285/10 28/286/10
f 39/284/10 41/283/10 28/286/10
f 44/285/10 43/287/10 29/288/10
f 43/287/10 52/289/10 80/290/10
f 29/288/10 43/287/10 80/290/10
f 52/289/10 56/291/10 77/292/10
f 56/291/10 60/293/10 71/294/10
f 77/292/10 56/291/10 71/294/10
f 60/293/10 63/295/10 62/296/10
f 62/296/10 71/294/10 60/293/10
f 77/292/10 80/290/10 52/289/10
f 29/288/10 28/286/10 44/285/10
f 39/284/10 42/282/10 36/281/10
f 46/280/10 50/278/10 23/277/10
f 49/276/10 54/297/10 73/274/10
f 54/297/10 22/36/10 21/35/10
f 73/274/10 54/297/10 21/35/10
f 22/36/10 65/298/10 20/34/10
f 65/298/10 69/299/10 25/300/10
f 20/34/10 65/298/10 25/300/10
f 69/299/10 68/301/10 75/302/10
f 75/302/10 25/300/10 69/299/10
f 17/37/11 31/303/12 23/38/12
f 24/40/13 20/304/14 25/41/14
f 27/43/15 34/305/15 28/44/15
f 30/46/16 36/306/17 31/47/17
f 32/49/19 21/307/73 20/50/19
f 33/52/20 39/308/20 28/53/20
f 35/55/21 41/309/21 36/56/21
f 37/58/23 73/310/23 21/59/24
f 38/61/25 42/311/26 39/62/26
f 40/64/27 44/312/28 41/65/28
f 19/67/29 46/313/111 42/68/30
f 40/70/31 48/314/31 43/71/32
f 45/73/33 50/315/33 46/74/33
f 47/76/35 52/316/35 43/77/35
f 45/79/36 53/317/36 49/80/37
f 51/82/39 56/318/39 52/83/39
f 53/85/41 58/319/41 54/86/42
f 55/88/43 60/320/45 56/89/44
f 57/91/46 22/321/112 54/92/47
f 59/94/48 63/322/49 60/95/49
f 61/97/50 65/323/50 22/98/50
f 59/100/52 67/324/52 62/101/52
f 64/103/53 69/325/53 65/104/53
f 66/106/54 71/326/55 62/107/55
f 64/109/57 74/327/57 68/110/57
f 70/112/58 77/328/113 71/113/59
f 72/115/60 78/329/61 73/116/61
f 74/118/62 79/330/62 75/119/62
f 76/121/63 80/331/105 77/122/63
f 18/124/64 23/332/107 78/125/65
f 26/127/66 25/333/66 75/128/66
f 27/130/67 29/334/68 80/131/68
f 82/134/9 136/335/9 109/336/9
f 136/335/9 101/337/9 117/338/9
f 101/337/9 96/339/9 121/340/9
f 96/339/9 88/341/9 125/342/9
f 88/341/9 90/343/9 124/344/9
f 90/343/9 143/345/9 128/346/9
f 143/345/9 132/347/9 128/346/9
f 128/346/9 124/344/9 90/343/9
f 124/344/9 125/342/9 88/341/9
f 125/342/9 121/340/9 96/339/9
f 121/340/9 117/338/9 101/337/9
f 117/338/9 109/336/9 136/335/9
f 109/336/9 83/135/9 82/134/9
f 83/135/9 102/348/9 81/133/9
f 102/348/9 97/349/9 94/350/9
f 97/349/9 98/351/9 104/352/9
f 98/351/9 91/353/9 107/354/9
f 91/353/9 144/355/9 112/356/9
f 144/355/9 134/357/9 111/358/9
f 134/357/9 130/359/9 115/360/9
f 130/359/9 126/361/9 119/362/9
f 126/361/9 122/363/9 119/362/9
f 119/362/9 115/360/9 130/359/9
f 115/360/9 111/358/9 134/357/9
f 111/358/9 112/356/9 144/355/9
f 112/356/9 107/354/9 91/353/9
f 107/354/9 104/352/9 98/351/9
f 104/352/9 94/350/9 97/349/9
f 94/350/9 81/133/9 102/348/9
f 137/364/10 142/365/10 113/366/10
f 142/365/10 87/367/10 114/368/10
f 113/366/10 142/365/10 114/368/10
f 87/367/10 95/369/10 110/370/10
f 95/369/10 100/371/10 106/372/10
f 110/370/10 95/369/10 106/372/10
f 100/371/10 99/373/10 103/374/10
f 99/373/10 105/375/10 92/376/10
f 103/374/10 99/373/10 92/376/10
f 105/375/10 108/377/10 93/378/10
f 108/377/10 116/379/10 140/380/10
f 93/378/10 108/377/10 140/380/10
f 116/379/10 120/381/10 141/382/10
f 120/381/10 123/383/10 135/384/10
f 141/382/10 120/381/10 135/384/10
f 123/383/10 127/385/10 131/386/10
f 131/386/10 135/384/10 123/383/10
f 141/382/10 140/380/10 116/379/10
f 93/378/10 92/376/10 105/375/10
f 103/374/10 106/372/10 100/371/10
f 110/370/10 114/368/10 87/367/10
f 113/366/10 118/387/10 137/364/10
f 118/387/10 86/138/10 85/137/10
f 137/364/10 118/387/10 85/137/10
f 86/138/10 129/388/10 84/136/10
f 129/388/10 133/389/10 89/390/10
f 84/136/10 129/388/10 89/390/10
f 133/389/10 139/391/10 138/392/10
f 138/392/10 89/390/10 133/389/10
f 81/139/69 95/393/11 87/140/11
f 88/142/70 84/394/13 89/143/13
f 91/145/71 98/395/71 92/146/71
f 94/148/18 100/396/18 95/149/18
f 96/151/72 85/397/19 84/152/73
f 97/154/74 103/398/74 92/155/74
f 94/157/21 104/399/75 99/158/75
f 101/160/23 137/400/76 85/161/76
f 102/163/77 106/401/25 103/164/25
f 104/166/28 107/402/114 105/167/27
f 83/169/79 110/403/80 106/170/80
f 107/172/81 112/404/81 108/173/32
f 109/175/33 114/405/82 110/176/33
f 111/178/83 116/406/115 108/179/84
f 109/181/38 117/407/37 113/182/86
f 115/184/87 120/408/116 116/185/88
f 117/187/41 121/409/117 118/188/89
f 119/190/44 123/410/45 120/191/43
f 121/193/90 125/411/90 86/194/91
f 122/196/93 127/412/94 123/197/94
f 124/199/96 129/413/50 86/200/50
f 126/202/97 131/414/97 127/203/97
f 128/205/98 133/415/118 129/206/99
f 130/208/54 135/416/56 131/209/54
f 132/211/57 139/417/100 133/212/100
f 134/214/58 141/418/58 135/215/58
f 136/217/101 142/419/61 137/218/101
f 132/220/102 143/420/102 138/221/103
f 134/223/104 144/421/104 140/224/105
f 82/226/106 87/422/107 142/227/107
f 143/229/108 90/423/119 89/230/109
f 144/232/110 91/424/110 93/233/110
