# Blender v3.1.2 OBJ File: ''
# www.blender.org
mtllib 29.mtl
o 29_Cube.008_29_Cube.001
v -3.655561 1.140693 0.217519
v -3.603676 1.124270 0.191189
v -3.603799 1.124309 0.217782
v -3.598076 1.141963 0.191189
v -3.598199 1.142001 0.217782
v -3.649961 1.158386 0.217519
v -3.649838 1.158347 0.190925
v -3.655438 1.140654 0.190925
v -3.705747 1.156545 0.210062
v -3.703415 1.158822 0.210062
v -3.726839 1.156799 0.210062
v -3.699575 1.170952 0.190959
v -3.699614 1.167693 0.190959
v -3.732702 1.168091 0.190959
v -3.703415 1.158821 0.190959
v -3.699575 1.170952 0.210062
v -3.700173 1.174156 0.190959
v -3.700173 1.174156 0.210062
v -3.731988 1.174539 0.210062
v -3.730705 1.177535 0.190959
v -3.731988 1.174539 0.190959
v -3.708478 1.154767 0.190959
v -3.705747 1.156545 0.190959
v -3.699615 1.167693 0.210062
v -3.728862 1.180222 0.210062
v -3.730705 1.177535 0.210062
v -3.708478 1.154767 0.210062
v -3.711504 1.153556 0.190959
v -3.700289 1.164505 0.190959
v -3.726530 1.182499 0.190959
v -3.728862 1.180222 0.190959
v -3.714708 1.152959 0.210062
v -3.711504 1.153556 0.210062
v -3.726530 1.182499 0.210062
v -3.723799 1.184277 0.190959
v -3.717967 1.152998 0.210062
v -3.714708 1.152959 0.190959
v -3.723799 1.184277 0.210062
v -3.720773 1.185488 0.190959
v -3.721155 1.153672 0.210062
v -3.717967 1.152998 0.190959
v -3.720773 1.185488 0.210062
v -3.717569 1.186085 0.190959
v -3.724151 1.154956 0.190959
v -3.721155 1.153672 0.190959
v -3.714310 1.186046 0.210062
v -3.717569 1.186085 0.210062
v -3.724151 1.154956 0.210062
v -3.711122 1.185372 0.190959
v -3.714310 1.186046 0.190959
v -3.729115 1.159131 0.210062
v -3.726839 1.156799 0.190959
v -3.711121 1.185371 0.210062
v -3.708126 1.184088 0.190959
v -3.730893 1.161862 0.210062
v -3.729115 1.159131 0.190959
v -3.708126 1.184088 0.210062
v -3.705438 1.182245 0.190959
v -3.732104 1.164888 0.190959
v -3.730893 1.161862 0.190959
v -3.705438 1.182245 0.210062
v -3.703162 1.179913 0.190959
v -3.732702 1.168091 0.210062
v -3.732104 1.164888 0.210062
v -3.700289 1.164505 0.210062
v -3.701572 1.161509 0.190959
v -3.701384 1.177182 0.210062
v -3.703162 1.179913 0.210062
v -3.732662 1.171350 0.190959
v -3.701572 1.161509 0.210062
v -3.701384 1.177182 0.190959
v -3.732663 1.171350 0.210062
v -3.844837 1.198995 0.217399
v -3.745710 1.167619 0.191308
v -3.745833 1.167658 0.217903
v -3.740109 1.185311 0.191308
v -3.740233 1.185350 0.217903
v -3.839236 1.216688 0.217399
v -3.839113 1.216649 0.190804
v -3.844713 1.198957 0.190804
v -3.666964 1.143712 0.210226
v -3.664632 1.145988 0.210226
v -3.688055 1.143965 0.210226
v -3.660792 1.158119 0.191123
v -3.660831 1.154860 0.191123
v -3.693918 1.155258 0.191123
v -3.664632 1.145988 0.191123
v -3.661390 1.161323 0.210226
v -3.661390 1.161323 0.191123
v -3.693205 1.161706 0.210226
v -3.691921 1.164701 0.191123
v -3.693205 1.161706 0.191123
v -3.669695 1.141934 0.191123
v -3.666964 1.143712 0.191123
v -3.660792 1.158119 0.210226
v -3.691922 1.164701 0.210226
v -3.690078 1.167389 0.191123
v -3.672721 1.140723 0.210226
v -3.669695 1.141934 0.210226
v -3.660831 1.154860 0.210226
v -3.661506 1.151672 0.191123
v -3.690079 1.167389 0.210226
v -3.687746 1.169666 0.191123
v -3.675925 1.140126 0.191123
v -3.672721 1.140723 0.191123
v -3.685015 1.171444 0.210226
v -3.687746 1.169666 0.210226
v -3.675925 1.140126 0.210226
v -3.679183 1.140165 0.191123
v -3.681990 1.172654 0.210226
v -3.685015 1.171444 0.191123
v -3.679184 1.140165 0.210226
v -3.682372 1.140839 0.191123
v -3.678785 1.173252 0.210226
v -3.681989 1.172655 0.191123
v -3.685367 1.142122 0.210226
v -3.682372 1.140839 0.210226
v -3.675527 1.173213 0.191123
v -3.678786 1.173252 0.191123
v -3.685368 1.142123 0.191123
v -3.675526 1.173213 0.210226
v -3.672338 1.172538 0.191123
v -3.690332 1.146297 0.191123
v -3.688056 1.143965 0.191123
v -3.669343 1.171255 0.210226
v -3.672338 1.172538 0.210226
v -3.692110 1.149029 0.210226
v -3.690332 1.146297 0.210226
v -3.666655 1.169412 0.210226
v -3.669342 1.171255 0.191123
v -3.693321 1.152054 0.210226
v -3.692110 1.149029 0.191123
v -3.664379 1.167080 0.210226
v -3.666654 1.169412 0.191123
v -3.693918 1.155258 0.210226
v -3.693321 1.152055 0.191123
v -3.661505 1.151672 0.210226
v -3.662789 1.148676 0.191123
v -3.662600 1.164349 0.191123
v -3.664379 1.167080 0.191123
v -3.693879 1.158517 0.191123
v -3.662789 1.148676 0.210226
v -3.662600 1.164349 0.210226
v -3.693879 1.158517 0.210226
vt 0.294922 0.253906
vt 0.344922 0.303906
vt 0.294922 0.303906
vt 0.294922 0.253906
vt 0.344922 0.303906
vt 0.294922 0.303906
vt 0.344922 0.253906
vt 0.294922 0.303906
vt 0.294922 0.253906
vt 0.344922 0.253906
vt 0.294922 0.303906
vt 0.294922 0.253906
vt 0.344922 0.253906
vt 0.294922 0.253906
vt 0.344922 0.303906
vt 0.294922 0.303906
vt 0.310355 0.302003
vt 0.315045 0.303426
vt 0.295402 0.274029
vt 0.306033 0.299693
vt 0.310355 0.302003
vt 0.333811 0.258120
vt 0.344922 0.253906
vt 0.294922 0.303906
vt 0.294922 0.253906
vt 0.344922 0.253906
vt 0.294922 0.303906
vt 0.294922 0.253906
vt 0.294922 0.253906
vt 0.344922 0.303906
vt 0.294922 0.303906
vt 0.294922 0.253906
vt 0.344922 0.303906
vt 0.294922 0.303906
vt 0.344922 0.253906
vt 0.294922 0.303906
vt 0.294922 0.253906
vt 0.344922 0.253906
vt 0.294922 0.303906
vt 0.294922 0.253906
vt 0.294922 0.253906
vt 0.344922 0.303906
vt 0.294922 0.303906
vt 0.294922 0.253906
vt 0.344922 0.303906
vt 0.294922 0.303906
vt 0.294922 0.253906
vt 0.344922 0.303906
vt 0.294922 0.303906
vt 0.344922 0.253906
vt 0.294922 0.303906
vt 0.294922 0.253906
vt 0.294922 0.253906
vt 0.344922 0.303906
vt 0.294922 0.303906
vt 0.344922 0.253906
vt 0.294922 0.303906
vt 0.294922 0.253906
vt 0.294922 0.253906
vt 0.344922 0.303906
vt 0.294922 0.303906
vt 0.344922 0.253906
vt 0.294922 0.303906
vt 0.294922 0.253906
vt 0.294922 0.253906
vt 0.344922 0.303906
vt 0.294922 0.303906
vt 0.294922 0.253906
vt 0.344922 0.303906
vt 0.294922 0.303906
vt 0.344922 0.253906
vt 0.294922 0.303906
vt 0.294922 0.253906
vt 0.344922 0.253906
vt 0.294922 0.303906
vt 0.294922 0.253906
vt 0.294922 0.253906
vt 0.344922 0.303906
vt 0.294922 0.303906
vt 0.344922 0.253906
vt 0.294922 0.303906
vt 0.294922 0.253906
vt 0.294922 0.253906
vt 0.344922 0.303906
vt 0.294922 0.303906
vt 0.344922 0.253906
vt 0.294922 0.303906
vt 0.294922 0.253906
vt 0.294922 0.253906
vt 0.344922 0.303906
vt 0.294922 0.303906
vt 0.294922 0.253906
vt 0.344922 0.303906
vt 0.294922 0.303906
vt 0.294922 0.253906
vt 0.344922 0.303906
vt 0.294922 0.303906
vt 0.344922 0.253906
vt 0.294922 0.303906
vt 0.294922 0.253906
vt 0.294922 0.253906
vt 0.344922 0.303906
vt 0.294922 0.303906
vt 0.344922 0.253906
vt 0.294922 0.303906
vt 0.294922 0.253906
vt 0.294922 0.253906
vt 0.344922 0.303906
vt 0.294922 0.303906
vt 0.344922 0.253906
vt 0.294922 0.303906
vt 0.294922 0.253906
vt 0.344922 0.253906
vt 0.294922 0.303906
vt 0.294922 0.253906
vt 0.344922 0.253906
vt 0.294922 0.303906
vt 0.294922 0.253906
vt 0.294922 0.253906
vt 0.344922 0.303906
vt 0.294922 0.303906
vt 0.294922 0.253906
vt 0.344922 0.303906
vt 0.294922 0.303906
vt 0.344922 0.253906
vt 0.294922 0.303906
vt 0.294922 0.253906
vt 0.344922 0.253906
vt 0.294922 0.303906
vt 0.294922 0.253906
vt 0.344922 0.253906
vt 0.294922 0.253906
vt 0.344922 0.303906
vt 0.294922 0.303906
vt 0.310355 0.302003
vt 0.315045 0.303426
vt 0.295402 0.274029
vt 0.306033 0.299693
vt 0.310355 0.302003
vt 0.333811 0.258120
vt 0.344922 0.253906
vt 0.294922 0.303906
vt 0.294922 0.253906
vt 0.294922 0.253906
vt 0.344922 0.303906
vt 0.294922 0.303906
vt 0.294922 0.253906
vt 0.344922 0.303906
vt 0.294922 0.303906
vt 0.294922 0.253906
vt 0.344922 0.303906
vt 0.294922 0.303906
vt 0.294922 0.253906
vt 0.344922 0.303906
vt 0.294922 0.303906
vt 0.294922 0.253906
vt 0.344922 0.303906
vt 0.294922 0.303906
vt 0.344922 0.253906
vt 0.294922 0.303906
vt 0.294922 0.253906
vt 0.294922 0.253906
vt 0.344922 0.303906
vt 0.294922 0.303906
vt 0.294922 0.253906
vt 0.344922 0.303906
vt 0.294922 0.303906
vt 0.294922 0.253906
vt 0.344922 0.303906
vt 0.294922 0.303906
vt 0.344922 0.253906
vt 0.294922 0.303906
vt 0.294922 0.253906
vt 0.294922 0.253906
vt 0.344922 0.303906
vt 0.294922 0.303906
vt 0.344922 0.253906
vt 0.294922 0.303906
vt 0.294922 0.253906
vt 0.294922 0.253906
vt 0.344922 0.303906
vt 0.294922 0.303906
vt 0.344922 0.253906
vt 0.294922 0.303906
vt 0.294922 0.253906
vt 0.344922 0.253906
vt 0.294922 0.303906
vt 0.294922 0.253906
vt 0.294922 0.253906
vt 0.344922 0.303906
vt 0.294922 0.303906
vt 0.344922 0.253906
vt 0.294922 0.303906
vt 0.294922 0.253906
vt 0.294922 0.253906
vt 0.344922 0.303906
vt 0.294922 0.303906
vt 0.294922 0.253906
vt 0.344922 0.303906
vt 0.294922 0.303906
vt 0.344922 0.253906
vt 0.294922 0.303906
vt 0.294922 0.253906
vt 0.344922 0.253906
vt 0.294922 0.303906
vt 0.294922 0.253906
vt 0.344922 0.253906
vt 0.294922 0.303906
vt 0.294922 0.253906
vt 0.344922 0.253906
vt 0.294922 0.303906
vt 0.294922 0.253906
vt 0.344922 0.253906
vt 0.294922 0.303906
vt 0.294922 0.253906
vt 0.344922 0.253906
vt 0.294922 0.303906
vt 0.294922 0.253906
vt 0.294922 0.253906
vt 0.344922 0.303906
vt 0.294922 0.303906
vt 0.294922 0.253906
vt 0.344922 0.303906
vt 0.294922 0.303906
vt 0.294922 0.253906
vt 0.344922 0.303906
vt 0.294922 0.303906
vt 0.344922 0.253906
vt 0.294922 0.303906
vt 0.294922 0.253906
vt 0.294922 0.253906
vt 0.344922 0.303906
vt 0.294922 0.303906
vt 0.294922 0.253906
vt 0.344922 0.303906
vt 0.294922 0.303906
vt 0.344922 0.253906
vt 0.344922 0.253906
vt 0.344922 0.303906
vt 0.344922 0.303906
vt 0.319922 0.303906
vt 0.296825 0.269339
vt 0.324799 0.303426
vt 0.299135 0.265017
vt 0.329489 0.302003
vt 0.302244 0.261229
vt 0.333811 0.299693
vt 0.306033 0.258120
vt 0.337600 0.296584
vt 0.310355 0.255809
vt 0.340709 0.292796
vt 0.315045 0.254387
vt 0.343019 0.288473
vt 0.319922 0.253906
vt 0.344442 0.283783
vt 0.324799 0.254387
vt 0.344922 0.278906
vt 0.329489 0.255809
vt 0.344442 0.274029
vt 0.333811 0.258120
vt 0.343019 0.269339
vt 0.337600 0.261229
vt 0.340709 0.265017
vt 0.294922 0.278906
vt 0.295402 0.283784
vt 0.306033 0.299693
vt 0.296825 0.288473
vt 0.302244 0.296584
vt 0.299135 0.292796
vt 0.315045 0.303426
vt 0.319922 0.303906
vt 0.340709 0.265017
vt 0.324799 0.303426
vt 0.343019 0.269339
vt 0.329489 0.302003
vt 0.344442 0.274029
vt 0.333811 0.299693
vt 0.344922 0.278906
vt 0.337600 0.296584
vt 0.344442 0.283783
vt 0.340709 0.292796
vt 0.343019 0.288473
vt 0.337600 0.261229
vt 0.329489 0.255809
vt 0.324799 0.254387
vt 0.302244 0.296584
vt 0.319922 0.253906
vt 0.299135 0.292796
vt 0.315045 0.254387
vt 0.296825 0.288473
vt 0.310355 0.255809
vt 0.295402 0.283784
vt 0.306033 0.258120
vt 0.294922 0.278906
vt 0.302244 0.261229
vt 0.295402 0.274029
vt 0.299135 0.265017
vt 0.296825 0.269339
vt 0.344922 0.303906
vt 0.344922 0.303906
vt 0.344922 0.253906
vt 0.344922 0.253906
vt 0.344922 0.303906
vt 0.344922 0.303906
vt 0.344922 0.253906
vt 0.344922 0.253906
vt 0.344922 0.253906
vt 0.344922 0.303906
vt 0.344922 0.253906
vt 0.344922 0.303906
vt 0.344922 0.253906
vt 0.344922 0.303906
vt 0.344922 0.253906
vt 0.344922 0.253906
vt 0.344922 0.303906
vt 0.344922 0.303906
vt 0.344922 0.253906
vt 0.344922 0.303906
vt 0.344922 0.253906
vt 0.344922 0.303906
vt 0.344922 0.253906
vt 0.344922 0.253906
vt 0.344922 0.253906
vt 0.344922 0.303906
vt 0.344922 0.253906
vt 0.344922 0.303906
vt 0.344922 0.253906
vt 0.344922 0.303906
vt 0.344922 0.303906
vt 0.344922 0.303906
vt 0.344922 0.253906
vt 0.344922 0.253906
vt 0.344922 0.303906
vt 0.344922 0.303906
vt 0.319922 0.303906
vt 0.296825 0.269339
vt 0.324799 0.303426
vt 0.299135 0.265017
vt 0.329489 0.302003
vt 0.302244 0.261229
vt 0.333811 0.299693
vt 0.306033 0.258120
vt 0.337600 0.296584
vt 0.310355 0.255809
vt 0.340709 0.292796
vt 0.315045 0.254387
vt 0.343019 0.288473
vt 0.319922 0.253906
vt 0.344442 0.283783
vt 0.324799 0.254387
vt 0.344922 0.278906
vt 0.329489 0.255809
vt 0.344442 0.274029
vt 0.333811 0.258120
vt 0.343019 0.269339
vt 0.337600 0.261229
vt 0.340709 0.265017
vt 0.294922 0.278906
vt 0.295402 0.283784
vt 0.306033 0.299693
vt 0.296825 0.288473
vt 0.302244 0.296584
vt 0.299135 0.292796
vt 0.315045 0.303426
vt 0.319922 0.303906
vt 0.340709 0.265017
vt 0.324799 0.303426
vt 0.343019 0.269339
vt 0.329489 0.302003
vt 0.344442 0.274029
vt 0.333811 0.299693
vt 0.344922 0.278906
vt 0.337600 0.296584
vt 0.344442 0.283783
vt 0.340709 0.292796
vt 0.343019 0.288473
vt 0.337600 0.261229
vt 0.329489 0.255809
vt 0.324799 0.254387
vt 0.302244 0.296584
vt 0.319922 0.253906
vt 0.299135 0.292796
vt 0.315045 0.254387
vt 0.296825 0.288473
vt 0.310355 0.255809
vt 0.295402 0.283784
vt 0.306033 0.258120
vt 0.294922 0.278906
vt 0.302244 0.261229
vt 0.295402 0.274029
vt 0.299135 0.265017
vt 0.296825 0.269339
vt 0.344922 0.303906
vt 0.344922 0.253906
vt 0.344922 0.253906
vt 0.344922 0.253906
vt 0.344922 0.253906
vt 0.344922 0.253906
vt 0.344922 0.303906
vt 0.344922 0.253906
vt 0.344922 0.253906
vt 0.344922 0.253906
vt 0.344922 0.303906
vt 0.344922 0.253906
vt 0.344922 0.303906
vt 0.344922 0.253906
vt 0.344922 0.303906
vt 0.344922 0.303906
vt 0.344922 0.253906
vt 0.344922 0.303906
vt 0.344922 0.253906
vt 0.344922 0.253906
vt 0.344922 0.303906
vt 0.344922 0.303906
vt 0.344922 0.303906
vt 0.344922 0.303906
vt 0.344922 0.303906
vt 0.344922 0.303906
vt 0.344922 0.253906
vt 0.344922 0.253906
vt 0.344922 0.253906
vt 0.344922 0.303906
vt 0.344922 0.253906
vt 0.344922 0.253906
vn -0.3018 -0.9534 -0.0000
vn 0.9534 -0.3018 0.0048
vn 0.3018 0.9534 0.0000
vn -0.9534 0.3018 -0.0049
vn -0.9534 0.3017 -0.0049
vn -0.0046 0.0015 1.0000
vn 0.0046 -0.0015 -1.0000
vn 0.0000 0.0000 1.0000
vn -0.0000 0.0000 -1.0000
vn 0.6986 -0.7155 0.0000
vn 0.6984 -0.7157 0.0000
vn 0.6987 -0.7154 0.0000
vn 0.9830 0.1834 0.0000
vn 0.9830 0.1835 0.0000
vn 0.9831 0.1830 0.0000
vn -0.9192 0.3937 0.0000
vn 0.5453 -0.8382 0.0000
vn 0.5456 -0.8380 0.0000
vn 0.9999 -0.0121 0.0000
vn 0.9999 -0.0120 0.0000
vn -0.8247 0.5655 0.0000
vn -0.8246 0.5657 0.0000
vn 0.3715 -0.9284 0.0000
vn 0.3716 -0.9284 0.0000
vn 0.9784 -0.2069 0.0000
vn 0.9783 -0.2070 0.0000
vn 0.9783 -0.2071 0.0000
vn -0.6987 0.7154 0.0000
vn -0.6986 0.7155 0.0000
vn 0.1832 -0.9831 0.0000
vn -0.5456 0.8380 0.0000
vn -0.0120 -0.9999 0.0000
vn -0.3715 0.9284 0.0000
vn -0.2069 -0.9784 0.0000
vn -0.2068 -0.9784 0.0000
vn -0.1832 0.9831 0.0000
vn -0.3939 -0.9192 0.0000
vn 0.0120 0.9999 0.0000
vn -0.5655 -0.8248 0.0000
vn 0.2070 0.9783 0.0000
vn 0.2069 0.9784 0.0000
vn -0.7156 -0.6985 0.0000
vn 0.3938 0.9192 0.0000
vn 0.3939 0.9192 0.0000
vn -0.8381 -0.5455 0.0000
vn 0.5656 0.8247 0.0000
vn 0.5654 0.8248 0.0000
vn -0.9284 -0.3717 0.0000
vn 0.7156 0.6985 0.0000
vn -0.9830 -0.1834 0.0000
vn -0.9830 -0.1836 0.0000
vn 0.9193 -0.3935 0.0000
vn 0.9192 -0.3937 0.0000
vn 0.8379 0.5458 0.0000
vn 0.8381 0.5455 0.0000
vn -0.9999 0.0120 -0.0000
vn -0.9999 0.0124 -0.0000
vn -0.9999 0.0121 0.0000
vn 0.8246 -0.5657 0.0000
vn 0.8247 -0.5655 0.0000
vn 0.9284 0.3717 0.0000
vn 0.9285 0.3713 0.0000
vn -0.9783 0.2070 -0.0000
vn -0.9784 0.2068 -0.0000
vn 0.9534 -0.3018 0.0049
vn 0.6987 -0.7155 0.0000
vn 0.6985 -0.7156 0.0000
vn 0.9830 0.1836 0.0000
vn -0.9192 0.3939 -0.0000
vn -0.9190 0.3942 0.0000
vn 0.9999 -0.0122 0.0000
vn -0.8248 0.5654 -0.0000
vn -0.5455 0.8381 0.0000
vn -0.5456 0.8381 0.0000
vn -0.3717 0.9283 -0.0000
vn -0.3714 0.9285 0.0000
vn -0.1834 0.9830 0.0000
vn -0.1833 0.9831 0.0000
vn -0.3938 -0.9192 -0.0000
vn -0.3940 -0.9191 -0.0000
vn -0.3937 -0.9192 0.0000
vn -0.5654 -0.8248 -0.0000
vn -0.5656 -0.8247 -0.0000
vn 0.2068 0.9784 0.0000
vn 0.2067 0.9784 0.0000
vn -0.7155 -0.6986 0.0000
vn 0.3937 0.9192 0.0000
vn -0.8382 -0.5454 0.0000
vn 0.5655 0.8248 0.0000
vn -0.9283 -0.3717 -0.0000
vn -0.9284 -0.3715 -0.0000
vn 0.7157 0.6984 0.0000
vn -0.9831 -0.1831 -0.0000
vn 0.9192 -0.3939 -0.0000
vn 0.8380 0.5457 0.0000
vn 0.8379 0.5459 0.0000
vn 0.8248 -0.5654 0.0000
vn 0.9284 0.3716 -0.0000
vn 0.9285 0.3712 0.0000
vn -0.9784 0.2069 0.0000
vn -0.9784 0.2067 0.0000
vn 0.9784 -0.2068 0.0000
vn -0.3716 0.9284 0.0000
vn 0.2066 0.9784 -0.0001
vn -0.7154 -0.6987 0.0000
vn -0.9285 -0.3713 -0.0000
vn 0.8245 -0.5658 -0.0000
vn 0.9831 0.1833 0.0000
vn -0.9192 0.3938 -0.0000
vn -0.5453 0.8382 0.0000
vn -0.5657 -0.8246 -0.0000
vn 0.2071 0.9783 0.0000
vn 0.3937 0.9193 0.0000
vn -0.8381 -0.5456 0.0000
vn -0.9285 -0.3714 -0.0000
vn -0.9831 -0.1832 0.0000
vn 0.9191 -0.3939 0.0000
usemtl Default_OBJ.045
s 1
f 1/1/1 2/2/1 3/3/1
f 3/4/2 4/5/2 5/6/2
f 4/7/3 6/8/3 5/9/3
f 7/10/4 1/11/4 6/12/5
f 5/13/6 1/11/6 3/4/6
f 4/14/7 8/15/7 7/16/7
f 9/17/8 10/18/8 11/19/8
f 12/20/9 13/21/9 14/22/9
f 9/23/10 15/24/11 10/25/12
f 16/26/13 17/27/14 18/28/15
f 19/29/16 20/30/16 21/31/16
f 9/32/17 22/33/18 23/34/18
f 24/35/19 12/36/20 16/37/20
f 25/38/21 20/39/22 26/40/21
f 27/41/23 28/42/24 22/43/24
f 24/44/25 29/45/26 13/46/27
f 25/47/28 30/48/29 31/49/29
f 32/50/30 28/51/30 33/52/30
f 34/53/31 35/54/31 30/55/31
f 36/56/32 37/57/32 32/58/32
f 38/59/33 39/60/33 35/61/33
f 40/62/34 41/63/34 36/64/35
f 42/65/36 43/66/36 39/67/36
f 40/68/37 44/69/37 45/70/37
f 46/71/38 43/72/38 47/73/38
f 11/74/39 44/75/39 48/76/39
f 46/77/40 49/78/41 50/79/41
f 51/80/42 52/81/42 11/82/42
f 53/83/43 54/84/44 49/85/44
f 55/86/45 56/87/45 51/88/45
f 57/89/46 58/90/47 54/91/47
f 55/92/48 59/93/48 60/94/48
f 61/95/49 62/96/49 58/97/49
f 63/98/50 59/99/51 64/100/50
f 65/101/52 66/102/53 29/103/53
f 67/104/54 62/105/55 68/106/54
f 63/107/56 69/108/57 14/109/58
f 10/110/59 66/111/60 70/112/59
f 18/113/61 71/114/61 67/115/62
f 19/116/63 69/117/64 72/118/63
f 73/119/1 74/120/1 75/121/1
f 75/122/65 76/123/65 77/124/65
f 76/125/3 78/126/3 77/127/3
f 79/128/4 73/129/4 78/130/4
f 77/131/6 73/129/6 75/122/6
f 76/132/7 80/133/7 79/134/7
f 81/135/8 82/136/8 83/137/8
f 84/138/9 85/139/9 86/140/9
f 81/141/66 87/142/67 82/143/11
f 88/144/13 84/145/14 89/146/68
f 90/147/69 91/148/69 92/149/70
f 81/150/18 93/151/18 94/152/18
f 95/153/71 85/154/19 84/155/19
f 96/156/21 97/157/72 91/158/72
f 98/159/23 93/160/24 99/161/23
f 100/162/25 101/163/26 85/164/27
f 102/165/29 103/166/29 97/167/29
f 98/168/30 104/169/30 105/170/30
f 106/171/73 103/172/74 107/173/73
f 108/174/32 109/175/32 104/176/32
f 110/177/75 111/178/33 106/179/76
f 112/180/35 113/181/35 109/182/35
f 114/183/77 115/184/78 110/185/77
f 116/186/79 113/187/80 117/188/81
f 114/189/38 118/190/38 119/191/38
f 83/192/82 120/193/83 116/194/82
f 121/195/84 122/196/40 118/197/85
f 83/198/86 123/199/42 124/200/42
f 125/201/43 122/202/87 126/203/43
f 127/204/88 123/205/45 128/206/88
f 129/207/89 130/208/89 125/209/89
f 131/210/90 132/211/91 127/212/91
f 133/213/49 134/214/92 129/215/49
f 135/216/93 136/217/93 131/218/93
f 137/219/94 138/220/53 101/221/53
f 133/222/95 139/223/54 140/224/96
f 135/225/56 141/226/56 86/227/56
f 82/228/60 138/229/97 142/230/60
f 143/231/98 89/232/99 139/233/99
f 144/234/100 92/235/101 141/236/64
f 1/1/1 8/237/1 2/2/1
f 3/4/2 2/238/65 4/5/2
f 4/7/3 7/239/3 6/8/3
f 7/10/4 8/15/4 1/11/4
f 5/13/6 6/240/6 1/11/6
f 4/14/7 2/238/7 8/15/7
f 10/18/8 70/241/8 51/242/8
f 70/241/8 65/243/8 55/244/8
f 65/243/8 24/245/8 64/246/8
f 24/245/8 16/247/8 63/248/8
f 16/247/8 18/249/8 72/250/8
f 18/249/8 67/251/8 19/252/8
f 67/251/8 68/253/8 26/254/8
f 68/253/8 61/255/8 25/256/8
f 61/255/8 57/257/8 34/258/8
f 57/257/8 53/259/8 38/260/8
f 53/259/8 46/261/8 42/262/8
f 46/261/8 47/263/8 42/262/8
f 42/262/8 38/260/8 53/259/8
f 38/260/8 34/258/8 57/257/8
f 34/258/8 25/256/8 61/255/8
f 25/256/8 26/254/8 68/253/8
f 26/254/8 19/252/8 67/251/8
f 19/252/8 72/250/8 18/249/8
f 72/250/8 63/248/8 16/247/8
f 63/248/8 64/246/8 24/245/8
f 64/246/8 55/244/8 65/243/8
f 55/244/8 51/242/8 70/241/8
f 51/242/8 11/19/8 10/18/8
f 11/19/8 48/264/8 9/17/8
f 48/264/8 40/265/8 27/266/8
f 40/265/8 36/267/8 33/268/8
f 36/267/8 32/269/8 33/268/8
f 33/268/8 27/266/8 40/265/8
f 27/266/8 9/17/8 48/264/8
f 29/270/9 66/271/9 60/272/9
f 66/271/9 15/273/9 56/274/9
f 60/272/9 66/271/9 56/274/9
f 15/273/9 23/275/9 52/276/9
f 23/275/9 22/277/9 44/278/9
f 52/276/9 23/275/9 44/278/9
f 22/277/9 28/279/9 45/280/9
f 28/279/9 37/281/9 41/282/9
f 45/280/9 28/279/9 41/282/9
f 45/280/9 44/278/9 22/277/9
f 52/276/9 56/274/9 15/273/9
f 60/272/9 59/283/9 29/270/9
f 59/283/9 14/22/9 13/21/9
f 29/270/9 59/283/9 13/21/9
f 14/22/9 69/284/9 12/20/9
f 69/284/9 21/285/9 17/286/9
f 12/20/9 69/284/9 17/286/9
f 21/285/9 20/287/9 71/288/9
f 20/287/9 31/289/9 62/290/9
f 71/288/9 20/287/9 62/290/9
f 31/289/9 30/291/9 58/292/9
f 30/291/9 35/293/9 54/294/9
f 58/292/9 30/291/9 54/294/9
f 35/293/9 39/295/9 49/296/9
f 39/295/9 43/297/9 50/298/9
f 49/296/9 39/295/9 50/298/9
f 49/296/9 54/294/9 35/293/9
f 58/292/9 62/290/9 31/289/9
f 71/288/9 17/286/9 21/285/9
f 9/23/10 23/299/11 15/24/11
f 16/26/13 12/300/68 17/27/14
f 19/29/16 26/301/16 20/30/16
f 9/32/17 27/302/18 22/33/18
f 24/35/19 13/303/20 12/36/20
f 25/38/21 31/304/72 20/39/22
f 27/41/23 33/305/23 28/42/24
f 24/44/25 65/306/102 29/45/26
f 25/47/28 34/307/28 30/48/29
f 32/50/30 37/308/30 28/51/30
f 34/53/31 38/309/31 35/54/31
f 36/56/32 41/310/32 37/57/32
f 38/59/33 42/311/103 39/60/33
f 40/62/34 45/312/34 41/63/34
f 42/65/36 47/313/36 43/66/36
f 40/68/37 48/314/37 44/69/37
f 46/71/38 50/315/38 43/72/38
f 11/74/39 52/316/39 44/75/39
f 46/77/40 53/317/104 49/78/41
f 51/80/42 56/318/105 52/81/42
f 53/83/43 57/319/43 54/84/44
f 55/86/45 60/320/45 56/87/45
f 57/89/46 61/321/46 58/90/47
f 55/92/48 64/322/106 59/93/48
f 61/95/49 68/323/49 62/96/49
f 63/98/50 14/324/51 59/99/51
f 65/101/52 70/325/52 66/102/53
f 67/104/54 71/326/55 62/105/55
f 63/107/56 72/327/56 69/108/57
f 10/110/59 15/328/107 66/111/60
f 18/113/61 17/329/61 71/114/61
f 19/116/63 21/330/64 69/117/64
f 73/119/1 80/331/1 74/120/1
f 75/122/65 74/332/65 76/123/65
f 76/125/3 79/333/3 78/126/3
f 79/128/4 80/133/5 73/129/4
f 77/131/6 78/334/6 73/129/6
f 76/132/7 74/332/7 80/133/7
f 82/136/8 142/335/8 128/336/8
f 142/335/8 137/337/8 127/338/8
f 137/337/8 100/339/8 131/340/8
f 100/339/8 95/341/8 135/342/8
f 95/341/8 88/343/8 144/344/8
f 88/343/8 143/345/8 90/346/8
f 143/345/8 133/347/8 96/348/8
f 133/347/8 129/349/8 102/350/8
f 129/349/8 125/351/8 107/352/8
f 125/351/8 126/353/8 106/354/8
f 126/353/8 121/355/8 110/356/8
f 121/355/8 114/357/8 110/356/8
f 110/356/8 106/354/8 126/353/8
f 106/354/8 107/352/8 125/351/8
f 107/352/8 102/350/8 129/349/8
f 102/350/8 96/348/8 133/347/8
f 96/348/8 90/346/8 143/345/8
f 90/346/8 144/344/8 88/343/8
f 144/344/8 135/342/8 95/341/8
f 135/342/8 131/340/8 100/339/8
f 131/340/8 127/338/8 137/337/8
f 127/338/8 128/336/8 142/335/8
f 128/336/8 83/137/8 82/136/8
f 83/137/8 116/358/8 81/135/8
f 116/358/8 117/359/8 99/360/8
f 117/359/8 112/361/8 98/362/8
f 112/361/8 108/363/8 98/362/8
f 98/362/8 99/360/8 117/359/8
f 99/360/8 81/135/8 116/358/8
f 101/364/9 138/365/9 132/366/9
f 138/365/9 87/367/9 123/368/9
f 132/366/9 138/365/9 123/368/9
f 87/367/9 94/369/9 124/370/9
f 94/369/9 93/371/9 120/372/9
f 124/370/9 94/369/9 120/372/9
f 93/371/9 105/373/9 113/374/9
f 105/373/9 104/375/9 109/376/9
f 113/374/9 105/373/9 109/376/9
f 113/374/9 120/372/9 93/371/9
f 124/370/9 123/368/9 87/367/9
f 132/366/9 136/377/9 101/364/9
f 136/377/9 86/140/9 85/139/9
f 101/364/9 136/377/9 85/139/9
f 86/140/9 141/378/9 84/138/9
f 141/378/9 92/379/9 89/380/9
f 84/138/9 141/378/9 89/380/9
f 92/379/9 91/381/9 139/382/9
f 91/381/9 97/383/9 140/384/9
f 139/382/9 91/381/9 140/384/9
f 97/383/9 103/385/9 134/386/9
f 103/385/9 111/387/9 130/388/9
f 134/386/9 103/385/9 130/388/9
f 111/387/9 115/389/9 122/390/9
f 115/389/9 119/391/9 118/392/9
f 122/390/9 115/389/9 118/392/9
f 122/390/9 130/388/9 111/387/9
f 134/386/9 140/384/9 97/383/9
f 139/382/9 89/380/9 92/379/9
f 81/141/66 94/393/67 87/142/67
f 88/144/13 95/394/108 84/145/14
f 90/147/69 96/395/109 91/148/69
f 81/150/18 99/396/17 93/151/18
f 95/153/71 100/397/71 85/154/19
f 96/156/21 102/398/21 97/157/72
f 98/159/23 105/399/24 93/160/24
f 100/162/25 137/400/102 101/163/26
f 102/165/29 107/401/29 103/166/29
f 98/168/30 108/402/30 104/169/30
f 106/171/73 111/403/110 103/172/74
f 108/174/32 112/404/32 109/175/32
f 110/177/75 115/405/103 111/178/33
f 112/180/35 117/406/35 113/181/35
f 114/183/77 119/407/36 115/184/78
f 116/186/79 120/408/80 113/187/80
f 114/189/38 121/409/38 118/190/38
f 83/192/82 124/410/111 120/193/83
f 121/195/84 126/411/112 122/196/40
f 83/198/86 128/412/86 123/199/42
f 125/201/43 130/413/113 122/202/87
f 127/204/88 132/414/114 123/205/45
f 129/207/89 134/415/89 130/208/89
f 131/210/90 136/416/115 132/211/91
f 133/213/49 140/417/92 134/214/92
f 135/216/93 86/418/116 136/217/93
f 137/219/94 142/419/117 138/220/53
f 133/222/95 143/420/95 139/223/54
f 135/225/56 144/421/56 141/226/56
f 82/228/60 87/422/97 138/229/97
f 143/231/98 88/423/98 89/232/99
f 144/234/100 90/424/63 92/235/101
