# WaveFront *.obj file (generated by CINEMA 4D)

mtllib ./28.mtl

v -0.02559326775372 0.96245628595352 -0.28161546587944
v -0.00991516746581 0.98099368810654 -0.26659265160561
v -0.03607259690762 0.9502380490303 -0.29151371121407
v -0.00153500004672 1.01893401145935 -0.23398000001907
v -0.0364199988544 0.90297698974609 -0.32815998792648
v -0.05219199880958 1.02269899845123 -0.2277420014143
v -0.00424200017005 0.90251898765564 -0.32892099022865
v -0.09055099636316 0.90891700983047 -0.31827300786972
v -0.04306776449084 0.96056151390076 -0.28283721208572
v -0.05085557326674 0.97283518314362 -0.27253317832947
v -0.05570585653186 0.99158090353012 -0.25693374872208
v -0.05125218257308 0.98406362533569 -0.26323851943016
v -0.04838248342276 0.96044862270355 -0.28282585740089
v -0.05588033795357 0.93864572048187 -0.30071026086807
v -0.01522139739245 0.97500175237656 -0.27144354581833
v -0.01925051212311 0.96763443946838 -0.27745628356934
v -0.01517155859619 0.96876269578934 -0.27660432457924
v -0.01905379071832 0.93815302848816 -0.30184400081635
v -0.0250158496201 0.95836186408997 -0.28501230478287
v -0.03084676153958 0.95987141132355 -0.28364863991737
v -0.00657140137628 0.98368233442307 -0.26443359255791
v -0.01711956597865 0.98702555894852 -0.26146131753922
v -0.04304491356015 0.98793083429337 -0.26020213961601
v -0.01351772621274 0.98192077875137 -0.26575458049774
v -0.05730861797929 0.97299063205719 -0.27227720618248
# 25 vertices

vn -0.01520668528974 0.63724827766418 -0.77050852775574
vn -0.01521289534867 0.63724732398987 -0.77050918340683
vn -0.01519763190299 0.63725018501282 -0.77050709724426
vn 0 0 0
vn -0.01518318802118 0.63724887371063 -0.77050852775574
vn -0.01520148571581 0.63725727796555 -0.77050119638443
vn -0.01508256327361 0.63716554641724 -0.77057939767838
vn -0.01517828553915 0.63726496696472 -0.7704952955246
vn -0.01518831402063 0.63726818561554 -0.77049243450165
vn -0.01521324831992 0.63724082708359 -0.7705146074295
vn -0.01520813629031 0.63724851608276 -0.77050828933716
vn -0.01519718486816 0.63723450899124 -0.77052009105682
vn -0.01520943082869 0.63725328445435 -0.7705043554306
vn -0.01520392950624 0.63724744319916 -0.77050930261612
vn -0.0151811465621 0.63725107908249 -0.77050673961639
vn -0.01529508922249 0.63727408647537 -0.77048546075821
vn -0.01524956338108 0.63724410533905 -0.77051115036011
vn -0.01516952365637 0.63734722137451 -0.7704274058342
vn -0.01513168588281 0.63738691806793 -0.77039533853531
vn -0.01510281953961 0.63731688261032 -0.77045381069183
vn -0.01519488170743 0.63731932640076 -0.77044999599457
vn -0.05893641710281 0.63694858551025 -0.76865011453629
vn -0.04241117089987 0.63551473617554 -0.77092301845551
vn -0.0282594896853 0.63530814647675 -0.77174150943756
vn -0.00932733342052 0.63211286067963 -0.77482014894485
vn -0.07068362832069 0.6355447769165 -0.7688215970993
# 26 normals

vt 0.92369914054871 0.1038624048233 0
vt 0.93545788526535 0.08892369270325 0
vt 0.88117957115173 0.08227968215942 0
vt 0 1 0
vt 0.83423858880997 0.13284206390381 0
vt 0.85277330875397 0.16685688495636 0
vt 0.84782510995865 0.1405211687088 0
vt 0.87228739261627 0.09510886669159 0
vt 0.82835477590561 0.08881032466888 0
vt 0.84896725416183 0.1224399805069 0
vt 0.95659422874451 0.15572941303253 0
vt 0.9900404214859 0.13393270969391 0
vt 0.95903325080872 0.12780022621155 0
vt 0.82691514492035 0.01615488529205 0
vt 0.76185238361359 0.10228645801544 0
vt 0.8491877913475 0.17891311645508 0
vt 0.86842942237854 0.19254863262177 0
vt 0.88672053813934 0.21178591251373 0
vt 0.8801029920578 0.23189902305603 0
vt 0.90863871574402 0.21461021900177 0
vt 0.87763869762421 0.21816718578339 0
vt 0.93845498561859 0.59746998548508 0
vt 0.13950499892235 0.30593907833099 0
vt 0.67058902978897 0.9179379940033 0
vt 0.01837700046599 0.48897504806519 0
vt 0.40647500753403 0.02466106414795 0
# 26 texture coordinates

o 28_DHD_symbols_outer_Cylinder.048
usemtl default
f 13/3/3 25/2/2 10/1/1
f 1/7/7 16/6/6 19/5/5
f 10/1/1 9/8/8 13/3/3
f 9/8/8 3/9/9 13/3/3
f 20/10/10 1/7/7 19/5/5
f 12/13/13 11/12/12 23/11/11
f 3/9/9 18/15/15 14/14/14
f 12/13/13 23/11/11 10/1/1
f 3/9/9 14/14/14 13/3/3
f 25/2/2 12/13/13 10/1/1
f 16/6/6 15/17/17 17/16/16
f 22/20/20 21/19/19 24/18/18
f 21/19/19 2/21/21 24/18/18
f 2/21/21 17/16/16 15/17/17
f 17/16/16 19/5/5 16/6/6
f 19/5/5 18/15/15 3/9/9
f 4/24/24 5/23/23 6/22/22
f 15/17/17 24/18/18 2/21/21
f 19/5/5 3/9/9 20/10/10
f 7/25/25 5/23/23 4/24/24
f 5/23/23 8/26/26 6/22/22
f 3/9/9 9/8/8 20/10/10

