# WaveFront *.obj file (generated by CINEMA 4D)

mtllib ./29.mtl

v 0.06597799807787 1.02416205406189 -0.22530800104141
v 0.11005099862814 0.9113529920578 -0.31421899795532
v 0.0244750007987 0.90272700786591 -0.32857400178909
v 0.0739579051733 0.93609666824341 -0.30322504043579
v 0.07598920166492 0.93585157394409 -0.30322009325027
v 0.03897013515234 0.95845067501068 -0.28805169463158
v 0.03885622695088 0.96768069267273 -0.2803008556366
v 0.06916384398937 0.97148752212524 -0.27395376563072
v 0.0659294873476 0.97077763080597 -0.27488544583321
v 0.03458601236343 0.97383415699005 -0.27556777000427
v 0.03271454572678 0.96895170211792 -0.27986854314804
v 0.07164837419987 0.96555262804031 -0.27868667244911
v 0.06993807852268 0.93312901258469 -0.306137830019
v 0.06096283346415 0.97978484630585 -0.26782429218292
v 0.038903106004 0.98066467046738 -0.26937326788902
v 0.06716066598892 0.93809676170349 -0.30224651098251
v 0.03427311778069 0.95429307222366 -0.29203635454178
v 0.07337933033705 0.95972687005997 -0.28340771794319
v 0.06117013841867 0.93998646736145 -0.301279515028
v 0.03140769898891 0.95459532737732 -0.29208001494408
v 0.07415602356195 0.95351922512054 -0.28854894638062
v 0.0436345897615 0.98043805360794 -0.26907375454903
v 0.04898848384619 0.99274718761444 -0.25816366076469
v 0.06534141302109 0.94238924980164 -0.2988258600235
v 0.0336749702692 0.95741975307465 -0.2894694507122
v 0.0736461058259 0.94681626558304 -0.29424068331718
v 0.07195073366165 0.9395740032196 -0.3005076944828
v 0.04054764285684 0.97495096921921 -0.27400824427605
v 0.06921777129173 0.95431989431381 -0.28838753700256
v 0.05768130347133 0.98449766635895 -0.26420068740845
v 0.06316252052784 0.97942155599594 -0.26790156960487
v 0.04774265363812 0.98659408092499 -0.26346829533577
v 0.01575399935246 1.01911795139313 -0.23375399410725
v 0.08099400252104 0.90631800889969 -0.32217401266098
v 0.06523980945349 0.97667956352234 -0.26999324560165
v 0.04415474087 0.95582848787308 -0.28971967101097
v 0.06960332393646 0.98193961381912 -0.26511663198471
v 0.04823766648769 0.985660135746 -0.26420253515244
# 38 vertices

vn 0.07915694266558 0.64170855283737 -0.76285272836685
vn 0.0791257172823 0.64172756671906 -0.76284003257751
vn 0.07910770922899 0.64171856641769 -0.76284945011139
vn 0 0 0
vn 0.07913389056921 0.6416489481926 -0.76290529966354
vn 0.07909338921309 0.64164102077484 -0.76291614770889
vn 0.07902100682259 0.64165687561035 -0.7629103064537
vn 0.07909037172794 0.64164590835571 -0.76291233301163
vn 0.07914985716343 0.64168477058411 -0.76287347078323
vn 0.07915230095387 0.64162313938141 -0.76292502880096
vn 0.07902216911316 0.64162516593933 -0.76293683052063
vn 0.07901506125927 0.64171326160431 -0.76286345720291
vn 0.07923232018948 0.64169085025787 -0.76285976171494
vn 0.07915463298559 0.6416962146759 -0.76286339759827
vn 0.07925512641668 0.64170533418655 -0.76284521818161
vn 0.07910124957561 0.64172518253326 -0.76284450292587
vn 0.07920213788748 0.64170777797699 -0.76284873485565
vn 0.07922627031803 0.64165186882019 -0.76289319992065
vn 0.07916335016489 0.64167308807373 -0.76288187503815
vn 0.07932847738266 0.6416015625 -0.76292490959167
vn 0.07916529476643 0.64169186353683 -0.76286596059799
vn 0.07929821312428 0.64154702425003 -0.76297396421432
vn 0.07926937192678 0.64160472154617 -0.76292836666107
vn 0.07913485914469 0.64171534776688 -0.7628493309021
vn 0.07910587638617 0.64175844192505 -0.76281607151032
vn 0.07900879532099 0.64172750711441 -0.76285219192505
vn 0.0792263969779 0.64157396554947 -0.76295870542526
vn 0.07912708818913 0.64170044660568 -0.76286262273788
vn 0.07912703603506 0.64171236753464 -0.76285266876221
vn 0.07896134257317 0.64158880710602 -0.76297372579575
vn 0.07910036295652 0.64164578914642 -0.76291137933731
vn 0.07910843938589 0.64170610904694 -0.76285982131958
vn 0.07911191135645 0.64171993732452 -0.76284784078598
vn 0.07929869741201 0.64181703329086 -0.76274675130844
vn 0.05605075508356 0.63583064079285 -0.76979064941406
vn 0.07004863023758 0.6371368765831 -0.76756089925766
vn 0.08142182230949 0.63905864953995 -0.76483625173569
vn 0.09800050407648 0.63936191797256 -0.76263511180878
vn 0.04727590084076 0.63302528858185 -0.77268618345261
# 39 normals

vt 0.80310487747192 0.22230207920074 0
vt 0.80138313770294 0.16360902786255 0
vt 0.79789811372757 0.15593194961548 0
vt 0 1 0
vt 0.77460473775864 0.23516118526459 0
vt 0.78923082351685 0.18629682064056 0
vt 0.77280002832413 0.14306724071503 0
vt 0.95907962322235 0.03396451473236 0
vt 0.94224786758423 0.02341639995575 0
vt 0.9456495642662 0.05076038837433 0
vt 0.82748860120773 0.12436139583588 0
vt 0.80457705259323 0.14225137233734 0
vt 0.86781615018845 0.2128039598465 0
vt 0.84787082672119 0.23325264453888 0
vt 0.88599103689194 0.22795712947845 0
vt 0.83805149793625 0.21820044517517 0
vt 0.80586761236191 0.21826386451721 0
vt 0.9394559264183 0.17325401306152 0
vt 0.91041314601898 0.22048449516296 0
vt 0.95569682121277 0.1865611076355 0
vt 0.90171176195145 0.19837117195129 0
vt 0.97242140769958 0.185870885849 0
vt 0.96716541051865 0.17637121677399 0
vt 0.9384800195694 0.1505138874054 0
vt 0.95192551612854 0.00823378562927 0
vt 0.97307986021042 0.01254415512085 0
vt 0.96487975120544 0.05700254440308 0
vt 0.90878057479858 0.0373774766922 0
vt 0.88796818256378 0.07059800624847 0
vt 0.81721770763397 0.11642837524414 0
vt 0.83615237474442 0.09306514263153 0
vt 0.85629141330719 0.07233762741089 0
vt 0.8801017999649 0.05354249477386 0
vt 0.94834852218628 0.00147712230682 0
vt 0.93751400709152 0.59343904256821 0
vt 0.13407300412655 0.31002807617188 0
vt 0.66710597276688 0.91311198472977 0
vt 0.0171130001545 0.48836398124695 0
vt 0.40617799758911 0.02035701274872 0
# 39 texture coordinates

o 29_DHD_symbols_outer_Cylinder.049
usemtl default
f 31/3/3 14/2/2 32/1/1
f 37/7/7 30/6/6 23/5/5
f 24/10/10 27/9/9 16/8/8
f 35/12/12 9/11/11 14/2/2
f 10/15/15 15/14/14 28/13/13
f 15/14/14 32/1/1 22/16/16
f 22/16/16 32/1/1 38/17/17
f 25/20/20 11/19/19 6/18/18
f 11/19/19 10/15/15 7/21/21
f 17/23/23 20/22/22 25/20/20
f 6/18/18 36/24/24 17/23/23
f 7/21/21 6/18/18 11/19/19
f 6/18/18 17/23/23 25/20/20
f 27/9/9 4/25/25 16/8/8
f 4/25/25 13/26/26 16/8/8
f 16/8/8 19/27/27 24/10/10
f 28/13/13 7/21/21 10/15/15
f 29/29/29 26/28/28 24/10/10
f 22/16/16 28/13/13 15/14/14
f 14/2/2 38/17/17 32/1/1
f 35/12/12 31/3/3 37/7/7
f 31/3/3 35/12/12 14/2/2
f 35/12/12 8/30/30 9/11/11
f 8/30/30 12/31/31 9/11/11
f 12/31/31 18/32/32 29/29/29
f 9/11/11 12/31/31 29/29/29
f 18/32/32 21/33/33 29/29/29
f 21/33/33 26/28/28 29/29/29
f 27/9/9 5/34/34 4/25/25
f 26/28/28 27/9/9 24/10/10
f 31/3/3 30/6/6 37/7/7
f 30/6/6 32/1/1 23/5/5
f 32/1/1 15/14/14 23/5/5
f 1/37/37 34/36/36 33/35/35
f 2/38/38 34/36/36 1/37/37
f 34/36/36 3/39/39 33/35/35
f 30/6/6 31/3/3 32/1/1

