# WaveFront *.obj file (generated by CINEMA 4D)

mtllib ./3.mtl

v 0.50567400455475 1.00189697742462 -0.03633100166917
v 0.48750600218773 1.01374995708466 -0.02922499924898
v 0.43061199784279 1.02605295181274 -0.04702499881387
v 0.43823999166489 1.04033303260803 -0.01892899908125
v 0.47555899620056 1.02049994468689 -0.02623800002038
v 0.44350600242615 1.03433799743652 -0.02511800080538
v 0.47127199172974 1.02293801307678 -0.02514100074768
v 0.43399199843407 1.02430403232574 -0.04761200025678
v 0.4348070025444 1.02085697650909 -0.0526340007782
v 0.42516499757767 1.02591395378113 -0.05085400119424
v 0.50089401006699 1.02640700340271 0.00006500000018
v 0.49310600757599 1.03092503547668 0.00220300001092
v 0.50117301940918 1.02772402763367 0.00237399991602
v 0.51114702224731 1.02821898460388 0.00977599993348
v 0.51301401853561 1.02161800861359 0.0003560000041
v 0.50039660930634 1.00809621810913 -0.02981860004365
v 0.38077700138092 1.02053499221802 -0.07932499796152
v 0.38700699806213 1.05781495571136 -0.01736400090158
v 0.38561400771141 1.08009099960327 0.01979500055313
v 0.38578000664711 1.04277801513672 -0.0423900000751
v 0.54088997840881 0.95454299449921 -0.07791899889708
v 0.55045598745346 1.00855696201324 0.01191200036556
v 0.54790699481964 1.04088997840881 0.06578599661589
v 0.51344299316406 1.00902903079987 -0.01967800036073
# 24 vertices

vn 0.32915711402893 0.80268341302872 -0.49734792113304
vn 0.3291380405426 0.80266678333282 -0.49738734960556
vn 0.32915812730789 0.80268800258636 -0.49733984470367
vn 0 0 0
vn 0.33162128925323 0.8061945438385 -0.48997721076012
vn 0.3310966193676 0.81531935930252 -0.47500455379486
vn 0.33082908391953 0.80830729007721 -0.48702305555344
vn 0.32916635274887 0.8026927113533 -0.49732679128647
vn 0.32915875315666 0.80270135402679 -0.49731785058975
vn 0.32915633916855 0.80265235900879 -0.49739849567413
vn 0.32913216948509 0.80266153812408 -0.49739974737167
vn 0.32914993166924 0.80262106657028 -0.49745327234268
vn 0.32908320426941 0.80263686180115 -0.49747189879417
vn 0.32909762859344 0.80264151096344 -0.49745488166809
vn 0.32913449406624 0.80265772342682 -0.49740433692932
vn 0.32919406890869 0.80272454023361 -0.49725705385208
vn 0.32908535003662 0.80268830060959 -0.49738746881485
vn 0.32915484905243 0.80266350507736 -0.49738153815269
vn 0.32903182506561 0.80265933275223 -0.49746960401535
vn 0.32896822690964 0.80272114276886 -0.49741196632385
vn 0.32919016480446 0.8026430606842 -0.49739110469818
vn 0.32914873957634 0.80268251895905 -0.49735483527184
vn 0.32917395234108 0.80268400907516 -0.49733579158783
vn 0.33121183514595 0.79404628276825 -0.50969529151916
vn 0.33140406012535 0.79017531871796 -0.51555240154266
vn 0.32951539754868 0.78841930627823 -0.51943677663803
vn 0.33136656880379 0.81582492589951 -0.47394716739655
# 27 normals

vt 0.88433140516281 0.0751748085022 0
vt 0.90152364969254 0.20784032344818 0
vt 0.89313673973084 0.0145537853241 0
vt 0 1 0
vt 0.145722001791 0.29240703582764 0
vt 0.67200201749802 0.92227303981781 0
vt 0.76111102104187 0.79606699943542 0
vt 0.84009575843811 0.01573312282562 0
vt 0.87765407562256 0.03814554214478 0
vt 0.88342732191086 0.11319935321808 0
vt 0.78993910551071 0.10170328617096 0
vt 0.8830264210701 0.12696945667267 0
vt 0.79135644435883 0.07707929611206 0
vt 0.78461068868637 0.07938838005066 0
vt 0.78328746557236 0.04391050338745 0
vt 0.75777381658554 0.06163001060486 0
vt 0.97676110267639 0.21656262874603 0
vt 0.99246686697006 0.22771871089935 0
vt 0.99084705114365 0.19637310504913 0
vt 0.97610378265381 0.20565545558929 0
vt 0.886578977108 0.23172163963318 0
vt 0.83979797363281 0.70686799287796 0
vt 0.40759798884392 0.01802003383636 0
vt 0.94655901193619 0.59921199083328 0
vt 0.01550500001758 0.49169301986694 0
# 25 texture coordinates

o 3_DHD_symbols_outer_Cylinder.024
usemtl default
f 1/3/3 6/2/2 2/1/1
f 18/7/7 19/6/6 22/5/5
f 16/9/8 2/1/9 24/8/8
f 7/12/12 12/11/11 5/10/10
f 12/11/11 13/14/14 11/13/13
f 13/14/14 14/16/16 15/15/15
f 13/14/14 15/15/15 11/13/13
f 12/11/11 11/13/13 5/10/10
f 9/19/19 10/18/18 3/17/17
f 8/20/20 9/19/19 3/17/17
f 4/21/21 7/12/12 6/2/2
f 7/12/12 5/10/10 6/2/2
f 2/1/1 16/9/22 1/3/3
f 24/8/8 1/3/23 16/9/8
f 5/10/10 2/1/1 6/2/2
f 8/20/20 3/17/17 6/2/2
f 3/17/17 4/21/21 6/2/2
f 22/5/5 21/23/25 20/22/24
f 21/23/25 17/24/26 20/22/24
f 19/6/6 23/25/27 22/5/5
f 22/5/5 20/22/24 18/7/7

