# WaveFront *.obj file (generated by CINEMA 4D)

mtllib ./7.mtl

v 0.15731200575829 1.24178898334503 0.28890499472618
v 0.08831200003624 1.25342094898224 0.30817899107933
v 0.04580700024962 1.25776100158691 0.31548398733139
v 0.11646399646997 1.24938499927521 0.30146300792694
v 0.22565099596977 1.26914501190186 0.4456669986248
v 0.12575499713421 1.28624904155731 0.47406798601151
v 0.0639889985323 1.29230201244354 0.4842070043087
v 0.12712000310421 1.25668597221375 0.32721400260925
v 0.13031600415707 1.25732898712158 0.33097299933434
v 0.13380199670792 1.25701999664307 0.33061900734901
v 0.13775700330734 1.25577294826508 0.32626301050186
v 0.10694199800491 1.26861000061035 0.37398499250412
v 0.1338279992342 1.26481997966766 0.36503100395203
v 0.13750900328159 1.26492500305176 0.36655899882317
v 0.10779999941587 1.27043795585632 0.38229501247406
v 0.0910340026021 1.27544903755188 0.39955601096153
v 0.09522599726915 1.27571594715118 0.40194201469421
v 0.09891399741173 1.27540194988251 0.40162599086761
v 0.10955200344324 1.272096991539 0.39011898636818
v 0.10097800195217 1.28090405464172 0.42649200558662
v 0.10428699851036 1.27976298332214 0.4224140048027
v 0.11281900107861 1.28070199489594 0.42901700735092
v 0.09931299835443 1.28184401988983 0.43015798926353
v 0.09663899987936 1.2821409702301 0.4306960105896
v 0.09710700064898 1.28313994407654 0.43523299694061
v 0.09981299936771 1.28290998935699 0.43500500917435
v 0.11705400049686 1.27269101142883 0.39490699768066
v 0.11878100037575 1.26892995834351 0.37881600856781
# 28 vertices

vn 0.06379826366901 0.97327053546906 -0.22062240540981
vn 0.06383533030748 0.97325265407562 -0.22069057822227
vn 0.06377774477005 0.97327238321304 -0.22062020003796
vn 0 0 0
vn 0.06374152749777 0.97326648235321 -0.2206567376852
vn 0.0637324899435 0.97326892614365 -0.22064845263958
vn 0.06374680250883 0.97327131032944 -0.22063374519348
vn 0.08008061349392 0.97441321611404 -0.21001423895359
vn 0.06288701295853 0.97629940509796 -0.20708613097668
vn 0.07639316469431 0.97468531131744 -0.21012514829636
vn 0.06374029815197 0.97326862812042 -0.22064746916294
vn 0.06382769346237 0.97324442863464 -0.22072911262512
vn 0.06380822509527 0.97325414419174 -0.22069185972214
vn 0.10253270715475 0.97127425670624 -0.21474033594131
vn 0.10939871519804 0.97029185295105 -0.21579080820084
vn 0.06385400891304 0.97324723005295 -0.22070910036564
vn 0.06389253586531 0.97323441505432 -0.22075447440147
vn 0.06409053504467 0.97319006919861 -0.22089239954948
vn 0.06382609158754 0.97324877977371 -0.2207103818655
vn 0.06368863582611 0.97327446937561 -0.2206367701292
vn 0.06366132199764 0.97327208518982 -0.22065511345863
vn 0.06368183344603 0.97327744960785 -0.22062560915947
vn 0.0637845993042 0.97326225042343 -0.22066280245781
vn 0.06375043839216 0.97327101230621 -0.22063414752483
vn 0.11308746039867 0.96927458047867 -0.2184444218874
vn 0.06379965692759 0.97323203086853 -0.22079177200794
vn 0.06387257575989 0.9732232093811 -0.22080954909325
vn 0.06178572028875 0.97648042440414 -0.20656344294548
vn 0.06386459618807 0.97322195768356 -0.22081738710403
# 29 normals

vt 0.81602317094803 0.10913479328156 0
vt 0.77638304233551 0.02836287021637 0
vt 0.80915117263794 0.1167801618576 0
vt 0 1 0
vt 0.89752435684204 0.12097012996674 0
vt 0.88991588354111 0.10039746761322 0
vt 0.867427110672 0.12491869926453 0
vt 0.12673400342464 0.32491505146027 0
vt 0.66969901323318 0.91835701465607 0
vt 0.75434899330139 0.80486297607422 0
vt 0.89016038179398 0.16092026233673 0
vt 0.78809595108032 0.01285111904144 0
vt 0.76212388277054 0.02258849143982 0
vt 0.82718700170517 0.71776801347733 0
vt 0.40428099036217 0.01913404464722 0
vt 0.78494894504547 0.02527797222137 0
vt 0.97789895534515 0.23678994178772 0
vt 0.98467171192169 0.23439407348633 0
vt 0.98051249980927 0.22314262390137 0
vt 0.96519553661346 0.21791613101959 0
vt 0.93979144096375 0.23672664165497 0
vt 0.97345870733261 0.22477793693542 0
vt 0.952521443367 0.21187663078308 0
vt 0.90243774652481 0.14137530326843 0
vt 0.94404900074005 0.59694200754166 0
vt 0.95769971609116 0.14322125911713 0
vt 0.94120860099792 0.15683162212372 0
vt 0.01893300004303 0.49097406864166 0
vt 0.95041650533676 0.15351033210754 0
# 29 texture coordinates

o 7_DHD_symbols_outer_Cylinder.009
usemtl default
f 14/3/3 10/2/2 13/1/1
f 28/7/7 12/6/6 15/5/5
f 2/10/10 3/9/9 6/8/8
f 27/11/11 14/3/3 28/7/7
f 10/2/2 11/13/13 8/12/12
f 6/8/8 5/15/15 4/14/14
f 10/2/2 8/12/12 9/16/16
f 13/1/1 28/7/7 14/3/3
f 10/2/2 9/16/16 13/1/1
f 24/19/19 25/18/18 26/17/17
f 23/22/22 22/21/21 20/20/20
f 22/21/21 21/23/23 20/20/20
f 24/19/19 26/17/17 23/22/22
f 20/20/20 24/19/19 23/22/22
f 19/24/24 27/11/11 28/7/7
f 5/15/15 1/25/25 4/14/14
f 18/27/27 19/24/24 16/26/26
f 19/24/24 28/7/7 15/5/5
f 19/24/24 15/5/5 16/26/26
f 3/9/9 7/28/28 6/8/8
f 16/26/26 17/29/29 18/27/27
f 17/29/29 20/20/20 21/23/23
f 17/29/29 21/23/23 18/27/27
f 6/8/8 4/14/14 2/10/10
f 28/7/7 13/1/1 12/6/6

