# WaveFront *.obj file (generated by CINEMA 4D)

mtllib ./9.mtl

v -0.10174600034952 1.25253403186798 0.30678701400757
v -0.16954800486565 1.23923397064209 0.28456899523735
v -0.20793800055981 1.22883200645447 0.26733899116516
v -0.14273400604725 1.24521601200104 0.29452401399612
v -0.14198899269104 1.28501105308533 0.47207200527191
v -0.24050499498844 1.26595497131348 0.44029399752617
v -0.29595100879669 1.25064694881439 0.41488099098206
v -0.16505099833012 1.2545919418335 0.3330189883709
v -0.16537399590015 1.25505697727203 0.33522099256516
v -0.16306300461292 1.25609302520752 0.33860000967979
v -0.1552589982748 1.25549697875977 0.33205899596214
v -0.16232100129128 1.25357401371002 0.32717901468277
v -0.17217500507832 1.26223695278168 0.37014099955559
v -0.16013400256634 1.26315402984619 0.36809501051903
v -0.19847500324249 1.24988496303558 0.32920700311661
v -0.19799700379372 1.25112998485565 0.33442801237106
v -0.20760799944401 1.26028895378113 0.37944400310516
v -0.21216900646687 1.26189696788788 0.38878899812698
v -0.18275199830532 1.26141500473022 0.37186101078987
v -0.18274299800396 1.26031804084778 0.36704498529434
v -0.17491500079632 1.26287794113159 0.37432900071144
v -0.15855400264263 1.2669860124588 0.38410300016403
v -0.21798199415207 1.25308394432068 0.35306599736214
v -0.20751740038395 1.2551257610321 0.35675019025803
# 24 vertices

vn -0.11125169694424 0.9689347743988 -0.22088113427162
vn -0.11119855195284 0.96893692016602 -0.22089850902557
vn -0.11127761751413 0.96892428398132 -0.22091419994831
vn 0 0 0
vn -0.1112122386694 0.96892607212067 -0.2209390848875
vn -0.11127121001482 0.96890842914581 -0.220986738801
vn -0.11119423806667 0.96892309188843 -0.22096133232117
vn -0.14016626775265 0.96346235275269 -0.2282403409481
vn -0.15571089088917 0.95938295125961 -0.23524136841297
vn -0.14306531846523 0.9625335931778 -0.23035058379173
vn -0.11125334352255 0.96892458200455 -0.22092509269714
vn -0.11126606166363 0.96891343593597 -0.22096738219261
vn -0.11128851771355 0.96891552209854 -0.22094690799713
vn -0.11121398955584 0.96892774105072 -0.2209308296442
vn -0.11120987683535 0.96894055604935 -0.22087676823139
vn -0.11124580353498 0.96893221139908 -0.22089523077011
vn -0.11915244907141 0.96824473142624 -0.21978352963924
vn -0.1129222586751 0.96964949369431 -0.21686033904552
vn -0.10829015821218 0.97014838457108 -0.21699157357216
vn -0.15690912306309 0.95914489030838 -0.23541590571404
vn -0.11125553399324 0.96890807151794 -0.22099640965462
vn -0.11127907782793 0.96890372037888 -0.22100338339806
vn -0.11123208701611 0.96889477968216 -0.22106625139713
vn -0.11133804172277 0.96890962123871 -0.22094783186913
vn -0.11125408858061 0.96892827749252 -0.22090850770473
# 25 normals

vt 0.89948207139969 0.02357387542725 0
vt 0.94838434457779 0.10565829277039 0
vt 0.97971069812775 0.08527672290802 0
vt 0 1 0
vt 0.96450328826904 0.17820680141449 0
vt 0.87974548339844 0.17359519004822 0
vt 0.98557019233704 0.20426869392395 0
vt 0.14123199880123 0.30320298671722 0
vt 0.6690080165863 0.91774100065231 0
vt 0.75920397043228 0.79270100593567 0
vt 0.79485470056534 0.06344568729401 0
vt 0.79271733760834 0.08305203914642 0
vt 0.79753798246384 0.07029366493225 0
vt 0.7629799246788 0.06830108165741 0
vt 0.7817450761795 0.04677546024323 0
vt 0.90170782804489 0.04103052616119 0
vt 0.84012299776077 0.69813203811646 0
vt 0.4057070016861 0.0227370262146 0
vt 0.93782597780228 0.59724801778793 0
vt 0.0198020003736 0.48937404155731 0
vt 0.84494149684906 0.17640578746796 0
vt 0.8122251033783 0.23073637485504 0
vt 0.85665494203568 0.18750059604645 0
vt 0.80541288852692 0.17931711673737 0
vt 0.87625539302826 0.15832328796387 0
# 25 texture coordinates

o 9_DHD_symbols_outer_Cylinder.011
usemtl default
f 23/3/3 24/2/2 15/1/1
f 18/7/7 19/6/6 17/5/5
f 2/10/10 3/9/9 6/8/8
f 9/13/13 10/12/12 8/11/11
f 10/12/12 11/14/14 8/11/11
f 11/14/14 12/15/15 8/11/11
f 15/1/1 24/2/2 16/16/16
f 6/8/8 5/18/18 4/17/17
f 5/18/18 1/19/19 4/17/17
f 16/16/16 24/2/2 17/5/5
f 3/9/9 7/20/20 6/8/8
f 21/23/23 22/22/22 13/21/21
f 22/22/22 14/24/24 13/21/21
f 19/6/6 21/23/23 13/21/21
f 16/16/16 9/13/13 8/11/11
f 24/2/2 23/3/3 18/7/7
f 19/6/6 13/21/21 20/25/25
f 6/8/8 4/17/17 2/10/10
f 24/2/2 18/7/7 17/5/5
f 16/16/16 8/11/11 15/1/1
f 19/6/6 20/25/25 17/5/5

