# WaveFront *.obj file (generated by Cinema 4D)

mtllib ./Antartica_button_light.mtl

v 0.38381001353264 1.08748805522919 0.03210499882698
v 0.36589398980141 1.12374997138977 0.09237000346184
v 0.35032001137733 1.14454698562622 0.12706600129604
v 0.3743439912796 1.10934197902679 0.06839200109243
v 0.54579401016235 1.04957795143127 0.08024500310421
v 0.52032798528671 1.10220503807068 0.1677680015564
v 0.49724200367928 1.13230299949646 0.2179239988327
v 0.43606546521187 1.09965455532074 0.08483004570007
v 0.44348192214966 1.10895013809204 0.11132828146219
v 0.44077369570732 1.09780251979828 0.08464562147856
v 0.44556421041489 1.09628915786743 0.0852719321847
v 0.49715116620064 1.07790327072144 0.08687678724527
v 0.47460958361626 1.12355613708496 0.16844902932644
v 0.48059657216072 1.12546908855438 0.17757607996464
v 0.47865906357765 1.12275385856628 0.17002461850643
v 0.5011882185936 1.07710385322571 0.0884485244751
v 0.43215203285217 1.12344920635223 0.13379995524883
v 0.50657188892364 1.0729204416275 0.0837065204978
v 0.4952113032341 1.07517611980438 0.07929717004299
v 0.46927788853645 1.12771892547607 0.17318856716156
v 0.45898786187172 1.09418189525604 0.09170604497194
v 0.46269282698631 1.0943615436554 0.09515169262886
v 0.4658140540123 1.0949844121933 0.09908886253834
v 0.46825671195984 1.096031665802 0.10339791327715
v 0.46994662284851 1.0974714756012 0.10794793069363
v 0.47083243727684 1.09925997257233 0.11260065436363
v 0.47088718414307 1.10134291648865 0.11721471697092
v 0.47010925412178 1.1036571264267 0.12164992839098
v 0.46852225065231 1.10613203048706 0.12577152252197
v 0.46617442369461 1.10869252681732 0.12945425510406
v 0.46313709020615 1.11126101016998 0.13258624076843
v 0.45950254797935 1.11375916004181 0.13507232069969
v 0.45538121461868 1.11611115932465 0.13683694601059
v 0.45089834928513 1.11824572086334 0.13782651722431
v 0.44619011878967 1.12009763717651 0.13801093399525
v 0.44139960408211 1.12161099910736 0.13738462328911
v 0.43667235970497 1.12273967266083 0.13596659898758
v 0.43158259987831 1.10178899765015 0.08581960201263
v 0.42746126651764 1.10414099693298 0.08758422732353
v 0.42382672429085 1.1066392660141 0.09007030725479
v 0.42078939080238 1.10920763015747 0.09320230036974
v 0.45481178164482 1.09445095062256 0.08885660767555
v 0.41844156384468 1.11176812648773 0.09688504040241
v 0.41685456037521 1.11424314975739 0.10100662708282
v 0.41607663035393 1.11655724048615 0.10544183850288
v 0.45029145479202 1.09516060352325 0.08668995648623
v 0.41613140702248 1.11864018440247 0.11005590111017
v 0.41701719164848 1.1204286813736 0.11470862478018
v 0.41870710253716 1.12186849117279 0.11925864219666
v 0.4211497604847 1.12291574478149 0.12356769293547
v 0.424271017313 1.12353873252869 0.12750487029552
v 0.42797595262527 1.12371838092804 0.13095051050186
# 52 vertices

vn 0.31311360001564 0.8641522526741 -0.39395520091057
vn 0.30845442414284 0.87107521295547 -0.38220939040184
vn 0.31906926631927 0.85911303758621 -0.40014946460724
vn 0.32516828179359 0.85108137130737 -0.41222107410431
vn 0.32404431700706 0.84539943933487 -0.42461165785789
vn 0.32419240474701 0.85064691305161 -0.41388294100761
vn 0.30832377076149 0.87159901857376 -0.38111886382103
vn 0.32332020998001 0.86102950572968 -0.39254608750343
vn 0.32331922650337 0.86103188991547 -0.39254140853882
vn 0.32331809401512 0.8610337972641 -0.39253833889961
vn 0.32331830263138 0.86103475093842 -0.39253586530685
vn 0.32331740856171 0.86103141307831 -0.39254394173622
vn 0.32331639528275 0.86103236675262 -0.39254274964333
vn 0.32332742214203 0.86103022098541 -0.39253836870193
vn 0.32331874966621 0.86103320121765 -0.39253926277161
vn 0.32331442832947 0.86103594303131 -0.39253675937653
vn 0.32331448793411 0.86103475093842 -0.39253908395767
vn 0.32331669330597 0.86103343963623 -0.39254015684128
vn 0.32332316040993 0.86102890968323 -0.39254486560822
vn 0.32331800460815 0.86103224754334 -0.3925416469574
vn 0.32332020998001 0.8610298037529 -0.39254522323608
vn 0.32331642508507 0.86103212833405 -0.39254343509674
vn 0.32332301139832 0.86103105545044 -0.39254021644592
vn 0.32331329584122 0.86103439331055 -0.39254081249237
vn 0.32331821322441 0.86103212833405 -0.39254206418991
vn 0.32331442832947 0.86103528738022 -0.39253795146942
vn 0.32331404089928 0.86103188991547 -0.3925459086895
vn 0.32332345843315 0.86102998256683 -0.39254206418991
vn 0.32332342863083 0.86102873086929 -0.39254492521286
vn 0.32331958413124 0.8610303401947 -0.39254435896873
vn 0.32332289218903 0.86103183031082 -0.39253857731819
vn 0.3233180642128 0.86103123426437 -0.39254379272461
vn 0.32332310080528 0.8610303401947 -0.39254161715508
vn 0.32331454753876 0.86103117465973 -0.39254689216614
vn 0.32331672310829 0.86103230714798 -0.39254289865494
vn 0.32331678271294 0.86103618144989 -0.3925341963768
vn 0.32332023978233 0.86103117465973 -0.39254215359688
vn 0.3233203291893 0.86102950572968 -0.39254570007324
vn 0.32332587242126 0.86103159189224 -0.39253661036491
vn 0.32331731915474 0.86103165149689 -0.39254373311996
vn 0.3233223259449 0.86102879047394 -0.39254587888718
vn 0.32332399487495 0.8610298037529 -0.39254215359688
vn 0.32332879304886 0.86102771759033 -0.392542719841
vn 0.3233245909214 0.86102843284607 -0.39254459738731
vn 0.32332143187523 0.86103194952011 -0.39253941178322
vn 0.32332155108452 0.86103367805481 -0.39253574609756
vn 0.32332170009613 0.86103045940399 -0.392542719841
vn 0.32332000136375 0.86102974414825 -0.39254570007324
vn 0.32331988215446 0.86103165149689 -0.39254146814346
vn 0.32331916689873 0.86103183031082 -0.39254152774811
# 50 normals

vt 0.14521256089211 0.29473865032196 0
vt 0.66959822177887 0.91587686538696 0
vt 0.7587696313858 0.79456406831741 0
vt 0 1 0
vt 0.82124936580658 0.71813142299652 0
vt 0.94063067436218 0.59771531820297 0
vt 0.4076817035675 0.02456760406494 0
vt 0.01705918088555 0.48840737342834 0
vt 0.99446666240692 0.14761447906494 0
vt 0.92327034473419 0.17372417449951 0
vt 0.98885118961334 0.13564801216125 0
vt 0.98124289512634 0.12483847141266 0
vt 0.99791896343231 0.16037428379059 0
vt 0.89716064929962 0.10252809524536 0
vt 0.88519430160522 0.10814380645752 0
vt 0.90992045402527 0.09907591342926 0
vt 0.99910306930542 0.17353963851929 0
vt 0.87438476085663 0.11575198173523 0
vt 0.97187316417694 0.11551427841187 0
vt 0.99798285961151 0.18671083450317 0
vt 0.86506068706512 0.12512147426605 0
vt 0.99459266662598 0.19948720932007 0
vt 0.96102678775787 0.10795879364014 0
vt 0.8575052022934 0.13596820831299 0
vt 0.9890353679657 0.21148073673248 0
vt 0.98147976398468 0.22232711315155 0
vt 0.8519481420517 0.14796197414398 0
vt 0.94903314113617 0.10240185260773 0
vt 0.97215569019318 0.23169660568237 0
vt 0.84855806827545 0.16073822975159 0
vt 0.88551414012909 0.23948919773102 0
vt 0.8975076675415 0.24504625797272 0
vt 0.96134614944458 0.23930466175079 0
vt 0.84743809700012 0.1739090681076 0
vt 0.93625664710999 0.09901165962219 0
vt 0.94937980175018 0.24492001533508 0
vt 0.84862244129181 0.1870744228363 0
vt 0.93662011623383 0.24837231636047 0
vt 0.85207462310791 0.19983398914337 0
vt 0.92308568954468 0.09789180755615 0
vt 0.92345476150513 0.24955642223358 0
vt 0.85769009590149 0.21180045604706 0
vt 0.77233552932739 0.20120429992676 0
vt 0.78049397468567 0.20931208133698 0
vt 0.77451026439667 0.23010110855103 0
vt 0.9102840423584 0.24843633174896 0
vt 0.8652982711792 0.22260963916779 0
vt 0.95716679096222 0.03093349933624 0
vt 0.94898176193237 0.0228031873703 0
vt 0.95493006706238 0.00208628177643 0
vt 0.87466776371002 0.23193371295929 0
vt 0.7515321969986 0.2073187828064 0
vt 0.97783267498016 0.02477037906647 0
# 53 texture coordinates

o 4_DHD_symbols_outer_Cylinder
usemtl Symbols
f 2/3/3 3/2/2 6/1/1
f 5/7/6 1/6/5 4/5/4
f 3/2/2 7/8/7 6/1/1
f 6/1/1 5/7/6 2/3/3
f 5/7/6 4/5/4 2/3/3
f 45/11/10 9/10/9 44/9/8
f 47/12/11 9/10/9 45/11/10
f 44/9/8 9/10/9 43/13/12
f 36/15/14 9/10/9 37/14/13
f 37/14/13 9/10/9 17/16/15
f 43/13/12 9/10/9 41/17/16
f 35/18/17 9/10/9 36/15/14
f 48/19/18 9/10/9 47/12/11
f 41/17/16 9/10/9 40/20/19
f 34/21/20 9/10/9 35/18/17
f 40/20/19 9/10/9 39/22/21
f 49/23/22 9/10/9 48/19/18
f 33/24/23 9/10/9 34/21/20
f 39/22/21 9/10/9 38/25/24
f 38/25/24 9/10/9 8/26/25
f 32/27/26 9/10/9 33/24/23
f 50/28/27 9/10/9 49/23/22
f 8/26/25 9/10/9 10/29/28
f 31/30/29 9/10/9 32/27/26
f 23/32/31 9/10/9 24/31/30
f 10/29/28 9/10/9 11/33/32
f 30/34/33 9/10/9 31/30/29
f 51/35/34 9/10/9 50/28/27
f 11/33/32 9/10/9 46/36/35
f 29/37/36 9/10/9 30/34/33
f 46/36/35 9/10/9 42/38/37
f 28/39/38 9/10/9 29/37/36
f 52/40/39 9/10/9 51/35/34
f 42/38/37 9/10/9 21/41/40
f 27/42/41 9/10/9 28/39/38
f 19/45/44 12/44/43 16/43/42
f 21/41/40 9/10/9 22/46/45
f 26/47/46 9/10/9 27/42/41
f 14/50/48 15/49/48 13/48/47
f 17/16/15 9/10/9 52/40/39
f 25/51/49 9/10/9 26/47/46
f 16/43/42 12/44/43 13/48/47
f 22/46/45 9/10/9 23/32/31
f 24/31/30 9/10/9 25/51/49
f 18/52/50 19/45/44 16/43/42
f 20/53/50 14/50/48 13/48/47
f 15/49/48 16/43/42 13/48/47

