# WaveFront *.obj file (generated by Cinema 4D)

mtllib ./Classic_Earth_button_1.mtl

v 0.38381001353264 1.08748805522919 0.03210499882698
v 0.36589398980141 1.12374997138977 0.09237000346184
v 0.35032001137733 1.14454698562622 0.12706600129604
v 0.3743439912796 1.10934197902679 0.06839200109243
v 0.54579401016235 1.04957795143127 0.08024500310421
v 0.52032798528671 1.10220503807068 0.1677680015564
v 0.49724200367928 1.13230299949646 0.2179239988327
v 0.46781799197197 1.11766803264618 0.15109699964523
v 0.4716089963913 1.11124694347382 0.14050999283791
v 0.46521699428558 1.11355996131897 0.14027599990368
v 0.4427669942379 1.10739195346832 0.10910200327635
v 0.47755101323128 1.09189200401306 0.10418199747801
v 0.4830549955368 1.09205496311188 0.10895899683237
v 0.48682901263237 1.08565199375153 0.09839800000191
v 0.43669399619102 1.10840702056885 0.10636900365353
v 0.41128399968147 1.11010503768921 0.08951900154352
v 0.40767699480057 1.11532700061798 0.09770800173283
v 0.40764498710632 1.11442005634308 0.09575399756432
v 0.40810599923134 1.11609101295471 0.0996759980917
v 0.40891501307487 1.11668300628662 0.10158199816942
v 0.4247240126133 1.113077044487 0.10665199905634
v 0.4261420071125 1.11197900772095 0.10546000301838
v 0.42086398601532 1.10620403289795 0.08894500136375
v 0.418859988451 1.1066609621048 0.08830299973488
v 0.42117801308632 1.11506402492523 0.10801699757576
v 0.42304798960686 1.11411905288696 0.10751499980688
v 0.42447099089622 1.10591995716095 0.09124600142241
v 0.42275899648666 1.10595405101776 0.08993899822235
v 0.40876001119614 1.11231803894043 0.09218800067902
v 0.40801000595093 1.11340403556824 0.09388999640942
v 0.42709299921989 1.1065000295639 0.09458900243044
v 0.42593398690224 1.10610401630402 0.09281600266695
v 0.41514399647713 1.11697900295258 0.10722599923611
v 0.41714799404144 1.11652100086212 0.10786999762058
v 0.40986600518227 1.11120402812958 0.09071200340986
v 0.42833098769188 1.10785496234894 0.09846399724483
v 0.42790201306343 1.10709095001221 0.09649699926376
v 0.41153699159622 1.11726200580597 0.10492499917746
v 0.41324898600578 1.11722898483276 0.10623200237751
v 0.41482999920845 1.10811805725098 0.0881550014019
v 0.41295999288559 1.10906302928925 0.08865600079298
v 0.42799699306488 1.10977900028229 0.10228099673986
v 0.42836299538612 1.10876297950745 0.10041700303555
v 0.41007399559021 1.1170779466629 0.10335499793291
v 0.42724698781967 1.1108649969101 0.10398399829865
v 0.41682198643684 1.10730803012848 0.08803600072861
v 0.41918501257896 1.11587500572205 0.10813599824905
v 0.41800394654274 1.11159110069275 0.09808581322432
# 48 vertices

vn 0.31471866369247 0.86254107952118 -0.39620065689087
vn 0.30845442414284 0.87107521295547 -0.38220939040184
vn 0.31278344988823 0.86440879106522 -0.39365461468697
vn 0.32435008883476 0.85583186149597 -0.40292543172836
vn 0.32437083125114 0.85580676794052 -0.40296193957329
vn 0.32437071204185 0.85581350326538 -0.4029478430748
vn 0.3242771923542 0.85574674606323 -0.40316471457481
vn 0.32436600327492 0.85589480400085 -0.40277910232544
vn 0.32437369227409 0.85582143068314 -0.40292853116989
vn 0.32453748583794 0.85583448410034 -0.40276914834976
vn 0.32436919212341 0.8557522892952 -0.40307921171188
vn 0.32194945216179 0.85098814964294 -0.41493111848831
vn 0.32443460822105 0.84735584259033 -0.42039310932159
vn 0.32404431700706 0.84539943933487 -0.42461165785789
vn 0.30832377076149 0.87159901857376 -0.38111886382103
vn 0.32436934113503 0.8558384180069 -0.40289589762688
vn 0.32443594932556 0.85581827163696 -0.40288510918617
vn 0.32436722517014 0.85584700107574 -0.40287947654724
vn 0.32437202334404 0.85582411289215 -0.40292420983315
vn 0.32438388466835 0.85581004619598 -0.40294447541237
vn 0.32440081238747 0.85588264465332 -0.40277659893036
vn 0.32443189620972 0.85576689243317 -0.40299740433693
vn 0.32425257563591 0.85581767559052 -0.40303421020508
vn 0.32438090443611 0.85582834482193 -0.40290826559067
vn 0.32426607608795 0.85586106777191 -0.40293106436729
vn 0.32413601875305 0.85591286420822 -0.40292549133301
vn 0.3244124352932 0.85578465461731 -0.40297567844391
vn 0.32435294985771 0.85583817958832 -0.40290987491608
vn 0.32430249452591 0.85585391521454 -0.40291678905487
vn 0.32451918721199 0.85581523180008 -0.40282467007637
vn 0.32463428378105 0.85575211048126 -0.40286609530449
vn 0.32437497377396 0.85579985380173 -0.40297341346741
vn 0.32433187961578 0.85585963726044 -0.40288111567497
vn 0.32433366775513 0.85580086708069 -0.40300446748734
vn 0.32435077428818 0.8557288646698 -0.40314346551895
vn 0.32442566752434 0.85581809282303 -0.4028939306736
vn 0.32437869906425 0.855837225914 -0.40289106965065
vn 0.32440012693405 0.85580861568451 -0.40293449163437
vn 0.32453536987305 0.85583937168121 -0.40276020765305
vn 0.32440400123596 0.85578858852386 -0.40297383069992
vn 0.32439351081848 0.85584998130798 -0.40285211801529
vn 0.3242452442646 0.85586285591125 -0.40294414758682
vn 0.32435429096222 0.85584455728531 -0.40289506316185
vn 0.32436573505402 0.85582882165909 -0.40291923284531
vn 0.32425135374069 0.85588192939758 -0.40289849042892
vn 0.32424464821815 0.85586071014404 -0.4029489159584
vn 0.32449895143509 0.85574221611023 -0.40299588441849
vn 0.32443118095398 0.8557910323143 -0.40294679999352
# 48 normals

vt 0.14099499583244 0.2961790561676 0
vt 0.67463195323944 0.92061299085617 0
vt 0.76626694202423 0.79009103775024 0
vt 0 1 0
vt 0.96631598472595 0.01051306724548 0
vt 0.7749890089035 0.06100702285767 0
vt 0.81768500804901 0.06947004795074 0
vt 0.92344391345978 0.1913640499115 0
vt 0.92534899711609 0.17936301231384 0
vt 0.87574076652527 0.17325079441071 0
vt 0.9142769575119 0.21284103393555 0
vt 0.91970598697662 0.20266497135162 0
vt 0.83538198471069 0.70787501335144 0
vt 0.41139197349548 0.02098798751831 0
vt 0.9467259645462 0.59649103879929 0
vt 0.01618599891663 0.48847508430481 0
vt 0.92250299453735 0.19810104370117 0
vt 0.90022301673889 0.20970606803894 0
vt 0.9315789937973 0.24714505672455 0
vt 0.94939792156219 0.03191304206848 0
vt 0.80624198913574 0.09837305545807 0
vt 0.92534899711609 0.16712701320648 0
vt 0.92344200611114 0.15512800216675 0
vt 0.89924192428589 0.22828900814056 0
vt 0.90736794471741 0.22149097919464 0
vt 0.86127293109894 0.2329740524292 0
vt 0.87085998058319 0.23535907268524 0
vt 0.85224592685699 0.2282919883728 0
vt 0.84412097930908 0.22149705886841 0
vt 0.83720898628235 0.21284699440002 0
vt 0.8806289434433 0.23536098003387 0
vt 0.89021492004395 0.23296999931335 0
vt 0.83178198337555 0.20267403125763 0
vt 0.82804191112518 0.1913720369339 0
vt 0.82613492012024 0.17937302589417 0
vt 0.82613492012024 0.1671370267868 0
vt 0.82803893089294 0.15514099597931 0
vt 0.8317779302597 0.14383506774902 0
vt 0.83720695972443 0.1336590051651 0
vt 0.84411597251892 0.12500905990601 0
vt 0.91970193386078 0.14382600784302 0
vt 0.8522390127182 0.1182119846344 0
vt 0.86126899719238 0.11353003978729 0
vt 0.91427099704742 0.13365399837494 0
vt 0.87085092067718 0.11114406585693 0
vt 0.88062393665314 0.11114203929901 0
vt 0.89020693302155 0.11352598667145 0
vt 0.89923393726349 0.11820805072784 0
vt 0.90735995769501 0.12500405311584 0
# 49 texture coordinates

o 4_DHD_symbols_outer_Cylinder.006
usemtl Symbols
f 2/3/3 3/2/2 6/1/1
f 12/7/6 14/6/5 15/5/4
f 48/10/9 17/9/8 19/8/7
f 20/12/11 44/11/10 48/10/9
f 6/1/1 5/14/13 4/13/12
f 5/14/13 1/15/14 4/13/12
f 3/2/2 7/16/15 6/1/1
f 6/1/1 4/13/12 2/3/3
f 8/19/18 9/18/17 10/17/16
f 8/19/18 10/17/16 15/5/4
f 10/17/16 11/20/19 15/5/4
f 12/7/6 13/21/20 14/6/5
f 11/20/19 12/7/6 15/5/4
f 19/8/7 20/12/11 48/10/9
f 30/23/22 18/22/21 48/10/9
f 18/22/21 17/9/8 48/10/9
f 38/25/24 39/24/23 48/10/9
f 47/27/26 25/26/25 48/10/9
f 25/26/25 26/28/27 48/10/9
f 44/11/10 38/25/24 48/10/9
f 26/28/27 21/29/28 48/10/9
f 21/29/28 22/30/29 48/10/9
f 33/32/31 34/31/30 48/10/9
f 22/30/29 45/33/32 48/10/9
f 45/33/32 42/34/33 48/10/9
f 42/34/33 43/35/34 48/10/9
f 43/35/34 36/36/35 48/10/9
f 39/24/23 33/32/31 48/10/9
f 36/36/35 37/37/36 48/10/9
f 37/37/36 31/38/37 48/10/9
f 34/31/30 47/27/26 48/10/9
f 31/38/37 32/39/38 48/10/9
f 32/39/38 27/40/39 48/10/9
f 29/41/40 30/23/22 48/10/9
f 27/40/39 28/42/41 48/10/9
f 28/42/41 23/43/42 48/10/9
f 35/44/43 29/41/40 48/10/9
f 23/43/42 24/45/44 48/10/9
f 24/45/44 46/46/45 48/10/9
f 46/46/45 40/47/46 48/10/9
f 40/47/46 41/48/47 48/10/9
f 16/49/48 35/44/43 48/10/9
f 41/48/47 16/49/48 48/10/9

