# WaveFront *.obj file (generated by CINEMA 4D)

mtllib ./4.mtl

v 0.38381001353264 1.08748805522919 0.03210499882698
v 0.36589398980141 1.12374997138977 0.09237000346184
v 0.35032001137733 1.14454698562622 0.12706600129604
v 0.3743439912796 1.10934197902679 0.06839200109243
v 0.54579401016235 1.04957795143127 0.08024500310421
v 0.52032798528671 1.10220503807068 0.1677680015564
v 0.49724200367928 1.13230299949646 0.2179239988327
v 0.4077390730381 1.11792612075806 0.10104828327894
v 0.42205893993378 1.11544573307037 0.10732883960009
v 0.42396360635757 1.11157274246216 0.10070638358593
v 0.451440513134 1.10754585266113 0.11429054290056
v 0.46065032482147 1.11745488643646 0.14255359768867
v 0.4585884809494 1.12140274047852 0.14920751750469
v 0.4690460562706 1.11645877361298 0.14720033109188
v 0.46232733130455 1.11645102500916 0.14178767800331
v 0.4540773332119 1.10629153251648 0.11377653479576
v 0.47693178057671 1.09031319618225 0.09849973022938
v 0.48504084348679 1.08743941783905 0.09896390140057
v 0.47759851813316 1.08575141429901 0.08943323045969
v 0.47555163502693 1.08987009525299 0.09645859152079
v 0.45283979177475 1.10569798946381 0.11153334379196
v 0.42492160201073 1.11005651950836 0.09828419238329
v 0.42641124129295 1.10677921772003 0.09258218854666
v 0.41337755322456 1.10887479782104 0.08652476966381
v 0.46504977345467 1.09790086746216 0.10492781549692
v 0.45744168758392 1.11200535297394 0.1285059005022
v 0.41757678985596 1.11205315589905 0.09658779203892
v 0.47705274820328 1.0894855260849 0.09685491025448
v 0.46165981888771 1.11733508110046 0.1431123316288
v 0.43400219082832 1.10953545570374 0.10448075830936
# 30 vertices

vn 0.31311360001564 0.8641522526741 -0.39395520091057
vn 0.30845439434052 0.87107515335083 -0.38220936059952
vn 0.31906923651695 0.85911303758621 -0.40014943480492
vn 0 0 0
vn 0.32516825199127 0.85108131170273 -0.41222104430199
vn 0.32404431700706 0.84539943933487 -0.42461165785789
vn 0.32419243454933 0.85064691305161 -0.41388294100761
vn 0.30832377076149 0.87159901857376 -0.38111886382103
vn 0.32585102319717 0.8539514541626 -0.40569448471069
vn 0.32584893703461 0.85395348072052 -0.40569192171097
vn 0.32584723830223 0.85395395755768 -0.40569230914116
vn 0.32585021853447 0.85395085811615 -0.405696362257
vn 0.32584452629089 0.85395455360413 -0.40569323301315
vn 0.32586774230003 0.85394597053528 -0.40569266676903
vn 0.32586491107941 0.85394984483719 -0.40568673610687
vn 0.32614824175835 0.8538299202919 -0.40571141242981
vn 0.32584369182587 0.85395622253418 -0.4056903719902
vn 0.32589563727379 0.8538413643837 -0.40589028596878
vn 0.3259505033493 0.85372018814087 -0.40610113739967
vn 0.32655403017998 0.85347509384155 -0.40613135695457
vn 0.32607617974281 0.85374599695206 -0.40594598650932
vn 0.32623988389969 0.85375493764877 -0.40579560399055
vn 0.32639181613922 0.85372626781464 -0.40573364496231
vn 0.32586133480072 0.85394591093063 -0.4056978225708
vn 0.32583627104759 0.85395139455795 -0.40570646524429
vn 0.32585164904594 0.85393995046616 -0.40571826696396
vn 0.3258610367775 0.8539434671402 -0.4057032763958
vn 0.32586246728897 0.85394948720932 -0.40568938851357
vn 0.3258650302887 0.85393905639648 -0.40570935606956
vn 0.32584819197655 0.85394376516342 -0.40571296215057
vn 0.32585290074348 0.85394757986069 -0.40570122003555
# 31 normals

vt 0.14521257579327 0.29473865032196 0
vt 0.66959822177887 0.91587686538696 0
vt 0.75876969099045 0.79456406831741 0
vt 0.75925797224045 0.79798203706741 0
vt 0.82124936580658 0.71813142299652 0
vt 0.94063067436218 0.59771531820297 0
vt 0.4076817035675 0.02456760406494 0
vt 0.40729111433029 0.02027106285095 0
vt 0.0170591827482 0.48840737342834 0
vt 0.67203962802887 0.92075967788696 0
vt 0.83889400959015 0.24329948425293 0
vt 0.89632660150528 0.24330115318298 0
vt 0.86979234218597 0.2185595035553 0
vt 0.84146368503571 0.19214475154877 0
vt 0.89739954471588 0.19645476341248 0
vt 0.7876883149147 0.02994561195374 0
vt 0.76245439052582 0.03180754184723 0
vt 0.78788268566132 0.03363525867462 0
vt 0.87289065122604 0.1941990852356 0
vt 0.8665851354599 0.19330537319183 0
vt 0.87036257982254 0.15931308269501 0
vt 0.86541074514389 0.09097981452942 0
vt 0.87760257720947 0.09416460990906 0
vt 0.87221193313599 0.08777618408203 0
vt 0.82908070087433 0.06008517742157 0
vt 0.79316347837448 0.02954161167145 0
vt 0.91896682977676 0.0655152797699 0
vt 0.95895206928253 0.03782081604004 0
vt 0.96342462301254 0.0443480014801 0
vt 0.98957741260529 0.04663050174713 0
vt 0.9645129442215 0.03942060470581 0
vt 0.9702935218811 0.01324796676636 0
vt 0.78626823425293 0.00298643112183 0
# 33 texture coordinates

o 4_DHD_symbols_outer_Cylinder
usemtl default
f 2/3/3 3/2/2 6/1/1
f 5/7/7 1/6/6 4/5/5
f 3/2/2 7/9/8 6/1/1
f 27/13/11 24/12/10 8/11/9
f 27/13/11 8/11/9 9/14/12
f 27/13/11 23/15/13 24/12/10
f 12/18/16 13/17/15 29/16/14
f 10/20/18 22/19/17 27/13/11
f 22/19/17 23/15/13 27/13/11
f 10/20/18 30/21/19 22/19/17
f 16/24/22 21/23/21 11/22/20
f 15/26/24 26/25/23 12/18/16
f 16/24/22 17/28/26 25/27/25
f 28/31/29 19/30/28 20/29/27
f 28/31/29 17/28/26 18/32/30
f 28/31/29 18/32/30 19/30/28
f 28/31/29 20/29/27 17/28/26
f 29/16/14 14/33/31 15/26/24
f 29/16/14 15/26/24 12/18/16
f 29/16/14 13/17/15 14/33/31
f 30/21/19 11/22/20 21/23/21
f 30/21/19 21/23/21 22/19/17
f 30/21/19 10/20/18 11/22/20
f 25/27/25 20/29/27 21/23/21
f 25/27/25 21/23/21 16/24/22
f 25/27/25 17/28/26 20/29/27
f 26/25/23 16/24/22 11/22/20
f 26/25/23 11/22/20 12/18/16
f 26/25/23 15/26/24 16/24/22
f 9/14/12 10/20/18 27/13/11
f 5/7/7 4/5/5 2/3/3
f 6/1/1 5/7/7 2/3/3

