# WaveFront *.obj file (generated by Cinema 4D)

mtllib ./P7J-989_button_light.mtl

v 0.38381001353264 1.08748805522919 0.03210499882698
v 0.36589398980141 1.12374997138977 0.09237000346184
v 0.35032001137733 1.14454698562622 0.12706600129604
v 0.3743439912796 1.10934197902679 0.06839200109243
v 0.54579401016235 1.04957795143127 0.08024500310421
v 0.52032798528671 1.10220503807068 0.1677680015564
v 0.49724200367928 1.13230299949646 0.2179239988327
v 0.49824717640877 1.08691334724426 0.10796049982309
v 0.47386536002159 1.10978031158447 0.1366061270237
v 0.50191575288773 1.08583009243011 0.10861787945032
v 0.47704464197159 1.10957741737366 0.13872663676739
v 0.46335679292679 1.11044561862946 0.1295859515667
v 0.46636873483658 1.11025512218475 0.1315985918045
v 0.48796674609184 1.08995234966278 0.10612505674362
v 0.4839386343956 1.0911420583725 0.10540374368429
v 0.46911004185677 1.09552180767059 0.10274858027697
v 0.4736340045929 1.09418416023254 0.10355558246374
v 0.45564299821854 1.11092948913574 0.1244233995676
v 0.45247587561607 1.11113667488098 0.12232176214457
v 0.45878341794014 1.09857130050659 0.10089840739965
v 0.4542401432991 1.09991049766541 0.10007935017347
v 0.44162127375603 1.11181914806366 0.11506034433842
v 0.4448946416378 1.11161148548126 0.11724627017975
v 0.43090400099754 1.11248564720154 0.10787556320429
v 0.43403577804565 1.11229693889618 0.10998799651861
v 0.43952924013138 1.10425293445587 0.09743984788656
v 0.44404950737953 1.1029177904129 0.09824921935797
v 0.42572650313377 1.10832893848419 0.09496685862541
v 0.42956751585007 1.10719501972198 0.09565588086843
v 0.4201857149601 1.1131774187088 0.1007431820035
v 0.42319312691689 1.11299109458923 0.10276076197624
v 0.40631660819054 1.11406087875366 0.09148950874805
v 0.41225293278694 1.11368060112 0.09544582664967
v 0.41478225588799 1.11156105995178 0.09300643950701
# 34 vertices

vn 0.31311360001564 0.8641522526741 -0.39395520091057
vn 0.30845442414284 0.87107521295547 -0.38220939040184
vn 0.31906926631927 0.85911303758621 -0.40014946460724
vn 0.32516828179359 0.85108137130737 -0.41222107410431
vn 0.32404431700706 0.84539943933487 -0.42461165785789
vn 0.32419240474701 0.85064691305161 -0.41388294100761
vn 0.30832377076149 0.87159901857376 -0.38111886382103
vn 0.32495102286339 0.85440468788147 -0.40546214580536
vn 0.32494452595711 0.85440492630005 -0.40546676516533
vn 0.32496112585068 0.85440546274185 -0.40545260906219
vn 0.32496729493141 0.85440504550934 -0.4054482281208
vn 0.32495376467705 0.85440546274185 -0.40545845031738
vn 0.32494983077049 0.85440492630005 -0.40546235442162
vn 0.32495346665382 0.85440421104431 -0.40546131134033
vn 0.32496130466461 0.85440522432327 -0.40545269846916
vn 0.32495987415314 0.85440498590469 -0.40545427799225
vn 0.3249651491642 0.85440522432327 -0.40544956922531
vn 0.32495287060738 0.85440313816071 -0.40546405315399
vn 0.32495111227036 0.85440135002136 -0.40546900033951
vn 0.32495000958443 0.85440999269485 -0.4054516851902
vn 0.32495751976967 0.85440438985825 -0.40545755624771
vn 0.3249548971653 0.85440564155579 -0.4054568707943
vn 0.32495763897896 0.85440576076508 -0.40545442700386
vn 0.32494559884071 0.85440301895142 -0.40546980500221
vn 0.32495456933975 0.85440474748611 -0.40545901656151
# 25 normals

vt 0.14521256089211 0.29473865032196 0
vt 0.66959822177887 0.91587686538696 0
vt 0.7587696313858 0.79456406831741 0
vt 0 1 0
vt 0.82124936580658 0.71813142299652 0
vt 0.94063067436218 0.59771531820297 0
vt 0.4076817035675 0.02456760406494 0
vt 0.01705918088555 0.48840737342834 0
vt 0.78149175643921 0.0090126991272 0
vt 0.75538992881775 0.01360714435577 0
vt 0.96903467178345 0.24112784862518 0
vt 0.93486368656158 0.24269187450409 0
vt 0.95481884479523 0.22801649570465 0
vt 0.77990078926086 0.04417169094086 0
vt 0.8256664276123 0.0088666677475 0
vt 0.97907447814941 0.16678762435913 0
vt 0.99999690055847 0.15136253833771 0
vt 0.76715624332428 0.12131810188293 0
vt 0.8848831653595 0.2459203004837 0
vt 0.90661513805389 0.23004055023193 0
vt 0.88468420505524 0.11193597316742 0
vt 0.97031509876251 0.20065069198608 0
vt 0.99094784259796 0.18511497974396 0
vt 0.91150522232056 0.05021178722382 0
vt 0.96392476558685 0.10559296607971 0
vt 0.98420226573944 0.09138083457947 0
vt 0.84125030040741 0.05469405651093 0
vt 0.88194060325623 0.10035276412964 0
vt 0.88658201694489 0.07271707057953 0
vt 0.99000942707062 0.2255402803421 0
vt 0.75121057033539 0.04904043674469 0
vt 0.85786461830139 0.00326240062714 0
vt 0.79952502250671 0.11587333679199 0
vt 0.91684544086456 0.1062718629837 0
vt 0.93896913528442 0.04624283313751 0
# 35 texture coordinates

o 4_DHD_symbols_outer_Cylinder
usemtl Symbols
f 2/3/3 3/2/2 6/1/1
f 5/7/6 1/6/5 4/5/4
f 3/2/2 7/8/7 6/1/1
f 6/1/1 5/7/6 2/3/3
f 5/7/6 4/5/4 2/3/3
f 11/11/8 10/10/9 8/9/8
f 15/14/10 12/13/11 13/12/10
f 19/17/12 18/16/13 17/15/12
f 22/20/14 23/19/15 20/18/14
f 24/23/16 25/22/17 27/21/16
f 30/26/18 31/25/19 29/24/18
f 33/29/20 34/28/20 32/27/20
f 9/30/21 11/11/8 8/9/8
f 14/31/22 15/14/10 13/12/10
f 16/32/23 19/17/12 17/15/12
f 21/33/24 22/20/14 20/18/14
f 26/34/25 24/23/16 27/21/16
f 28/35/25 30/26/18 29/24/18

