# Blender v3.1.2 OBJ File: ''
# www.blender.org
mtllib vent_hole.mtl
o Cube_Cube.001
v 0.504854 0.004757 0.010590
v -0.499558 -0.025242 0.010590
v 0.504854 -0.025242 0.010590
v -0.499558 0.004757 0.010590
v -0.499558 -0.025242 -0.470429
v -0.499558 0.004757 -0.470429
v 0.504854 -0.025242 -0.470429
v 0.504854 0.004757 -0.470429
vt 0.981545 -0.006201
vt 0.001403 0.003519
vt 0.987327 0.987475
vt 0.993947 0.992544
vt 0.006053 0.985211
vt 0.008022 0.002387
vt 0.985777 0.993381
vt 0.004922 0.996481
vt 0.004503 0.012525
vt 0.988459 0.009006
vt -0.002116 0.007038
vt 0.995915 0.003937
vt 0.998597 0.001674
vt 0.997465 0.994931
vn -0.0000 0.0000 1.0000
vn -1.0000 0.0000 0.0000
vn -0.0000 0.0000 -1.0000
vn 1.0000 0.0000 0.0000
vn -0.0000 -1.0000 0.0000
vn 0.0000 1.0000 0.0000
usemtl Material.001
s 1
f 1/1/1 2/2/1 3/3/1
f 4/4/2 5/5/2 2/2/2
f 6/6/3 7/7/3 5/5/3
f 8/8/4 3/9/4 7/7/4
f 5/5/5 3/10/5 2/11/5
f 4/12/6 8/8/6 6/6/6
f 1/1/1 4/4/1 2/2/1
f 4/4/2 6/6/2 5/5/2
f 6/6/3 8/8/3 7/7/3
f 8/8/4 1/13/4 3/9/4
f 5/5/5 7/7/5 3/10/5
f 4/12/6 1/14/6 8/8/6
