# WaveFront *.obj file (generated by Cinema 4D)

mtllib ./chevronLight.mtl

v -0.19337056577206 5.10757827758789 0.16849249601364
v -0.07555256038904 4.98324394226074 0.33037692308426
v 0.07175543904305 4.72274827957153 0.19460049271584
v 0.00871744100004 4.72241401672363 0.19413249194622
v 0.00852748844773 5.10823202133179 0.16991882026196
v 0.04023643955588 4.72258234024048 0.28368791937828
v 0.09046844393015 4.98334503173828 0.33147391676903
v -0.0543205589056 4.72208213806152 0.28298491239548
v -0.02280155941844 4.72224903106689 0.28321993350983
v -0.08048032224178 5.10815286636353 0.16924285888672
v 0.17348043620586 4.98339605331421 0.33202391862869
v 0.20744644105434 5.10837697982788 0.2497179210186
v 0.07175543904305 4.72274827957153 0.28392294049263
v -0.15856255590916 4.98319530487061 0.32982793450356
v 0.00852748844773 5.10823202133179 0.24744485318661
v 0.00871744100004 4.72241401672363 0.28345391154289
v 0.00745840324089 4.98329544067383 0.33092591166496
v -0.08048032224178 5.10815286636353 0.24651040136814
v 0.04023643955588 4.72258234024048 0.19436648488045
v 0.17348057031631 4.98334503173828 0.17641049623489
v 0.09716569632292 5.10893154144287 0.17055530846119
v -0.02280155941844 4.72224903106689 0.19389748573303
v 0.09716569632292 5.10893154144287 0.24848373234272
v -0.0543205589056 4.72208213806152 0.19366249442101
v 0.20744644105434 5.10837697982788 0.17115649580956
v -0.19337056577206 5.10757827758789 0.24523192644119
v -0.15856255590916 4.98319530487061 0.1747634857893
# 27 vertices

vn -0.00638769706711 -0.17904958128929 0.98381930589676
vn -0.00637692492455 -0.17904704809189 0.98381984233856
vn -0.00639468524605 -0.17904970049858 0.98381924629211
vn -0.00638311868533 -0.1790611743927 0.98381727933884
vn -0.00638137711212 -0.17905838787556 0.98381787538528
vn -0.0064007025212 -0.17905865609646 0.98381757736206
vn -0.00608823914081 0.55139237642288 0.83422386646271
vn -0.00621426478028 0.55132538080215 0.8342672586441
vn -0.00586722325534 0.55109977722168 0.83441877365112
vn -0.00827455986291 0.55777198076248 0.82995307445526
vn -0.00972825661302 0.55612337589264 0.83104282617569
vn -0.00860266666859 0.55424904823303 0.83230632543564
vn 0.00527475168929 -0.99998611211777 0
vn 0.00525458157063 -0.99998617172241 0
vn 0.00529492273927 -0.99998605251312 0
vn -0.96300274133682 -0.26949194073677 0
vn -0.96300262212753 -0.26949191093445 0
vn -0.94721871614456 -0.32058808207512 0
vn -0.00637431256473 -0.17905482649803 0.98381853103638
vn 0.94390475749969 -0.33021798729897 0.00006902993482
vn 0.9550729393959 -0.2963710129261 0.00006903002213
vn 0.93155634403229 -0.36359724402428 0.0000600129315
vn -0.00508973421529 0.99998712539673 0
vn -0.00368959759362 0.99999326467514 0
vn -0.00508973421529 0.99998700618744 0
vn -0.92872577905655 -0.37076735496521 0
vn 0.96501898765564 -0.26218011975288 0.00004340072701
vn -0.00902091246098 0.55916273593903 0.82900881767273
vn -0.0058023147285 0.56126075983047 0.82761871814728
vn -0.00439048465341 0.99999040365219 0
vn -0.00439048465341 0.99999046325684 0
vn -0.00358495046385 0.99999356269836 0
vn 0.00072185730096 0.99999970197678 0
vn 0.00502857193351 0.99998742341995 0
vn -0.00228945119306 0.99999737739563 0
vn -0.00884200166911 0.55289894342422 0.83320146799088
vn 0.00526466732845 -0.99998623132706 0
vn 0.00528988009319 -0.99998605251312 0
vn 0.00531509285793 -0.99998587369919 0
vn 0.00526970950887 -0.99998611211777 0
vn 0.00530500849709 -0.99998599290848 0
vn 0.00526466686279 -0.99998611211777 0
vn -0.0107262134552 0.55710631608963 0.83037197589874
vn -0.00640160171315 -0.17905022203922 0.98381906747818
vn -0.00639310432598 -0.17906241118908 0.98381692171097
vn 0.00502857146785 0.99998730421066 0
vn -0.00639160908759 -0.17905406653881 0.98381853103638
vn 0.93156695365906 -0.36356973648071 0
vn -0.92872577905655 -0.37076732516289 0
vn 0.96502542495728 -0.26215642690659 0
# 50 normals

vt 0.61496078968048 0.77760803699493 0
vt 0.64783608913422 0.57843261957169 0
vt 0.59821963310242 0.57824414968491 0
vt 0 1 0
vt 0.74706918001175 0.57880818843842 0
vt 0.77863502502441 0.77756416797638 0
vt 0.86047381162643 0.77754175662994 0
vt 0.88034009933472 0.90325748920441 0
vt 0.69737672805786 0.90370833873749 0
vt 0.69679820537567 0.7775866985321 0
vt 0.8598541021347 0.68653118610382 0
vt 0.84801590442657 0.51089715957642 0
vt 0.90944170951843 0.51126033067703 0
vt 0.69745278358459 0.57861840724945 0
vt 0.92166769504547 0.6811717748642 0
vt 0.98618566989899 0.65854173898697 0
vt 0.53312420845032 0.77763122320175 0
vt 0.61550974845886 0.90386521816254 0
vt 0.51167374849319 0.90379655361176 0
vt 0.77890717983246 0.90391200780869 0
vt 0.69745278358459 0.77725696563721 0
vt 0.79668569564819 0.57899540662766 0
vt 0.98133909702301 0.52989852428436 0
# 23 texture coordinates

o chevronLight
usemtl default
f 8/3/3 9/2/2 2/1/1
f 11/7/6 7/6/5 6/5/4
f 11/7/9 12/8/8 7/6/7
f 17/10/12 15/9/11 2/1/10
f 24/7/15 22/6/14 9/5/13
f 14/13/18 26/12/17 1/11/16
f 16/14/19 6/5/4 7/6/5
f 3/16/22 20/15/21 11/13/20
f 26/19/25 18/18/24 1/17/23
f 14/13/18 27/15/18 24/16/26
f 12/12/27 11/13/20 20/15/21
f 14/17/29 2/1/10 26/19/28
f 21/6/32 5/10/31 15/9/30
f 2/1/1 9/2/2 16/14/19
f 25/7/34 21/6/32 23/20/33
f 15/9/30 5/10/31 10/1/35
f 23/20/36 15/9/11 17/10/12
f 6/2/39 19/1/38 13/3/37
f 22/6/14 4/21/41 16/14/40
f 4/21/41 19/1/38 6/2/39
f 19/1/38 3/17/42 13/3/37
f 16/14/40 4/21/41 6/2/39
f 9/5/13 22/6/14 16/14/40
f 2/1/10 18/18/43 26/19/28
f 18/18/24 10/1/35 1/17/23
f 15/9/11 18/18/43 2/1/10
f 7/6/7 23/20/36 17/10/12
f 12/8/8 23/20/36 7/6/7
f 14/17/44 8/3/3 2/1/1
f 13/22/45 11/7/6 6/5/4
f 18/18/24 15/9/30 10/1/35
f 12/8/46 25/7/34 23/20/33
f 8/22/15 24/7/15 9/5/13
f 27/15/18 14/13/18 1/11/16
f 17/10/47 16/14/19 7/6/5
f 13/23/48 3/16/22 11/13/20
f 17/10/47 2/1/1 16/14/19
f 8/23/49 14/13/18 24/16/26
f 25/11/50 12/12/27 20/15/21
f 23/20/33 21/6/32 15/9/30

