# Blender v3.0.0 OBJ File: ''
# www.blender.org
mtllib ancient_obelisk.mtl
o obelisk
v -0.450000 0.010000 0.150000
v -0.450000 0.010000 -0.150000
v 0.450000 0.010000 -0.150000
v 0.450000 0.010000 0.150000
v -0.450000 2.010000 0.150000
v 0.450000 2.010000 0.150000
v 0.450000 2.010000 -0.150000
v -0.450000 2.010000 -0.150000
v -0.150000 0.010000 0.450000
v -0.150000 0.010000 -0.450000
v 0.150000 0.010000 -0.450000
v 0.150000 0.010000 0.450000
v -0.150000 2.010000 0.450000
v 0.150000 2.010000 0.450000
v 0.150000 2.010000 -0.450000
v -0.150000 2.010000 -0.450000
v -0.424264 0.000000 -0.424264
v 0.441235 0.000000 -0.441235
v 0.424264 0.000000 0.424264
v -0.441235 0.000000 0.441235
v -0.053033 4.110681 -0.053033
v 0.055154 4.110681 -0.055154
v -0.055154 4.110681 0.055154
v 0.053033 4.110681 0.053033
vt 0.620311 0.981881
vt 0.543256 0.981882
vt 0.543253 0.750716
vt 0.620309 0.750715
vt 0.452961 0.983723
vt 0.452958 0.752556
vt 0.530014 0.752556
vt 0.530016 0.983722
vt 0.824568 0.626879
vt 0.986197 0.626877
vt 0.986201 0.986052
vt 0.824572 0.986054
vt 0.802292 0.020347
vt 0.891245 0.020346
vt 0.891251 0.613367
vt 0.802298 0.613368
vt 0.626521 0.626880
vt 0.788150 0.626879
vt 0.788153 0.986054
vt 0.626524 0.986056
vt 0.898666 0.020324
vt 0.987619 0.020323
vt 0.987625 0.613344
vt 0.898672 0.613345
vt 0.363776 0.987894
vt 0.363773 0.756727
vt 0.440829 0.756727
vt 0.440831 0.987893
vt 0.273788 0.756061
vt 0.350844 0.756061
vt 0.350846 0.987227
vt 0.273791 0.987228
vt 0.702608 0.020349
vt 0.791562 0.020348
vt 0.791568 0.613369
vt 0.702615 0.613370
vt 0.824584 0.627240
vt 0.986213 0.627238
vt 0.986217 0.986414
vt 0.824588 0.986416
vt 0.604741 0.020474
vt 0.693694 0.020473
vt 0.693700 0.613493
vt 0.604747 0.613495
vt 0.626537 0.627242
vt 0.788166 0.627241
vt 0.788169 0.986416
vt 0.626540 0.986418
vt 0.012573 0.988538
vt 0.257296 0.993336
vt 0.252498 0.748613
vt 0.007774 0.743814
vt 0.131304 0.733084
vt 0.163922 0.733084
vt 0.280322 0.007508
vt 0.019381 0.007508
vt 0.457974 0.740634
vt 0.422917 0.740634
vt 0.302622 0.018968
vt 0.583081 0.018968
vt 0.163282 0.733084
vt 0.130664 0.733084
vt 0.014264 0.007508
vt 0.275205 0.007508
vt 0.422230 0.740634
vt 0.457287 0.740634
vt 0.577581 0.018968
vt 0.297123 0.018968
vt 0.581831 0.700881
vt 0.618448 0.700163
vt 0.617730 0.736780
vt 0.581113 0.737498
vn 0.0000 -1.0000 0.0000
vn 0.0000 1.0000 0.0000
vn 0.0000 0.0000 1.0000
vn 1.0000 0.0000 0.0000
vn 0.0000 0.0000 -1.0000
vn -1.0000 0.0000 0.0000
vn -0.0195 0.0917 -0.9956
vn -0.9956 0.0917 -0.0195
vn 0.0195 0.0917 0.9956
vn 0.9956 0.0917 0.0195
usemtl obelisk
s 1
f 1/1/1 2/2/1 3/3/1
f 3/3/1 4/4/1 1/1/1
f 5/5/2 6/6/2 7/7/2
f 7/7/2 8/8/2 5/5/2
f 1/9/3 4/10/3 6/11/3
f 6/11/3 5/12/3 1/9/3
f 4/13/4 3/14/4 7/15/4
f 7/15/4 6/16/4 4/13/4
f 3/17/5 2/18/5 8/19/5
f 8/19/5 7/20/5 3/17/5
f 2/21/6 1/22/6 5/23/6
f 5/23/6 8/24/6 2/21/6
f 9/25/1 10/26/1 11/27/1
f 11/27/1 12/28/1 9/25/1
f 13/29/2 14/30/2 15/31/2
f 15/31/2 16/32/2 13/29/2
f 9/33/3 12/34/3 14/35/3
f 14/35/3 13/36/3 9/33/3
f 12/37/4 11/38/4 15/39/4
f 15/39/4 14/40/4 12/37/4
f 11/41/5 10/42/5 16/43/5
f 16/43/5 15/44/5 11/41/5
f 10/45/6 9/46/6 13/47/6
f 13/47/6 16/48/6 10/45/6
f 17/49/1 18/50/1 19/51/1
f 19/51/1 20/52/1 17/49/1
f 21/53/7 22/54/7 18/55/7
f 18/55/7 17/56/7 21/53/7
f 23/57/8 21/58/8 17/59/8
f 17/59/8 20/60/8 23/57/8
f 24/61/9 23/62/9 20/63/9
f 20/63/9 19/64/9 24/61/9
f 22/65/10 24/66/10 19/67/10
f 19/67/10 18/68/10 22/65/10
f 21/69/2 23/70/2 24/71/2
f 24/71/2 22/72/2 21/69/2
