# Blender v3.1.2 OBJ File: ''
# www.blender.org
mtllib button_goauld.mtl
o buttons_goauld_Cube.009
v 0.567750 0.405732 0.963792
v 0.682092 0.467140 0.963792
v 0.567787 0.467210 0.963792
v 0.671607 0.411620 0.953895
v 0.671637 0.461245 0.953895
v 0.579369 0.461301 0.953895
v 0.579339 0.411676 0.953895
v 0.682055 0.405662 0.963792
v 0.429686 0.306360 0.963792
vt 0.000000 0.650264
vt 0.357716 0.000000
vt 0.357716 0.650264
vt 0.459265 0.720953
vt 0.418279 0.919162
vt 0.419519 0.742264
vt 0.043137 0.738105
vt 0.418077 0.919997
vt 0.043179 0.920215
vt 0.041926 0.919340
vt 0.000833 0.717723
vt 0.042370 0.739221
vt 0.437988 0.700465
vt 0.045036 0.736422
vt 0.023531 0.698735
vt 0.439872 0.958591
vt 0.041078 0.922045
vt 0.417417 0.918570
vt 0.000000 0.000000
vt 0.460505 0.940472
vt 0.418816 0.738668
vt 0.001113 0.938616
vt 0.415012 0.737124
vt 0.023702 0.959494
vn -0.0000 0.0000 1.0000
vn 0.6876 -0.0004 -0.7261
vn -0.0000 0.0000 -1.0000
vn -0.6495 0.0004 -0.7603
vn 0.0005 0.8589 -0.5121
vn 0.0005 0.8589 -0.5122
vn -0.0005 -0.8570 -0.5153
vn -0.0005 -0.8570 -0.5154
usemtl Default_OBJ.001
s 1
f 1/1/1 2/2/1 3/3/1
f 2/4/2 4/5/2 5/6/2
f 4/7/3 6/8/3 5/9/3
f 7/10/4 3/11/4 6/12/4
f 2/13/5 6/14/6 3/15/6
f 8/16/7 7/17/7 4/18/8
f 1/1/1 8/19/1 2/2/1
f 2/4/2 8/20/2 4/5/2
f 4/7/3 7/21/3 6/8/3
f 7/10/4 1/22/4 3/11/4
f 2/13/5 5/23/5 6/14/6
f 8/16/7 1/24/7 7/17/7
