# WaveFront *.obj file (generated by Cinema 4D)

mtllib ./chevronLight.mtl

v -0.19337056577206 5.10757827758789 0.03560292720795
v -0.07555256038904 4.98324394226074 0.33037692308426
v 0.07175543904305 4.72274827957153 0.06171092763543
v 0.00871744100004 4.72241401672363 0.06124292686582
v -0.07555256038904 4.98324394226074 0.04242292791605
v 0.04023643955588 4.72258234024048 0.28368791937828
v 0.09046844393015 4.98334503173828 0.33147391676903
v -0.0543205589056 4.72208213806152 0.28298491239548
v -0.02280155941844 4.72224903106689 0.28321993350983
v -0.08048032224178 5.10815286636353 0.03635329008102
v 0.17348043620586 4.98339605331421 0.33202391862869
v 0.20744644105434 5.10837697982788 0.2497179210186
v 0.07175543904305 4.72274827957153 0.28392294049263
v -0.15856255590916 4.98319530487061 0.32982793450356
v 0.00852748844773 5.10823202133179 0.24744485318661
v 0.00871744100004 4.72241401672363 0.28345391154289
v 0.00745840324089 4.98329544067383 0.33092591166496
v -0.08048032224178 5.10815286636353 0.24651040136814
v 0.04023643955588 4.72258234024048 0.06147692725062
v 0.17348057031631 4.98334503173828 0.0435209274292
v 0.09716569632292 5.10893154144287 0.03766574338078
v -0.02280155941844 4.72224903106689 0.06100792810321
v 0.00745840324089 4.98329544067383 0.04297192767262
v -0.0543205589056 4.72208213806152 0.06077292561531
v 0.20744644105434 5.10837697982788 0.03826692700386
v -0.19337056577206 5.10757827758789 0.24523192644119
v -0.15856255590916 4.98319530487061 0.04187392815948
v 0.09716569632292 5.10893154144287 0.24848373234272
v 0.09046844393015 4.98334503173828 0.0435209274292
v 0.00852748844773 5.10823202133179 0.03702926263213
# 30 vertices

vn -0.00638769706711 -0.17904958128929 0.98381930589676
vn -0.00637692492455 -0.17904704809189 0.98381984233856
vn -0.00639468524605 -0.17904970049858 0.98381924629211
vn -0.00638311868533 -0.1790611743927 0.98381727933884
vn -0.00638137711212 -0.17905838787556 0.98381787538528
vn -0.0064007025212 -0.17905865609646 0.98381757736206
vn 0.00687350239605 -0.05895926430821 -0.99823677539825
vn 0.00704942597076 -0.04803720861673 -0.99882066249847
vn 0.0067593655549 -0.04838151484728 -0.9988060593605
vn 0.00710890488699 -0.06039294600487 -0.99814939498901
vn 0.00741629721597 -0.06965763866901 -0.99754339456558
vn 0.00527475168929 -0.99998605251312 0
vn 0.00525458157063 -0.99998617172241 0
vn 0.00529492273927 -0.99998599290848 0
vn -0.96300274133682 -0.26949194073677 0
vn -0.96300262212753 -0.26949191093445 0
vn -0.94721865653992 -0.3205880522728 0
vn -0.00637431256473 -0.17905482649803 0.98381853103638
vn 0.94390147924423 -0.33022704720497 0.00003723514601
vn 0.95506995916367 -0.2963801920414 0.00003723520422
vn 0.93155562877655 -0.36359888315201 0.00003237021156
vn -0.92872583866119 -0.37076732516289 0
vn -0.94721871614456 -0.32058808207512 0
vn 0.96501564979553 -0.26219236850739 0.00002341175059
vn 0.00726856244728 -0.04737167805433 -0.99885088205338
vn 0.0048291743733 -0.0561697781086 -0.99840956926346
vn -0.00439048465341 0.99999046325684 0
vn -0.00439048418775 0.99999040365219 0
vn -0.00358495092951 0.99999356269836 0
vn 0.00072185666068 0.99999976158142 0
vn 0.00502857146785 0.99998736381531 0
vn -0.0022894514259 0.99999737739563 0
vn -0.00860266853124 0.55424916744232 0.83230638504028
vn -0.00972825661302 0.55612337589264 0.83104282617569
vn -0.00884200166911 0.55289894342422 0.83320146799088
vn 0.00260489084758 -0.04441675171256 -0.99900978803635
vn 0.00637649185956 -0.04691049084067 -0.99887883663177
vn 0.00526970950887 -0.99998611211777 0
vn 0.00530500849709 -0.99998599290848 0
vn 0.00531509285793 -0.99998587369919 0
vn 0.00528988009319 -0.99998605251312 0
vn 0.00526466686279 -0.99998617172241 0
vn 0.0038875695318 -0.06990918517113 -0.99754583835602
vn 0 -0.05581341683865 -0.99844127893448
vn 0.00779077084735 -0.06982497870922 -0.99752885103226
vn 0.00739762140438 -0.06999287754297 -0.99752008914948
vn -0.00902091246098 0.55916273593903 0.82900881767273
vn -0.0107262134552 0.55710631608963 0.83037197589874
vn -0.00827455986291 0.55777198076248 0.82995307445526
vn -0.00508973468095 0.99998706579208 0
vn -0.00368959829211 0.99999326467514 0
vn 0.00722184497863 -0.06950407475233 -0.99755561351776
vn -0.00608823914081 0.55139237642288 0.83422386646271
vn -0.00621426478028 0.55132538080215 0.8342672586441
vn -0.00640160171315 -0.17905022203922 0.98381906747818
vn -0.00639310432598 -0.17906241118908 0.98381692171097
vn 0.00663656601682 -0.05902901291847 -0.99823427200317
vn -0.00639160908759 -0.17905406653881 0.98381853103638
vn 0.93156695365906 -0.36356970667839 0
vn -0.92872583866119 -0.37076732516289 0
vn 0.96502542495728 -0.26215642690659 0
vn 0.00502857193351 0.99998736381531 0
vn -0.0058023147285 0.56126075983047 0.82761871814728
vn -0.00586722325534 0.55109977722168 0.83441877365112
# 64 normals

vt 0.61496078968048 0.77760803699493 0
vt 0.64783608913422 0.57843261957169 0
vt 0.59821963310242 0.57824414968491 0
vt 0 1 0
vt 0.74706918001175 0.57880818843842 0
vt 0.77863502502441 0.77756416797638 0
vt 0.86047381162643 0.77754175662994 0
vt 0.61550974845886 0.90386521816254 0
vt 0.51167374849319 0.90379655361176 0
vt 0.69679820537567 0.7775866985321 0
vt 0.8598541021347 0.68653118610382 0
vt 0.84801590442657 0.51089715957642 0
vt 0.90944170951843 0.51126033067703 0
vt 0.69745278358459 0.57861840724945 0
vt 0.92166769504547 0.6811717748642 0
vt 0.98618566989899 0.65854173898697 0
vt 0.69737672805786 0.90370833873749 0
vt 0.7789072394371 0.90391200780869 0
vt 0.88034009933472 0.90325748920441 0
vt 0.69745278358459 0.77725696563721 0
vt 0.53312420845032 0.77763122320175 0
vt 0.79668569564819 0.57899540662766 0
vt 0.98133909702301 0.52989852428436 0
# 23 texture coordinates

o chevronLight
usemtl Chevron oof
f 8/3/3 9/2/2 2/1/1
f 11/7/6 7/6/5 6/5/4
f 1/9/9 10/8/8 5/1/7
f 22/2/11 5/1/7 23/10/10
f 24/7/14 22/6/13 9/5/12
f 14/13/17 26/12/16 1/11/15
f 16/14/18 6/5/4 7/6/5
f 3/16/21 20/15/20 11/13/19
f 23/10/10 5/1/7 10/8/8
f 14/13/17 27/15/23 24/16/22
f 12/12/24 11/13/19 20/15/20
f 29/6/26 23/10/10 30/17/25
f 21/6/29 30/10/28 15/17/27
f 2/1/1 9/2/2 16/14/18
f 25/7/31 21/6/29 28/18/30
f 15/17/27 30/10/28 10/1/32
f 28/18/35 15/17/34 17/10/33
f 29/6/26 21/18/37 25/19/36
f 22/6/13 4/20/39 16/14/38
f 4/20/39 19/1/41 6/2/40
f 19/1/41 3/21/42 13/3/42
f 29/6/26 20/7/44 3/22/43
f 19/5/46 4/14/45 23/10/10
f 2/1/49 18/8/48 26/9/47
f 18/8/51 10/1/32 1/21/50
f 15/17/34 18/8/48 2/1/49
f 5/1/7 22/2/11 24/3/52
f 12/19/54 28/18/35 7/6/53
f 14/21/55 8/3/3 2/1/1
f 13/22/56 11/7/6 6/5/4
f 27/21/57 1/9/9 5/1/7
f 4/14/45 22/2/11 23/10/10
f 8/22/14 24/7/14 9/5/12
f 27/15/23 14/13/17 1/11/15
f 17/10/58 16/14/18 7/6/5
f 13/23/59 3/16/21 11/13/19
f 30/17/25 23/10/10 10/8/8
f 8/23/60 14/13/17 24/16/22
f 25/11/61 12/12/24 20/15/20
f 21/18/37 29/6/26 30/17/25
f 28/18/30 21/6/29 15/17/27
f 17/10/58 2/1/1 16/14/18
f 12/19/62 25/7/31 28/18/30
f 18/8/51 15/17/27 10/1/32
f 7/6/53 28/18/35 17/10/33
f 20/7/44 29/6/26 25/19/36
f 9/5/12 22/6/13 16/14/38
f 16/14/38 4/20/39 6/2/40
f 6/2/40 19/1/41 13/3/42
f 19/5/46 29/6/26 3/22/43
f 29/6/26 19/5/46 23/10/10
f 14/21/63 2/1/49 26/9/47
f 26/9/50 18/8/51 1/21/50
f 17/10/33 15/17/34 2/1/49
f 27/21/57 5/1/7 24/3/52
f 11/7/64 12/19/54 7/6/53

