# WaveFront *.obj file (generated by Cinema 4D)

mtllib ./large_tube_liquid.mtl

v 0.14629140496254 -0.42143720388412 1.05015432834625
v 0.14629140496254 0.79057890176773 1.05015432834625
v 0.14406891167164 -0.42143720388412 1.02475106716156
v 0.14406891167164 0.79057890176773 1.02475106716156
v 0.13746896386147 -0.42143720388412 1.00011968612671
v 0.13746896386147 0.79057890176773 1.00011968612671
v 0.12669207155704 -0.42143720388412 0.9770085811615
v 0.12669207155704 0.79057890176773 0.9770085811615
v 0.11206572502851 -0.42143720388412 0.95611995458603
v 0.11206572502851 0.79057890176773 0.95611995458603
v 0.094034306705 -0.42143720388412 0.93808853626251
v 0.094034306705 0.79057890176773 0.93808853626251
v 0.07314570248127 -0.42143720388412 0.92346221208572
v 0.07314570248127 0.79057890176773 0.92346221208572
v 0.05003460869193 -0.42143720388412 0.91268533468246
v 0.05003460869193 0.79057890176773 0.91268533468246
v 0.02540323697031 -0.42143720388412 0.90608537197113
v 0.02540323697031 0.79057890176773 0.90608537197113
v 0 -0.42143720388412 0.90386289358139
v 0 0.79057890176773 0.90386289358139
v -0.02540323697031 -0.42143720388412 0.90608537197113
v -0.02540323697031 0.79057890176773 0.90608537197113
v -0.05003460869193 -0.42143720388412 0.91268533468246
v -0.05003460869193 0.79057890176773 0.91268533468246
v -0.07314570248127 -0.42143720388412 0.92346221208572
v -0.07314570248127 0.79057890176773 0.92346221208572
v -0.094034306705 -0.42143720388412 0.93808853626251
v -0.094034306705 0.79057890176773 0.93808853626251
v -0.11206572502851 -0.42143720388412 0.95611995458603
v -0.11206572502851 0.79057890176773 0.95611995458603
v -0.12669207155704 -0.42143720388412 0.9770085811615
v -0.12669207155704 0.79057890176773 0.9770085811615
v -0.13746896386147 -0.42143720388412 1.00011968612671
v -0.13746896386147 0.79057890176773 1.00011968612671
v -0.14406891167164 -0.42143720388412 1.02475106716156
v -0.14406891167164 0.79057890176773 1.02475106716156
v -0.14629140496254 -0.42143720388412 1.05015432834625
v -0.14629140496254 0.79057890176773 1.05015432834625
v -0.14406891167164 -0.42143720388412 1.07555747032166
v -0.14406891167164 0.79057890176773 1.07555747032166
v -0.13746896386147 -0.42143720388412 1.10018885135651
v -0.13746896386147 0.79057890176773 1.10018885135651
v -0.12669207155704 -0.42143720388412 1.12329995632172
v -0.12669207155704 0.79057890176773 1.12329995632172
v -0.11206572502851 -0.42143720388412 1.14418864250183
v -0.11206572502851 0.79057890176773 1.14418864250183
v -0.094034306705 -0.42143720388412 1.1622200012207
v -0.094034306705 0.79057890176773 1.1622200012207
v -0.07314570248127 -0.42143720388412 1.17684638500214
v -0.07314570248127 0.79057890176773 1.17684638500214
v -0.05003460869193 -0.42143720388412 1.1876232624054
v -0.05003460869193 0.79057890176773 1.1876232624054
v -0.02540323697031 -0.42143720388412 1.19422316551208
v -0.02540323697031 0.79057890176773 1.19422316551208
v 0 -0.42143720388412 1.19644570350647
v 0 0.79057890176773 1.19644570350647
v 0.02540323697031 -0.42143720388412 1.19422316551208
v 0.02540323697031 0.79057890176773 1.19422316551208
v 0.05003460869193 -0.42143720388412 1.1876232624054
v 0.05003460869193 0.79057890176773 1.1876232624054
v 0.07314570248127 -0.42143720388412 1.17684638500214
v 0.07314570248127 0.79057890176773 1.17684638500214
v 0.094034306705 -0.42143720388412 1.1622200012207
v 0.094034306705 0.79057890176773 1.1622200012207
v 0.11206572502851 -0.42143720388412 1.14418864250183
v 0.11206572502851 0.79057890176773 1.14418864250183
v 0.12669207155704 -0.42143720388412 1.12329995632172
v 0.12669207155704 0.79057890176773 1.12329995632172
v 0.13746896386147 -0.42143720388412 1.10018885135651
v 0.13746896386147 0.79057890176773 1.10018885135651
v 0.14406891167164 -0.42143720388412 1.07555747032166
v 0.14406891167164 0.79057890176773 1.07555747032166
v 0 0.79057890176773 1.05015432834625
v 0 -0.42143720388412 1.05015432834625
# 74 vertices

vn 0.9995750784874 0 -0.02915030531585
vn 0.9995750784874 0 0.02915071509778
vn 0.98945128917694 0 -0.1448665112257
vn 0.9793273806572 0 -0.20228169858456
vn 0.94926339387894 0 -0.31448212265968
vn 0.92932325601578 0 -0.36926734447479
vn 0.88023269176483 0 -0.47454234957695
vn 0.85108232498169 0 -0.52503210306168
vn 0.78445678949356 0 -0.62018346786499
vn 0.74698150157928 0 -0.66484481096268
vn 0.66484475135803 0 -0.74698156118393
vn 0.62018328905106 0 -0.7844569683075
vn 0.5250318646431 0 -0.85108250379562
vn 0.47454208135605 0 -0.88023287057877
vn 0.36926731467247 0 -0.92932325601578
vn 0.31448242068291 0 -0.94926333427429
vn 0.2022819519043 0 -0.97932732105255
vn 0.14486639201641 0 -0.98945128917694
vn 0.02915027365088 0 -0.9995750784874
vn -0.02915027365088 0 -0.9995750784874
vn -0.14486639201641 0 -0.98945128917694
vn -0.2022819519043 0 -0.97932732105255
vn -0.31448242068291 0 -0.94926333427429
vn -0.36926731467247 0 -0.92932325601578
vn -0.47454208135605 0 -0.88023287057877
vn -0.5250318646431 0 -0.85108250379562
vn -0.62018328905106 0 -0.7844569683075
vn -0.66484475135803 0 -0.74698156118393
vn -0.74698150157928 0 -0.66484481096268
vn -0.78445678949356 0 -0.62018346786499
vn -0.85108232498169 0 -0.52503210306168
vn -0.88023269176483 0 -0.47454234957695
vn -0.92932325601578 0 -0.36926734447479
vn -0.94926339387894 0 -0.31448212265968
vn -0.9793273806572 0 -0.20228169858456
vn -0.98945128917694 0 -0.1448665112257
vn -0.9995750784874 0 -0.02915030531585
vn -0.9995750784874 0 0.02915071509778
vn -0.98945116996765 0 0.1448667794466
vn -0.97932732105255 0 0.20228181779385
vn -0.94926339387894 0 0.31448212265968
vn -0.92932325601578 0 0.36926734447479
vn -0.88023287057877 0 0.47454190254211
vn -0.85108280181885 0 0.52503138780594
vn -0.78445708751678 0 0.62018316984177
vn -0.74698108434677 0 0.66484528779984
vn -0.66484439373016 0 0.7469819188118
vn -0.6201838850975 0 0.78445649147034
vn -0.52503299713135 0 0.85108184814453
vn -0.47454264760017 0 0.88023257255554
vn -0.36926662921906 0 0.92932349443436
vn -0.31448101997375 0 0.94926381111145
vn -0.20228125154972 0 0.97932744026184
vn -0.14486719667912 0 0.98945111036301
vn -0.0291510540992 0 0.9995750784874
vn 0.0291510540992 0 0.9995750784874
vn 0.14486719667912 0 0.98945111036301
vn 0.20228125154972 0 0.97932744026184
vn 0.31448101997375 0 0.94926381111145
vn 0.36926662921906 0 0.92932349443436
vn 0.47454264760017 0 0.88023257255554
vn 0.52503299713135 0 0.85108184814453
vn 0.6201838850975 0 0.78445649147034
vn 0.66484439373016 0 0.7469819188118
vn 0.74698108434677 0 0.66484528779984
vn 0.78445708751678 0 0.62018316984177
vn 0.85108280181885 0 0.52503138780594
vn 0.88023287057877 0 0.47454190254211
vn 0.92932325601578 0 0.36926734447479
vn 0.94926339387894 0 0.31448212265968
vn 0.97932732105255 0 0.20228181779385
vn 0.98945116996765 0 0.1448667794466
vn 0 1 0
vn 0 1 0
vn 0 1 0
vn 0 -1 0
vn 0 -1 0
vn 0 -1 0
# 78 normals

vt 4.49227285385132 -5.13764572143555 0
vt 4.54976511001587 6.09490013122559 0
vt 4.7863302230835 6.09368896484375 0
vt 0 1 0
vt -3.78774762153625 -5.09550380706787 0
vt -3.73003005981445 6.13755416870117 0
vt -3.49345827102661 6.13632678985596 0
vt -3.55117273330688 -5.09671878814697 0
vt -3.25688767433167 6.13509845733643 0
vt -3.31459784507751 -5.09793281555176 0
vt -3.02031707763672 6.13387203216553 0
vt -3.07802271842957 -5.09914588928223 0
vt -2.78374600410461 6.132643699646 0
vt -2.84144759178162 -5.10035991668701 0
vt -2.54717659950256 6.13141918182373 0
vt -2.60487341880798 -5.10157299041748 0
vt -2.31060743331909 6.13019180297852 0
vt -2.36829853057861 -5.10278511047363 0
vt -2.07403898239136 6.12896728515625 0
vt -2.1317241191864 -5.10399627685547 0
vt -1.83747124671936 6.1277437210083 0
vt -1.89514970779419 -5.10520553588867 0
vt -1.60090398788452 6.12651920318604 0
vt -1.65857553482056 -5.10642051696777 0
vt -1.364337682724 6.12529468536377 0
vt -1.42200088500977 -5.10762977600098 0
vt -1.12777078151703 6.12407398223877 0
vt -1.18542742729187 -5.10883808135986 0
vt -0.89120507240295 6.12285232543945 0
vt -0.94885331392288 -5.11004543304443 0
vt -0.6546396613121 6.12163066864014 0
vt -0.71227997541428 -5.11125659942627 0
vt -0.41807410120964 6.12041187286377 0
vt -0.47570648789406 -5.11246109008789 0
vt -0.18150968849659 6.11919212341309 0
vt -0.23913305997849 -5.11366558074951 0
vt 0.05505501851439 6.11797332763672 0
vt -0.00256014242768 -5.11487102508545 0
vt 0.29161977767944 6.1167573928833 0
vt 0.2340125143528 -5.11607551574707 0
vt 0.52818381786346 6.11553764343262 0
vt 0.47058489918709 -5.11727905273438 0
vt 0.76474732160568 6.11432075500488 0
vt 0.70715755224228 -5.11848258972168 0
vt 1.00131177902222 6.11310482025146 0
vt 0.94372969865799 -5.11968612670898 0
vt 1.23787569999695 6.11188793182373 0
vt 1.18030154705048 -5.12088871002197 0
vt 1.47443914413452 6.11067199707031 0
vt 1.416872382164 -5.12208652496338 0
vt 1.71100258827209 6.10945606231689 0
vt 1.65344417095184 -5.12328720092773 0
vt 1.94756650924683 6.10824203491211 0
vt 1.89001488685608 -5.12448596954346 0
vt 2.1841287612915 6.10702514648438 0
vt 2.12658619880676 -5.1256856918335 0
vt 2.42069268226624 6.10581016540527 0
vt 2.36315679550171 -5.12688541412354 0
vt 2.65725612640381 6.10459613800049 0
vt 2.59972739219666 -5.12808227539062 0
vt 2.89381957054138 6.10338401794434 0
vt 2.83629608154297 -5.12928009033203 0
vt 3.13038301467896 6.10216999053955 0
vt 3.07286548614502 -5.13047695159912 0
vt 3.36694741249084 6.1009578704834 0
vt 3.30943441390991 -5.13167190551758 0
vt 3.60350942611694 6.09974575042725 0
vt 3.54600358009338 -5.13286685943604 0
vt 3.84007334709167 6.09853363037109 0
vt 3.78257131576538 -5.13406372070312 0
vt 4.07663583755493 6.09732341766357 0
vt 4.01913928985596 -5.13525772094727 0
vt 4.3132004737854 6.09611034393311 0
vt 4.25570726394653 -5.13645267486572 0
vt 1.66424858570099 0.70483338832855 0
vt 1.68222665786743 0.4994033575058 0
vt 0.49928444623947 0.4994033575058 0
vt 1.61085593700409 0.90399992465973 0
vt 1.52370917797089 1.09087431430817 0
vt 1.40544378757477 1.25978875160217 0
vt 1.25963377952576 1.40558969974518 0
vt 1.09075546264648 1.52386403083801 0
vt 0.90386313199997 1.61100625991821 0
vt 0.7046964764595 1.66437435150146 0
vt 0.49928444623947 1.68227314949036 0
vt 0.29385441541672 1.66437435150146 0
vt 0.09468776732683 1.61100625991821 0
vt -0.09218662977219 1.52386403083801 0
vt -0.26110100746155 1.40558969974518 0
vt -0.4069020152092 1.25978875160217 0
vt -0.52517640590668 1.09087431430817 0
vt -0.61231857538223 0.90399992465973 0
vt -0.66568613052368 0.70483338832855 0
vt -0.68358552455902 0.4994033575058 0
vt -0.66568613052368 0.29399132728577 0
vt -0.61231857538223 0.0948246717453 0
vt -0.52517640590668 -0.09206771850586 0
vt -0.4069020152092 -0.26094603538513 0
vt -0.26110100746155 -0.40675592422485 0
vt -0.09218662977219 -0.52502131462097 0
vt 0.09468776732683 -0.61216807365417 0
vt 0.29385441541672 -0.66556072235107 0
vt 0.49928444623947 -0.68353867530823 0
vt 0.7046964764595 -0.66556072235107 0
vt 0.90386313199997 -0.61216807365417 0
vt 1.09075546264648 -0.52502131462097 0
vt 1.25963377952576 -0.40675592422485 0
vt 1.40544378757477 -0.26094603538513 0
vt 1.52370917797089 -0.09206771850586 0
vt 1.61085593700409 0.0948246717453 0
vt 1.66424858570099 0.29399132728577 0
vt 4.72883892059326 -5.13883972167969 0
# 112 texture coordinates

o liquide_gros_tube
usemtl Liquide 1
f 4/3/3 2/2/2 1/1/1
f 6/7/5 4/6/3 3/5/4
f 8/9/7 6/7/5 5/8/6
f 10/11/9 8/9/7 7/10/8
f 12/13/11 10/11/9 9/12/10
f 14/15/13 12/13/11 11/14/12
f 16/17/15 14/15/13 13/16/14
f 18/19/17 16/17/15 15/18/16
f 20/21/19 18/19/17 17/20/18
f 22/23/21 20/21/19 19/22/20
f 24/25/23 22/23/21 21/24/22
f 26/27/25 24/25/23 23/26/24
f 28/29/27 26/27/25 25/28/26
f 30/31/29 28/29/27 27/30/28
f 32/33/31 30/31/29 29/32/30
f 34/35/33 32/33/31 31/34/32
f 36/37/35 34/35/33 33/36/34
f 38/39/37 36/37/35 35/38/36
f 40/41/39 38/39/37 37/40/38
f 42/43/41 40/41/39 39/42/40
f 44/45/43 42/43/41 41/44/42
f 46/47/45 44/45/43 43/46/44
f 48/49/47 46/47/45 45/48/46
f 50/51/49 48/49/47 47/50/48
f 52/53/51 50/51/49 49/52/50
f 54/55/53 52/53/51 51/54/52
f 56/57/55 54/55/53 53/56/54
f 58/59/57 56/57/55 55/58/56
f 60/61/59 58/59/57 57/60/58
f 62/63/61 60/61/59 59/62/60
f 64/65/63 62/63/61 61/64/62
f 66/67/65 64/65/63 63/66/64
f 68/69/67 66/67/65 65/68/66
f 70/71/69 68/69/67 67/70/68
f 72/73/71 70/71/69 69/72/70
f 2/2/2 72/73/71 71/74/72
f 73/77/73 2/76/73 4/75/73
f 73/77/73 4/75/73 6/78/73
f 73/77/73 6/78/73 8/79/73
f 73/77/73 8/79/73 10/80/73
f 73/77/73 10/80/73 12/81/73
f 73/77/73 12/81/73 14/82/73
f 73/77/73 14/82/73 16/83/73
f 73/77/73 16/83/73 18/84/73
f 73/77/73 18/84/73 20/85/73
f 73/77/73 20/85/73 22/86/74
f 73/77/73 22/86/74 24/87/74
f 73/77/73 24/87/74 26/88/74
f 73/77/73 26/88/74 28/89/74
f 73/77/73 28/89/74 30/90/74
f 73/77/73 30/90/74 32/91/74
f 73/77/73 32/91/74 34/92/74
f 73/77/73 34/92/74 36/93/73
f 73/77/73 36/93/73 38/94/73
f 73/77/73 38/94/73 40/95/75
f 73/77/73 40/95/75 42/96/75
f 73/77/73 42/96/75 44/97/75
f 73/77/73 44/97/75 46/98/75
f 73/77/73 46/98/75 48/99/75
f 73/77/73 48/99/75 50/100/75
f 73/77/73 50/100/75 52/101/75
f 73/77/73 52/101/75 54/102/73
f 73/77/73 54/102/73 56/103/73
f 73/77/73 56/103/73 58/104/73
f 73/77/73 58/104/73 60/105/73
f 73/77/73 60/105/73 62/106/73
f 73/77/73 62/106/73 64/107/73
f 73/77/73 64/107/73 66/108/73
f 73/77/73 66/108/73 68/109/73
f 73/77/73 68/109/73 70/110/73
f 73/77/73 70/110/73 72/111/73
f 73/77/73 72/111/73 2/76/73
f 74/77/76 3/75/76 1/76/76
f 74/77/76 5/78/77 3/75/76
f 74/77/76 7/79/77 5/78/77
f 74/77/76 9/80/77 7/79/77
f 74/77/76 11/81/77 9/80/77
f 74/77/76 13/82/77 11/81/77
f 74/77/76 15/83/77 13/82/77
f 74/77/76 17/84/77 15/83/77
f 74/77/76 19/85/76 17/84/77
f 74/77/76 21/86/78 19/85/76
f 74/77/76 23/87/78 21/86/78
f 74/77/76 25/88/78 23/87/78
f 74/77/76 27/89/78 25/88/78
f 74/77/76 29/90/78 27/89/78
f 74/77/76 31/91/78 29/90/78
f 74/77/76 33/92/78 31/91/78
f 74/77/76 35/93/78 33/92/78
f 74/77/76 37/94/76 35/93/78
f 74/77/76 39/95/76 37/94/76
f 74/77/76 41/96/76 39/95/76
f 74/77/76 43/97/76 41/96/76
f 74/77/76 45/98/76 43/97/76
f 74/77/76 47/99/76 45/98/76
f 74/77/76 49/100/76 47/99/76
f 74/77/76 51/101/76 49/100/76
f 74/77/76 53/102/76 51/101/76
f 74/77/76 55/103/76 53/102/76
f 74/77/76 57/104/76 55/103/76
f 74/77/76 59/105/76 57/104/76
f 74/77/76 61/106/76 59/105/76
f 74/77/76 63/107/76 61/106/76
f 74/77/76 65/108/76 63/107/76
f 74/77/76 67/109/76 65/108/76
f 74/77/76 69/110/76 67/109/76
f 74/77/76 71/111/76 69/110/76
f 74/77/76 1/76/76 71/111/76
f 3/112/4 4/3/3 1/1/1
f 5/8/6 6/7/5 3/5/4
f 7/10/8 8/9/7 5/8/6
f 9/12/10 10/11/9 7/10/8
f 11/14/12 12/13/11 9/12/10
f 13/16/14 14/15/13 11/14/12
f 15/18/16 16/17/15 13/16/14
f 17/20/18 18/19/17 15/18/16
f 19/22/20 20/21/19 17/20/18
f 21/24/22 22/23/21 19/22/20
f 23/26/24 24/25/23 21/24/22
f 25/28/26 26/27/25 23/26/24
f 27/30/28 28/29/27 25/28/26
f 29/32/30 30/31/29 27/30/28
f 31/34/32 32/33/31 29/32/30
f 33/36/34 34/35/33 31/34/32
f 35/38/36 36/37/35 33/36/34
f 37/40/38 38/39/37 35/38/36
f 39/42/40 40/41/39 37/40/38
f 41/44/42 42/43/41 39/42/40
f 43/46/44 44/45/43 41/44/42
f 45/48/46 46/47/45 43/46/44
f 47/50/48 48/49/47 45/48/46
f 49/52/50 50/51/49 47/50/48
f 51/54/52 52/53/51 49/52/50
f 53/56/54 54/55/53 51/54/52
f 55/58/56 56/57/55 53/56/54
f 57/60/58 58/59/57 55/58/56
f 59/62/60 60/61/59 57/60/58
f 61/64/62 62/63/61 59/62/60
f 63/66/64 64/65/63 61/64/62
f 65/68/66 66/67/65 63/66/64
f 67/70/68 68/69/67 65/68/66
f 69/72/70 70/71/69 67/70/68
f 71/74/72 72/73/71 69/72/70
f 1/1/1 2/2/2 71/74/72

