# WaveFront *.obj file (generated by Cinema 4D)

mtllib ./liquid_very_little_tube.mtl

v 0.15076602995396 0.79057890176773 -1.18135368824005
v 0.15076602995396 -0.41907128691673 -1.18135368824005
v 0.15283609926701 0.79057890176773 -1.17691445350647
v 0.15283609926701 -0.41907128691673 -1.17691445350647
v 0.15410384535789 0.79057890176773 -1.17218315601349
v 0.15410384535789 -0.41907128691673 -1.17218315601349
v 0.15453074872494 0.79057890176773 -1.16730356216431
v 0.15453074872494 -0.41907128691673 -1.16730356216431
v 0.15410384535789 0.79057890176773 -1.16242396831512
v 0.15410384535789 -0.41907128691673 -1.16242396831512
v 0.15283609926701 0.79057890176773 -1.15769267082214
v 0.15283609926701 -0.41907128691673 -1.15769267082214
v 0.14795653522015 -0.41907128691673 -1.18536603450775
v 0.14795653522015 0.79057890176773 -1.18536603450775
v 0.14449298381805 -0.41907128691673 -1.18882966041565
v 0.14449298381805 0.79057890176773 -1.18882966041565
v 0.14048062264919 -0.41907128691673 -1.19163906574249
v 0.14048062264919 0.79057890176773 -1.19163906574249
v 0.13604134321213 -0.41907128691673 -1.19370913505554
v 0.13604134321213 0.79057890176773 -1.19370913505554
v 0.13131004571915 -0.41907128691673 -1.19497692584991
v 0.13131004571915 0.79057890176773 -1.19497692584991
v 0.12643049657345 -0.41907128691673 -1.1954038143158
v 0.12643049657345 0.79057890176773 -1.1954038143158
v 0.12155093252659 -0.41907128691673 -1.19497692584991
v 0.12155093252659 0.79057890176773 -1.19497692584991
v 0.11681963503361 -0.41907128691673 -1.19370913505554
v 0.11681963503361 0.79057890176773 -1.19370913505554
v 0.11238036304712 -0.41907128691673 -1.19163906574249
v 0.11238036304712 0.79057890176773 -1.19163906574249
v 0.10836799442768 -0.41907128691673 -1.18882966041565
v 0.10836799442768 0.79057890176773 -1.18882966041565
v 0.10490444302559 -0.41907128691673 -1.18536603450775
v 0.10490444302559 0.79057890176773 -1.18536603450775
v 0.10209494829178 -0.41907128691673 -1.18135368824005
v 0.10209494829178 0.79057890176773 -1.18135368824005
v 0.10002487897873 -0.41907128691673 -1.17691445350647
v 0.10002487897873 0.79057890176773 -1.17691445350647
v 0.09875713288784 -0.41907128691673 -1.17218315601349
v 0.09875713288784 0.79057890176773 -1.17218315601349
v 0.0983302295208 -0.41907128691673 -1.16730356216431
v 0.0983302295208 0.79057890176773 -1.16730356216431
v 0.09875713288784 -0.41907128691673 -1.16242396831512
v 0.09875713288784 0.79057890176773 -1.16242396831512
v 0.10002487897873 -0.41907128691673 -1.15769267082214
v 0.10002487897873 0.79057890176773 -1.15769267082214
v 0.10209494829178 -0.41907128691673 -1.15325343608856
v 0.10209494829178 0.79057890176773 -1.15325343608856
v 0.10490444302559 -0.41907128691673 -1.14924108982086
v 0.10490444302559 0.79057890176773 -1.14924108982086
v 0.10836799442768 -0.41907128691673 -1.14577758312225
v 0.10836799442768 0.79057890176773 -1.14577758312225
v 0.11238036304712 -0.41907128691673 -1.14296805858612
v 0.11238036304712 0.79057890176773 -1.14296805858612
v 0.11681963503361 -0.41907128691673 -1.14089798927307
v 0.11681963503361 0.79057890176773 -1.14089798927307
v 0.12155093252659 -0.41907128691673 -1.1396301984787
v 0.12155093252659 0.79057890176773 -1.1396301984787
v 0.12643049657345 -0.41907128691673 -1.13920331001282
v 0.12643049657345 0.79057890176773 -1.13920331001282
v 0.13131004571915 -0.41907128691673 -1.1396301984787
v 0.13131004571915 0.79057890176773 -1.1396301984787
v 0.13604134321213 -0.41907128691673 -1.14089798927307
v 0.13604134321213 0.79057890176773 -1.14089798927307
v 0.14048062264919 -0.41907128691673 -1.14296805858612
v 0.14048062264919 0.79057890176773 -1.14296805858612
v 0.14449298381805 -0.41907128691673 -1.14577758312225
v 0.14449298381805 0.79057890176773 -1.14577758312225
v 0.14795653522015 -0.41907128691673 -1.14924108982086
v 0.12643049657345 0.79057890176773 -1.16730356216431
v 0.14795653522015 0.79057890176773 -1.14924108982086
v 0.12643049657345 -0.41907128691673 -1.16730356216431
v 0.15076602995396 -0.41907128691673 -1.15325343608856
v 0.15076602995396 0.79057890176773 -1.15325343608856
# 74 vertices

vn 0 -1 0
vn 0 -1 0
vn 0 -1 0
vn 0 1 0
vn 0 1 0
vn 0 1 0
vn 0.9995750784874 0 -0.02915010042489
vn 0.9995750784874 0 0.02915010042489
vn 0.98945128917694 0 -0.14486588537693
vn 0.97932749986649 0 -0.2022814899683
vn 0.94926303625107 0 -0.31448328495026
vn 0.92932236194611 0 -0.36926952004433
vn 0.88023096323013 0 -0.47454559803009
vn 0.85108035802841 0 -0.52503550052643
vn 0.78445732593536 0 -0.6201828122139
vn 0.7469853758812 0 -0.66484051942825
vn 0.66484713554382 0 -0.74697953462601
vn 0.62017971277237 0 -0.78445982933044
vn 0.52502489089966 0 -0.85108685493469
vn 0.47453847527504 0 -0.8802347779274
vn 0.36926984786987 0 -0.92932218313217
vn 0.31448766589165 0 -0.94926154613495
vn 0.20228651165962 0 -0.97932636737823
vn 0.14486730098724 0 -0.98945105075836
vn 0.02914943732321 0 -0.99957501888275
vn -0.02914917469025 0 -0.9995750784874
vn -0.14486712217331 0 -0.98945105075836
vn -0.20228640735149 0 -0.97932636737823
vn -0.31448790431023 0 -0.9492614865303
vn -0.36927029490471 0 -0.92932206392288
vn -0.47453859448433 0 -0.88023471832275
vn -0.52502465248108 0 -0.85108709335327
vn -0.62017929553986 0 -0.78446018695831
vn -0.66484689712524 0 -0.74697977304459
vn -0.7469853758812 0 -0.66484051942825
vn -0.78445732593536 0 -0.6201828122139
vn -0.85108035802841 0 -0.52503550052643
vn -0.88023096323013 0 -0.47454559803009
vn -0.92932236194611 0 -0.36926952004433
vn -0.94926303625107 0 -0.31448328495026
vn -0.97932749986649 0 -0.2022814899683
vn -0.98945128917694 0 -0.14486588537693
vn -0.9995750784874 0 -0.02915010042489
vn -0.9995750784874 0 0.02915010042489
vn -0.98945128917694 0 0.14486588537693
vn -0.97932749986649 0 0.2022814899683
vn -0.94926303625107 0 0.31448328495026
vn -0.92932236194611 0 0.36926952004433
vn -0.88023096323013 0 0.47454559803009
vn -0.85108035802841 0 0.52503550052643
vn -0.78445386886597 0 0.6201873421669
vn -0.74697780609131 0 0.6648491024971
vn -0.66484326124191 0 0.7469829916954
vn -0.62018513679504 0 0.78445553779602
vn -0.52503591775894 0 0.85108011960983
vn -0.47454440593719 0 0.88023155927658
vn -0.36927029490471 0 0.92932206392288
vn -0.31448790431023 0 0.9492614865303
vn -0.20228640735149 0 0.97932636737823
vn -0.14486712217331 0 0.98945105075836
vn -0.02914917469025 0 0.9995750784874
vn 0.02914943732321 0 0.99957501888275
vn 0.14486730098724 0 0.98945105075836
vn 0.20228651165962 0 0.97932636737823
vn 0.31448766589165 0 0.94926154613495
vn 0.36926984786987 0 0.92932218313217
vn 0.47454431653023 0 0.88023167848587
vn 0.52503627538681 0 0.85107988119125
vn 0.62018567323685 0 0.78445512056351
vn 0.66484344005585 0 0.74698275327682
vn 0.74697780609131 0 0.6648491024971
vn 0.78445386886597 0 0.6201873421669
vn 0.85108035802841 0 0.52503550052643
vn 0.88023096323013 0 0.47454559803009
vn 0.92932236194611 0 0.36926952004433
vn 0.94926303625107 0 0.31448328495026
vn 0.97932749986649 0 0.2022814899683
vn 0.98945128917694 0 0.14486588537693
# 78 normals

vt 0.10527582466602 0.64122748374939 0
vt 0.08633108437061 0.57052832841873 0
vt 0.49984884262085 0.49761366844177 0
vt 0 1 0
vt 0.07995283603668 0.49761366844177 0
vt 0.08633108437061 0.42469918727875 0
vt 0.10527582466602 0.35400009155273 0
vt 0.13620746135712 0.28766429424286 0
vt 0.17819002270699 0.227707862854 0
vt 0.2299439907074 0.17595243453979 0
vt 0.28990268707275 0.13397061824799 0
vt 0.35623648762703 0.10303783416748 0
vt 0.42693477869034 0.08409404754639 0
vt 0.49984887242317 0.07771480083466 0
vt 0.57276678085327 0.08409404754639 0
vt 0.64346504211426 0.10303783416748 0
vt 0.70979863405228 0.13397061824799 0
vt 0.76975756883621 0.17595243453979 0
vt 0.82151144742966 0.227707862854 0
vt 0.86349385976791 0.28766429424286 0
vt 0.89442551136017 0.35400009155273 0
vt 0.91337031126022 0.42469918727875 0
vt 0.91974860429764 0.49761366844177 0
vt 0.91337031126022 0.57052832841873 0
vt 0.89442551136017 0.64122748374939 0
vt 0.86349385976791 0.70756304264069 0
vt 0.82151144742966 0.76751923561096 0
vt 0.76975756883621 0.81927466392517 0
vt 0.70979863405228 0.86125665903091 0
vt 0.64346504211426 0.89218944311142 0
vt 0.57276678085327 0.91113317012787 0
vt 0.49984887242317 0.9175124168396 0
vt 0.42693477869034 0.91113317012787 0
vt 0.35623648762703 0.89218944311142 0
vt 0.28990268707275 0.86125665903091 0
vt 0.2299439907074 0.81927466392517 0
vt 0.17819002270699 0.76751923561096 0
vt 0.13620746135712 0.70756304264069 0
vt -0.87667065858841 -8.68805694580078 0
vt -0.81022727489471 9.6670093536377 0
vt -0.7356071472168 9.66674041748047 0
vt -0.80204749107361 -8.68832588195801 0
vt -0.66098713874817 9.66647529602051 0
vt -0.72742420434952 -8.68859672546387 0
vt -0.58636713027954 9.66620635986328 0
vt -0.65280044078827 -8.68886566162109 0
vt -0.51174712181091 9.66593933105469 0
vt -0.57817673683166 -8.68913078308105 0
vt -0.43712696433067 9.66567230224609 0
vt -0.50355291366577 -8.68939590454102 0
vt -0.36250692605972 9.66540336608887 0
vt -0.42892894148827 -8.68965911865234 0
vt -0.28788685798645 9.66513824462891 0
vt -0.35430490970612 -8.68991470336914 0
vt -0.21326687932014 9.66487121582031 0
vt -0.27968087792397 -8.6901741027832 0
vt -0.13864700496197 9.66460609436035 0
vt -0.20505681633949 -8.6904354095459 0
vt -0.06402683258057 9.66434288024902 0
vt -0.13043263554573 -8.6906909942627 0
vt 0.01059341337532 9.6640796661377 0
vt -0.0558082908392 -8.69094085693359 0
vt 0.08521343022585 9.66381454467773 0
vt 0.01881565526128 -8.69119834899902 0
vt 0.1598336994648 9.66355133056641 0
vt 0.09343960136175 -8.69145011901855 0
vt 0.23445396125317 9.66328239440918 0
vt 0.16806346178055 -8.69170188903809 0
vt 0.30907422304153 9.66301727294922 0
vt 0.24268727004528 -8.69195556640625 0
vt 0.38369446992874 9.66275024414062 0
vt 0.3173109292984 -8.69220542907715 0
vt 0.45831477642059 9.66248893737793 0
vt 0.39193460345268 -8.69244766235352 0
vt 0.53293514251709 9.66222190856934 0
vt 0.46655783057213 -8.69269561767578 0
vt 0.60755568742752 9.66195869445801 0
vt 0.54118096828461 -8.69293403625488 0
vt 0.68217605352402 9.66169166564941 0
vt 0.61580413579941 -8.69318008422852 0
vt 0.7567965388298 9.66142463684082 0
vt 0.69042652845383 -8.69342422485352 0
vt 0.83141708374023 9.66115951538086 0
vt 0.76504904031754 -8.69366073608398 0
vt 0.90603739023209 9.6608943939209 0
vt 0.83967143297195 -8.69389724731445 0
vt 0.98065829277039 9.66062927246094 0
vt 0.9142929315567 -8.69413948059082 0
vt 1.05527877807617 9.66036415100098 0
vt 0.98891466856003 -8.69437599182129 0
vt 1.12989950180054 9.66009902954102 0
vt 1.06353545188904 -8.69461250305176 0
vt 1.20451998710632 9.65983009338379 0
vt 1.13815641403198 -8.6948413848877 0
vt 1.27914083003998 9.65956878662109 0
vt 1.21277666091919 -8.69507598876953 0
vt 1.35376107692719 9.6593017578125 0
vt 1.28739678859711 -8.69530868530273 0
vt 1.42838191986084 9.65903854370117 0
vt 1.36201643943787 -8.6955394744873 0
vt 1.50300240516663 9.65876770019531 0
vt 1.43663561344147 -8.69576454162598 0
vt 1.57762312889099 9.65850067138672 0
vt 1.51125407218933 -8.69599533081055 0
vt 1.65224349498749 9.65823364257812 0
vt 1.58587241172791 -8.69621276855469 0
vt 1.72686386108398 9.65796661376953 0
vt 1.6604905128479 -8.69643974304199 0
vt 1.80148410797119 9.65769577026367 0
vt 1.73510730266571 -8.69666862487793 0
vt 1.87610495090485 9.65742492675781 0
vt 1.80972361564636 -8.69688987731934 0
# 112 texture coordinates

o liquide_très_petit_tube
usemtl Liquide 11
f 72/3/2 39/2/1 37/1/1
f 72/3/2 41/5/2 39/2/1
f 72/3/2 43/6/2 41/5/2
f 72/3/2 45/7/2 43/6/2
f 72/3/2 47/8/2 45/7/2
f 72/3/2 49/9/2 47/8/2
f 72/3/2 51/10/2 49/9/2
f 72/3/2 53/11/2 51/10/2
f 72/3/2 55/12/2 53/11/2
f 72/3/2 57/13/2 55/12/2
f 72/3/2 59/14/2 57/13/2
f 72/3/2 61/15/2 59/14/2
f 72/3/2 63/16/2 61/15/2
f 72/3/2 65/17/2 63/16/2
f 72/3/2 67/18/2 65/17/2
f 72/3/2 69/19/2 67/18/2
f 72/3/2 73/20/2 69/19/2
f 72/3/2 12/21/2 73/20/2
f 72/3/2 10/22/2 12/21/2
f 72/3/2 8/23/2 10/22/2
f 72/3/2 6/24/2 8/23/2
f 72/3/2 4/25/3 6/24/2
f 72/3/2 2/26/3 4/25/3
f 72/3/2 13/27/3 2/26/3
f 72/3/2 15/28/3 13/27/3
f 72/3/2 17/29/3 15/28/3
f 72/3/2 19/30/3 17/29/3
f 72/3/2 21/31/3 19/30/3
f 72/3/2 23/32/2 21/31/3
f 72/3/2 25/33/1 23/32/2
f 72/3/2 27/34/1 25/33/1
f 72/3/2 29/35/1 27/34/1
f 72/3/2 31/36/1 29/35/1
f 72/3/2 33/37/1 31/36/1
f 72/3/2 35/38/1 33/37/1
f 72/3/2 37/1/1 35/38/1
f 70/3/4 38/1/5 40/2/4
f 70/3/4 40/2/4 42/5/4
f 70/3/4 42/5/4 44/6/6
f 70/3/4 44/6/6 46/7/6
f 70/3/4 46/7/6 48/8/6
f 70/3/4 48/8/6 50/9/6
f 70/3/4 50/9/6 52/10/6
f 70/3/4 52/10/6 54/11/6
f 70/3/4 54/11/6 56/12/6
f 70/3/4 56/12/6 58/13/6
f 70/3/4 58/13/6 60/14/4
f 70/3/4 60/14/4 62/15/4
f 70/3/4 62/15/4 64/16/4
f 70/3/4 64/16/4 66/17/4
f 70/3/4 66/17/4 68/18/4
f 70/3/4 68/18/4 71/19/4
f 70/3/4 71/19/4 74/20/4
f 70/3/4 74/20/4 11/21/4
f 70/3/4 11/21/4 9/22/4
f 70/3/4 9/22/4 7/23/4
f 70/3/4 7/23/4 5/24/4
f 70/3/4 5/24/4 3/25/4
f 70/3/4 3/25/4 1/26/4
f 70/3/4 1/26/4 14/27/4
f 70/3/4 14/27/4 16/28/4
f 70/3/4 16/28/4 18/29/4
f 70/3/4 18/29/4 20/30/4
f 70/3/4 20/30/4 22/31/4
f 70/3/4 22/31/4 24/32/4
f 70/3/4 24/32/4 26/33/5
f 70/3/4 26/33/5 28/34/5
f 70/3/4 28/34/5 30/35/5
f 70/3/4 30/35/5 32/36/5
f 70/3/4 32/36/5 34/37/5
f 70/3/4 34/37/5 36/38/5
f 70/3/4 36/38/5 38/1/5
f 5/41/9 7/40/8 8/39/7
f 3/43/11 5/41/9 6/42/10
f 1/45/13 3/43/11 4/44/12
f 14/47/15 1/45/13 2/46/14
f 16/49/17 14/47/15 13/48/16
f 18/51/19 16/49/17 15/50/18
f 20/53/21 18/51/19 17/52/20
f 22/55/23 20/53/21 19/54/22
f 24/57/25 22/55/23 21/56/24
f 26/59/27 24/57/25 23/58/26
f 28/61/29 26/59/27 25/60/28
f 30/63/31 28/61/29 27/62/30
f 32/65/33 30/63/31 29/64/32
f 34/67/35 32/65/33 31/66/34
f 36/69/37 34/67/35 33/68/36
f 38/71/39 36/69/37 35/70/38
f 40/73/41 38/71/39 37/72/40
f 42/75/43 40/73/41 39/74/42
f 44/77/45 42/75/43 41/76/44
f 46/79/47 44/77/45 43/78/46
f 48/81/49 46/79/47 45/80/48
f 50/83/51 48/81/49 47/82/50
f 52/85/53 50/83/51 49/84/52
f 54/87/55 52/85/53 51/86/54
f 56/89/57 54/87/55 53/88/56
f 58/91/59 56/89/57 55/90/58
f 60/93/61 58/91/59 57/92/60
f 62/95/63 60/93/61 59/94/62
f 64/97/65 62/95/63 61/96/64
f 66/99/67 64/97/65 63/98/66
f 68/101/69 66/99/67 65/100/68
f 71/103/71 68/101/69 67/102/70
f 74/105/73 71/103/71 69/104/72
f 11/107/75 74/105/73 73/106/74
f 9/109/77 11/107/75 12/108/76
f 7/111/8 9/109/77 10/110/78
f 6/42/10 5/41/9 8/39/7
f 4/44/12 3/43/11 6/42/10
f 2/46/14 1/45/13 4/44/12
f 13/48/16 14/47/15 2/46/14
f 15/50/18 16/49/17 13/48/16
f 17/52/20 18/51/19 15/50/18
f 19/54/22 20/53/21 17/52/20
f 21/56/24 22/55/23 19/54/22
f 23/58/26 24/57/25 21/56/24
f 25/60/28 26/59/27 23/58/26
f 27/62/30 28/61/29 25/60/28
f 29/64/32 30/63/31 27/62/30
f 31/66/34 32/65/33 29/64/32
f 33/68/36 34/67/35 31/66/34
f 35/70/38 36/69/37 33/68/36
f 37/72/40 38/71/39 35/70/38
f 39/74/42 40/73/41 37/72/40
f 41/76/44 42/75/43 39/74/42
f 43/78/46 44/77/45 41/76/44
f 45/80/48 46/79/47 43/78/46
f 47/82/50 48/81/49 45/80/48
f 49/84/52 50/83/51 47/82/50
f 51/86/54 52/85/53 49/84/52
f 53/88/56 54/87/55 51/86/54
f 55/90/58 56/89/57 53/88/56
f 57/92/60 58/91/59 55/90/58
f 59/94/62 60/93/61 57/92/60
f 61/96/64 62/95/63 59/94/62
f 63/98/66 64/97/65 61/96/64
f 65/100/68 66/99/67 63/98/66
f 67/102/70 68/101/69 65/100/68
f 69/104/72 71/103/71 67/102/70
f 73/106/74 74/105/73 69/104/72
f 12/108/76 11/107/75 73/106/74
f 10/110/78 9/109/77 12/108/76
f 8/112/7 7/111/8 10/110/78

