# WaveFront *.obj file (generated by Cinema 4D)

mtllib ./liquid_tube_normal_4.mtl

v -0.02839174494147 -0.41926854848862 -0.42443254590034
v -0.02839174494147 0.79057890176773 -0.42443254590034
v -0.02913616597652 -0.41926854848862 -0.43294131755829
v -0.02913616597652 0.79057890176773 -0.43294131755829
v -0.0313468053937 -0.41926854848862 -0.4411915242672
v -0.0313468053937 0.79057890176773 -0.4411915242672
v -0.0349564999342 -0.41926854848862 -0.44893255829811
v -0.0349564999342 0.79057890176773 -0.44893255829811
v -0.03985556960106 -0.41926854848862 -0.45592913031578
v -0.03985556960106 0.79057890176773 -0.45592913031578
v -0.04589515179396 -0.41926854848862 -0.46196871995926
v -0.04589515179396 0.79057890176773 -0.46196871995926
v -0.05289174616337 -0.41926854848862 -0.46686780452728
v -0.05289174616337 0.79057890176773 -0.46686780452728
v -0.06063276156783 -0.41926854848862 -0.4704774916172
v -0.06063276156783 0.79057890176773 -0.4704774916172
v -0.06888298690319 -0.41926854848862 -0.47268813848495
v -0.06888298690319 0.79057890176773 -0.47268813848495
v -0.07739175111055 -0.41926854848862 -0.47343254089355
v -0.07739175111055 0.79057890176773 -0.47343254089355
v -0.08590050786734 -0.41926854848862 -0.47268813848495
v -0.08590050786734 0.79057890176773 -0.47268813848495
v -0.09415073692799 -0.41926854848862 -0.4704774916172
v -0.09415073692799 0.79057890176773 -0.4704774916172
v -0.10189174860716 -0.41926854848862 -0.46686780452728
v -0.10189174860716 0.79057890176773 -0.46686780452728
v -0.10888834297657 -0.41926854848862 -0.46196871995926
v -0.10888834297657 0.79057890176773 -0.46196871995926
v -0.11492793262005 -0.41926854848862 -0.45592913031578
v -0.11492793262005 0.79057890176773 -0.45592913031578
v -0.11982699483633 -0.41926854848862 -0.44893255829811
v -0.11982699483633 0.79057890176773 -0.44893255829811
v -0.12343668937683 -0.41926854848862 -0.4411915242672
v -0.12343668937683 0.79057890176773 -0.4411915242672
v -0.12564733624458 -0.41926854848862 -0.43294131755829
v -0.12564733624458 0.79057890176773 -0.43294131755829
v -0.12639175355434 -0.41926854848862 -0.42443254590034
v -0.12639175355434 0.79057890176773 -0.42443254590034
v -0.12564733624458 -0.41926854848862 -0.4159237742424
v -0.12564733624458 0.79057890176773 -0.4159237742424
v -0.12343668937683 -0.41926854848862 -0.40767356753349
v -0.12343668937683 0.79057890176773 -0.40767356753349
v -0.11982699483633 -0.41926854848862 -0.39993253350258
v -0.11982699483633 0.79057890176773 -0.39993253350258
v -0.11492793262005 -0.41926854848862 -0.39293596148491
v -0.11492793262005 0.79057890176773 -0.39293596148491
v -0.10888834297657 -0.41926854848862 -0.38689637184143
v -0.10888834297657 0.79057890176773 -0.38689637184143
v -0.10189174860716 -0.41926854848862 -0.38199728727341
v -0.10189174860716 0.79057890176773 -0.38199728727341
v -0.09415073692799 -0.41926854848862 -0.37838760018349
v -0.09415073692799 0.79057890176773 -0.37838760018349
v -0.08590050786734 -0.41926854848862 -0.37617695331573
v -0.08590050786734 0.79057890176773 -0.37617695331573
v -0.07739175111055 -0.41926854848862 -0.37543255090714
v -0.07739175111055 0.79057890176773 -0.37543255090714
v -0.06888298690319 -0.41926854848862 -0.37617695331573
v -0.06888298690319 0.79057890176773 -0.37617695331573
v -0.06063276156783 -0.41926854848862 -0.37838760018349
v -0.06063276156783 0.79057890176773 -0.37838760018349
v -0.05289174616337 -0.41926854848862 -0.38199728727341
v -0.05289174616337 0.79057890176773 -0.38199728727341
v -0.04589515179396 -0.41926854848862 -0.38689637184143
v -0.04589515179396 0.79057890176773 -0.38689637184143
v -0.03985556960106 -0.41926854848862 -0.39293596148491
v -0.03985556960106 0.79057890176773 -0.39293596148491
v -0.0349564999342 -0.41926854848862 -0.39993253350258
v -0.0349564999342 0.79057890176773 -0.39993253350258
v -0.0313468053937 -0.41926854848862 -0.40767356753349
v -0.0313468053937 0.79057890176773 -0.40767356753349
v -0.02913616597652 -0.41926854848862 -0.4159237742424
v -0.02913616597652 0.79057890176773 -0.4159237742424
v -0.07739175111055 -0.41926854848862 -0.42443254590034
v -0.07739175111055 0.79057890176773 -0.42443254590034
# 74 vertices

vn 0.98945116996765 0 0.14486686885357
vn 0.97932732105255 0 0.20228226482868
vn 0.9995750784874 0 0.02915049344301
vn 0.94926333427429 0 0.31448221206665
vn 0.92932337522507 0 0.36926680803299
vn 0.88023263216019 0 0.47454234957695
vn 0.85108178853989 0 0.52503329515457
vn 0.78445595502853 0 0.62018460035324
vn 0.74698120355606 0 0.6648451089859
vn 0.66484576463699 0 0.7469807267189
vn 0.62018489837646 0 0.78445571660995
vn 0.52503323554993 0 0.85108172893524
vn 0.47454249858856 0 0.88023269176483
vn 0.36926701664925 0 0.92932337522507
vn 0.31448248028755 0 0.94926333427429
vn 0.20228174328804 0 0.9793273806572
vn 0.14486555755138 0 0.98945134878159
vn 0.02914976142347 0 0.99957501888275
vn -0.02914984337986 0 0.99957501888275
vn -0.14486558735371 0 0.98945134878159
vn -0.2022816836834 0 0.9793273806572
vn -0.31448242068291 0 0.94926327466965
vn -0.36926707625389 0 0.92932331562042
vn -0.47454252839088 0 0.88023257255554
vn -0.52503329515457 0 0.85108172893524
vn -0.62018465995789 0 0.7844557762146
vn -0.66484540700912 0 0.74698096513748
vn -0.74698108434677 0 0.66484528779984
vn -0.78445613384247 0 0.62018436193466
vn -0.85108196735382 0 0.52503281831741
vn -0.88023281097412 0 0.47454217076302
vn -0.92932331562042 0 0.36926707625389
vn -0.94926315546036 0 0.31448274850845
vn -0.97932714223862 0 0.20228265225887
vn -0.98945116996765 0 0.14486685395241
vn -0.9995750784874 0 0.02915035001934
vn -0.9995750784874 0 -0.02915035001934
vn -0.98945116996765 0 -0.14486686885357
vn -0.97932714223862 0 -0.20228265225887
vn -0.94926315546036 0 -0.31448268890381
vn -0.92932331562042 0 -0.36926707625389
vn -0.88023281097412 0 -0.47454217076302
vn -0.85108196735382 0 -0.52503287792206
vn -0.78445613384247 0 -0.62018436193466
vn -0.74698108434677 0 -0.66484528779984
vn -0.66484534740448 0 -0.74698096513748
vn -0.62018471956253 0 -0.7844557762146
vn -0.52503329515457 0 -0.85108172893524
vn -0.47454255819321 0 -0.88023257255554
vn -0.36926704645157 0 -0.92932331562042
vn -0.31448242068291 0 -0.94926327466965
vn -0.2022816836834 0 -0.9793273806572
vn -0.14486558735371 0 -0.98945134878159
vn -0.02914984337986 0 -0.99957501888275
vn 0.02914976142347 0 -0.99957501888275
vn 0.14486555755138 0 -0.98945134878159
vn 0.20228174328804 0 -0.9793273806572
vn 0.31448245048523 0 -0.94926333427429
vn 0.36926701664925 0 -0.92932337522507
vn 0.47454243898392 0 -0.88023263216019
vn 0.52503323554993 0 -0.85108172893524
vn 0.62018483877182 0 -0.78445571660995
vn 0.66484576463699 0 -0.7469807267189
vn 0.74698120355606 0 -0.6648451089859
vn 0.78445595502853 0 -0.62018460035324
vn 0.85108172893524 0 -0.52503323554993
vn 0.88023263216019 0 -0.47454234957695
vn 0.92932337522507 0 -0.36926680803299
vn 0.94926333427429 0 -0.31448221206665
vn 0.97932732105255 0 -0.20228224992752
vn 0.98945116996765 0 -0.14486686885357
vn 0.9995750784874 0 -0.02915049344301
vn 0 -1 0
vn 0 -1 0
vn 0 -1 0
vn 0 1 0
vn 0 1 0
vn 0 1 0
# 78 normals

vt 2.94720268249512 -10.23445510864258 0
vt 2.91428422927856 11.24152755737305 0
vt 3.06620478630066 11.24176025390625 0
vt 0 1 0
vt 2.79527831077576 -10.23466682434082 0
vt 2.76236510276794 11.24129295349121 0
vt 2.6433539390564 -10.23488235473633 0
vt 2.61044454574585 11.24105834960938 0
vt 2.49143123626709 -10.23509788513184 0
vt 2.45852541923523 11.24082946777344 0
vt 2.33950638771057 -10.23531150817871 0
vt 2.30660486221313 11.24059867858887 0
vt 2.18758320808411 -10.23552322387695 0
vt 2.15468549728394 11.24036979675293 0
vt 2.0356616973877 -10.23573875427246 0
vt 2.00276613235474 11.24013900756836 0
vt 1.88373863697052 -10.2359504699707 0
vt 1.85084712505341 11.23991394042969 0
vt 1.73181688785553 -10.23616600036621 0
vt 1.69892823696136 11.23968887329102 0
vt 1.57989406585693 -10.23638343811035 0
vt 1.54700887203217 11.23946189880371 0
vt 1.42797183990479 -10.23659133911133 0
vt 1.39508962631226 11.23923301696777 0
vt 1.27605020999908 -10.23681259155273 0
vt 1.24317014217377 11.239013671875 0
vt 1.1241295337677 -10.23703193664551 0
vt 1.09124994277954 11.23879051208496 0
vt 0.9722090959549 -10.23724174499512 0
vt 0.93933057785034 11.23856735229492 0
vt 0.82028859853744 -10.23746299743652 0
vt 0.78741002082825 11.23834419250488 0
vt 0.66836929321289 -10.23768043518066 0
vt 0.63549077510834 11.23812484741211 0
vt 0.51644891500473 -10.2378978729248 0
vt 0.48356905579567 11.23790740966797 0
vt 0.3645271062851 -10.23811912536621 0
vt 0.33164855837822 11.2376880645752 0
vt 0.21260724961758 -10.23834419250488 0
vt 0.17972871661186 11.23746871948242 0
vt 0.06068742275238 -10.23855972290039 0
vt 0.02780821546912 11.23725128173828 0
vt -0.09123242646456 -10.2387809753418 0
vt -0.12411228567362 11.23703384399414 0
vt -0.24315229058266 -10.2390079498291 0
vt -0.27603402733803 11.23681640625 0
vt -0.39507150650024 -10.23922729492188 0
vt -0.42795446515083 11.23660087585449 0
vt -0.54699075222015 -10.23945426940918 0
vt -0.5798756480217 11.23638534545898 0
vt -0.69890987873077 -10.23967933654785 0
vt -0.73179751634598 11.23617553710938 0
vt -0.85082966089249 -10.23990631103516 0
vt -0.88371938467026 11.23595809936523 0
vt -1.00274908542633 -10.24013328552246 0
vt -1.03564214706421 11.23574256896973 0
vt -1.1546688079834 -10.24036598205566 0
vt -1.18756473064423 11.23552894592285 0
vt -1.30658853054047 -10.24059295654297 0
vt -1.33948791027069 11.23531723022461 0
vt -1.45850908756256 -10.24082946777344 0
vt -1.49141144752502 11.23510360717773 0
vt -1.61042988300323 -10.24105834960938 0
vt -1.64333534240723 11.23488807678223 0
vt -1.76234948635101 -10.24129295349121 0
vt -1.79525876045227 11.23467445373535 0
vt -1.91426932811737 -10.24152755737305 0
vt -1.94718265533447 11.23446083068848 0
vt -2.06618976593018 -10.24176025390625 0
vt -2.09910774230957 11.2342472076416 0
vt -2.21810984611511 -10.24199295043945 0
vt -2.25103282928467 11.23403739929199 0
vt 3.09912657737732 -10.23424530029297 0
vt 3.21812510490417 11.24199295043945 0
vt 1.28102326393127 0.5 0
vt 1.26915347576141 0.63563376665115 0
vt 0.49999445676804 0.5 0
vt 1.23390126228333 0.7671320438385 0
vt 1.1763631105423 0.89051443338394 0
vt 1.09827959537506 1.00203883647919 0
vt 1.00200951099396 1.09830284118652 0
vt 0.89050889015198 1.17639255523682 0
vt 0.76711452007294 1.23392677307129 0
vt 0.63561624288559 1.26916313171387 0
vt 0.49999445676804 1.28098106384277 0
vt 0.36436080932617 1.26916313171387 0
vt 0.23286253213882 1.23392677307129 0
vt 0.1094800978899 1.17639255523682 0
vt -0.00204437342472 1.09830284118652 0
vt -0.09830839186907 1.00203883647919 0
vt -0.17639817297459 0.89051443338394 0
vt -0.23393240571022 0.7671320438385 0
vt -0.26916834712029 0.63563376665115 0
vt -0.28098663687706 0.5 0
vt -0.26916834712029 0.36437857151031 0
vt -0.23393240571022 0.23287999629974 0
vt -0.17639817297459 0.10950982570648 0
vt -0.09830839186907 -0.00201463699341 0
vt -0.00204437342472 -0.09828472137451 0
vt 0.1094800978899 -0.17636847496033 0
vt 0.23286253213882 -0.23390626907349 0
vt 0.36436080932617 -0.26915860176086 0
vt 0.49999445676804 -0.28102827072144 0
vt 0.63561624288559 -0.26915860176086 0
vt 0.76711452007294 -0.23390626907349 0
vt 0.89050889015198 -0.17636847496033 0
vt 1.00200951099396 -0.09828472137451 0
vt 1.09827959537506 -0.00201463699341 0
vt 1.1763631105423 0.10950982570648 0
vt 1.23390126228333 0.23287999629974 0
vt 1.26915347576141 0.36437857151031 0
vt 3.25105237960815 -10.23403739929199 0
# 112 texture coordinates

o liquide_tube_normal_4
usemtl Liquide 7
f 2/3/3 72/2/2 71/1/1
f 72/2/2 70/6/5 69/5/4
f 70/6/5 68/8/7 67/7/6
f 68/8/7 66/10/9 65/9/8
f 66/10/9 64/12/11 63/11/10
f 64/12/11 62/14/13 61/13/12
f 62/14/13 60/16/15 59/15/14
f 60/16/15 58/18/17 57/17/16
f 58/18/17 56/20/19 55/19/18
f 56/20/19 54/22/21 53/21/20
f 54/22/21 52/24/23 51/23/22
f 52/24/23 50/26/25 49/25/24
f 50/26/25 48/28/27 47/27/26
f 48/28/27 46/30/29 45/29/28
f 46/30/29 44/32/31 43/31/30
f 44/32/31 42/34/33 41/33/32
f 42/34/33 40/36/35 39/35/34
f 40/36/35 38/38/37 37/37/36
f 38/38/37 36/40/39 35/39/38
f 36/40/39 34/42/41 33/41/40
f 34/42/41 32/44/43 31/43/42
f 32/44/43 30/46/45 29/45/44
f 30/46/45 28/48/47 27/47/46
f 28/48/47 26/50/49 25/49/48
f 26/50/49 24/52/51 23/51/50
f 24/52/51 22/54/53 21/53/52
f 22/54/53 20/56/55 19/55/54
f 20/56/55 18/58/57 17/57/56
f 18/58/57 16/60/59 15/59/58
f 16/60/59 14/62/61 13/61/60
f 14/62/61 12/64/63 11/63/62
f 12/64/63 10/66/65 9/65/64
f 10/66/65 8/68/67 7/67/66
f 8/68/67 6/70/69 5/69/68
f 6/70/69 4/72/71 3/71/70
f 4/74/71 2/3/3 1/73/72
f 73/77/73 3/76/73 1/75/73
f 73/77/73 5/78/74 3/76/73
f 73/77/73 7/79/74 5/78/74
f 73/77/73 9/80/74 7/79/74
f 73/77/73 11/81/74 9/80/74
f 73/77/73 13/82/74 11/81/74
f 73/77/73 15/83/74 13/82/74
f 73/77/73 17/84/74 15/83/74
f 73/77/73 19/85/73 17/84/74
f 73/77/73 21/86/75 19/85/73
f 73/77/73 23/87/75 21/86/75
f 73/77/73 25/88/75 23/87/75
f 73/77/73 27/89/75 25/88/75
f 73/77/73 29/90/75 27/89/75
f 73/77/73 31/91/75 29/90/75
f 73/77/73 33/92/75 31/91/75
f 73/77/73 35/93/75 33/92/75
f 73/77/73 37/94/73 35/93/75
f 73/77/73 39/95/73 37/94/73
f 73/77/73 41/96/73 39/95/73
f 73/77/73 43/97/73 41/96/73
f 73/77/73 45/98/73 43/97/73
f 73/77/73 47/99/73 45/98/73
f 73/77/73 49/100/73 47/99/73
f 73/77/73 51/101/73 49/100/73
f 73/77/73 53/102/73 51/101/73
f 73/77/73 55/103/73 53/102/73
f 73/77/73 57/104/73 55/103/73
f 73/77/73 59/105/73 57/104/73
f 73/77/73 61/106/73 59/105/73
f 73/77/73 63/107/73 61/106/73
f 73/77/73 65/108/73 63/107/73
f 73/77/73 67/109/73 65/108/73
f 73/77/73 69/110/73 67/109/73
f 73/77/73 71/111/73 69/110/73
f 73/77/73 1/75/73 71/111/73
f 74/77/76 68/109/76 70/110/76
f 74/77/76 70/110/76 72/111/76
f 74/77/76 72/111/76 2/75/76
f 74/77/76 2/75/76 4/76/76
f 74/77/76 4/76/76 6/78/76
f 74/77/76 6/78/76 8/79/76
f 74/77/76 8/79/76 10/80/76
f 74/77/76 10/80/76 12/81/76
f 74/77/76 12/81/76 14/82/76
f 74/77/76 14/82/76 16/83/76
f 74/77/76 16/83/76 18/84/76
f 74/77/76 18/84/76 20/85/76
f 74/77/76 20/85/76 22/86/77
f 74/77/76 22/86/77 24/87/77
f 74/77/76 24/87/77 26/88/77
f 74/77/76 26/88/77 28/89/77
f 74/77/76 28/89/77 30/90/77
f 74/77/76 30/90/77 32/91/77
f 74/77/76 32/91/77 34/92/77
f 74/77/76 34/92/77 36/93/76
f 74/77/76 36/93/76 38/94/76
f 74/77/76 38/94/76 40/95/78
f 74/77/76 40/95/78 42/96/78
f 74/77/76 42/96/78 44/97/78
f 74/77/76 44/97/78 46/98/78
f 74/77/76 46/98/78 48/99/78
f 74/77/76 48/99/78 50/100/78
f 74/77/76 50/100/78 52/101/78
f 74/77/76 52/101/78 54/102/78
f 74/77/76 54/102/78 56/103/76
f 74/77/76 56/103/76 58/104/76
f 74/77/76 58/104/76 60/105/76
f 74/77/76 60/105/76 62/106/76
f 74/77/76 62/106/76 64/107/76
f 74/77/76 64/107/76 66/108/76
f 74/77/76 66/108/76 68/109/76
f 1/73/72 2/3/3 71/1/1
f 71/1/1 72/2/2 69/5/4
f 69/5/4 70/6/5 67/7/6
f 67/7/6 68/8/7 65/9/8
f 65/9/8 66/10/9 63/11/10
f 63/11/10 64/12/11 61/13/12
f 61/13/12 62/14/13 59/15/14
f 59/15/14 60/16/15 57/17/16
f 57/17/16 58/18/17 55/19/18
f 55/19/18 56/20/19 53/21/20
f 53/21/20 54/22/21 51/23/22
f 51/23/22 52/24/23 49/25/24
f 49/25/24 50/26/25 47/27/26
f 47/27/26 48/28/27 45/29/28
f 45/29/28 46/30/29 43/31/30
f 43/31/30 44/32/31 41/33/32
f 41/33/32 42/34/33 39/35/34
f 39/35/34 40/36/35 37/37/36
f 37/37/36 38/38/37 35/39/38
f 35/39/38 36/40/39 33/41/40
f 33/41/40 34/42/41 31/43/42
f 31/43/42 32/44/43 29/45/44
f 29/45/44 30/46/45 27/47/46
f 27/47/46 28/48/47 25/49/48
f 25/49/48 26/50/49 23/51/50
f 23/51/50 24/52/51 21/53/52
f 21/53/52 22/54/53 19/55/54
f 19/55/54 20/56/55 17/57/56
f 17/57/56 18/58/57 15/59/58
f 15/59/58 16/60/59 13/61/60
f 13/61/60 14/62/61 11/63/62
f 11/63/62 12/64/63 9/65/64
f 9/65/64 10/66/65 7/67/66
f 7/67/66 8/68/67 5/69/68
f 5/69/68 6/70/69 3/71/70
f 3/112/70 4/74/71 1/73/72

