# WaveFront *.obj file (generated by Cinema 4D)

mtllib ./liquid_small_tube_2.mtl

v 0.14638921618462 -0.42154365777969 0.67629659175873
v 0.14638921618462 0.79057890176773 0.67629659175873
v 0.14587458968163 -0.42154365777969 0.67041438817978
v 0.14587458968163 0.79057890176773 0.67041438817978
v 0.14434634149075 -0.42154365777969 0.66471087932587
v 0.14434634149075 0.79057890176773 0.66471087932587
v 0.14185091853142 -0.42154365777969 0.659359395504
v 0.14185091853142 0.79057890176773 0.659359395504
v 0.1384641379118 -0.42154365777969 0.65452259778976
v 0.1384641379118 0.79057890176773 0.65452259778976
v 0.13428889214993 -0.42154365777969 0.65034735202789
v 0.13428889214993 0.79057890176773 0.65034735202789
v 0.12945206463337 -0.42154365777969 0.64696055650711
v 0.12945206463337 0.79057890176773 0.64696055650711
v 0.12410060316324 -0.42154365777969 0.64446514844894
v 0.12410060316324 0.79057890176773 0.64446514844894
v 0.11839711666107 -0.42154365777969 0.6429368853569
v 0.11839711666107 0.79057890176773 0.6429368853569
v 0.11251490563154 -0.42154365777969 0.64242225885391
v 0.11251490563154 0.79057890176773 0.64242225885391
v 0.10663269460201 -0.42154365777969 0.6429368853569
v 0.10663269460201 0.79057890176773 0.6429368853569
v 0.10092921555042 -0.42154365777969 0.64446514844894
v 0.10092921555042 0.79057890176773 0.64446514844894
v 0.0955777540803 -0.42154365777969 0.64696055650711
v 0.0955777540803 0.79057890176773 0.64696055650711
v 0.09074092656374 -0.42154365777969 0.65034735202789
v 0.09074092656374 0.79057890176773 0.65034735202789
v 0.08656568825245 -0.42154365777969 0.65452259778976
v 0.08656568825245 0.79057890176773 0.65452259778976
v 0.08317890018225 -0.42154365777969 0.659359395504
v 0.08317890018225 0.79057890176773 0.659359395504
v 0.08068347722292 -0.42154365777969 0.66471087932587
v 0.08068347722292 0.79057890176773 0.66471087932587
v 0.07915522903204 -0.42154365777969 0.67041438817978
v 0.07915522903204 0.79057890176773 0.67041438817978
v 0.07864060252905 -0.42154365777969 0.67629659175873
v 0.07864060252905 0.79057890176773 0.67629659175873
v 0.07915522903204 -0.42154365777969 0.68217879533768
v 0.07915522903204 0.79057890176773 0.68217879533768
v 0.08068347722292 -0.42154365777969 0.68788224458694
v 0.08068347722292 0.79057890176773 0.68788224458694
v 0.08317890018225 -0.42154365777969 0.69323372840881
v 0.08317890018225 0.79057890176773 0.69323372840881
v 0.08656568825245 -0.42154365777969 0.69807052612305
v 0.08656568825245 0.79057890176773 0.69807052612305
v 0.09074092656374 -0.42154365777969 0.70224577188492
v 0.09074092656374 0.79057890176773 0.70224577188492
v 0.0955777540803 -0.42154365777969 0.7056325674057
v 0.0955777540803 0.79057890176773 0.7056325674057
v 0.10092921555042 -0.42154365777969 0.70812797546387
v 0.10092921555042 0.79057890176773 0.70812797546387
v 0.10663269460201 -0.42154365777969 0.70965623855591
v 0.10663269460201 0.79057890176773 0.70965623855591
v 0.11251490563154 -0.42154365777969 0.7101708650589
v 0.11251490563154 0.79057890176773 0.7101708650589
v 0.11839711666107 -0.42154365777969 0.70965623855591
v 0.11839711666107 0.79057890176773 0.70965623855591
v 0.12410060316324 -0.42154365777969 0.70812797546387
v 0.12410060316324 0.79057890176773 0.70812797546387
v 0.12945206463337 -0.42154365777969 0.7056325674057
v 0.12945206463337 0.79057890176773 0.7056325674057
v 0.13428889214993 -0.42154365777969 0.70224577188492
v 0.13428889214993 0.79057890176773 0.70224577188492
v 0.1384641379118 -0.42154365777969 0.69807052612305
v 0.1384641379118 0.79057890176773 0.69807052612305
v 0.14185091853142 -0.42154365777969 0.69323372840881
v 0.14185091853142 0.79057890176773 0.69323372840881
v 0.14434634149075 -0.42154365777969 0.68788224458694
v 0.14434634149075 0.79057890176773 0.68788224458694
v 0.14587458968163 -0.42154365777969 0.68217879533768
v 0.14587458968163 0.79057890176773 0.68217879533768
v 0.11251490563154 0.79057890176773 0.67629659175873
v 0.11251490563154 -0.42154365777969 0.67629659175873
# 74 vertices

vn 0.9995750784874 0 -0.02915051579475
vn 0.9995750784874 0 0.02915051579475
vn 0.98945116996765 0 -0.14486666023731
vn 0.9793273806572 0 -0.20228178799152
vn 0.94926363229752 0 -0.31448131799698
vn 0.92932379245758 0 -0.36926576495171
vn 0.88023293018341 0 -0.47454184293747
vn 0.8510816693306 0 -0.52503341436386
vn 0.78445541858673 0 -0.62018519639969
vn 0.74698078632355 0 -0.6648456454277
vn 0.66484540700912 0 -0.74698096513748
vn 0.62018471956253 0 -0.7844557762146
vn 0.52503269910812 0 -0.85108208656311
vn 0.4745412170887 0 -0.88023334741592
vn 0.36926633119583 0 -0.929323554039
vn 0.31448322534561 0 -0.94926297664642
vn 0.20228397846222 0 -0.97932690382004
vn 0.14486771821976 0 -0.98945105075836
vn 0.02915047854185 0 -0.9995750784874
vn -0.02915047854185 0 -0.9995750784874
vn -0.14486782252789 0 -0.98945105075836
vn -0.20228420197964 0 -0.97932684421539
vn -0.31448346376419 0 -0.94926291704178
vn -0.36926648020744 0 -0.929323554039
vn -0.4745412170887 0 -0.88023334741592
vn -0.52503269910812 0 -0.85108208656311
vn -0.62018495798111 0 -0.78445553779602
vn -0.66484588384628 0 -0.74698054790497
vn -0.74698090553284 0 -0.66484546661377
vn -0.78445512056351 0 -0.62018543481827
vn -0.85108131170273 0 -0.52503401041031
vn -0.88023275136948 0 -0.47454217076302
vn -0.92932379245758 0 -0.36926576495171
vn -0.94926363229752 0 -0.31448131799698
vn -0.9793273806572 0 -0.20228178799152
vn -0.98945116996765 0 -0.14486666023731
vn -0.9995750784874 0 -0.02915051579475
vn -0.9995750784874 0 0.02915051579475
vn -0.98945105075836 0 0.1448675096035
vn -0.97932702302933 0 0.2022834867239
vn -0.94926309585571 0 0.31448301672935
vn -0.929323554039 0 0.36926659941673
vn -0.88023275136948 0 0.47454217076302
vn -0.85108131170273 0 0.52503401041031
vn -0.78445512056351 0 0.62018543481827
vn -0.74698090553284 0 0.66484546661377
vn -0.66484588384628 0 0.74698054790497
vn -0.62018495798111 0 0.78445553779602
vn -0.52503269910812 0 0.85108208656311
vn -0.4745412170887 0 0.88023334741592
vn -0.36926648020744 0 0.929323554039
vn -0.31448346376419 0 0.94926291704178
vn -0.20228420197964 0 0.97932684421539
vn -0.14486782252789 0 0.98945105075836
vn -0.02915047854185 0 0.9995750784874
vn 0.02915047854185 0 0.9995750784874
vn 0.14486771821976 0 0.98945105075836
vn 0.20228397846222 0 0.97932690382004
vn 0.31448322534561 0 0.94926297664642
vn 0.36926633119583 0 0.929323554039
vn 0.4745412170887 0 0.88023334741592
vn 0.52503269910812 0 0.85108208656311
vn 0.62018471956253 0 0.7844557762146
vn 0.66484540700912 0 0.74698096513748
vn 0.74698078632355 0 0.6648456454277
vn 0.78445541858673 0 0.62018519639969
vn 0.8510816693306 0 0.52503341436386
vn 0.88023293018341 0 0.47454184293747
vn 0.929323554039 0 0.36926659941673
vn 0.94926309585571 0 0.31448301672935
vn 0.97932702302933 0 0.2022834867239
vn 0.98945105075836 0 0.1448675096035
vn 0 1 0
vn 0 1 0
vn 0 1 0
vn 0 -1 0
vn 0 -1 0
vn 0 -1 0
# 78 normals

vt 1.7650021314621 7.54552936553955 0
vt 1.7141969203949 -6.55655002593994 0
vt 1.64543569087982 -6.55635070800781 0
vt 0 1 0
vt 1.69623732566834 7.54577541351318 0
vt 1.57667350769043 -6.55614852905273 0
vt 1.62747180461884 7.54602336883545 0
vt 1.50791120529175 -6.55594730377197 0
vt 1.55870711803436 7.5462703704834 0
vt 1.43914818763733 -6.55574512481689 0
vt 1.48994147777557 7.54651927947998 0
vt 1.37038421630859 -6.55553817749023 0
vt 1.4211767911911 7.54676532745361 0
vt 1.30162048339844 -6.55533313751221 0
vt 1.3524112701416 7.54701137542725 0
vt 1.23285567760468 -6.55512809753418 0
vt 1.28364646434784 7.54725933074951 0
vt 1.1640909910202 -6.55491828918457 0
vt 1.21488082408905 7.54750728607178 0
vt 1.09532451629639 -6.55471038818359 0
vt 1.14611625671387 7.54775238037109 0
vt 1.02655899524689 -6.55449771881104 0
vt 1.07735061645508 7.54799842834473 0
vt 0.95779258012772 -6.55428218841553 0
vt 1.00858581066132 7.54824447631836 0
vt 0.88902533054352 -6.55406951904297 0
vt 0.93982028961182 7.54848957061768 0
vt 0.82025724649429 -6.5538501739502 0
vt 0.87105560302734 7.54873466491699 0
vt 0.75148993730545 -6.55363464355469 0
vt 0.8022900223732 7.54898071289062 0
vt 0.6827210187912 -6.55341625213623 0
vt 0.73352527618408 7.54922676086426 0
vt 0.61395293474197 -6.55319595336914 0
vt 0.66475969552994 7.54947185516357 0
vt 0.54518395662308 -6.55297470092773 0
vt 0.59599494934082 7.54971694946289 0
vt 0.4764150083065 -6.5527515411377 0
vt 0.52723026275635 7.54996299743652 0
vt 0.40764564275742 -6.55252552032471 0
vt 0.4584646821022 7.55020809173584 0
vt 0.33887630701065 -6.55229949951172 0
vt 0.38969954848289 7.55045413970947 0
vt 0.27010652422905 -6.55207443237305 0
vt 0.32093480229378 7.55069923400879 0
vt 0.20133674144745 -6.55184459686279 0
vt 0.25216963887215 7.55094337463379 0
vt 0.13256695866585 -6.55161571502686 0
vt 0.18340493738651 7.55119037628174 0
vt 0.06379674375057 -6.55138683319092 0
vt 0.11463977396488 7.55143642425537 0
vt -0.00497345579788 -6.55115413665771 0
vt 0.04587462544441 7.55168342590332 0
vt -0.07374366372824 -6.55092144012451 0
vt -0.02289010025561 7.55192852020264 0
vt -0.14251345396042 -6.55068588256836 0
vt -0.09165524691343 7.55217552185059 0
vt -0.21128365397453 -6.55044937133789 0
vt -0.16041998565197 7.55242252349854 0
vt -0.28005385398865 -6.55020999908447 0
vt -0.22918471693993 7.55266761779785 0
vt -0.34882405400276 -6.54997062683105 0
vt -0.29794943332672 7.5529146194458 0
vt -0.41759425401688 -6.54973220825195 0
vt -0.36671459674835 7.55315971374512 0
vt -0.4863640666008 -6.54948902130127 0
vt -0.43547931313515 7.55340671539307 0
vt -0.55513381958008 -6.5492467880249 0
vt -0.50424402952194 7.55365371704102 0
vt -0.62390321493149 -6.54900074005127 0
vt -0.57300877571106 7.55389976501465 0
vt -0.69267296791077 -6.54875469207764 0
vt -0.64177393913269 7.55414581298828 0
vt -0.76144194602966 -6.548508644104 0
vt 0.99240112304688 0.58683013916016 1
vt 1 0.5 1
vt 0.5 0.5 1
vt 0.96983337402344 0.67101287841797 1
vt 0.93299865722656 0.75 1
vt 0.88301086425781 0.82139587402344 1
vt 0.82138061523438 0.88302421569824 1
vt 0.74998474121094 0.93301391601562 1
vt 0.67100524902344 0.96984672546387 1
vt 0.58682250976562 0.99240434169769 1
vt 0.5 0.99996948242188 1
vt 0.41316986083984 0.99240434169769 1
vt 0.32898712158203 0.96984672546387 1
vt 0.24999618530273 0.93301391601562 1
vt 0.17860412597656 0.88302421569824 1
vt 0.11697578430176 0.82139587402344 1
vt 0.06698608398438 0.75 1
vt 0.03015327453613 0.67101287841797 1
vt 0.00759470462799 0.58683013916016 1
vt 0.00003051757812 0.5 1
vt 0.00759470462799 0.41317749023438 1
vt 0.03015327453613 0.32899475097656 1
vt 0.06698608398438 0.25 1
vt 0.11697578430176 0.17861938476562 1
vt 0.17860412597656 0.11698913574219 1
vt 0.24999618530273 0.06700134277344 1
vt 0.32898712158203 0.03016662597656 1
vt 0.41316986083984 0.00759887695312 1
vt 0.5 0 1
vt 0.58682250976562 0.00759887695312 1
vt 0.67100524902344 0.03016662597656 1
vt 0.74998474121094 0.06700134277344 1
vt 0.82138061523438 0.11698913574219 1
vt 0.88301086425781 0.17861938476562 1
vt 0.93299865722656 0.25 1
vt 0.96983337402344 0.32899475097656 1
vt 0.99240112304688 0.41317749023438 1
vt 0.02506113052368 -101.650390625 0.00313264131546
vt -12528.75 -255 -14.430908203125
vt -1405.46875 1.00013303756714 -401.5625
vt -0.00004801526666 1.01575088500977 16384
vt -0.71053820848465 7.55439186096191 0
# 116 texture coordinates

o liquide_petit_tube_2
usemtl Liquide 12
f 4/3/3 2/2/2 1/1/1
f 6/6/5 4/3/3 3/5/4
f 8/8/7 6/6/5 5/7/6
f 10/10/9 8/8/7 7/9/8
f 12/12/11 10/10/9 9/11/10
f 14/14/13 12/12/11 11/13/12
f 16/16/15 14/14/13 13/15/14
f 18/18/17 16/16/15 15/17/16
f 20/20/19 18/18/17 17/19/18
f 22/22/21 20/20/19 19/21/20
f 24/24/23 22/22/21 21/23/22
f 26/26/25 24/24/23 23/25/24
f 28/28/27 26/26/25 25/27/26
f 30/30/29 28/28/27 27/29/28
f 32/32/31 30/30/29 29/31/30
f 34/34/33 32/32/31 31/33/32
f 36/36/35 34/34/33 33/35/34
f 38/38/37 36/36/35 35/37/36
f 40/40/39 38/38/37 37/39/38
f 42/42/41 40/40/39 39/41/40
f 44/44/43 42/42/41 41/43/42
f 46/46/45 44/44/43 43/45/44
f 48/48/47 46/46/45 45/47/46
f 50/50/49 48/48/47 47/49/48
f 52/52/51 50/50/49 49/51/50
f 54/54/53 52/52/51 51/53/52
f 56/56/55 54/54/53 53/55/54
f 58/58/57 56/56/55 55/57/56
f 60/60/59 58/58/57 57/59/58
f 62/62/61 60/60/59 59/61/60
f 64/64/63 62/62/61 61/63/62
f 66/66/65 64/64/63 63/65/64
f 68/68/67 66/66/65 65/67/66
f 70/70/69 68/68/67 67/69/68
f 72/72/71 70/70/69 69/71/70
f 2/74/2 72/72/71 71/73/72
f 73/77/73 2/76/73 4/75/73
f 73/77/73 4/75/73 6/78/73
f 73/77/73 6/78/73 8/79/73
f 73/77/73 8/79/73 10/80/73
f 73/77/73 10/80/73 12/81/73
f 73/77/73 12/81/73 14/82/73
f 73/77/73 14/82/73 16/83/73
f 73/77/73 16/83/73 18/84/73
f 73/77/73 18/84/73 20/85/73
f 73/77/73 20/85/73 22/86/74
f 73/77/73 22/86/74 24/87/74
f 73/77/73 24/87/74 26/88/74
f 73/77/73 26/88/74 28/89/74
f 73/77/73 28/89/74 30/90/74
f 73/77/73 30/90/74 32/91/74
f 73/77/73 32/91/74 34/92/74
f 73/77/73 34/92/74 36/93/73
f 73/77/73 36/93/73 38/94/73
f 73/77/73 38/94/73 40/95/75
f 73/77/73 40/95/75 42/96/75
f 73/77/73 42/96/75 44/97/75
f 73/77/73 44/97/75 46/98/75
f 73/77/73 46/98/75 48/99/75
f 73/77/73 48/99/75 50/100/75
f 73/77/73 50/100/75 52/101/75
f 73/77/73 52/101/75 54/102/75
f 73/77/73 54/102/75 56/103/73
f 73/77/73 56/103/73 58/104/73
f 73/77/73 58/104/73 60/105/73
f 73/77/73 60/105/73 62/106/73
f 73/77/73 62/106/73 64/107/73
f 73/77/73 64/107/73 66/108/73
f 73/77/73 66/108/73 68/109/73
f 73/77/73 68/109/73 70/110/73
f 73/77/73 70/110/73 72/111/73
f 73/77/73 72/111/73 2/76/73
f 74/77/76 3/75/76 1/76/76
f 74/77/76 5/78/77 3/75/76
f 74/77/76 7/79/77 5/78/77
f 74/77/76 9/80/77 7/79/77
f 74/77/76 11/81/77 9/80/77
f 74/77/76 13/82/77 11/81/77
f 74/77/76 15/83/77 13/82/77
f 74/77/76 17/84/77 15/83/77
f 74/77/76 19/85/76 17/84/77
f 74/77/76 21/86/78 19/85/76
f 74/77/76 23/87/78 21/86/78
f 74/77/76 25/88/78 23/87/78
f 74/77/76 27/89/78 25/88/78
f 74/77/76 29/90/78 27/89/78
f 74/77/76 31/91/78 29/90/78
f 74/77/76 33/92/78 31/91/78
f 74/77/76 35/93/78 33/92/78
f 74/77/76 37/94/76 35/93/78
f 74/77/76 39/95/76 37/94/76
f 74/77/76 41/96/76 39/95/76
f 74/77/76 43/97/76 41/96/76
f 74/77/76 45/98/76 43/97/76
f 74/77/76 47/99/76 45/98/76
f 74/77/76 49/100/76 47/99/76
f 74/77/76 51/101/76 49/100/76
f 74/77/76 53/102/76 51/101/76
f 74/77/76 55/103/76 53/102/76
f 74/77/76 57/104/76 55/103/76
f 74/77/76 59/105/76 57/104/76
f 74/77/76 61/106/76 59/105/76
f 74/77/76 63/107/76 61/106/76
f 74/77/76 65/108/76 63/107/76
f 74/77/76 67/109/76 65/108/76
f 74/77/76 69/110/76 67/109/76
f 74/77/76 71/111/76 69/110/76
f 74/77/76 1/76/76 71/111/76
f 3/5/4 4/3/3 1/1/1
f 5/7/6 6/6/5 3/5/4
f 7/9/8 8/8/7 5/7/6
f 9/11/10 10/10/9 7/9/8
f 11/13/12 12/12/11 9/11/10
f 13/15/14 14/14/13 11/13/12
f 15/17/16 16/16/15 13/15/14
f 17/19/18 18/18/17 15/17/16
f 19/21/20 20/20/19 17/19/18
f 21/23/22 22/22/21 19/21/20
f 23/25/24 24/24/23 21/23/22
f 25/27/26 26/26/25 23/25/24
f 27/29/28 28/28/27 25/27/26
f 29/31/30 30/30/29 27/29/28
f 31/33/32 32/32/31 29/31/30
f 33/35/34 34/34/33 31/33/32
f 35/37/36 36/36/35 33/35/34
f 37/39/38 38/38/37 35/37/36
f 39/41/40 40/40/39 37/39/38
f 41/43/42 42/42/41 39/41/40
f 43/45/44 44/44/43 41/43/42
f 45/47/46 46/46/45 43/45/44
f 47/49/48 48/48/47 45/47/46
f 49/51/50 50/50/49 47/49/48
f 51/53/52 52/52/51 49/51/50
f 53/55/54 54/54/53 51/53/52
f 55/57/56 56/56/55 53/55/54
f 57/59/58 58/58/57 55/57/56
f 59/61/60 60/60/59 57/59/58
f 61/63/62 62/62/61 59/61/60
f 63/65/64 64/64/63 61/63/62
f 65/67/66 66/66/65 63/65/64
f 67/69/68 68/68/67 65/67/66
f 69/71/70 70/70/69 67/69/68
f 71/73/72 72/72/71 69/71/70
f 1/116/1 2/74/2 71/73/72

