# WaveFront *.obj file (generated by Cinema 4D)

mtllib ./liquid_tube_2.mtl

v -0.04638058692217 -0.41907128691673 -1.02855455875397
v -0.04638058692217 0.79057890176773 -1.02855455875397
v -0.05165182426572 -0.41907128691673 -1.0398588180542
v -0.05165182426572 0.79057890176773 -1.0398588180542
v -0.05880593881011 0.79057890176773 -1.05007600784302
v -0.1136200428009 -0.41907128691673 -1.00408148765564
v -0.05880593881011 -0.41907128691673 -1.05007600784302
v -0.1136200428009 0.79057890176773 -1.00408148765564
v -0.04315238445997 0.79057890176773 -0.99165612459183
v -0.04315238445997 -0.41907128691673 -0.99165612459183
v -0.04638058692217 0.79057890176773 -0.97960829734802
v -0.04638058692217 -0.41907128691673 -0.97960829734802
v -0.05165182426572 0.79057890176773 -0.96830409765244
v -0.05165182426572 -0.41907128691673 -0.96830409765244
v -0.05880593881011 0.79057890176773 -0.95808696746826
v -0.05880593881011 -0.41907128691673 -0.95808696746826
v -0.06762554496527 0.79057890176773 -0.94926732778549
v -0.06762554496527 -0.41907128691673 -0.94926732778549
v -0.07784267514944 0.79057890176773 -0.94211322069168
v -0.07784267514944 -0.41907128691673 -0.94211322069168
v -0.08914688229561 0.79057890176773 -0.93684202432632
v -0.08914688229561 -0.41907128691673 -0.93684202432632
v -0.10119469463825 0.79057890176773 -0.93361377716064
v -0.10119469463825 -0.41907128691673 -0.93361377716064
v -0.1136200428009 0.79057890176773 -0.93252670764923
v -0.1136200428009 -0.41907128691673 -0.93252670764923
v -0.12604539096355 0.79057890176773 -0.93361377716064
v -0.12604539096355 -0.41907128691673 -0.93361377716064
v -0.1380932033062 0.79057890176773 -0.93684202432632
v -0.1380932033062 -0.41907128691673 -0.93684202432632
v -0.14939741790295 0.79057890176773 -0.94211322069168
v -0.14939741790295 -0.41907128691673 -0.94211322069168
v -0.15961454808712 0.79057890176773 -0.94926732778549
v -0.15961454808712 -0.41907128691673 -0.94926732778549
v -0.16843415796757 0.79057890176773 -0.95808696746826
v -0.16843415796757 -0.41907128691673 -0.95808696746826
v -0.17558826506138 0.79057890176773 -0.96830409765244
v -0.17558826506138 -0.41907128691673 -0.96830409765244
v -0.18085950613022 0.79057890176773 -0.97960829734802
v -0.18085950613022 -0.41907128691673 -0.97960829734802
v -0.18408770859241 0.79057890176773 -0.99165612459183
v -0.18408770859241 -0.41907128691673 -0.99165612459183
v -0.18517477810383 0.79057890176773 -1.00408148765564
v -0.18517477810383 -0.41907128691673 -1.00408148765564
v -0.18408770859241 0.79057890176773 -1.01650679111481
v -0.18408770859241 -0.41907128691673 -1.01650679111481
v -0.18085950613022 0.79057890176773 -1.02855455875397
v -0.18085950613022 -0.41907128691673 -1.02855455875397
v -0.17558826506138 0.79057890176773 -1.0398588180542
v -0.17558826506138 -0.41907128691673 -1.0398588180542
v -0.16843415796757 0.79057890176773 -1.05007600784302
v -0.16843415796757 -0.41907128691673 -1.05007600784302
v -0.15961454808712 0.79057890176773 -1.05889558792114
v -0.15961454808712 -0.41907128691673 -1.05889558792114
v -0.14939741790295 0.79057890176773 -1.06604969501495
v -0.14939741790295 -0.41907128691673 -1.06604969501495
v -0.1380932033062 0.79057890176773 -1.07132089138031
v -0.1380932033062 -0.41907128691673 -1.07132089138031
v -0.12604539096355 0.79057890176773 -1.07454907894135
v -0.12604539096355 -0.41907128691673 -1.07454907894135
v -0.1136200428009 0.79057890176773 -1.07563614845276
v -0.1136200428009 -0.41907128691673 -1.07563614845276
v -0.10119469463825 0.79057890176773 -1.07454907894135
v -0.10119469463825 -0.41907128691673 -1.07454907894135
v -0.08914688229561 0.79057890176773 -1.07132089138031
v -0.08914688229561 -0.41907128691673 -1.07132089138031
v -0.07784267514944 0.79057890176773 -1.06604969501495
v -0.07784267514944 -0.41907128691673 -1.06604969501495
v -0.06762554496527 0.79057890176773 -1.05889558792114
v -0.06762554496527 -0.41907128691673 -1.05889558792114
v -0.04206530749798 -0.41907128691673 -1.00408148765564
v -0.04206530749798 0.79057890176773 -1.00408148765564
v -0.04315238445997 -0.41907128691673 -1.01650679111481
v -0.04315238445997 0.79057890176773 -1.01650679111481
# 74 vertices

vn 0.98945116996765 0 0.14486660063267
vn 0.9793273806572 0 0.20228183269501
vn 0.9995750784874 0 0.02915031649172
vn 0.94926333427429 0 0.31448218226433
vn 0.92932325601578 0 0.36926734447479
vn 0.88023257255554 0 0.47454264760017
vn 0.85108202695847 0 0.52503275871277
vn 0.78445672988892 0 0.62018346786499
vn 0.74698215723038 0 0.66484415531158
vn 0.66484588384628 0 0.74698060750961
vn 0.62018424272537 0 0.78445625305176
vn 0.52503156661987 0 0.85108280181885
vn 0.47454056143761 0 0.88023364543915
vn 0.36926648020744 0 0.92932349443436
vn 0.31448358297348 0 0.94926291704178
vn 0.20228414237499 0 0.97932696342468
vn 0.1448675096035 0 0.98945111036301
vn 0.02915029227734 0 0.9995750784874
vn -0.02915029227734 0 0.9995750784874
vn -0.1448675096035 0 0.98945111036301
vn -0.20228414237499 0 0.97932696342468
vn -0.31448349356651 0 0.94926291704178
vn -0.36926639080048 0 0.92932361364365
vn -0.47454050183296 0 0.88023376464844
vn -0.52503150701523 0 0.85108280181885
vn -0.62018418312073 0 0.7844563126564
vn -0.66484576463699 0 0.74698066711426
vn -0.74698215723038 0 0.66484409570694
vn -0.7844569683075 0 0.62018328905106
vn -0.8510822057724 0 0.52503257989883
vn -0.88023257255554 0 0.47454264760017
vn -0.92932313680649 0 0.3692674934864
vn -0.94926333427429 0 0.31448230147362
vn -0.9793273806572 0 0.20228162407875
vn -0.98945128917694 0 0.14486621320248
vn -0.9995750784874 0 0.02915012091398
vn -0.9995750784874 0 -0.02915053069592
vn -0.98945116996765 0 -0.14486689865589
vn -0.97932714223862 0 -0.20228256285191
vn -0.94926333427429 0 -0.31448248028755
vn -0.92932349443436 0 -0.36926665902138
vn -0.8802335858345 0 -0.47454065084457
vn -0.85108345746994 0 -0.52503043413162
vn -0.78445744514465 0 -0.62018275260925
vn -0.74698132276535 0 -0.66484516859055
vn -0.66484409570694 0 -0.74698215723038
vn -0.62018328905106 0 -0.7844569683075
vn -0.52503150701523 0 -0.85108280181885
vn -0.47454050183296 0 -0.88023376464844
vn -0.36926493048668 0 -0.9293240904808
vn -0.3144805431366 0 -0.9492638707161
vn -0.20228113234043 0 -0.97932755947113
vn -0.14486600458622 0 -0.98945134878159
vn -0.02915029227734 0 -0.9995750784874
vn 0.02915029227734 0 -0.9995750784874
vn 0.14486600458622 0 -0.98945128917694
vn 0.20228113234043 0 -0.97932755947113
vn 0.31448060274124 0 -0.9492638707161
vn 0.36926504969597 0 -0.9293240904808
vn 0.47454056143761 0 -0.88023364543915
vn 0.52503162622452 0 -0.85108280181885
vn 0.62018328905106 0 -0.78445690870285
vn 0.66484415531158 0 -0.74698203802109
vn 0.74698120355606 0 -0.66484522819519
vn 0.78445726633072 0 -0.62018299102783
vn 0.85108327865601 0 -0.52503061294556
vn 0.8802335858345 0 -0.47454059123993
vn 0.929323554039 0 -0.36926651000977
vn 0.94926327466965 0 -0.31448233127594
vn 0.97932714223862 0 -0.20228277146816
vn 0.98945111036301 0 -0.14486727118492
vn 0.9995750784874 0 -0.02915073558688
vn 0 -1 0
vn 0 -1 0
vn 0 -1 0
vn 0 1 0
vn 0 1 0
vn 0 1 0
# 78 normals

vt 3.19491815567017 -7.5461483001709 0
vt 3.12746644020081 8.56809520721436 0
vt 3.29378914833069 8.56879138946533 0
vt 0 1 0
vt 3.02860260009766 -7.54681968688965 0
vt 2.96114420890808 8.56739711761475 0
vt 2.86228847503662 -7.54749298095703 0
vt 2.79481983184814 8.56669807434082 0
vt 2.69597482681274 -7.54816818237305 0
vt 2.62849497795105 8.56599521636963 0
vt 2.52966237068176 -7.54884147644043 0
vt 2.46217036247253 8.56529140472412 0
vt 2.36335062980652 -7.54951667785645 0
vt 2.2958447933197 8.56458759307861 0
vt 2.19703769683838 -7.55019378662109 0
vt 2.12951850891113 8.56387996673584 0
vt 2.03072690963745 -7.55087089538574 0
vt 1.96319127082825 8.56317043304443 0
vt 1.86441695690155 -7.55154800415039 0
vt 1.79686486721039 8.56246185302734 0
vt 1.69810700416565 -7.5522289276123 0
vt 1.63053679466248 8.5617504119873 0
vt 1.53179824352264 -7.55290985107422 0
vt 1.46420931816101 8.56103420257568 0
vt 1.36548829078674 -7.55358695983887 0
vt 1.29788112640381 8.56031799316406 0
vt 1.19918024539948 -7.55426788330078 0
vt 1.1315530538559 8.55959606170654 0
vt 1.03287255764008 -7.55495262145996 0
vt 0.96522468328476 8.55887794494629 0
vt 0.86656457185745 -7.55563163757324 0
vt 0.7988965511322 8.55815601348877 0
vt 0.70025658607483 -7.55631637573242 0
vt 0.63256728649139 8.55743217468262 0
vt 0.53394943475723 -7.5570011138916 0
vt 0.46623864769936 8.55670738220215 0
vt 0.36764207482338 -7.55768203735352 0
vt 0.29990994930267 8.55598163604736 0
vt 0.20133556425571 -7.55836868286133 0
vt 0.13358168303967 8.55525207519531 0
vt 0.0350291095674 -7.55905723571777 0
vt -0.03274599090219 8.55452060699463 0
vt -0.13127639889717 -7.55974578857422 0
vt -0.19907420873642 8.55378818511963 0
vt -0.29758289456367 -7.56043243408203 0
vt -0.36540147662163 8.55305480957031 0
vt -0.46388843655586 -7.56112289428711 0
vt -0.53172916173935 8.55231857299805 0
vt -0.63019442558289 -7.56181526184082 0
vt -0.69805598258972 8.55158233642578 0
vt -0.79649990797043 -7.56250762939453 0
vt -0.86438322067261 8.55084228515625 0
vt -0.96280598640442 -7.56320190429688 0
vt -1.03070950508118 8.55010032653809 0
vt -1.12911200523376 -7.56389427185059 0
vt -1.19703483581543 8.54935836791992 0
vt -1.29541802406311 -7.56458854675293 0
vt -1.36335980892181 8.54861545562744 0
vt -1.46172392368317 -7.56528472900391 0
vt -1.5296835899353 8.5478687286377 0
vt -1.62802994251251 -7.56598472595215 0
vt -1.69600701332092 8.54712200164795 0
vt -1.79433655738831 -7.56668472290039 0
vt -1.86232936382294 8.54637336730957 0
vt -1.96064293384552 -7.5673828125 0
vt -2.02865099906921 8.54562091827393 0
vt -2.12694954872131 -7.56808471679688 0
vt -2.19497203826904 8.54486656188965 0
vt -2.29325652122498 -7.56878471374512 0
vt -2.36129188537598 8.544114112854 0
vt -2.4595639705658 -7.56948661804199 0
vt -2.52761077880859 8.54335689544678 0
vt 3.36123275756836 -7.54547882080078 0
vt 3.46011137962341 8.56948757171631 0
vt 0.08147722482681 1.22494161128998 0
vt -0.03805205598474 1.1412467956543 0
vt 0.50000846385956 0.5 0
vt -0.14122557640076 1.03807330131531 0
vt -0.22492034733295 0.91854405403137 0
vt -0.28658494353294 0.78630572557449 0
vt -0.32434958219528 0.64536899328232 0
vt -0.33701574802399 0.5 0
vt -0.32434958219528 0.35464382171631 0
vt -0.28658494353294 0.21370708942413 0
vt -0.22492034733295 0.08145594596863 0
vt -0.14122557640076 -0.03804779052734 0
vt -0.03805205598474 -0.14122748374939 0
vt 0.08147722482681 -0.22491598129272 0
vt 0.21371558308601 -0.28658366203308 0
vt 0.35465234518051 -0.32436609268188 0
vt 0.5000085234642 -0.33708810806274 0
vt 0.64537751674652 -0.32436609268188 0
vt 0.7863142490387 -0.28658366203308 0
vt 0.91853982210159 -0.22491598129272 0
vt 1.03806900978088 -0.14122748374939 0
vt 1.1412490606308 -0.03804779052734 0
vt 1.22493731975555 0.08145594596863 0
vt 1.2866051197052 0.21370708942413 0
vt 1.324387550354 0.35464382171631 0
vt 1.33710944652557 0.5 0
vt 1.324387550354 0.64536899328232 0
vt 1.2866051197052 0.78630572557449 0
vt 1.22493731975555 0.91854405403137 0
vt 1.1412490606308 1.03807330131531 0
vt 1.03806900978088 1.1412467956543 0
vt 0.91853982210159 1.22494161128998 0
vt 0.7863142490387 1.2866063117981 0
vt 0.64537751674652 1.32437086105347 0
vt 0.5000085234642 1.33703708648682 0
vt 0.35465234518051 1.32437086105347 0
vt 0.21371558308601 1.2866063117981 0
vt 3.52754759788513 -7.54480934143066 0
# 112 texture coordinates

o liquide_tube_2
usemtl Liquide 9
f 72/3/3 9/2/2 10/1/1
f 9/2/2 11/6/5 12/5/4
f 11/6/5 13/8/7 14/7/6
f 13/8/7 15/10/9 16/9/8
f 15/10/9 17/12/11 18/11/10
f 17/12/11 19/14/13 20/13/12
f 19/14/13 21/16/15 22/15/14
f 21/16/15 23/18/17 24/17/16
f 23/18/17 25/20/19 26/19/18
f 25/20/19 27/22/21 28/21/20
f 27/22/21 29/24/23 30/23/22
f 29/24/23 31/26/25 32/25/24
f 31/26/25 33/28/27 34/27/26
f 33/28/27 35/30/29 36/29/28
f 35/30/29 37/32/31 38/31/30
f 37/32/31 39/34/33 40/33/32
f 39/34/33 41/36/35 42/35/34
f 41/36/35 43/38/37 44/37/36
f 43/38/37 45/40/39 46/39/38
f 45/40/39 47/42/41 48/41/40
f 47/42/41 49/44/43 50/43/42
f 49/44/43 51/46/45 52/45/44
f 51/46/45 53/48/47 54/47/46
f 53/48/47 55/50/49 56/49/48
f 55/50/49 57/52/51 58/51/50
f 57/52/51 59/54/53 60/53/52
f 59/54/53 61/56/55 62/55/54
f 61/56/55 63/58/57 64/57/56
f 63/58/57 65/60/59 66/59/58
f 65/60/59 67/62/61 68/61/60
f 67/62/61 69/64/63 70/63/62
f 69/64/63 5/66/65 7/65/64
f 5/66/65 4/68/67 3/67/66
f 4/68/67 2/70/69 1/69/68
f 2/70/69 74/72/71 73/71/70
f 74/74/71 72/3/3 71/73/72
f 6/77/74 54/76/73 56/75/73
f 6/77/74 52/78/73 54/76/73
f 6/77/74 50/79/73 52/78/73
f 6/77/74 48/80/73 50/79/73
f 6/77/74 46/81/73 48/80/73
f 6/77/74 44/82/74 46/81/73
f 6/77/74 42/83/74 44/82/74
f 6/77/74 40/84/74 42/83/74
f 6/77/74 38/85/74 40/84/74
f 6/77/74 36/86/74 38/85/74
f 6/77/74 34/87/74 36/86/74
f 6/77/74 32/88/74 34/87/74
f 6/77/74 30/89/74 32/88/74
f 6/77/74 28/90/74 30/89/74
f 6/77/74 26/91/74 28/90/74
f 6/77/74 24/92/74 26/91/74
f 6/77/74 22/93/74 24/92/74
f 6/77/74 20/94/74 22/93/74
f 6/77/74 18/95/74 20/94/74
f 6/77/74 16/96/74 18/95/74
f 6/77/74 14/97/74 16/96/74
f 6/77/74 12/98/74 14/97/74
f 6/77/74 10/99/74 12/98/74
f 6/77/74 71/100/74 10/99/74
f 6/77/74 73/101/74 71/100/74
f 6/77/74 1/102/75 73/101/74
f 6/77/74 3/103/75 1/102/75
f 6/77/74 7/104/75 3/103/75
f 6/77/74 70/105/75 7/104/75
f 6/77/74 68/106/75 70/105/75
f 6/77/74 66/107/75 68/106/75
f 6/77/74 64/108/75 66/107/75
f 6/77/74 62/109/74 64/108/75
f 6/77/74 60/110/73 62/109/74
f 6/77/74 58/111/73 60/110/73
f 6/77/74 56/75/73 58/111/73
f 8/77/77 57/111/76 55/75/76
f 8/77/77 59/110/76 57/111/76
f 8/77/77 61/109/77 59/110/76
f 8/77/77 63/108/77 61/109/77
f 8/77/77 65/107/77 63/108/77
f 8/77/77 67/106/77 65/107/77
f 8/77/77 69/105/77 67/106/77
f 8/77/77 5/104/77 69/105/77
f 8/77/77 4/103/77 5/104/77
f 8/77/77 2/102/77 4/103/77
f 8/77/77 74/101/77 2/102/77
f 8/77/77 72/100/77 74/101/77
f 8/77/77 9/99/77 72/100/77
f 8/77/77 11/98/77 9/99/77
f 8/77/77 13/97/77 11/98/77
f 8/77/77 15/96/77 13/97/77
f 8/77/77 17/95/77 15/96/77
f 8/77/77 19/94/77 17/95/77
f 8/77/77 21/93/77 19/94/77
f 8/77/77 23/92/77 21/93/77
f 8/77/77 25/91/77 23/92/77
f 8/77/77 27/90/78 25/91/77
f 8/77/77 29/89/78 27/90/78
f 8/77/77 31/88/78 29/89/78
f 8/77/77 33/87/78 31/88/78
f 8/77/77 35/86/78 33/87/78
f 8/77/77 37/85/78 35/86/78
f 8/77/77 39/84/78 37/85/78
f 8/77/77 41/83/78 39/84/78
f 8/77/77 43/82/77 41/83/78
f 8/77/77 45/81/77 43/82/77
f 8/77/77 47/80/76 45/81/77
f 8/77/77 49/79/76 47/80/76
f 8/77/77 51/78/76 49/79/76
f 8/77/77 53/76/76 51/78/76
f 8/77/77 55/75/76 53/76/76
f 71/73/72 72/3/3 10/1/1
f 10/1/1 9/2/2 12/5/4
f 12/5/4 11/6/5 14/7/6
f 14/7/6 13/8/7 16/9/8
f 16/9/8 15/10/9 18/11/10
f 18/11/10 17/12/11 20/13/12
f 20/13/12 19/14/13 22/15/14
f 22/15/14 21/16/15 24/17/16
f 24/17/16 23/18/17 26/19/18
f 26/19/18 25/20/19 28/21/20
f 28/21/20 27/22/21 30/23/22
f 30/23/22 29/24/23 32/25/24
f 32/25/24 31/26/25 34/27/26
f 34/27/26 33/28/27 36/29/28
f 36/29/28 35/30/29 38/31/30
f 38/31/30 37/32/31 40/33/32
f 40/33/32 39/34/33 42/35/34
f 42/35/34 41/36/35 44/37/36
f 44/37/36 43/38/37 46/39/38
f 46/39/38 45/40/39 48/41/40
f 48/41/40 47/42/41 50/43/42
f 50/43/42 49/44/43 52/45/44
f 52/45/44 51/46/45 54/47/46
f 54/47/46 53/48/47 56/49/48
f 56/49/48 55/50/49 58/51/50
f 58/51/50 57/52/51 60/53/52
f 60/53/52 59/54/53 62/55/54
f 62/55/54 61/56/55 64/57/56
f 64/57/56 63/58/57 66/59/58
f 66/59/58 65/60/59 68/61/60
f 68/61/60 67/62/61 70/63/62
f 70/63/62 69/64/63 7/65/64
f 7/65/64 5/66/65 3/67/66
f 3/67/66 4/68/67 1/69/68
f 1/69/68 2/70/69 73/71/70
f 73/112/70 74/74/71 71/73/72

