# Blender v3.0.0 OBJ File: ''
# www.blender.org
mtllib untitled.mtl
o pg_lights
v 2.386916 21.856110 17.314306
v -2.445673 21.856110 17.314306
v -2.445673 21.302917 17.314306
v 2.386916 21.302917 17.314306
v -2.649205 21.870947 17.170900
v -2.835613 21.949156 16.414793
v 2.776859 21.949156 16.414793
v 2.590450 21.870947 17.170900
v -11.917875 21.856113 -7.848399
v -15.171073 21.856117 -11.657198
v -15.171073 21.302931 -11.657198
v -11.917875 21.302925 -7.848399
v -14.602716 21.949162 -1.544008
v -14.602716 21.209881 -1.544008
v -14.704044 21.288094 -2.335886
v -14.704044 21.870953 -2.335886
v -14.906233 21.856115 -2.495699
v -14.906233 21.302923 -2.495699
v -19.831347 21.302923 -3.408648
v -19.831347 21.856115 -3.408648
v -20.051889 21.870953 -3.294252
v -20.293854 21.949162 -2.592157
v -10.409046 21.949163 -6.539279
v -13.215281 21.949162 -1.678728
v -13.215281 21.209881 -1.678737
v -10.409046 21.209883 -6.539279
v -13.776885 21.870953 -2.218225
v -13.776885 21.288094 -2.218225
v -13.799313 21.856115 -2.466188
v -11.383018 21.856117 -6.651331
v -11.383018 21.302925 -6.651331
v -13.799313 21.302923 -2.466188
v 19.817881 21.870953 -3.290354
v 20.059847 21.949162 -2.588259
v 20.059847 21.209881 -2.588260
v 19.817881 21.288094 -3.290354
v 14.368708 21.949162 -1.540102
v 14.368708 21.209881 -1.540103
v 14.470037 21.870953 -2.331987
v 14.470037 21.288094 -2.331987
v 14.672224 21.856115 -2.491800
v 19.597338 21.856115 -3.404749
v 19.597338 21.302923 -3.404749
v 14.672224 21.302923 -2.491800
v 11.496360 21.870955 -7.482547
v 11.496360 21.288095 -7.482547
v 11.735856 21.302925 -7.577739
v 11.735856 21.856117 -7.577739
v 15.000254 21.870956 -11.634729
v 15.000254 21.288097 -11.634729
v 14.513203 21.209887 -12.195322
v 14.513203 21.949165 -12.195322
v 10.759908 21.209883 -7.790729
v 10.759908 21.949163 -7.790729
v 14.989054 21.302931 -11.386530
v 14.989054 21.856121 -11.386539
v -15.182274 21.288095 -11.905390
v -15.182274 21.870955 -11.905390
v -11.678376 21.870951 -7.753207
v -11.678376 21.288092 -7.753207
v -14.695222 21.949163 -12.465990
v -14.695222 21.209887 -12.465990
v -10.941925 21.949160 -8.061397
v -10.941925 21.209883 -8.061397
v -20.051889 21.288094 -3.294252
v -20.293854 21.209881 -2.592158
v -11.157059 21.288095 -6.755893
v -11.157059 21.870955 -6.755893
v 13.550707 21.288094 -2.200754
v 13.573133 21.302923 -2.448725
v 13.573133 21.856115 -2.448725
v 13.550707 21.870953 -2.200754
v 10.930881 21.870955 -6.738437
v 11.156839 21.856117 -6.633868
v 11.156839 21.302925 -6.633868
v 10.930881 21.288095 -6.738437
v 12.989103 21.949162 -1.661264
v 12.989103 21.209881 -1.661273
v 10.182867 21.949163 -6.521815
v 10.182867 21.209883 -6.521815
v -4.839176 21.288086 23.143232
v -4.629831 21.302916 23.009436
v -4.629831 21.856108 23.009436
v -4.839176 21.870945 23.143232
v -2.995225 21.870945 18.032675
v -2.957916 21.856108 18.287680
v -2.957916 21.302916 18.287680
v -2.995225 21.288086 18.032675
v -5.568192 21.949154 23.001730
v -5.568192 21.209871 23.001730
v -3.630351 21.949156 17.548983
v -3.630351 21.209873 17.548983
v 4.796080 21.288086 23.143232
v 4.796080 21.870945 23.143232
v 4.586737 21.856108 23.009436
v 4.586734 21.302916 23.009436
v 2.952127 21.870945 18.032675
v 2.952127 21.288086 18.032675
v 2.914819 21.302916 18.287680
v 2.914819 21.856108 18.287680
v 5.525094 21.209871 23.001730
v 5.525094 21.949154 23.001730
v 3.587251 21.209873 17.548983
v 3.587251 21.949156 17.548983
v -2.649205 21.288088 17.170900
v 2.590450 21.288088 17.170900
v -2.835613 21.209873 16.414793
v 2.776859 21.209873 16.414793
vt 0.854073 0.881550
vt 0.157755 0.881550
vt 0.157755 0.785269
vt 0.854073 0.785269
vt 0.128428 0.899683
vt 0.101569 0.995290
vt 0.910259 0.995290
vt 0.883400 0.899683
vt 0.851651 0.213170
vt 0.162128 0.215405
vt 0.161755 0.119056
vt 0.851279 0.116824
vt 0.019332 0.563564
vt 0.019830 0.434806
vt 0.132762 0.448794
vt 0.132369 0.550309
vt 0.167681 0.547838
vt 0.168053 0.451493
vt 0.857577 0.453725
vt 0.857204 0.550072
vt 0.884829 0.570356
vt 0.903064 0.667721
vt 0.106439 0.664269
vt 0.136812 0.563720
vt 2.477797 1.524071
vt 2.994213 1.524071
vt 2.994213 1.613830
vt 2.477797 1.613830
vt 0.996159 0.897744
vt 0.889350 0.884132
vt 0.889350 0.782687
vt 0.996159 0.769074
vt 0.854073 0.881550
vt 0.157755 0.881550
vt 0.157755 0.785269
vt 0.854073 0.785269
vt 0.126836 0.218101
vt 0.020007 0.232069
vt 0.019509 0.103311
vt 0.126444 0.116587
vt 2.164112 0.682208
vt 2.976588 0.678361
vt 2.977267 0.821814
vt 2.164791 0.825660
vt 1.000000 0.228895
vt 0.886962 0.215640
vt 0.886570 0.114125
vt 0.999502 0.100137
vt 0.851651 0.213170
vt 0.162128 0.215405
vt 0.161755 0.119056
vt 0.851279 0.116824
vt 0.132369 0.550309
vt 0.132762 0.448794
vt 0.168053 0.451493
vt 0.167681 0.547838
vt 0.892496 0.552770
vt 0.892888 0.451256
vt 0.999823 0.437980
vt 0.999325 0.566738
vt 2.748286 0.357825
vt 2.747607 0.501278
vt 1.935130 0.497432
vt 1.935809 0.353979
vt 0.019332 0.563564
vt 0.019830 0.434806
vt 0.857577 0.453725
vt 0.857204 0.550072
vt 0.884829 0.570356
vt 0.903064 0.667721
vt 0.106439 0.664269
vt 0.136812 0.563720
vt 0.126444 0.116587
vt 0.126836 0.218101
vt 0.886962 0.215640
vt 0.886570 0.114125
vt 0.020007 0.232069
vt 0.019509 0.103311
vt 2.164112 0.682208
vt 2.976588 0.678361
vt 2.977267 0.821814
vt 2.164791 0.825660
vt 1.000000 0.228895
vt 0.999502 0.100137
vt 0.892888 0.451256
vt 0.892496 0.552770
vt 0.999823 0.437980
vt 0.999325 0.566738
vt 2.748286 0.357825
vt 2.747607 0.501278
vt 1.935130 0.497432
vt 1.935809 0.353979
vt 0.122478 0.782687
vt 0.122478 0.884132
vt 0.015669 0.897744
vt 0.015669 0.769074
vt 0.122478 0.782687
vt 0.157755 0.785269
vt 0.157755 0.881550
vt 0.122478 0.884132
vt 0.889350 0.884132
vt 0.854073 0.881550
vt 0.854073 0.785269
vt 0.889350 0.782687
vt 0.015669 0.897744
vt 0.015669 0.769074
vt 2.477797 1.524071
vt 2.994213 1.524071
vt 2.994213 1.613830
vt 2.477797 1.613830
vt 0.996159 0.897744
vt 0.996159 0.769074
vt 0.126444 0.116587
vt 0.161755 0.119056
vt 0.162128 0.215405
vt 0.126836 0.218101
vt 0.886962 0.215640
vt 0.851651 0.213170
vt 0.851279 0.116824
vt 0.886570 0.114125
vt 0.020007 0.232069
vt 0.019509 0.103311
vt 2.164112 0.682208
vt 2.976588 0.678361
vt 2.977267 0.821814
vt 2.164791 0.825660
vt 1.000000 0.228895
vt 0.999502 0.100137
vt 0.892888 0.451256
vt 0.892496 0.552770
vt 0.857204 0.550072
vt 0.857577 0.453725
vt 0.132369 0.550309
vt 0.132762 0.448794
vt 0.168053 0.451493
vt 0.167681 0.547838
vt 0.999823 0.437980
vt 0.999325 0.566738
vt 2.748286 0.357825
vt 2.747607 0.501278
vt 1.935130 0.497432
vt 1.935809 0.353979
vt 0.019332 0.563564
vt 0.019830 0.434806
vt 0.122478 0.782687
vt 0.122478 0.884132
vt 0.889350 0.884132
vt 0.889350 0.782687
vt 0.015669 0.897744
vt 0.015669 0.769074
vt 2.477797 1.524071
vt 2.994213 1.524071
vt 2.994213 1.613830
vt 2.477797 1.613830
vt 0.996159 0.897744
vt 0.996159 0.769074
vt 0.128428 0.767136
vt 0.910259 0.671529
vt 0.883400 0.767136
vt 0.101569 0.671529
vt 0.884829 0.570356
vt 0.903064 0.667721
vt 0.106439 0.664269
vt 0.136812 0.563720
vt 0.910259 0.671529
vt 0.883400 0.767136
vt 0.128428 0.767136
vt 0.101569 0.671529
vt 0.134503 0.235691
vt 0.116268 0.333056
vt 0.912893 0.329604
vt 0.882520 0.229056
vt 0.134503 0.235691
vt 0.116268 0.333056
vt 0.912893 0.329604
vt 0.882520 0.229056
vt 0.911619 0.000000
vt 0.882024 0.100742
vt 0.133974 0.098952
vt 0.114987 0.001707
vt 0.107712 0.334669
vt 0.904345 0.336376
vt 0.885358 0.433621
vt 0.137308 0.435411
vt 0.128428 0.899683
vt 0.101569 0.995290
vt 0.910259 0.995290
vt 0.883400 0.899683
vt 0.134503 0.235691
vt 0.116268 0.333056
vt 0.912893 0.329604
vt 0.882520 0.229056
vt 0.910259 0.671529
vt 0.883400 0.767136
vt 0.128428 0.767136
vt 0.101569 0.671529
vt 0.911619 0.000000
vt 0.882024 0.100742
vt 0.133974 0.098952
vt 0.114987 0.001707
vt 0.107712 0.334669
vt 0.904345 0.336376
vt 0.885358 0.433621
vt 0.137308 0.435411
vt 0.911619 0.000000
vt 0.882024 0.100742
vt 0.133974 0.098952
vt 0.114987 0.001707
vt 0.107712 0.334669
vt 0.904345 0.336376
vt 0.885358 0.433621
vt 0.137308 0.435411
vt 0.128428 0.899683
vt 0.101569 0.995290
vt 0.910259 0.995290
vt 0.883400 0.899683
vn 0.0000 0.0000 1.0000
vn 0.0000 0.9947 0.1029
vn -0.7604 0.0000 0.6495
vn 0.9919 0.0000 -0.1269
vn 0.1823 0.0000 -0.9833
vn 0.0115 0.9942 -0.1068
vn 0.0152 0.9944 -0.1047
vn 0.0177 0.9940 -0.1076
vn 0.0185 0.9946 -0.1016
vn 0.0202 0.9937 -0.1105
vn 0.0223 0.9925 -0.1203
vn 0.8660 -0.0000 0.5000
vn -0.6928 -0.0000 0.7212
vn -0.8660 0.0000 -0.5000
vn 0.9454 0.0000 -0.3258
vn 0.1811 -0.0000 0.9835
vn -0.9919 0.0000 -0.1269
vn -0.1823 0.0000 -0.9833
vn 0.3694 0.0000 0.9293
vn 0.7549 0.0000 -0.6559
vn -0.7611 0.0000 -0.6486
vn -0.3860 0.0000 0.9225
vn 0.7604 0.0000 0.6495
vn 0.0867 0.9942 0.0633
vn 0.0830 0.9944 0.0655
vn 0.0843 0.9940 0.0691
vn 0.0788 0.9946 0.0669
vn 0.0856 0.9937 0.0728
vn 0.0931 0.9925 0.0795
vn -0.9990 0.0000 0.0451
vn -0.3694 0.0000 0.9293
vn -0.7549 0.0000 -0.6559
vn 0.7611 0.0000 -0.6486
vn 0.3860 0.0000 0.9225
vn -0.4604 0.0000 -0.8877
vn 0.6201 0.0000 -0.7845
vn -0.9454 0.0000 -0.3258
vn -0.1811 -0.0000 0.9835
vn -0.4200 0.0000 -0.9075
vn -0.9959 0.0000 0.0901
vn 0.2782 0.0000 -0.9605
vn 0.4604 0.0000 -0.8877
vn -0.6201 0.0000 -0.7845
vn 0.9990 -0.0000 0.0451
vn 0.9959 0.0000 0.0901
vn 0.4200 0.0000 -0.9075
vn 0.6928 -0.0000 0.7212
vn -0.8660 -0.0000 0.5000
vn -0.2782 0.0000 -0.9605
vn 0.8660 0.0000 -0.5000
vn 0.5385 0.0000 0.8426
vn 0.9895 0.0000 -0.1448
vn -0.1905 0.0000 0.9817
vn -0.9423 0.0000 -0.3349
vn 0.6059 0.0000 -0.7956
vn 0.9427 0.0000 0.3338
vn -0.5385 0.0000 0.8426
vn -0.9895 0.0000 -0.1448
vn 0.1905 0.0000 0.9817
vn 0.9423 0.0000 -0.3349
vn -0.6059 0.0000 -0.7956
vn -0.9427 0.0000 0.3338
vn -0.5760 0.0000 0.8175
vn 0.5760 0.0000 0.8175
vn -0.9709 0.0000 0.2394
vn 0.0000 0.0000 -1.0000
vn 0.9709 0.0000 0.2394
vn 0.0891 -0.9947 -0.0514
vn 0.0891 -0.9947 -0.0515
vn -0.0982 0.9942 0.0434
vn -0.0983 0.9944 0.0392
vn -0.1020 0.9940 0.0384
vn -0.0973 0.9946 0.0348
vn -0.1058 0.9937 0.0377
vn -0.1154 0.9925 0.0409
vn 0.0000 -0.9947 0.1029
vn -0.0867 0.9942 0.0633
vn -0.0843 0.9940 0.0691
vn -0.0831 0.9944 0.0655
vn -0.0787 0.9946 0.0669
vn -0.0856 0.9937 0.0728
vn -0.0931 0.9925 0.0795
vn -0.0115 0.9942 -0.1068
vn -0.0177 0.9940 -0.1076
vn -0.0152 0.9944 -0.1047
vn -0.0185 0.9946 -0.1016
vn -0.0202 0.9937 -0.1104
vn -0.0223 0.9925 -0.1204
vn -0.0812 -0.9947 0.0636
vn -0.0831 -0.9951 0.0540
vn -0.0789 -0.9950 0.0616
vn -0.0735 -0.9953 0.0628
vn -0.0783 -0.9947 0.0667
vn -0.0806 -0.9944 0.0687
vn 0.0145 -0.9947 -0.1021
vn 0.0192 -0.9944 -0.1042
vn 0.0186 -0.9947 -0.1009
vn 0.0176 -0.9953 -0.0950
vn 0.0139 -0.9950 -0.0991
vn 0.0052 -0.9951 -0.0990
vn -0.0891 0.9947 -0.0514
vn 0.0982 0.9942 0.0435
vn 0.1020 0.9940 0.0384
vn 0.0983 0.9944 0.0392
vn 0.0971 0.9947 0.0347
vn 0.1058 0.9937 0.0377
vn 0.1154 0.9925 0.0409
vn -0.0891 -0.9947 -0.0514
vn -0.0145 -0.9947 -0.1021
vn -0.0052 -0.9951 -0.0990
vn -0.0139 -0.9950 -0.0991
vn -0.0176 -0.9953 -0.0950
vn -0.0186 -0.9947 -0.1008
vn -0.0192 -0.9944 -0.1042
vn 0.0812 -0.9947 0.0636
vn 0.0806 -0.9944 0.0687
vn 0.0782 -0.9947 0.0666
vn 0.0735 -0.9953 0.0628
vn 0.0789 -0.9950 0.0616
vn 0.0831 -0.9951 0.0540
vn 0.0957 -0.9947 0.0385
vn 0.0883 -0.9951 0.0449
vn 0.0928 -0.9950 0.0375
vn 0.0911 -0.9953 0.0323
vn 0.0967 -0.9947 0.0344
vn 0.0998 -0.9944 0.0355
vn -0.0957 -0.9947 0.0385
vn -0.0998 -0.9944 0.0355
vn -0.0967 -0.9947 0.0344
vn -0.0911 -0.9953 0.0323
vn -0.0928 -0.9950 0.0375
vn -0.0883 -0.9951 0.0449
vn 0.0891 0.9947 -0.0515
vn 0.0891 0.9947 -0.0514
usemtl pg_lights
s 1
f 1/1/1 2/2/1 3/3/1
f 3/3/1 4/4/1 1/1/1
f 5/5/2 2/2/2 6/6/2
f 2/2/2 7/7/2 6/6/2
f 2/2/2 8/8/2 7/7/2
f 2/2/2 1/1/2 8/8/2
f 9/9/3 10/10/3 11/11/3
f 11/11/3 12/12/3 9/9/3
f 13/13/4 14/14/4 15/15/4
f 15/15/4 16/16/4 13/13/4
f 17/17/5 18/18/5 19/19/5
f 19/19/5 20/20/5 17/17/5
f 21/21/6 22/22/7 20/20/8
f 22/22/7 13/23/9 20/20/8
f 13/23/9 16/24/10 20/20/8
f 16/24/10 17/17/11 20/20/8
f 23/25/12 24/26/12 25/27/12
f 25/27/12 26/28/12 23/25/12
f 24/29/13 27/30/13 28/31/13
f 28/31/13 25/32/13 24/29/13
f 29/33/14 30/34/14 31/35/14
f 31/35/14 32/36/14 29/33/14
f 33/37/15 34/38/15 35/39/15
f 35/39/15 36/40/15 33/37/15
f 34/41/16 37/42/16 38/43/16
f 38/43/16 35/44/16 34/41/16
f 37/45/17 39/46/17 40/47/17
f 40/47/17 38/48/17 37/45/17
f 41/49/18 42/50/18 43/51/18
f 43/51/18 44/52/18 41/49/18
f 45/53/19 46/54/19 47/55/19
f 47/55/19 48/56/19 45/53/19
f 49/57/20 50/58/20 51/59/20
f 51/59/20 52/60/20 49/57/20
f 52/61/21 51/62/21 53/63/21
f 53/63/21 54/64/21 52/61/21
f 54/65/22 53/66/22 46/54/22
f 46/54/22 45/53/22 54/65/22
f 48/56/23 47/55/23 55/67/23
f 55/67/23 56/68/23 48/56/23
f 49/69/24 52/70/25 56/68/26
f 52/70/25 54/71/27 56/68/26
f 54/71/27 45/72/28 56/68/26
f 45/72/28 48/56/29 56/68/26
f 57/73/30 11/11/30 10/10/30
f 10/10/30 58/74/30 57/73/30
f 59/75/31 9/9/31 12/12/31
f 12/12/31 60/76/31 59/75/31
f 58/74/32 61/77/32 62/78/32
f 62/78/32 57/73/32 58/74/32
f 61/79/33 63/80/33 64/81/33
f 64/81/33 62/82/33 61/79/33
f 63/83/34 59/75/34 60/76/34
f 60/76/34 64/84/34 63/83/34
f 65/85/35 21/86/35 20/20/35
f 20/20/35 19/19/35 65/85/35
f 16/16/36 15/15/36 18/18/36
f 18/18/36 17/17/36 16/16/36
f 21/86/37 65/85/37 66/87/37
f 66/87/37 22/88/37 21/86/37
f 22/89/38 66/90/38 14/91/38
f 14/91/38 13/92/38 22/89/38
f 67/93/39 31/35/39 30/34/39
f 30/34/39 68/94/39 67/93/39
f 27/30/40 29/33/40 32/36/40
f 32/36/40 28/31/40 27/30/40
f 68/94/41 23/95/41 26/96/41
f 26/96/41 67/93/41 68/94/41
f 36/40/42 43/51/42 42/50/42
f 42/50/42 33/37/42 36/40/42
f 39/46/43 41/49/43 44/52/43
f 44/52/43 40/47/43 39/46/43
f 50/58/44 49/57/44 56/68/44
f 56/68/44 55/67/44 50/58/44
f 69/97/45 70/98/45 71/99/45
f 71/99/45 72/100/45 69/97/45
f 73/101/46 74/102/46 75/103/46
f 75/103/46 76/104/46 73/101/46
f 72/100/47 77/105/47 78/106/47
f 78/106/47 69/97/47 72/100/47
f 77/107/48 79/108/48 80/109/48
f 80/109/48 78/110/48 77/107/48
f 79/111/49 73/101/49 76/104/49
f 76/104/49 80/112/49 79/111/49
f 74/102/50 71/99/50 70/98/50
f 70/98/50 75/103/50 74/102/50
f 81/113/51 82/114/51 83/115/51
f 83/115/51 84/116/51 81/113/51
f 85/117/52 86/118/52 87/119/52
f 87/119/52 88/120/52 85/117/52
f 84/116/53 89/121/53 90/122/53
f 90/122/53 81/113/53 84/116/53
f 89/123/54 91/124/54 92/125/54
f 92/125/54 90/126/54 89/123/54
f 91/127/55 85/117/55 88/120/55
f 88/120/55 92/128/55 91/127/55
f 86/118/56 83/115/56 82/114/56
f 82/114/56 87/119/56 86/118/56
f 93/129/57 94/130/57 95/131/57
f 95/131/57 96/132/57 93/129/57
f 97/133/58 98/134/58 99/135/58
f 99/135/58 100/136/58 97/133/58
f 94/130/59 93/129/59 101/137/59
f 101/137/59 102/138/59 94/130/59
f 102/139/60 101/140/60 103/141/60
f 103/141/60 104/142/60 102/139/60
f 104/143/61 103/144/61 98/134/61
f 98/134/61 97/133/61 104/143/61
f 100/136/62 99/135/62 96/132/62
f 96/132/62 95/131/62 100/136/62
f 105/145/63 3/3/63 2/2/63
f 2/2/63 5/146/63 105/145/63
f 8/147/64 1/1/64 4/4/64
f 4/4/64 106/148/64 8/147/64
f 5/146/65 6/149/65 107/150/65
f 107/150/65 105/145/65 5/146/65
f 6/151/66 7/152/66 108/153/66
f 108/153/66 107/154/66 6/151/66
f 7/155/67 8/147/67 106/148/67
f 106/148/67 108/156/67 7/155/67
f 70/98/68 69/157/68 75/103/68
f 69/157/68 80/158/68 75/103/68
f 80/158/68 76/159/68 75/103/68
f 69/157/68 78/160/69 80/158/68
f 94/161/70 102/162/71 95/131/72
f 102/162/71 104/163/73 95/131/72
f 104/163/73 97/164/74 95/131/72
f 97/164/74 100/136/75 95/131/72
f 108/165/76 106/166/76 4/4/76
f 3/3/76 105/167/76 4/4/76
f 105/167/76 108/165/76 4/4/76
f 105/167/76 107/168/76 108/165/76
f 58/169/77 10/10/78 61/170/79
f 10/10/78 63/171/80 61/170/79
f 10/10/78 59/172/81 63/171/80
f 10/10/78 9/9/82 59/172/81
f 33/173/83 42/50/84 34/174/85
f 42/50/84 37/175/86 34/174/85
f 42/50/84 39/176/87 37/175/86
f 42/50/84 41/49/88 39/176/87
f 64/177/89 60/178/90 12/12/91
f 11/11/92 57/179/93 12/12/91
f 57/179/93 64/177/89 12/12/91
f 57/179/93 62/180/94 64/177/89
f 14/181/95 66/182/96 65/183/97
f 19/19/98 18/18/99 65/183/97
f 18/18/99 14/181/95 65/183/97
f 18/18/99 15/184/100 14/181/95
f 68/185/101 30/34/101 23/186/101
f 30/34/101 24/187/101 23/186/101
f 30/34/101 27/188/101 24/187/101
f 30/34/101 29/33/101 27/188/101
f 84/189/102 83/115/103 89/190/104
f 83/115/103 91/191/105 89/190/104
f 83/115/103 85/192/106 91/191/105
f 83/115/103 86/118/107 85/192/106
f 25/193/108 28/194/108 32/36/108
f 31/35/108 67/195/108 32/36/108
f 67/195/108 25/193/108 32/36/108
f 67/195/108 26/196/108 25/193/108
f 38/197/109 40/198/110 44/52/111
f 43/51/112 36/199/113 44/52/111
f 36/199/113 38/197/109 44/52/111
f 36/199/113 35/200/114 38/197/109
f 53/201/115 51/202/116 50/203/117
f 55/67/118 47/55/119 50/203/117
f 47/55/119 53/201/115 50/203/117
f 47/55/119 46/204/120 53/201/115
f 92/205/121 88/206/122 87/119/123
f 82/114/124 81/207/125 87/119/123
f 81/207/125 92/205/121 87/119/123
f 81/207/125 90/208/126 92/205/121
f 103/209/127 101/210/128 93/211/129
f 96/132/130 99/135/131 93/211/129
f 99/135/131 103/209/127 93/211/129
f 99/135/131 98/212/132 103/209/127
f 72/213/133 71/99/133 77/214/134
f 71/99/133 79/215/134 77/214/134
f 71/99/133 73/216/134 79/215/134
f 71/99/133 74/102/133 73/216/134
