# WaveFront *.obj file (generated by Cinema 4D)

mtllib ./PoO_classic_Earth_2.mtl

v -0.005089 4.251566 0.186706
v -0.124831 4.132352 0.186706
v -0.162904 4.128625 0.186706
v -0.109921 4.077771 0.186706
v -0.106460 4.114780 0.186706
v 0.008755 4.227381 0.186706
v 0.122026 4.118193 0.186706
v 0.126552 4.080386 0.186706
v 0.177405 4.131239 0.186706
v 0.139731 4.135499 0.186706
v 0.020026 4.251743 0.186706
v 0.020026 4.358480 0.186706
v 0.053040 4.358480 0.186706
v 0.052261 4.438736 0.186706
v -0.039039 4.438736 0.186706
v -0.038260 4.358480 0.186706
v -0.005357 4.358480 0.186706
v -0.005357 4.358480 0.093058
v -0.038260 4.358480 0.093058
v -0.039039 4.438736 0.093058
v 0.052261 4.438736 0.093058
v 0.053040 4.358480 0.093058
v 0.020026 4.358480 0.093058
v 0.020026 4.251743 0.093058
v 0.139731 4.135499 0.093058
v 0.177405 4.131239 0.093058
v -0.005089 4.251566 0.093058
v -0.124831 4.132352 0.093058
v -0.162904 4.128625 0.093058
v -0.109921 4.077771 0.093058
v -0.106460 4.114780 0.093058
v 0.008755 4.227381 0.093058
v 0.122026 4.118193 0.093058
v 0.126552 4.080386 0.093058
# 34 vertices

vn 0.000000 0.000000 1.000000
vn 0.000000 0.000000 1.000000
vn -0.705541 0.708669 0.000000
vn -0.097448 0.995241 0.000000
vn -0.097448 0.995241 0.000000
vn -0.692454 -0.721462 0.000000
vn 0.995655 -0.093124 0.000000
vn 0.698949 -0.715171 0.000000
vn -0.694011 -0.719964 0.000000
vn -0.694011 -0.719964 0.000000
vn -0.992910 -0.118867 0.000000
vn -0.992910 -0.118867 0.000000
vn 0.707103 -0.707110 0.000000
vn 0.112361 0.993667 0.000000
vn 0.696659 0.717403 0.000000
vn 0.696659 0.717403 0.000000
vn 1.000000 0.000000 0.000000
vn 0.000000 -1.000000 0.000000
vn 0.999953 0.009706 0.000000
vn 0.999953 0.009706 0.000000
vn 0.000000 1.000000 0.000000
vn -0.999953 -0.009706 0.000000
vn -0.999953 -0.009706 0.000000
vn -0.999997 -0.002498 0.000000
vn -0.999997 -0.002498 0.000000
vn 0.112361 0.993667 0.000000
vn 0.696659 0.717403 0.000000
vn 0.999953 0.009706 0.000000
vn 0.000000 1.000000 0.000000
# 29 normals

vt 0.887238 0.460423 0.000000
vt 0.881700 0.455590 0.000000
vt 0.870479 0.460785 0.000000
vt 0.122434 0.509125 0.000000
vt 0.936061 0.429372 0.000000
vt 0.945620 0.429472 0.000000
vt 0.936513 0.423213 0.000000
vt 0.804951 0.120789 0.000000
vt 0.914343 0.459312 0.000000
vt 0.923304 0.423763 0.000000
vt 0.668432 0.126465 0.000000
vt 0.924990 0.419333 0.000000
vt 0.685850 0.080683 0.000000
vt 0.953602 0.417858 0.000000
vt 0.981585 0.065440 0.000000
vt 0.939949 0.431760 0.000000
vt 0.950839 0.443718 0.000000
vt 0.953026 0.332728 0.000000
vt 0.919637 0.462135 0.000000
vt 0.939384 0.462493 0.000000
vt 0.834630 0.526777 0.000000
vt 0.940337 0.489685 0.000000
vt 0.948560 0.479963 0.000000
vt 0.929470 0.707349 0.000000
vt 0.945839 0.491309 0.000000
vt 0.951889 0.482481 0.000000
vt 0.963883 0.733374 0.000000
vt 0.938222 0.498286 0.000000
vt 0.947306 0.508204 0.000000
vt 0.916510 0.999254 0.000000
vt 0.936931 0.492280 0.000000
vt 0.922910 0.499697 0.000000
vt 0.664359 0.911320 0.000000
vt 0.914347 0.464319 0.000000
vt 0.907402 0.481806 0.000000
vt 0.504069 0.726398 0.000000
vt 0.887466 0.466040 0.000000
vt 0.894007 0.481266 0.000000
vt 0.365612 0.720818 0.000000
vt 0.883947 0.472397 0.000000
vt 0.890419 0.483126 0.000000
vt 0.328533 0.740040 0.000000
vt 0.872841 0.472263 0.000000
vt 0.872685 0.485222 0.000000
vt 0.145230 0.761700 0.000000
vt 0.858706 0.463207 0.000000
vt 0.000746 0.534162 0.000000
vt 0.875639 0.442498 0.000000
vt 0.175764 0.320119 0.000000
vt 0.892507 0.440809 0.000000
vt 0.350116 0.302662 0.000000
vt 0.907868 0.441076 0.000000
vt 0.508884 0.305416 0.000000
vt 0.840468 0.209126 0.000000
vt 0.844480 0.807839 0.000000
vt 0.575846 0.545651 0.000000
vt 0.298013 0.563438 0.000000
vt 0.899089 0.185483 0.000000
vt 0.630523 0.523078 0.000000
vt 0.901347 0.824626 0.000000
vt 0.295649 0.505387 0.000000
vt 0.944494 0.411599 0.000000
vt 0.887447 0.000746 0.000000
vt 0.955014 0.439990 0.000000
vt 0.996175 0.294193 0.000000
vt 0.954923 0.501228 0.000000
vt 0.995241 0.927146 0.000000
vt 0.925557 0.504824 0.000000
vt 0.691720 0.964314 0.000000
vt 0.883791 0.485355 0.000000
vt 0.260019 0.763083 0.000000
vt 0.861068 0.474685 0.000000
vt 0.025155 0.652800 0.000000
vt 0.864419 0.447693 0.000000
vt 0.059791 0.373806 0.000000
vt 0.886697 0.439054 0.000000
vt 0.290061 0.284514 0.000000
# 77 texture coordinates

o PoO_classic_Earth_2
usemtl Mat.
f 15/3/1 16/2/1 17/1/1
f 3/7/2 4/6/1 2/5/1
f 28/10/3 2/5/3 1/9/3
f 29/12/4 3/7/5 2/5/4
f 30/14/6 4/6/6 3/7/6
f 31/17/7 5/16/7 4/6/7
f 32/20/8 6/19/8 5/16/8
f 33/23/9 7/22/10 6/19/9
f 34/26/11 8/25/12 7/22/11
f 26/29/13 9/28/13 8/25/13
f 25/32/14 10/31/14 9/28/14
f 24/35/15 11/34/16 10/31/15
f 23/38/17 12/37/17 11/34/17
f 22/41/18 13/40/18 12/37/18
f 21/44/19 14/43/20 13/40/19
f 20/46/21 15/3/21 14/43/21
f 19/48/22 16/2/23 15/3/22
f 18/50/18 17/1/18 16/2/18
f 27/52/24 1/9/25 17/1/24
f 5/16/1 6/19/1 2/5/1
f 7/22/1 8/25/1 10/31/1
f 11/34/1 6/19/1 10/31/1
f 12/37/1 17/1/1 11/34/1
f 15/3/1 17/1/1 14/43/1
f 11/34/1 1/9/1 6/19/1
f 4/6/1 5/16/1 2/5/1
f 6/19/1 1/9/1 2/5/1
f 8/25/1 9/28/2 10/31/1
f 6/19/1 7/22/1 10/31/1
f 17/1/1 1/9/1 11/34/1
f 27/52/3 28/10/3 1/9/3
f 28/10/5 29/12/4 2/5/4
f 29/62/6 30/14/6 3/7/6
f 30/64/7 31/17/7 4/6/7
f 31/17/8 32/20/8 5/16/8
f 32/20/10 33/23/9 6/19/9
f 33/23/12 34/26/11 7/22/11
f 34/66/13 26/29/13 8/25/13
f 26/68/26 25/32/14 9/28/14
f 25/32/27 24/35/15 10/31/15
f 24/35/17 23/38/17 11/34/17
f 23/38/18 22/41/18 12/37/18
f 22/70/28 21/44/19 13/40/19
f 21/72/29 20/46/21 14/43/21
f 20/74/23 19/48/22 15/3/22
f 19/76/18 18/50/18 16/2/18
f 18/50/25 27/52/24 17/1/24
f 12/37/1 13/40/2 14/43/1
f 17/1/1 12/37/1 14/43/1

