# WaveFront *.obj file (generated by Cinema 4D)

mtllib ./PoO_Abydos.mtl

v -0.1282752007246 4.32131814956665 0.1629855632782
v -0.08059675991535 4.32709503173828 0.1629855632782
v -0.08636018633842 4.26784944534302 0.1629855632782
v 0.08283723145723 4.33243894577026 0.1629855632782
v 0.13888151943684 4.31740856170654 0.1629855632782
v 0.10060416907072 4.25863552093506 0.1629855632782
v 0.16829866170883 4.18743896484375 0.1629855632782
v 0.10984597355127 4.1286563873291 0.1629855632782
v 0.12801799178123 4.19796419143677 0.18658794462681
v -0.16829866170883 4.19009399414062 0.18658794462681
v 0.10437814891338 4.1729998588562 0.1629855632782
v 0.02395960502326 4.31335878372192 0.18658794462681
v 0.05278574675322 4.46389532089233 0.18658794462681
v 0.00208954350092 4.27590799331665 0.1629855632782
v 0.10437814891338 4.1729998588562 0.18658794462681
v -0.0407479852438 4.46518516540527 0.18658794462681
v -0.10663650929928 4.17267513275146 0.1629855632782
v 0.10984597355127 4.1286563873291 0.18658794462681
v 0.16829866170883 4.18743896484375 0.18658794462681
v -0.11431293189526 4.13050031661987 0.1629855632782
v -0.16829866170883 4.19009399414062 0.1629855632782
v -0.016278186813 4.31461143493652 0.18658794462681
v -0.11431293189526 4.13050031661987 0.18658794462681
v -0.12866063416004 4.19707822799683 0.1629855632782
v -0.12866063416004 4.19707822799683 0.18658794462681
v 0.10060416907072 4.25863552093506 0.18658794462681
v -0.016278186813 4.31461143493652 0.1629855632782
v -0.10663650929928 4.17267513275146 0.18658794462681
v 0.13888151943684 4.31740856170654 0.18658794462681
v -0.0151772974059 4.42540979385376 0.1629855632782
v 0.08283723145723 4.33243894577026 0.18658794462681
v -0.08636018633842 4.26784944534302 0.18658794462681
v -0.0407479852438 4.46518516540527 0.1629855632782
v 0.05278574675322 4.46389532089233 0.1629855632782
v -0.08059675991535 4.32709503173828 0.18658794462681
v -0.1282752007246 4.32131814956665 0.18658794462681
v 0.02488240227103 4.42431688308716 0.1629855632782
v 0.12801799178123 4.19796419143677 0.1629855632782
v -0.0151772974059 4.42540979385376 0.18658794462681
v 0.02395960502326 4.31335878372192 0.1629855632782
v 0.00208954350092 4.27590799331665 0.18658794462681
v 0.02488240227103 4.42431688308716 0.18658794462681
# 42 vertices

vn 0 0 1
vn 0.95196694135666 -0.30620101094246 0
vn 0.95196694135666 -0.30620098114014 0
vn 0.81730216741562 -0.57620936632156 0
vn -0.12028370052576 0.99273955821991 0
vn 0.99530160427094 -0.09682320058346 0
vn -0.78700512647629 -0.61694651842117 0
vn 0.25903388857841 0.9658682346344 0
vn 0.83795553445816 -0.54573863744736 0
vn -0.97222530841827 -0.23404695093632 0
vn 0.70909374952316 -0.70511424541473 0
vn -0.99248343706131 -0.12237935513258 0
vn -0.84396755695343 -0.53639441728592 0
vn -0.9431186914444 -0.33245638012886 0
vn -0.56457102298737 0.82538449764252 0
vn -0.96755623817444 0.25265547633171 0
vn -0.86905318498611 0.49471858143806 0
vn -0.70923840999603 -0.70496869087219 0
vn -0.70923846960068 -0.70496875047684 0
vn -0.96085959672928 -0.27703610062599 0
vn 0.01378884259611 0.99990499019623 0
vn 0.68854999542236 -0.72518891096115 0
vn 0.92594981193542 -0.37764635682106 0
vn 0.82301419973373 -0.56802070140839 0
vn -0.84117072820663 -0.54076963663101 0
vn -0.84117072820663 -0.54076963663101 0
vn 0.51952576637268 0.85445481538773 0
vn 0.25280922651291 0.9675161242485 0
vn 0.25280925631523 0.96751624345779 0
vn 0.98383593559265 -0.17907227575779 0
vn 0.93492960929871 0.35483300685883 0
vn -0.74111717939377 -0.67137575149536 0
vn -0.17352722585201 0.98482918739319 0
vn -0.37304964661598 0.9278113245964 0
vn -0.78700512647629 -0.61694651842117 0
vn -0.97222530841827 -0.23404695093632 0
vn -0.99248331785202 -0.12237934023142 0
vn -0.74111717939377 -0.67137575149536 0
vn -0.17352721095085 0.9848290681839 0
vn 0 0 1
# 40 normals

vt 0.9197690486908 0.41950130462646 0
vt 0.9265159368515 0.42275643348694 0
vt 0.93356084823608 0.41767513751984 0
vt 0 1 0
vt 0.93148422241211 0.47486782073975 0
vt 0.92679595947266 0.47933411598206 0
vt 0.93459188938141 0.48420286178589 0
vt 0.93502002954483 0.46831858158112 0
vt 0.94358265399933 0.46308577060699 0
vt 0.94004046916962 0.45728957653046 0
vt 0.94493544101715 0.45257973670959 0
vt 0.93631201982498 0.4436172246933 0
vt 0.9314169883728 0.44832706451416 0
vt 0.92462420463562 0.44835603237152 0
vt 0.92468506097794 0.46255147457123 0
vt 0.93147778511047 0.46252238750458 0
vt 0.88688629865646 0.44601321220398 0
vt 0.89895832538605 0.44489252567291 0
vt 0.89833033084869 0.43812870979309 0
vt 0.9045661687851 0.43543469905853 0
vt 0.89875394105911 0.42198157310486 0
vt 0.89251816272736 0.42467558383942 0
vt 0.8862766623497 0.42199468612671 0
vt 0.88001692295074 0.43656861782074 0
vt 0.88625836372375 0.43924939632416 0
vt 0.9366842508316 0.41213154792786 0
vt 0.92254847288132 0.40416717529297 0
vt 0.91942501068115 0.40971088409424 0
vt 0.9129690527916 0.4093644618988 0
vt 0.91249310970306 0.41823709011078 0
vt 0.86956870555878 0.46760022640228 0
vt 0.90264010429382 0.46973860263824 0
vt 0.90637934207916 0.46330642700195 0
vt 0.89963626861572 0.44630634784698 0
vt 0.90441250801086 0.45330536365509 0
vt 0.91465747356415 0.48590171337128 0
vt 0.92026042938232 0.48390638828278 0
vt 0.92338335514069 0.49718606472015 0
vt 0.93740993738174 0.48907768726349 0
vt 0.86932730674744 0.44839072227478 0
vt 0.86803936958313 0.45432066917419 0
vt 0.91584807634354 0.49285399913788 0
vt 0.920565366745 0.49231123924255 0
vt 0.932293176651 0.42709136009216 0
vt 0.93742573261261 0.42189919948578 0
vt 0.86305052042007 0.44591593742371 0
vt 0.86097967624664 0.45045471191406 0
vt 0.91365325450897 0.45837187767029 0
vt 0.85522681474686 0.45041930675507 0
vt 0.85513937473297 0.46464836597443 0
vt 0.86089217662811 0.46468365192413 0
vt 0.86289232969284 0.47007632255554 0
vt 0.86781299114227 0.46096527576447 0
vt 0.92059993743896 0.45745813846588 0
vt 0.93774724006653 0.47991597652435 0
# 55 texture coordinates

o PoO_Abydos
usemtl Mat.
f 19/3/1 9/2/1 15/1/1
f 13/7/4 42/6/3 37/5/2
f 35/10/5 2/9/5 1/8/5
f 32/13/6 3/12/6 2/11/6
f 36/16/7 1/15/7 3/14/7
f 29/19/8 5/18/8 4/17/8
f 26/22/9 6/21/9 5/20/9
f 31/25/10 4/24/10 6/23/10
f 18/28/11 8/27/11 7/26/11
f 15/1/14 11/30/13 8/29/12
f 32/13/1 35/10/1 36/16/1
f 22/33/17 27/32/16 24/31/15
f 41/35/19 14/34/18 11/30/13
f 39/37/20 30/36/20 27/32/16
f 13/7/21 34/39/21 33/38/21
f 28/41/24 17/40/23 14/34/22
f 39/37/20 16/43/26 33/42/25
f 19/3/29 7/45/28 38/44/27
f 23/47/30 20/46/30 17/40/23
f 26/22/1 29/19/1 31/25/1
f 12/48/31 9/2/27 38/44/27
f 10/51/32 21/50/32 20/49/32
f 25/53/34 24/31/15 21/52/33
f 12/48/31 40/54/31 37/5/2
f 34/55/4 13/7/4 37/5/2
f 36/16/5 35/10/5 1/8/5
f 35/10/6 32/13/6 2/11/6
f 32/13/35 36/16/7 3/14/7
f 31/25/8 29/19/8 4/17/8
f 29/19/9 26/22/9 5/20/9
f 26/22/36 31/25/10 6/23/10
f 19/3/11 18/28/11 7/26/11
f 18/28/37 15/1/14 8/29/12
f 25/53/34 22/33/17 24/31/15
f 15/1/14 41/35/19 11/30/13
f 22/33/17 39/37/20 27/32/16
f 16/43/21 13/7/21 33/38/21
f 41/35/22 28/41/24 14/34/22
f 30/36/20 39/37/20 33/42/25
f 9/2/27 19/3/29 38/44/27
f 28/41/24 23/47/30 17/40/23
f 40/54/31 12/48/31 38/44/27
f 23/47/38 10/51/32 20/49/32
f 10/51/39 25/53/34 21/52/33
f 42/6/3 12/48/31 37/5/2
f 9/2/1 12/48/1 41/35/1
f 41/35/1 22/33/1 25/53/1
f 28/41/1 25/53/1 10/51/1
f 42/6/1 39/37/1 22/33/1
f 39/37/1 42/6/1 13/7/1
f 22/33/1 41/35/1 12/48/1
f 15/1/1 9/2/1 41/35/1
f 28/41/1 41/35/1 25/53/1
f 23/47/1 28/41/1 10/51/1
f 12/48/1 42/6/1 22/33/1
f 16/43/40 39/37/1 13/7/1
f 18/28/1 19/3/1 15/1/1

