# Blender v3.1.2 OBJ File: ''
# www.blender.org
mtllib origin_10.mtl
o origin_old_ring_Circle.000
v 0.000374 4.324284 0.092321
v 0.000209 4.324971 0.186913
v 0.146987 4.131474 0.186913
v -0.139030 4.128290 0.092321
v 0.026262 4.458452 0.163405
v 0.017992 4.462780 0.163405
v 0.017992 4.462780 0.184821
v 0.009036 4.465411 0.163405
v 0.043985 4.437236 0.163405
v 0.039513 4.445430 0.163405
v 0.039513 4.445430 0.184821
v -0.033220 4.384668 0.163405
v -0.025953 4.378810 0.163405
v -0.025953 4.378810 0.184821
v -0.001206 4.259369 0.186913
v -0.054068 4.167482 0.186913
v -0.053903 4.166795 0.092321
v -0.017683 4.374482 0.163405
v -0.017683 4.374482 0.184821
v -0.009542 4.465249 0.184821
v -0.018451 4.462462 0.184821
v 0.026262 4.458452 0.184821
v 0.033529 4.452593 0.184821
v 0.026953 4.379272 0.184821
v 0.026953 4.379272 0.163405
v 0.034117 4.385256 0.163405
v 0.009036 4.465411 0.184821
v -0.000261 4.466244 0.163405
v -0.018451 4.462462 0.163405
v -0.026644 4.457990 0.163405
v 0.044303 4.400795 0.184821
v 0.044303 4.400795 0.163405
v 0.046935 4.409750 0.163405
v -0.039666 4.444739 0.184821
v -0.039666 4.444739 0.163405
v -0.043994 4.436468 0.163405
v 0.047769 4.419046 0.163405
v 0.046773 4.428328 0.163405
v 0.046773 4.428328 0.184821
v -0.009542 4.465249 0.163405
v 0.000570 4.371017 0.184821
v 0.000570 4.371017 0.163405
v 0.009851 4.372014 0.163405
v 0.009851 4.372014 0.184821
v -0.008726 4.371852 0.184821
v -0.039204 4.391832 0.163405
v -0.033220 4.384668 0.184821
v -0.039204 4.391832 0.184821
v -0.043676 4.400027 0.184821
v -0.047460 4.418215 0.163405
v -0.047460 4.418215 0.184821
v -0.046626 4.427513 0.184821
v 0.043985 4.437236 0.184821
v 0.039816 4.131837 0.092321
v 0.039651 4.132524 0.186913
v 0.059144 4.176419 0.186913
v -0.033808 4.452005 0.184821
v -0.033808 4.452005 0.163405
v -0.046464 4.408935 0.163405
v -0.008726 4.371852 0.163405
v 0.018760 4.374800 0.163405
v -0.027738 4.129261 0.092321
v 0.059308 4.175735 0.092321
v 0.039975 4.392523 0.184821
v 0.034117 4.385256 0.184821
v 0.039975 4.392523 0.163405
v 0.047769 4.419046 0.184821
v 0.046935 4.409750 0.184821
v 0.033529 4.452593 0.163405
v -0.046626 4.427513 0.163405
v -0.043676 4.400027 0.163405
v -0.046464 4.408935 0.184821
v 0.018760 4.374800 0.184821
v -0.139195 4.128977 0.186913
v -0.000261 4.466244 0.184821
v -0.026644 4.457990 0.184821
v -0.043994 4.436468 0.184821
v 0.147151 4.130788 0.092321
v -0.027902 4.129947 0.186913
v -0.001042 4.258683 0.092321
vt 0.870810 0.676394
vt 0.878623 0.669116
vt 0.876449 0.644962
vt 0.907997 0.679915
vt 0.641327 0.673364
vt 0.641466 0.672066
vt 0.638911 0.671982
vt 0.641317 0.670713
vt 0.639515 0.676643
vt 0.640342 0.675674
vt 0.638242 0.674364
vt 0.627717 0.669201
vt 0.627290 0.670417
vt 0.629631 0.670979
vt 0.885507 0.663156
vt 0.895818 0.667137
vt 0.897797 0.659413
vt 0.627076 0.671725
vt 0.629538 0.671843
vt 0.638865 0.672832
vt 0.638633 0.673634
vt 0.631684 0.675676
vt 0.630253 0.677971
vt 0.631712 0.678517
vt 0.638772 0.671111
vt 0.640890 0.669349
vt 0.637295 0.668717
vt 0.639153 0.666712
vt 0.637741 0.665862
vt 0.634443 0.676331
vt 0.634647 0.678793
vt 0.636050 0.678555
vt 0.634712 0.667506
vt 0.634898 0.665035
vt 0.633542 0.665024
vt 0.637341 0.678099
vt 0.638502 0.677459
vt 0.637025 0.675537
vt 0.640184 0.667992
vt 0.637954 0.669438
vt 0.629863 0.673592
vt 0.627410 0.674470
vt 0.627987 0.675828
vt 0.628330 0.668105
vt 0.629882 0.670161
vt 0.630272 0.669416
vt 0.630792 0.668765
vt 0.631080 0.665685
vt 0.632139 0.667816
vt 0.632947 0.667551
vt 0.637704 0.675005
vt 0.888930 0.642835
vt 0.883082 0.649166
vt 0.882028 0.652672
vt 0.635613 0.667738
vt 0.636310 0.665300
vt 0.630012 0.666319
vt 0.629612 0.672727
vt 0.627104 0.673091
vt 0.628897 0.677107
vt 0.905828 0.661637
vt 0.890212 0.651135
vt 0.633495 0.676285
vt 0.632557 0.676067
vt 0.633189 0.678793
vt 0.636245 0.675945
vt 0.635372 0.676214
vt 0.640946 0.674571
vt 0.630300 0.674405
vt 0.632260 0.665239
vt 0.629092 0.667139
vt 0.631414 0.668225
vt 0.902214 0.673561
vt 0.870810 0.638459
vt 0.898935 0.666436
vt 0.890839 0.657884
vt 0.638456 0.670251
vt 0.636496 0.668146
vt 0.633811 0.667445
vt 0.630903 0.675117
vn 0.7967 0.6043 -0.0030
vn -0.8149 0.5796 -0.0056
vn 0.5483 0.8363 0.0000
vn 0.3746 0.9272 0.0000
vn 0.2186 0.9758 -0.0000
vn 0.9205 0.3908 0.0000
vn 0.8266 0.5628 0.0000
vn -0.6771 -0.7359 0.0000
vn -0.5483 -0.8363 0.0000
vn 0.8668 -0.4986 0.0051
vn 0.8668 -0.4987 0.0051
vn -0.4047 -0.9144 -0.0000
vn -0.3439 -0.9390 0.0000
vn 0.6771 0.7358 0.0000
vn 0.5628 -0.8266 0.0000
vn 0.7132 -0.7009 0.0000
vn 0.1541 0.9881 0.0000
vn -0.0087 1.0000 0.0000
vn -0.4207 0.9072 -0.0000
vn -0.3603 0.9328 -0.0000
vn -0.5628 0.8266 0.0000
vn 0.9390 -0.3440 -0.0000
vn 0.9144 -0.4048 -0.0000
vn 0.9758 -0.2187 -0.0000
vn -0.8538 0.5205 -0.0000
vn -0.8178 0.5754 -0.0000
vn -0.9272 0.3746 0.0000
vn 1.0000 0.0087 0.0000
vn 0.9790 0.2037 0.0000
vn -0.2036 0.9791 0.0000
vn 0.0416 -0.9991 -0.0000
vn -0.0242 -0.9997 0.0000
vn 0.1714 -0.9852 0.0000
vn -0.8266 -0.5628 0.0000
vn -0.7239 -0.6899 0.0000
vn -0.9072 -0.4207 -0.0000
vn -0.9997 0.0241 -0.0000
vn -0.9991 -0.0415 0.0000
vn -0.9824 0.1866 0.0000
vn -0.9139 0.4059 -0.0045
vn -0.7133 0.7009 0.0000
vn -0.9852 -0.1714 -0.0000
vn -0.1542 -0.9880 -0.0000
vn -0.2186 -0.9758 0.0000
vn 0.3907 -0.9205 0.0000
vn 0.8203 0.5719 -0.0027
vn -0.8086 -0.5883 0.0028
vn 0.8363 -0.5482 0.0000
vn 0.9880 -0.1542 0.0000
vn 0.7240 0.6898 -0.0000
vn 0.2356 -0.9719 0.0000
vn -0.9328 -0.3604 0.0000
vn -0.9718 -0.2357 0.0000
vn 0.0087 -0.9999 0.0073
vn -0.0098 -0.9999 0.0072
vn -0.0000 -0.0000 1.0000
vn -0.9139 0.4058 -0.0045
vn -0.8086 -0.5883 0.0029
usemtl Default
s 1
f 1/1/1 2/2/1 3/3/1
f 2/2/2 1/1/2 4/4/2
f 5/5/3 6/6/4 7/7/4
f 7/7/4 6/6/4 8/8/5
f 9/9/6 10/10/7 11/11/7
f 12/12/8 13/13/9 14/14/9
f 15/15/10 16/16/11 17/17/10
f 18/18/12 19/19/13 14/14/9
f 5/5/3 22/20/3 23/21/14
f 24/22/15 25/23/15 26/24/16
f 27/25/17 8/8/5 28/26/18
f 21/27/19 29/28/20 30/29/21
f 31/30/22 32/31/23 33/32/24
f 34/33/25 35/34/26 36/35/27
f 37/36/28 38/37/29 39/38/29
f 28/26/18 40/39/30 20/40/30
f 41/41/31 42/42/32 43/43/33
f 46/44/34 12/12/8 47/45/35
f 46/44/34 48/46/34 49/47/36
f 50/48/37 51/49/38 52/50/39
f 9/9/6 53/51/6 39/38/29
f 54/52/40 55/53/40 56/54/40
f 57/55/41 58/56/41 35/34/26
f 51/49/38 50/48/37 59/57/42
f 45/58/43 60/59/44 42/42/32
f 61/60/45 25/23/15 24/22/15
f 19/19/13 18/18/12 60/59/44
f 62/61/46 17/17/46 16/16/46
f 63/62/47 56/54/47 15/15/47
f 64/63/48 65/64/16 26/24/16
f 64/63/48 66/65/48 32/31/23
f 29/28/20 21/27/19 20/40/30
f 30/29/21 58/56/41 57/55/41
f 37/36/28 67/66/28 68/67/49
f 11/11/7 10/10/7 69/68/50
f 44/69/51 43/43/33 61/60/45
f 36/35/27 70/70/39 52/50/39
f 71/71/52 49/47/36 72/72/53
f 74/73/54 4/4/54 62/61/54
f 78/74/55 3/3/55 55/53/55
f 16/16/56 15/15/56 56/54/56 55/53/56 3/3/56 2/2/56 74/73/56 79/75/56
f 78/74/1 1/1/1 3/3/1
f 74/73/2 2/2/2 4/4/2
f 22/20/3 5/5/3 7/7/4
f 27/25/17 7/7/4 8/8/5
f 53/51/6 9/9/6 11/11/7
f 47/45/35 12/12/8 14/14/9
f 80/76/10 15/15/10 17/17/10
f 13/13/9 18/18/12 14/14/9
f 69/68/50 5/5/3 23/21/14
f 65/64/16 24/22/15 26/24/16
f 75/77/18 27/25/17 28/26/18
f 76/78/21 21/27/19 30/29/21
f 68/67/49 31/30/22 33/32/24
f 77/79/27 34/33/25 36/35/27
f 67/66/28 37/36/28 39/38/29
f 75/77/18 28/26/18 20/40/30
f 44/69/51 41/41/31 43/43/33
f 48/46/34 46/44/34 47/45/35
f 71/71/52 46/44/34 49/47/36
f 70/70/39 50/48/37 52/50/39
f 38/37/29 9/9/6 39/38/29
f 63/62/57 54/52/57 56/54/57
f 34/33/25 57/55/41 35/34/26
f 72/72/53 51/49/38 59/57/42
f 41/41/31 45/58/43 42/42/32
f 73/80/45 61/60/45 24/22/15
f 45/58/43 19/19/13 60/59/44
f 79/75/46 62/61/46 16/16/46
f 80/76/58 63/62/58 15/15/58
f 66/65/48 64/63/48 26/24/16
f 31/30/22 64/63/48 32/31/23
f 40/39/30 29/28/20 20/40/30
f 76/78/21 30/29/21 57/55/41
f 33/32/24 37/36/28 68/67/49
f 23/21/14 11/11/7 69/68/50
f 73/80/45 44/69/51 61/60/45
f 77/79/27 36/35/27 52/50/39
f 59/57/42 71/71/52 72/72/53
f 79/75/54 74/73/54 62/61/54
f 54/52/55 78/74/55 55/53/55
f 20/40/56 21/27/56 76/78/56 57/55/56 34/33/56 77/79/56 52/50/56 51/49/56 72/72/56 49/47/56 48/46/56 47/45/56 14/14/56 19/19/56 45/58/56 41/41/56 44/69/56 73/80/56 24/22/56 65/64/56 64/63/56 31/30/56 68/67/56 67/66/56 39/38/56 53/51/56 11/11/56 23/21/56 22/20/56 7/7/56 27/25/56 75/77/56
