# WaveFront *.obj file (generated by Cinema 4D)

mtllib ./PoO_Classic_Earth_1.mtl

v 0 4.43694019317627 0.18666589260101
v 0.00030323633109 4.36917781829834 0.15644128620625
v 0.02926029637456 4.43694019317627 0.18666589260101
v 0.02926029637456 4.43694019317627 0.15646414458752
v 0.02881576679647 4.43185949325562 0.18666589260101
v 0.02881576679647 4.43185949325562 0.15646414458752
v 0.02749568596482 4.42693281173706 0.18666589260101
v 0.02749568596482 4.42693281173706 0.15646414458752
v 0.02534016035497 4.42231035232544 0.18666589260101
v 0.02534016035497 4.42231035232544 0.15646414458752
v 0.02241468802094 4.41813230514526 0.18666589260101
v 0.02241468802094 4.41813230514526 0.15646414458752
v 0.01880815625191 4.41452550888062 0.18666589260101
v 0.01880815625191 4.41452550888062 0.15646414458752
v 0.01463014818728 4.41160011291504 0.18666589260101
v 0.01463014818728 4.41160011291504 0.15646414458752
v 0.01000761054456 4.40944480895996 0.18666589260101
v 0.01000761054456 4.40944480895996 0.15646414458752
v 0.00508099747822 4.4081244468689 0.18666589260101
v 0.00508099747822 4.4081244468689 0.15646414458752
v 0 4.40768003463745 0.18666589260101
v 0 4.40768003463745 0.15646414458752
v -0.00508099747822 4.4081244468689 0.18666589260101
v -0.00508099747822 4.4081244468689 0.15646414458752
v -0.01000761054456 4.40944480895996 0.18666589260101
v -0.01000761054456 4.40944480895996 0.15646414458752
v -0.01463014818728 4.41160011291504 0.18666589260101
v -0.01463014818728 4.41160011291504 0.15646414458752
v -0.01880815625191 4.41452550888062 0.18666589260101
v -0.01880815625191 4.41452550888062 0.15646414458752
v -0.02241468802094 4.41813230514526 0.18666589260101
v -0.02241468802094 4.41813230514526 0.15646414458752
v -0.02534016035497 4.42231035232544 0.18666589260101
v -0.02534016035497 4.42231035232544 0.15646414458752
v -0.02749568596482 4.42693281173706 0.18666589260101
v -0.02749568596482 4.42693281173706 0.15646414458752
v -0.02881576679647 4.43185949325562 0.18666589260101
v -0.02881576679647 4.43185949325562 0.15646414458752
v -0.02926029637456 4.43694019317627 0.18666589260101
v -0.02926029637456 4.43694019317627 0.15646414458752
v -0.02881576679647 4.44202136993408 0.18666589260101
v -0.02881576679647 4.44202136993408 0.15646414458752
v -0.02749568596482 4.44694805145264 0.18666589260101
v -0.02749568596482 4.44694805145264 0.15646414458752
v -0.02534016035497 4.45157051086426 0.18666589260101
v -0.02534016035497 4.45157051086426 0.15646414458752
v -0.02241468802094 4.45574855804443 0.18666589260101
v -0.02241468802094 4.45574855804443 0.15646414458752
v -0.01880815625191 4.45935487747192 0.18666589260101
v -0.01880815625191 4.45935487747192 0.15646414458752
v -0.01463014818728 4.4622802734375 0.18666589260101
v -0.01463014818728 4.4622802734375 0.15646414458752
v -0.01000761054456 4.46443605422974 0.18666589260101
v -0.01000761054456 4.46443605422974 0.15646414458752
v -0.00508099747822 4.46575593948364 0.18666589260101
v -0.00508099747822 4.46575593948364 0.15646414458752
v 0 4.46620082855225 0.18666589260101
v 0 4.46620082855225 0.15646414458752
v 0.00508099747822 4.46575593948364 0.18666589260101
v 0.00508099747822 4.46575593948364 0.15646414458752
v 0.01000761054456 4.46443605422974 0.18666589260101
v 0.01000761054456 4.46443605422974 0.15646414458752
v 0.01463014818728 4.4622802734375 0.18666589260101
v 0.01463014818728 4.4622802734375 0.15646414458752
v 0.01880815625191 4.45935487747192 0.18666589260101
v 0.01880815625191 4.45935487747192 0.15646414458752
v 0.02241468802094 4.45574855804443 0.18666589260101
v 0.02241468802094 4.45574855804443 0.15646414458752
v 0.02534016035497 4.45157051086426 0.18666589260101
v 0.02534016035497 4.45157051086426 0.15646414458752
v 0.02749568596482 4.44694805145264 0.18666589260101
v 0.02749568596482 4.44694805145264 0.15646414458752
v 0.02881576679647 4.44202136993408 0.18666589260101
v 0.02881576679647 4.44202136993408 0.15646414458752
v 0.14574551582336 4.1272087097168 0.15644128620625
v 0.05209244787693 4.11841917037964 0.15644128620625
v 0.10147605836391 4.16268825531006 0.15644128620625
v 0.00030323633109 4.3325572013855 0.15644128620625
v 0.00030323633109 4.36917781829834 0.18664301931858
v -0.16525937616825 4.1270489692688 0.18664301931858
v -0.06233689561486 4.11841917037964 0.18664301931858
v -0.11571595072746 4.16300821304321 0.18664301931858
v 0.00030323633109 4.3325572013855 0.18664301931858
v 0.10147605836391 4.16268825531006 0.18664301931858
v 0.05209244787693 4.11841917037964 0.18664301931858
v 0.14574551582336 4.1272087097168 0.18664301931858
v -0.11571595072746 4.16300821304321 0.15644128620625
v -0.06233689561486 4.11841917037964 0.15644128620625
v -0.16525937616825 4.1270489692688 0.15644128620625
# 89 vertices

vn 0 0 1
vn 0 0 1
vn -0.82547324895859 0.56444126367569 0
vn 0.99957489967346 -0.02915489673615 0
vn 0.99957513809204 0.02914675883949 0
vn 0.98945081233978 -0.14486888051033 0
vn -0.08355435729027 -0.99650323390961 0
vn -0.08355435729027 -0.99650323390961 0
vn 0.97932744026184 -0.20228123664856 0
vn 0.94926333427429 -0.31448200345039 0
vn 0.6410875916481 0.76746773719788 0
vn 0.92932200431824 -0.36927023530006 0
vn 0.88023120164871 -0.47454506158829 0
vn 0.82528012990952 -0.56472367048264 0
vn 0.85108262300491 -0.52503192424774 0
vn 0.78446590900421 -0.62017196416855 0
vn 0.85708516836166 0.5151749253273 0
vn 0.85708504915237 0.51517486572266 0
vn 0.74699860811234 -0.66482561826706 0
vn 0.66486018896103 -0.74696773290634 0
vn 0.0934415012598 -0.99562478065491 0
vn 0.62018692493439 -0.7844540476799 0
vn 0.52501446008682 -0.85109329223633 0
vn -0.667495906353 0.744613468647 0
vn 0.4745157957077 -0.88024705648422 0
vn 0.36925935745239 -0.9293264746666 0
vn -0.85915869474411 -0.51170921325684 0
vn 0.31450355052948 -0.94925636053085 0
vn 0.20230922102928 -0.9793216586113 0
vn 0.98945164680481 0.14486348628998 0
vn 0.97932803630829 0.20227858424187 0
vn 0.14486901462078 -0.98945081233978 0
vn 0.02914279699326 -0.99957519769669 0
vn -0.02914279699326 -0.99957519769669 0
vn -0.14486901462078 -0.98945081233978 0
vn 0.94926333427429 0.31448200345039 0
vn 0.92932200431824 0.36927023530006 0
vn -0.20230922102928 -0.9793216586113 0
vn -0.31450355052948 -0.94925636053085 0
vn -0.36925935745239 -0.9293264746666 0
vn -0.4745157957077 -0.88024705648422 0
vn 0.88023120164871 0.47454503178596 0
vn 0.85108262300491 0.52503192424774 0
vn -0.52501446008682 -0.85109329223633 0
vn -0.62018692493439 -0.7844540476799 0
vn -0.66486018896103 -0.74696773290634 0
vn -0.74699860811234 -0.66482561826706 0
vn 0.78445219993591 0.62018918991089 0
vn 0.74696916341782 0.66485857963562 0
vn -0.78446590900421 -0.62017196416855 0
vn -0.85108262300491 -0.52503192424774 0
vn -0.88023120164871 -0.47454506158829 0
vn -0.92932200431824 -0.36927023530006 0
vn 0.66482734680176 0.74699711799622 0
vn 0.62016969919205 0.78446763753891 0
vn -0.94926333427429 -0.31448200345039 0
vn -0.97932744026184 -0.20228123664856 0
vn -0.98945081233978 -0.14486888051033 0
vn -0.99957489967346 -0.02915489673615 0
vn 0.52503842115402 0.85107851028442 0
vn 0.47456559538841 0.88022011518478 0
vn -0.99957513809204 0.02914675883949 0
vn -0.98945164680481 0.14486350119114 0
vn -0.97932803630829 0.20227858424187 0
vn -0.94926333427429 0.31448200345039 0
vn 0.36928403377533 0.92931658029556 0
vn 0.31447303295136 0.94926637411118 0
vn -0.92932200431824 0.36927023530006 0
vn -0.88023120164871 0.47454506158829 0
vn -0.85108262300491 0.52503192424774 0
vn -0.78445219993591 0.62018918991089 0
vn 0.20228046178818 0.97932761907578 0
vn 0.14490088820457 0.98944616317749 0
vn -0.74696916341782 0.66485857963562 0
vn -0.66482734680176 0.74699711799622 0
vn -0.62016969919205 0.78446763753891 0
vn -0.52503842115402 0.85107851028442 0
vn 0.02917404286563 0.99957436323166 0
vn -0.02917404286563 0.99957436323166 0
vn -0.47456559538841 0.88022011518478 0
vn -0.36928403377533 0.92931658029556 0
vn -0.31447303295136 0.94926637411118 0
vn -0.2022804915905 0.97932761907578 0
vn -0.14490088820457 0.98944616317749 0
vn 0 0 1
# 85 normals

vt 0.8719482421875 0.42266452312469 0
vt 0.8754495382309 0.43706357479095 0
vt 0.88180613517761 0.42697167396545 0
vt 0 1 0
vt 0.9436411857605 0.42284905910492 0
vt 0.93552911281586 0.42246925830841 0
vt 0.93184065818787 0.50125372409821 0
vt 0.90756177902222 0.4474116563797 0
vt 0.90866088867188 0.44361782073975 0
vt 0.90798759460449 0.44348073005676 0
vt 0.91074776649475 0.43599307537079 0
vt 0.90873551368713 0.43563234806061 0
vt 0.92977911233902 0.50773268938065 0
vt 0.9096839427948 0.49420356750488 0
vt 0.90729963779449 0.44346129894257 0
vt 0.90669786930084 0.4356232881546 0
vt 0.90661263465881 0.48851084709167 0
vt 0.92660391330719 0.4862163066864 0
vt 0.90662372112274 0.44358944892883 0
vt 0.90463721752167 0.43582355976105 0
vt 0.91972255706787 0.48143780231476 0
vt 0.93080019950867 0.42640101909637 0
vt 0.90597105026245 0.4438042640686 0
vt 0.90268194675446 0.43652367591858 0
vt 0.87192738056183 0.41586267948151 0
vt 0.90538108348846 0.44415521621704 0
vt 0.90077912807465 0.43743348121643 0
vt 0.87082636356354 0.43818783760071 0
vt 0.9048433303833 0.44457960128784 0
vt 0.89915359020233 0.43878817558289 0
vt 0.88436722755432 0.43201315402985 0
vt 0.90438795089722 0.44509172439575 0
vt 0.89779460430145 0.44039905071259 0
vt 0.92371296882629 0.43321430683136 0
vt 0.90402865409851 0.44567608833313 0
vt 0.89674067497253 0.4422150850296 0
vt 0.90930008888245 0.44386827945709 0
vt 0.91267335414886 0.43669748306274 0
vt 0.90377628803253 0.44631469249725 0
vt 0.89602100849152 0.44417941570282 0
vt 0.9036386013031 0.44698786735535 0
vt 0.89565443992615 0.44623160362244 0
vt 0.90988647937775 0.44422495365143 0
vt 0.91445314884186 0.43772661685944 0
vt 0.90361964702606 0.44767546653748 0
vt 0.89564907550812 0.44830882549286 0
vt 0.90371990203857 0.44835662841797 0
vt 0.8960018157959 0.45034837722778 0
vt 0.91040241718292 0.44467723369598 0
vt 0.91603195667267 0.43905103206635 0
vt 0.90393650531769 0.44901144504547 0
vt 0.89669859409332 0.45228910446167 0
vt 0.90428900718689 0.44960403442383 0
vt 0.89760267734528 0.45417833328247 0
vt 0.91083264350891 0.44521164894104 0
vt 0.91736114025116 0.44063210487366 0
vt 0.9047155380249 0.45014488697052 0
vt 0.8989462852478 0.45579349994659 0
vt 0.90524911880493 0.45057916641235 0
vt 0.90047168731689 0.45728588104248 0
vt 0.91116392612457 0.44581246376038 0
vt 0.91839861869812 0.44242322444916 0
vt 0.90583384037018 0.45093858242035 0
vt 0.90232443809509 0.45835936069489 0
vt 0.90647280216217 0.45118951797485 0
vt 0.90432906150818 0.45908963680267 0
vt 0.91138637065887 0.44646143913269 0
vt 0.91911160945892 0.44437074661255 0
vt 0.90714621543884 0.45132446289062 0
vt 0.90642368793488 0.45945763587952 0
vt 0.90783309936523 0.45133948326111 0
vt 0.90854430198669 0.45945465564728 0
vt 0.91149306297302 0.44713938236237 0
vt 0.91947722434998 0.44641613960266 0
vt 0.90851223468781 0.45123410224915 0
vt 0.91062641143799 0.45908319950104 0
vt 0.9091625213623 0.45101177692413 0
vt 0.91260743141174 0.4583568572998 0
vt 0.91148066520691 0.44782555103302 0
vt 0.91948258876801 0.44849789142609 0
vt 0.90976405143738 0.45067942142487 0
vt 0.91442775726318 0.45729923248291 0
vt 0.91029846668243 0.45024740695953 0
vt 0.91603338718414 0.4559440612793 0
vt 0.9113495349884 0.44849944114685 0
vt 0.91912615299225 0.45055270195007 0
vt 0.9107494354248 0.44972920417786 0
vt 0.91737639904022 0.45433366298676 0
vt 0.91110336780548 0.44914054870605 0
vt 0.91841745376587 0.45251798629761 0
vt 0.93995273113251 0.50163346529007 0
vt 0.90762239694595 0.50068253278732 0
vt 0.93550825119019 0.41566753387451 0
vt 0.86732506752014 0.42378866672516 0
vt 0.87857985496521 0.43937516212463 0
# 95 texture coordinates

o PoO_Classic_Earth_1.1
usemtl Mat.
f 84/3/1 85/2/2 86/1/1
f 80/7/3 79/6/3 2/5/3
f 5/10/1 3/9/1 1/8/1
f 6/12/6 4/11/5 3/9/4
f 81/14/7 80/7/8 89/13/7
f 7/15/1 5/10/1 1/8/1
f 8/16/10 6/12/6 5/10/9
f 82/18/11 81/14/11 88/17/11
f 9/19/1 7/15/1 1/8/1
f 10/20/13 8/16/10 7/15/12
f 83/22/14 82/18/14 87/21/14
f 11/23/1 9/19/1 1/8/1
f 12/24/16 10/20/13 9/19/15
f 79/6/17 86/1/18 75/25/17
f 13/26/1 11/23/1 1/8/1
f 14/27/20 12/24/16 11/23/19
f 86/1/21 85/2/21 76/28/21
f 15/29/1 13/26/1 1/8/1
f 16/30/23 14/27/20 13/26/22
f 85/2/24 84/3/24 77/31/24
f 17/32/1 15/29/1 1/8/1
f 18/33/26 16/30/23 15/29/25
f 78/34/27 77/31/27 84/3/27
f 19/35/1 17/32/1 1/8/1
f 20/36/29 18/33/26 17/32/28
f 4/11/5 74/38/31 73/37/30
f 21/39/1 19/35/1 1/8/1
f 22/40/33 20/36/29 19/35/32
f 3/9/1 73/37/1 1/8/1
f 23/41/1 21/39/1 1/8/1
f 24/42/35 22/40/33 21/39/34
f 74/38/31 72/44/37 71/43/36
f 25/45/1 23/41/1 1/8/1
f 26/46/39 24/42/35 23/41/38
f 73/37/1 71/43/1 1/8/1
f 27/47/1 25/45/1 1/8/1
f 28/48/41 26/46/39 25/45/40
f 72/44/37 70/50/43 69/49/42
f 29/51/1 27/47/1 1/8/1
f 30/52/45 28/48/41 27/47/44
f 71/43/1 69/49/1 1/8/1
f 31/53/1 29/51/1 1/8/1
f 32/54/47 30/52/45 29/51/46
f 70/50/43 68/56/49 67/55/48
f 33/57/1 31/53/1 1/8/1
f 34/58/51 32/54/47 31/53/50
f 69/49/1 67/55/1 1/8/1
f 35/59/1 33/57/1 1/8/1
f 36/60/53 34/58/51 33/57/52
f 68/56/49 66/62/55 65/61/54
f 37/63/1 35/59/1 1/8/1
f 38/64/57 36/60/53 35/59/56
f 67/55/1 65/61/1 1/8/1
f 39/65/1 37/63/1 1/8/1
f 40/66/59 38/64/57 37/63/58
f 66/62/55 64/68/61 63/67/60
f 41/69/1 39/65/1 1/8/1
f 42/70/63 40/66/59 39/65/62
f 65/61/1 63/67/1 1/8/1
f 43/71/1 41/69/1 1/8/1
f 44/72/65 42/70/63 41/69/64
f 64/68/61 62/74/67 61/73/66
f 45/75/1 43/71/1 1/8/1
f 46/76/69 44/72/65 43/71/68
f 63/67/1 61/73/1 1/8/1
f 47/77/1 45/75/1 1/8/1
f 48/78/71 46/76/69 45/75/70
f 62/74/67 60/80/73 59/79/72
f 49/81/1 47/77/1 1/8/1
f 50/82/75 48/78/71 47/77/74
f 61/73/1 59/79/1 1/8/1
f 51/83/1 49/81/1 1/8/1
f 52/84/77 50/82/75 49/81/76
f 60/80/73 58/86/79 57/85/78
f 53/87/1 51/83/1 1/8/1
f 54/88/81 52/84/77 51/83/80
f 59/79/1 57/85/1 1/8/1
f 55/89/1 53/87/1 1/8/1
f 56/90/83 54/88/81 53/87/82
f 58/86/79 56/90/83 55/89/84
f 57/85/1 55/89/1 1/8/1
f 89/91/3 80/7/3 2/5/3
f 5/10/9 6/12/6 3/9/4
f 88/92/7 81/14/7 89/13/7
f 7/15/12 8/16/10 5/10/9
f 87/21/11 82/18/11 88/17/11
f 9/19/15 10/20/13 7/15/12
f 78/34/14 83/22/14 87/21/14
f 11/23/19 12/24/16 9/19/15
f 2/93/18 79/6/17 75/25/17
f 13/26/22 14/27/20 11/23/19
f 75/94/21 86/1/21 76/28/21
f 15/29/25 16/30/23 13/26/22
f 76/95/24 85/2/24 77/31/24
f 17/32/28 18/33/26 15/29/25
f 83/22/27 78/34/27 84/3/27
f 19/35/32 20/36/29 17/32/28
f 3/9/4 4/11/5 73/37/30
f 21/39/34 22/40/33 19/35/32
f 23/41/38 24/42/35 21/39/34
f 73/37/30 74/38/31 71/43/36
f 25/45/40 26/46/39 23/41/38
f 27/47/44 28/48/41 25/45/40
f 71/43/36 72/44/37 69/49/42
f 29/51/46 30/52/45 27/47/44
f 31/53/50 32/54/47 29/51/46
f 69/49/42 70/50/43 67/55/48
f 33/57/52 34/58/51 31/53/50
f 35/59/56 36/60/53 33/57/52
f 67/55/48 68/56/49 65/61/54
f 37/63/58 38/64/57 35/59/56
f 39/65/62 40/66/59 37/63/58
f 65/61/54 66/62/55 63/67/60
f 41/69/64 42/70/63 39/65/62
f 43/71/68 44/72/65 41/69/64
f 63/67/60 64/68/61 61/73/66
f 45/75/70 46/76/69 43/71/68
f 47/77/74 48/78/71 45/75/70
f 61/73/66 62/74/67 59/79/72
f 49/81/76 50/82/75 47/77/74
f 51/83/80 52/84/77 49/81/76
f 59/79/72 60/80/73 57/85/78
f 53/87/82 54/88/81 51/83/80
f 55/89/84 56/90/83 53/87/82
f 57/85/78 58/86/79 55/89/84
f 83/22/1 84/3/1 86/1/1
f 82/18/1 83/22/1 79/6/1
f 80/7/1 81/14/85 82/18/1
f 79/6/1 83/22/1 86/1/1
f 80/7/1 82/18/1 79/6/1

