# WaveFront *.obj file (generated by Cinema 4D)

mtllib ./iris_blade.mtl

v -0.43242052197456 4.13725090026855 0.10730496793985
v 0.06112408638 4.07731819152832 0.10836906731129
v 3.66237950325012 2.668208360672 0.0579706504941
v 3.64356422424316 0.49471580982208 0.0590287335217
v 2.65216445922852 2.53806400299072 0.0590287335217
v 3.16289520263672 1.80610930919647 0.0590287335217
v 3.99867486953735 2.27590012550354 0.0579706504941
v 4.32059383392334 1.81101322174072 0.0579706504941
v 2.36297917366028 2.84440088272095 0.06252182275057
v 3.51404428482056 0.97622436285019 0.0590287335217
v 4.58344173431396 1.30111074447632 0.0579706504941
v 4.58344173431396 1.30111074447632 0.07938427478075
v 3.36365175247192 1.38164007663727 0.0590287335217
v 4.9746618270874 -0.29209184646606 0.07938427478075
v 2.94249272346497 2.16443109512329 0.0590287335217
v 4.32059383392334 1.81101322174072 0.07938427478075
v 4.7836422920227 0.74076730012894 0.0579706504941
v 3.72496819496155 -0.57257848978043 0.0590287335217
v 4.9746618270874 -0.29209184646606 0.0579706504941
v 1.98907101154327 3.1671895980835 0.07967261224985
v 1.64302623271942 3.41250371932983 0.08637960255146
v 4.90066909790039 0.27418607473373 0.0579706504941
v 2.86591100692749 3.35631775856018 0.0579706504941
v 3.71565389633179 -0.02494568005204 0.0590287335217
v 1.25963270664215 3.63762831687927 0.10189554095268
v 0.08890638500452 4.21939182281494 0.10649944841862
v 0.08890638500452 4.21939182281494 0.10377375781536
v 0.48587155342102 4.23507022857666 0.10153937339783
v 1.02578616142273 4.20187759399414 0.09562899172306
v 0.91094452142715 3.80747485160828 0.10558949410915
v 1.52005779743195 4.08557939529419 0.09081229567528
v 1.96816313266754 3.90242886543274 0.08221910893917
v 3.25405693054199 3.04607510566711 0.0579706504941
v 2.43705749511719 3.65178370475769 0.07938427478075
v 2.86591100692749 3.35631775856018 0.07938427478075
v 0.08890638500452 4.21939182281494 0.08874148130417
v 3.25405693054199 3.04607510566711 0.07938427478075
v 3.66237950325012 2.668208360672 0.07938427478075
v 0.40685135126114 3.9913330078125 0.10832772403955
v 3.99867486953735 2.27590012550354 0.07938427478075
v 4.7836422920227 0.74076730012894 0.07938427478075
v 0.48587155342102 4.23507022857666 0.08012574911118
v 4.90066909790039 0.27418607473373 0.07938427478075
v 2.43705749511719 3.65178370475769 0.0579706504941
v 1.02578616142273 4.20187759399414 0.07421536743641
v 1.96816313266754 3.90242886543274 0.06080548465252
v 1.52005779743195 4.08557939529419 0.06939867138863
# 47 vertices

vn -0.03943749889731 0.99918752908707 0
vn -0.01425000000745 0.99984377622604 0
vn -0.15562500059605 0.98778122663498 0
vn -0.02971874922514 -0.10871875286102 -0.99362498521805
vn -0.02456250041723 -0.09156250208616 -0.99546873569489
vn -0.02050000056624 -0.11856249719858 -0.99271875619888
vn -0.03271875157952 -0.07800000160933 -0.99640625715256
vn -0.02675000019372 -0.06440625339746 -0.99756252765656
vn 0.02040624991059 0.03396875038743 0.99918752908707
vn 0.01728124916553 0.04240624979138 0.99893748760223
vn 0.02365625090897 0.02934375032783 0.99928122758865
vn -0.0419062487781 -0.05190625041723 -0.99774998426437
vn -0.03828125074506 -0.04018750041723 -0.99843752384186
vn -0.04303124919534 -0.02975000068545 -0.99862498044968
vn -0.02921875007451 -0.02640625089407 -0.99921876192093
vn 0.0234375 0.00309374998324 0.9997187256813
vn 0.02700000070035 0.01156250014901 0.99956250190735
vn 0.01265625003725 0.00715625006706 0.99987500905991
vn -0.03412500023842 -0.01668749935925 -0.99924999475479
vn -0.02265625074506 -0.00962499994785 -0.99968749284744
vn -0.01934375055134 -0.00053125002887 -0.99978125095367
vn -0.00406249985099 -0.00050000002375 -0.99996876716614
vn 0.00006250000297 -0.02109375037253 0.99975001811981
vn 0.00453124986961 -0.01206250023097 0.99990624189377
vn -0.00899999961257 -0.01368749979883 0.99984377622604
vn -0.00312500004657 0.00081250001676 -0.99996876716614
vn 0 0 -1
vn -0.01174999959767 -0.00878124963492 0.99987500905991
vn -0.01165624987334 -0.01053125038743 0.99987500905991
vn -0.01156250014901 -0.00834374967963 0.99987500905991
vn -0.0112812500447 -0.00509375007823 0.99990624189377
vn -0.01137499976903 -0.00637499988079 0.99990624189377
vn -0.01121874991804 -0.0046250000596 0.99990624189377
vn -0.01096875034273 -0.00237499992363 0.99990624189377
vn -0.01109374966472 -0.00321875000373 0.99990624189377
vn -0.01090625021607 -0.00187499995809 0.99993747472763
vn -0.01075000036508 -0.00103124999441 0.99993747472763
vn -0.01068750023842 -0.00078125001164 0.99993747472763
vn 0.03037500008941 0.01584375090897 0.99940627813339
vn 0.91728127002716 0.39815625548363 0
vn 0.95693749189377 0.29018750786781 0
vn 0.85728126764297 0.51481252908707 0
vn 0.79171872138977 0.61084377765656 0
vn 0.99153125286102 0.12953124940395 0
vn 0.98581248521805 0.16768750548363 0
vn 0.65215623378754 0.75803124904633 0
vn 0.72040623426437 0.69349998235703 0
vn 0.59618747234344 0.80278122425079 0
vn 0.52015626430511 0.85399997234344 0
vn 0.30459374189377 0.95243752002716 0
vn 0.4254062473774 0.90493750572205 0
vn 0.14568750560284 0.9892812371254 0
vn 0.0277812499553 0.99956250190735 0
vn 0 0 0
vn 0.01018750015646 0.05821875110269 0.99821877479553
vn 0.01221875008196 0.05268749967217 0.99853122234344
vn 0.01462499983609 0.05065625160933 0.99859374761581
vn 0.01343750022352 -0.00899999961257 0.99984377622604
vn -0.0101250000298 -0.01321875024587 0.99984377622604
vn -0.01156250014901 -0.00684374989942 0.99990624189377
vn -0.01112500019372 -0.00368750002235 0.99990624189377
vn 0.21896874904633 -0.9756875038147 0
vn 0.0101250000298 0.06068750098348 0.99809372425079
vn 0.00528124999255 0.06159374862909 0.99806249141693
vn -0.02203124947846 -0.12528124451637 -0.99184376001358
vn -0.01324999984354 -0.12700000405312 -0.99178123474121
vn 0.9785937666893 0.20565624535084 0
vn -0.01059374958277 -0.00015624999651 0.99993747472763
# 68 normals

vt 0.04071163386106 0.02619135379791 0
vt 0.04052688926458 0.02643883228302 0
vt 0.07095213234425 0.04992151260376 0
vt 0.03964287042618 0.02762269973755 0
vt 0.00873767677695 0.00049734115601 0
vt 0.05553288012743 0.16844475269318 0
vt 0.0089939981699 0.18750870227814 0
vt 0.00620387401432 0.10958170890808 0
vt 0.09895816445351 0.26439428329468 0
vt 0.02345910295844 0.2926926612854 0
vt 0.05351627618074 0.38771677017212 0
vt 0.13734728097916 0.33013439178467 0
vt 0.18706795573235 0.40185105800629 0
vt 0.09597670286894 0.47271823883057 0
vt 0.15195423364639 0.56079292297363 0
vt 0.24018886685371 0.46595931053162 0
vt 0.30888473987579 0.53437787294388 0
vt 0.21611320972443 0.64036870002747 0
vt 0.28256359696388 0.71175915002823 0
vt 0.37310999631882 0.58645707368851 0
vt 0.450523853302 0.63776683807373 0
vt 0.36254745721817 0.78610056638718 0
vt 0.4442945420742 0.84613144397736 0
vt 0.52390885353088 0.67561620473862 0
vt 0.60995006561279 0.70864462852478 0
vt 0.54003548622131 0.90227729082108 0
vt 0.64371448755264 0.9461972117424 0
vt 0.69151937961578 0.73209637403488 0
vt 0.78767359256744 0.7503399848938 0
vt 0.75634169578552 0.9771112203598 0
vt 0.84939002990723 0.9931298494339 0
vt 0.88851094245911 0.75730764865875 0
vt 0.96131598949432 0.9992544054985 0
vt 0.76666522026062 0.57768154144287 0
vt 0.85227847099304 0.64161849021912 0
vt 0.85375219583511 0.63964515924454 0
vt 0.6835823059082 0.51256054639816 0
vt 0.59970825910568 0.44992280006409 0
vt 0.59823477268219 0.45189607143402 0
vt 0.9954127073288 0.74851274490356 0
vt 0.99688631296158 0.74653947353363 0
vt 0.92094498872757 0.68982547521591 0
vt 0.44186297059059 0.33511567115784 0
vt 0.52212703227997 0.39505803585052 0
vt 0.52360075712204 0.39308440685272 0
vt 0.3730762898922 0.28067088127136 0
vt 0.30128267407417 0.22705483436584 0
vt 0.29980891942978 0.22902822494507 0
vt 0.171980291605 0.13092350959778 0
vt 0.23055651783943 0.17665445804596 0
vt 0.23203028738499 0.17468106746674 0
vt 0.11889893561602 0.08709418773651 0
vt 0.06947842985392 0.05189490318298 0
vt 0.99776983261108 0.75052058696747 0
vt 0.00559741258621 0.42832088470459 0
vt 0.00820745807141 0.42828953266144 0
vt 0.00517370039597 0.17699456214905 0
vt 0.03360094875097 0.1020473241806 0
vt 0.01458645425737 0.00633335113525 0
vt 0.11742521077394 0.08906781673431 0
vt 0.37160256505013 0.28264474868774 0
vt 0.9194712638855 0.69179886579514 0
vt 0.68210881948471 0.51453387737274 0
vt 0.76813888549805 0.57570827007294 0
vt 0.44333666563034 0.33314251899719 0
vt 0.17345401644707 0.12894999980927 0
# 66 texture coordinates

o Blade
usemtl default
f 28/3/2 27/2/1 26/1/1
f 1/5/3 26/1/3 36/4/3
f 36/8/6 42/7/5 39/6/4
f 42/7/5 45/10/8 30/9/7
f 31/11/11 29/10/10 30/9/9
f 45/10/8 47/11/13 25/12/12
f 47/11/13 46/14/15 21/13/14
f 34/15/18 32/14/17 21/13/16
f 46/14/15 44/15/20 20/16/19
f 44/15/20 23/18/22 9/17/21
f 37/19/25 35/18/24 9/17/23
f 23/18/22 33/19/27 5/20/26
f 33/19/27 3/22/27 15/21/27
f 40/23/30 38/22/29 15/21/28
f 13/25/27 6/24/27 7/23/27
f 3/22/27 7/23/27 6/24/27
f 12/27/33 16/26/32 13/25/31
f 8/26/27 11/27/27 10/28/27
f 11/27/27 17/30/27 4/29/27
f 43/31/36 41/30/35 4/29/34
f 14/33/38 43/31/36 24/32/37
f 25/12/39 21/13/16 32/14/17
f 41/36/41 17/35/41 11/34/40
f 7/39/43 40/38/43 16/37/42
f 43/42/45 14/41/44 19/40/44
f 38/45/47 3/44/47 33/43/46
f 44/48/49 34/47/49 35/46/48
f 32/51/51 46/50/51 47/49/50
f 42/53/53 28/3/2 29/52/52
f 27/2/54 36/4/54 26/1/54
f 39/6/57 28/7/56 26/8/55
f 20/16/58 9/17/23 35/18/24
f 5/20/59 15/21/28 38/22/29
f 6/24/60 13/25/31 16/26/32
f 10/28/61 4/29/34 41/30/35
f 22/31/27 19/33/27 18/54/27
f 18/57/62 19/56/62 14/55/62
f 1/59/64 2/58/63 26/8/55
f 1/59/66 36/8/6 2/58/65
f 47/49/50 45/60/52 29/52/52
f 4/29/27 17/30/27 22/31/27
f 44/48/49 46/50/51 32/51/51
f 33/43/46 23/61/48 35/46/48
f 7/39/43 3/44/47 38/45/47
f 41/36/41 43/42/45 22/62/67
f 11/34/40 8/63/42 16/37/42
f 39/6/57 30/9/9 29/10/10
f 2/58/65 36/8/6 39/6/4
f 39/6/4 42/7/5 30/9/7
f 25/12/39 31/11/11 30/9/9
f 30/9/7 45/10/8 25/12/12
f 25/12/12 47/11/13 21/13/14
f 20/16/58 34/15/18 21/13/16
f 21/13/14 46/14/15 20/16/19
f 20/16/19 44/15/20 9/17/21
f 5/20/59 37/19/25 9/17/23
f 9/17/21 23/18/22 5/20/26
f 5/20/26 33/19/27 15/21/27
f 6/24/60 40/23/30 15/21/28
f 8/26/27 13/25/27 7/23/27
f 15/21/27 3/22/27 6/24/27
f 10/28/61 12/27/33 13/25/31
f 13/25/27 8/26/27 10/28/27
f 10/28/27 11/27/27 4/29/27
f 24/32/37 43/31/36 4/29/34
f 18/54/68 14/33/38 24/32/37
f 31/11/11 25/12/39 32/14/17
f 12/64/40 41/36/41 11/34/40
f 8/63/42 7/39/43 16/37/42
f 22/62/67 43/42/45 19/40/44
f 37/65/46 38/45/47 33/43/46
f 23/61/48 44/48/49 35/46/48
f 31/66/50 32/51/51 47/49/50
f 45/60/52 42/53/53 29/52/52
f 2/58/63 39/6/57 26/8/55
f 34/15/18 20/16/58 35/18/24
f 37/19/25 5/20/59 38/22/29
f 40/23/30 6/24/60 16/26/32
f 12/27/33 10/28/61 41/30/35
f 24/32/27 22/31/27 18/54/27
f 31/66/50 47/49/50 29/52/52
f 24/32/27 4/29/27 22/31/27
f 34/47/49 44/48/49 32/51/51
f 37/65/46 33/43/46 35/46/48
f 40/38/43 7/39/43 38/45/47
f 17/35/41 41/36/41 22/62/67
f 12/64/40 11/34/40 16/37/42
f 28/7/56 39/6/57 29/10/10
f 36/4/1 27/2/1 28/3/2
f 42/53/53 36/4/1 28/3/2

