# WaveFront *.obj file (generated by CINEMA 4D)

mtllib ./16.mtl

v -0.21805599331856 0.89203298091888 -0.29318600893021
v -0.15726099908352 0.8752110004425 -0.32126700878143
v -0.11880499869585 0.86749601364136 -0.33402401208878
v -0.18231800198555 0.88140898942947 -0.31095200777054
v -0.31022399663925 0.77353698015213 -0.37916299700737
v -0.2223110049963 0.74887400865555 -0.42027398943901
v -0.16632799804211 0.73795998096466 -0.4383729994297
v -0.19963400065899 0.82348102331162 -0.36450499296188
v -0.22574600577354 0.82288897037506 -0.3598630130291
v -0.18196499347687 0.82575702667236 -0.3660010099411
v -0.18334400653839 0.82878601551056 -0.36306899785995
v -0.17164300382137 0.83601301908493 -0.3590390086174
v -0.17024900019169 0.83370798826218 -0.36133798956871
v -0.19106900691986 0.82140398025513 -0.36802101135254
v -0.19291499257088 0.82486301660538 -0.36462101340294
v -0.1990630030632 0.81914800405502 -0.3684209883213
v -0.22249199450016 0.81861698627472 -0.3642550110817
v -0.23414899408817 0.82320302724838 -0.35792499780655
v -0.23304200172424 0.82430201768875 -0.3571799993515
v -0.20285600423813 0.79922902584076 -0.38515400886536
v -0.20236100256443 0.79363298416138 -0.39016300439835
v -0.19800800085068 0.79982799291611 -0.38558599352837
v -0.19891299307346 0.79702401161194 -0.38786900043488
v -0.1943019926548 0.78488397598267 -0.39943599700928
v -0.20338700711727 0.78566801548004 -0.39695200324059
v -0.16166499257088 0.84567201137543 -0.35253399610519
v -0.15440599620342 0.84267699718475 -0.35659700632095
v -0.15642499923706 0.83720898628235 -0.36099699139595
v -0.15923300385475 0.83436799049377 -0.3629370033741
v -0.16240425407887 0.83971434831619 -0.35761725902557
v -0.16801400482655 0.84370398521423 -0.35300600528717
v -0.15594300627708 0.84511601924896 -0.35415399074554
# 32 vertices

vn -0.14692808687687 0.65249359607697 -0.74341386556625
vn -0.14700491726398 0.65250933170319 -0.74338489770889
vn -0.14700952172279 0.65251386165619 -0.74338006973267
vn 0 0 0
vn -0.14678181707859 0.65254092216492 -0.74340122938156
vn -0.1468099206686 0.65239197015762 -0.74352639913559
vn -0.13485504686832 0.65258711576462 -0.74561661481857
vn -0.11773055791855 0.64914327859879 -0.75150012969971
vn -0.1310595870018 0.65243566036224 -0.74642550945282
vn -0.14685900509357 0.65255886316299 -0.74337029457092
vn -0.14701031148434 0.65253001451492 -0.74336570501328
vn -0.11668718606234 0.64865666627884 -0.75208282470703
vn -0.14699374139309 0.65257054567337 -0.74333333969116
vn -0.14698332548141 0.65252339839935 -0.74337685108185
vn -0.1469694674015 0.65246820449829 -0.74342799186707
vn -0.14693927764893 0.65239292383194 -0.7435000538826
vn -0.14697657525539 0.65245854854584 -0.74343508481979
vn -0.14699260890484 0.65246361494064 -0.74342751502991
vn -0.14701923727989 0.65243285894394 -0.74344921112061
vn -0.14699354767799 0.65250533819199 -0.74339061975479
vn -0.14686408638954 0.65261399745941 -0.74332082271576
vn -0.14698737859726 0.65249812602997 -0.74339824914932
vn -0.14702264964581 0.65247023105621 -0.74341577291489
vn -0.14700523018837 0.65250200033188 -0.74339133501053
vn -0.14693473279476 0.65254324674606 -0.74336898326874
vn -0.14707309007645 0.65235829353333 -0.74350398778915
vn -0.14705863595009 0.65234214067459 -0.74352103471756
vn -0.14711767435074 0.65225869417191 -0.74358254671097
vn -0.14702740311623 0.65251505374908 -0.74337548017502
vn -0.14691613614559 0.65241730213165 -0.74348324537277
vn -0.1570371389389 0.65752995014191 -0.73688107728958
vn -0.16388194262981 0.65867829322815 -0.73436069488525
vn -0.16722537577152 0.66090041399002 -0.73160535097122
# 33 normals

vt 0.789047062397 0.20850026607513 0
vt 0.80475294589996 0.22446858882904 0
vt 0.81492269039154 0.19772434234619 0
vt 0 1 0
vt 0.77217793464661 0.19769299030304 0
vt 0.76657468080521 0.21698331832886 0
vt 0.14142699539661 0.3034690618515 0
vt 0.67058598995209 0.91976898908615 0
vt 0.75820702314377 0.79151797294617 0
vt 0.78006941080093 0.18814754486084 0
vt 0.81104099750519 0.18895721435547 0
vt 0.01975099928677 0.48571002483368 0
vt 0.84764492511749 0.17491137981415 0
vt 0.84388649463654 0.16346955299377 0
vt 0.8742995262146 0.16350400447845 0
vt 0.86933022737503 0.15034461021423 0
vt 0.89154177904129 0.14456272125244 0
vt 0.89288872480392 0.16050279140472 0
vt 0.95561993122101 0.14978742599487 0
vt 0.89228397607803 0.06277167797089 0
vt 0.88961064815521 0.07294070720673 0
vt 0.90315133333206 0.07235467433929 0
vt 0.90210115909576 0.0512660741806 0
vt 0.87993574142456 0.0153352022171 0
vt 0.90544575452805 0.02162575721741 0
vt 0.98656862974167 0.16974127292633 0
vt 0.96402877569199 0.16614365577698 0
vt 0.98349148035049 0.17334485054016 0
vt 0.78701615333557 0.22980666160583 0
vt 0.77094876766205 0.22622978687286 0
vt 0.83676099777222 0.70418602228165 0
vt 0.40536499023438 0.023756980896 0
vt 0.94095802307129 0.59823000431061 0
# 33 texture coordinates

o 16_DHD_symbols_outer_Cylinder.018
usemtl default
f 12/3/3 31/2/2 30/1/1
f 30/1/1 27/6/6 28/5/5
f 2/9/9 3/8/8 6/7/7
f 28/5/5 29/10/10 30/1/1
f 29/10/10 13/11/11 30/1/1
f 7/12/12 6/7/7 3/8/8
f 13/11/11 10/14/14 11/13/13
f 10/14/14 14/16/16 15/15/15
f 11/13/13 10/14/14 15/15/15
f 14/16/16 16/17/17 15/15/15
f 16/17/17 17/19/19 8/18/18
f 20/22/22 22/21/21 23/20/20
f 20/22/22 23/20/20 21/23/23
f 23/20/20 24/24/24 21/23/23
f 24/24/24 25/25/25 21/23/23
f 21/23/23 18/26/26 17/19/19
f 18/26/26 19/28/28 9/27/27
f 17/19/19 18/26/26 9/27/27
f 17/19/19 20/22/22 21/23/23
f 31/2/2 26/29/29 30/1/1
f 26/29/29 32/30/30 30/1/1
f 6/7/7 5/32/32 4/31/31
f 32/30/30 27/6/6 30/1/1
f 2/9/9 6/7/7 4/31/31
f 17/19/19 9/27/27 8/18/18
f 30/1/1 13/11/11 12/3/3
f 12/3/3 13/11/11 11/13/13
f 5/32/32 1/33/33 4/31/31
f 16/17/17 8/18/18 15/15/15

