# WaveFront *.obj file (generated by CINEMA 4D)

mtllib ./26.mtl

v -0.17672842741013 0.99815195798874 -0.22376595437527
v -0.15855300426483 1.05933105945587 -0.166777998209
v -0.20849800109863 0.93948799371719 -0.26739299297333
v -0.27045398950577 0.97109097242355 -0.21479800343513
v -0.23264800012112 0.9490219950676 -0.25127500295639
v -0.19492995738983 0.97282660007477 -0.24271067976952
v -0.19984152913094 0.97323566675186 -0.24057058990002
v -0.19777998328209 0.97659081220627 -0.23798459768295
v -0.23104651272297 0.99783170223236 -0.20524954795837
v -0.18443179130554 1.0255583524704 -0.19433379173279
v -0.18056507408619 1.03261947631836 -0.18872509896755
v -0.1726503521204 1.02244365215302 -0.20157399773598
v -0.18072989583015 1.02103006839752 -0.20011499524117
v -0.21977855265141 0.99816846847534 -0.20889918506145
v -0.1915534734726 0.98039925098419 -0.23642435669899
v -0.18972496688366 0.98327714204788 -0.23422659933567
v -0.18632127344608 0.98236668109894 -0.23632797598839
v -0.19035241007805 0.9808874130249 -0.23636600375175
v -0.18694886565208 1.00117266178131 -0.21717052161694
v -0.17909952998161 1.00436186790466 -0.21679493784904
v -0.12218700349331 1.04077696800232 -0.19764199852943
v -0.17048355937004 1.00862300395966 -0.21563027799129
v -0.17385928332806 1.00979125499725 -0.21328377723694
v -0.18747548758984 1.00406920909882 -0.21412417292595
# 24 vertices

vn -0.24381746351719 0.68148994445801 -0.69001770019531
vn -0.24377861618996 0.68150997161865 -0.69001173973084
vn -0.24379913508892 0.68152153491974 -0.68999308347702
vn 0 0 0
vn -0.24385534226894 0.68144971132278 -0.69004410505295
vn -0.24382299184799 0.68149018287659 -0.6900155544281
vn -0.24353276193142 0.68158358335495 -0.690025806427
vn -0.24362488090992 0.68163585662842 -0.68994164466858
vn -0.24357458949089 0.68163728713989 -0.68995797634125
vn -0.24371068179607 0.68152165412903 -0.69002419710159
vn -0.24375376105309 0.6815265417099 -0.6900041103363
vn -0.24389354884624 0.68150901794434 -0.68997204303741
vn -0.24384579062462 0.68158406019211 -0.68991482257843
vn -0.24382822215557 0.68154442310333 -0.6899601817131
vn -0.243822067976 0.68155300617218 -0.68995386362076
vn -0.24382625520229 0.68155086040497 -0.68995451927185
vn -0.2438231408596 0.68154203891754 -0.68996429443359
vn -0.24385267496109 0.681511759758 -0.68998372554779
vn -0.24384792149067 0.68152332305908 -0.68997406959534
vn -0.23277652263641 0.68185812234879 -0.69345837831497
vn -0.21072843670845 0.66985028982162 -0.71196496486664
vn -0.22288437187672 0.67784488201141 -0.70060604810715
vn -0.24383133649826 0.6814786195755 -0.69002401828766
vn -0.2437162399292 0.68761366605759 -0.68395167589188
vn -0.2524422109127 0.68954575061798 -0.67882215976715
# 25 normals

vt 0.82552027702332 0.13435232639313 0
vt 0.80331188440323 0.15005469322205 0
vt 0.81442022323608 0.15469777584076 0
vt 0 1 0
vt 0.84641724824905 0.12264657020569 0
vt 0.81309252977371 0.11034274101257 0
vt 0.83937913179398 0.0431877374649 0
vt 0.82833176851273 0.04874336719513 0
vt 0.83949321508408 0.05259728431702 0
vt 0.84263330698013 0.04134261608124 0
vt 0.84655469655991 0.01139640808105 0
vt 0.85846430063248 0.02668106555939 0
vt 0.86197358369827 0.01343238353729 0
vt 0.82117247581482 0.20170319080353 0
vt 0.85289567708969 0.23970401287079 0
vt 0.85857951641083 0.21390604972839 0
vt 0.84395056962967 0.1968834400177 0
vt 0.942163169384 0.11273074150085 0
vt 0.97556591033936 0.11218762397766 0
vt 0.13993699848652 0.30012404918671 0
vt 0.01595200039446 0.48748600482941 0
vt 0.67175900936127 0.91725301742554 0
vt 0.85039359331131 0.13376903533936 0
vt 0.93766301870346 0.59804904460907 0
vt 0.40640100836754 0.0198700428009 0
# 25 texture coordinates

o 26_DHD_symbols_outer_Cylinder.046
usemtl default
f 23/3/3 22/2/2 20/1/1
f 20/1/1 1/6/6 19/5/5
f 16/9/9 17/8/8 18/7/7
f 18/7/7 6/11/11 15/10/10
f 6/11/11 7/13/13 8/12/12
f 6/11/11 8/12/12 15/10/10
f 15/10/10 16/9/9 18/7/7
f 10/16/16 11/15/15 12/14/14
f 10/16/16 12/14/14 13/17/17
f 9/19/19 10/16/16 14/18/18
f 21/22/22 3/21/21 5/20/20
f 15/10/10 8/12/12 14/18/18
f 8/12/12 9/19/19 14/18/18
f 10/16/16 13/17/17 14/18/18
f 24/23/23 23/3/3 20/1/1
f 5/20/20 4/25/25 2/24/24
f 20/1/1 22/2/2 1/6/6
f 2/24/24 21/22/22 5/20/20
f 19/5/5 24/23/23 20/1/1

