# WaveFront *.obj file (generated by CINEMA 4D)

mtllib ./33.mtl

v 0.31070357561111 1.10679340362549 -0.02515646442771
v 0.27964854240417 1.10206496715546 -0.05391738563776
v 0.32052701711655 1.08459496498108 -0.05639315396547
v 0.20420600473881 1.10839200019836 -0.08489699661732
v 0.34894898533821 1.0822240114212 -0.02984200045466
v 0.28747895359993 1.10106289386749 -0.05040057376027
v 0.25833368301392 1.09543669223785 -0.07941479980946
v 0.25614267587662 1.09656596183777 -0.07895191758871
v 0.3085024356842 1.10791230201721 -0.02472016215324
v 0.20529200136662 1.13484597206116 -0.04109900072217
v 0.34589800238609 1.09872794151306 -0.00237399991602
v 0.3441190123558 1.05382597446442 -0.07710299640894
v 0.30669459700584 1.09923112392426 -0.04070308804512
v 0.26034915447235 1.10404491424561 -0.06341758370399
v 0.24675698578358 1.11870014667511 -0.04753636196256
# 15 vertices

vn 0.32005676627159 0.81687259674072 -0.47987797856331
vn 0.32006603479385 0.81686758995056 -0.47988033294678
vn 0.32007923722267 0.81685996055603 -0.47988450527191
vn 0 0 0
vn 0.32004746794701 0.81687760353088 -0.4798755645752
vn 0.32003423571587 0.81688523292542 -0.47987139225006
vn 0.31994214653969 0.8169007897377 -0.4799063205719
vn 0.31985008716583 0.81692951917648 -0.4799188375473
vn 0.31986629962921 0.81693440675735 -0.47989970445633
vn 0.32001799345016 0.81686717271805 -0.47991299629211
vn 0.33520671725273 0.81341105699539 -0.47539347410202
vn 0.33503636717796 0.79747033119202 -0.50178855657578
vn 0.33588573336601 0.80622386932373 -0.48701527714729
vn 0.33705475926399 0.79140013456345 -0.50998026132584
vn 0.32003423571587 0.81687206029892 -0.47989386320114
vn 0.33728641271591 0.82301509380341 -0.45703831315041
# 16 normals

vt 0.84906953573227 0.16138434410095 0
vt 0.7686852812767 0.22955870628357 0
vt 0.77655535936356 0.24212241172791 0
vt 0 1 0
vt 0.97137719392776 0.19583380222321 0
vt 0.85218954086304 0.00998210906982 0
vt 0.85552626848221 0.15663146972656 0
vt 0.77591532468796 0.22294771671295 0
vt 0.78332793712616 0.2354679107666 0
vt 0.86109346151352 0.00763940811157 0
vt 0.66996902227402 0.91712301969528 0
vt 0.94045001268387 0.59542000293732 0
vt 0.14440900087357 0.29552698135376 0
vt 0.40561100840569 0.02348804473877 0
vt 0.97584122419357 0.19222593307495 0
vt 0.01745999976993 0.48864197731018 0
# 16 texture coordinates

o 33_DHD_symbols_outer_Cylinder.053
usemtl default
f 9/3/3 1/2/2 13/1/1
f 3/6/6 6/5/5 13/1/1
f 1/2/2 3/6/6 13/1/1
f 7/9/9 8/8/8 14/7/7
f 14/7/7 8/8/8 15/10/10
f 13/1/1 6/5/5 9/3/3
f 5/13/13 4/12/12 10/11/11
f 5/13/13 12/14/14 4/12/12
f 14/7/7 15/10/10 2/15/15
f 2/15/15 7/9/9 14/7/7
f 10/11/11 11/16/16 5/13/13

